G04 Layer: BottomLayer*
G04 EasyEDA v6.4.21, 2021-08-27T10:15:53+02:00*
G04 9e47797760d14a1ba145978a01478d27,3a21a940fc264e4589df007fb316c5b6,10*
G04 Gerber Generator version 0.2*
G04 Scale: 100 percent, Rotated: No, Reflected: No *
G04 Dimensions in millimeters *
G04 leading zeros omitted , absolute positions ,4 integer and 5 decimal *
%FSLAX45Y45*%
%MOMM*%

%ADD11C,0.8000*%
%ADD12R,1.9000X1.9000*%
%ADD14R,1.8000X2.2000*%
%ADD15R,1.8000X1.8000*%
%ADD16C,1.8000*%
%ADD17R,1.6000X0.9000*%
%ADD18C,0.9000*%

%LPD*%
G36*
X3338068Y279908D02*
G01*
X3334156Y280670D01*
X3330905Y282905D01*
X3328670Y286156D01*
X3327908Y290068D01*
X3327908Y9107932D01*
X3328670Y9111843D01*
X3330905Y9115094D01*
X3334156Y9117330D01*
X3338068Y9118092D01*
X9869932Y9118092D01*
X9873843Y9117330D01*
X9877094Y9115094D01*
X9879330Y9111843D01*
X9880092Y9107932D01*
X9880092Y290068D01*
X9879330Y286156D01*
X9877094Y282905D01*
X9873843Y280670D01*
X9869932Y279908D01*
G37*

%LPC*%
G36*
X4369358Y372110D02*
G01*
X4407408Y372110D01*
X4413758Y372821D01*
X4419193Y374700D01*
X4424121Y377799D01*
X4428185Y381863D01*
X4431284Y386791D01*
X4433214Y392226D01*
X4433925Y398576D01*
X4433925Y446633D01*
X4369358Y446633D01*
G37*
G36*
X4228592Y372110D02*
G01*
X4266641Y372110D01*
X4266641Y446633D01*
X4202074Y446633D01*
X4202074Y398576D01*
X4202785Y392226D01*
X4204716Y386791D01*
X4207814Y381863D01*
X4211878Y377799D01*
X4216806Y374700D01*
X4222242Y372821D01*
G37*
G36*
X6909358Y372110D02*
G01*
X6947408Y372110D01*
X6953758Y372821D01*
X6959193Y374700D01*
X6964121Y377799D01*
X6968185Y381863D01*
X6971284Y386791D01*
X6973214Y392226D01*
X6973925Y398576D01*
X6973925Y446633D01*
X6909358Y446633D01*
G37*
G36*
X6768592Y372110D02*
G01*
X6806641Y372110D01*
X6806641Y446633D01*
X6742074Y446633D01*
X6742074Y398576D01*
X6742785Y392226D01*
X6744716Y386791D01*
X6747814Y381863D01*
X6751878Y377799D01*
X6756806Y374700D01*
X6762242Y372821D01*
G37*
G36*
X7104735Y372364D02*
G01*
X7119264Y372364D01*
X7133691Y374142D01*
X7147814Y377799D01*
X7161326Y383133D01*
X7174077Y390144D01*
X7185863Y398729D01*
X7196480Y408686D01*
X7205776Y419862D01*
X7213549Y432155D01*
X7215479Y436270D01*
X7217714Y439318D01*
X7220915Y441401D01*
X7224674Y442112D01*
X7265619Y442112D01*
X7269937Y441147D01*
X7273442Y438404D01*
X7281519Y428650D01*
X7292136Y418693D01*
X7303922Y410159D01*
X7316673Y403148D01*
X7330186Y397764D01*
X7344308Y394157D01*
X7358735Y392328D01*
X7373264Y392328D01*
X7387691Y394157D01*
X7401814Y397764D01*
X7415326Y403148D01*
X7428077Y410159D01*
X7439863Y418693D01*
X7450480Y428650D01*
X7459776Y439877D01*
X7467549Y452170D01*
X7473746Y465328D01*
X7478268Y479196D01*
X7480960Y493471D01*
X7481874Y508000D01*
X7480960Y522528D01*
X7478268Y536803D01*
X7473746Y550672D01*
X7467549Y563829D01*
X7459776Y576122D01*
X7450480Y587349D01*
X7439863Y597306D01*
X7428077Y605840D01*
X7415326Y612851D01*
X7401814Y618236D01*
X7387691Y621842D01*
X7373264Y623671D01*
X7358735Y623671D01*
X7344308Y621842D01*
X7330186Y618236D01*
X7316673Y612851D01*
X7303922Y605840D01*
X7292136Y597306D01*
X7281519Y587349D01*
X7273442Y577596D01*
X7269937Y574852D01*
X7265619Y573887D01*
X7224674Y573887D01*
X7220915Y574598D01*
X7217714Y576681D01*
X7215479Y579729D01*
X7213549Y583844D01*
X7205776Y596138D01*
X7196480Y607314D01*
X7185863Y617270D01*
X7174077Y625856D01*
X7161326Y632866D01*
X7147814Y638200D01*
X7133691Y641858D01*
X7119264Y643636D01*
X7104735Y643636D01*
X7090308Y641858D01*
X7076186Y638200D01*
X7062673Y632866D01*
X7049922Y625856D01*
X7038136Y617270D01*
X7027519Y607314D01*
X7018223Y596138D01*
X7010450Y583844D01*
X7004253Y570636D01*
X6999731Y556818D01*
X6997039Y542544D01*
X6996074Y527659D01*
X6996074Y488340D01*
X6997039Y473456D01*
X6999731Y459181D01*
X7004253Y445363D01*
X7010450Y432155D01*
X7018223Y419862D01*
X7027519Y408686D01*
X7038136Y398729D01*
X7049922Y390144D01*
X7062673Y383133D01*
X7076186Y377799D01*
X7090308Y374142D01*
G37*
G36*
X5072735Y372364D02*
G01*
X5087264Y372364D01*
X5101691Y374142D01*
X5115814Y377799D01*
X5129326Y383133D01*
X5142077Y390144D01*
X5153863Y398729D01*
X5164480Y408686D01*
X5173776Y419862D01*
X5181549Y432155D01*
X5187746Y445363D01*
X5192268Y459181D01*
X5194960Y473456D01*
X5195925Y488340D01*
X5195925Y527659D01*
X5194960Y542544D01*
X5192268Y556818D01*
X5187746Y570636D01*
X5181549Y583844D01*
X5173776Y596138D01*
X5164480Y607314D01*
X5153863Y617270D01*
X5150104Y620014D01*
X5147868Y622300D01*
X5146395Y625094D01*
X5145887Y628243D01*
X5145887Y895756D01*
X5146395Y898906D01*
X5147868Y901700D01*
X5150104Y903986D01*
X5153863Y906729D01*
X5164480Y916686D01*
X5173776Y927862D01*
X5181549Y940155D01*
X5187746Y953363D01*
X5192268Y967181D01*
X5194960Y981456D01*
X5195925Y996340D01*
X5195925Y1035659D01*
X5194960Y1050544D01*
X5192268Y1064818D01*
X5187746Y1078636D01*
X5181549Y1091844D01*
X5173776Y1104138D01*
X5164480Y1115314D01*
X5153863Y1125270D01*
X5142077Y1133856D01*
X5129326Y1140866D01*
X5115814Y1146200D01*
X5101691Y1149858D01*
X5087264Y1151636D01*
X5072735Y1151636D01*
X5058308Y1149858D01*
X5044186Y1146200D01*
X5030673Y1140866D01*
X5017922Y1133856D01*
X5006136Y1125270D01*
X4995519Y1115314D01*
X4986223Y1104138D01*
X4978450Y1091844D01*
X4972253Y1078636D01*
X4967732Y1064818D01*
X4965039Y1050544D01*
X4964074Y1035659D01*
X4964074Y996340D01*
X4965039Y981456D01*
X4967732Y967181D01*
X4972253Y953363D01*
X4978450Y940155D01*
X4986223Y927862D01*
X4995519Y916686D01*
X5006136Y906729D01*
X5009896Y903986D01*
X5012131Y901700D01*
X5013604Y898906D01*
X5014112Y895756D01*
X5014112Y628243D01*
X5013604Y625094D01*
X5012131Y622300D01*
X5009896Y620014D01*
X5006136Y617270D01*
X4995519Y607314D01*
X4986223Y596138D01*
X4978450Y583844D01*
X4972253Y570636D01*
X4967732Y556818D01*
X4965039Y542544D01*
X4964074Y527659D01*
X4964074Y488340D01*
X4965039Y473456D01*
X4967732Y459181D01*
X4972253Y445363D01*
X4978450Y432155D01*
X4986223Y419862D01*
X4995519Y408686D01*
X5006136Y398729D01*
X5017922Y390144D01*
X5030673Y383133D01*
X5044186Y377799D01*
X5058308Y374142D01*
G37*
G36*
X6088735Y372364D02*
G01*
X6103264Y372364D01*
X6117691Y374142D01*
X6131814Y377799D01*
X6145326Y383133D01*
X6158077Y390144D01*
X6169863Y398729D01*
X6180480Y408686D01*
X6189776Y419862D01*
X6197549Y432155D01*
X6203746Y445363D01*
X6208268Y459181D01*
X6210960Y473456D01*
X6211925Y488340D01*
X6211925Y527659D01*
X6210960Y542544D01*
X6208268Y556818D01*
X6203746Y570636D01*
X6197549Y583844D01*
X6189776Y596138D01*
X6180480Y607314D01*
X6169863Y617270D01*
X6166104Y620014D01*
X6163868Y622300D01*
X6162395Y625094D01*
X6161887Y628243D01*
X6161887Y895756D01*
X6162395Y898906D01*
X6163868Y901700D01*
X6166104Y903986D01*
X6169863Y906729D01*
X6180480Y916686D01*
X6189776Y927862D01*
X6197549Y940155D01*
X6203746Y953363D01*
X6208268Y967181D01*
X6210960Y981456D01*
X6211925Y996340D01*
X6211925Y1035659D01*
X6210960Y1050544D01*
X6208268Y1064818D01*
X6203746Y1078636D01*
X6197549Y1091844D01*
X6189776Y1104138D01*
X6180480Y1115314D01*
X6169863Y1125270D01*
X6158077Y1133856D01*
X6145326Y1140866D01*
X6131814Y1146200D01*
X6117691Y1149858D01*
X6103264Y1151636D01*
X6088735Y1151636D01*
X6074308Y1149858D01*
X6060186Y1146200D01*
X6046673Y1140866D01*
X6033922Y1133856D01*
X6022136Y1125270D01*
X6011519Y1115314D01*
X6002223Y1104138D01*
X5994450Y1091844D01*
X5988253Y1078636D01*
X5983732Y1064818D01*
X5981039Y1050544D01*
X5980074Y1035659D01*
X5980074Y996340D01*
X5981039Y981456D01*
X5983732Y967181D01*
X5988253Y953363D01*
X5994450Y940155D01*
X6002223Y927862D01*
X6011519Y916686D01*
X6022136Y906729D01*
X6025896Y903986D01*
X6028131Y901700D01*
X6029604Y898906D01*
X6030112Y895756D01*
X6030112Y628243D01*
X6029604Y625094D01*
X6028131Y622300D01*
X6025896Y620014D01*
X6022136Y617270D01*
X6011519Y607314D01*
X6002223Y596138D01*
X5994450Y583844D01*
X5988253Y570636D01*
X5983732Y556818D01*
X5981039Y542544D01*
X5980074Y527659D01*
X5980074Y488340D01*
X5981039Y473456D01*
X5983732Y459181D01*
X5988253Y445363D01*
X5994450Y432155D01*
X6002223Y419862D01*
X6011519Y408686D01*
X6022136Y398729D01*
X6033922Y390144D01*
X6046673Y383133D01*
X6060186Y377799D01*
X6074308Y374142D01*
G37*
G36*
X5834735Y372364D02*
G01*
X5849264Y372364D01*
X5863691Y374142D01*
X5877814Y377799D01*
X5891326Y383133D01*
X5904077Y390144D01*
X5915863Y398729D01*
X5926480Y408686D01*
X5935776Y419862D01*
X5943549Y432155D01*
X5949746Y445363D01*
X5954268Y459181D01*
X5956960Y473456D01*
X5957925Y488340D01*
X5957925Y527659D01*
X5956960Y542544D01*
X5954268Y556818D01*
X5949746Y570636D01*
X5943549Y583844D01*
X5935776Y596138D01*
X5926480Y607314D01*
X5915863Y617270D01*
X5912104Y620014D01*
X5909868Y622300D01*
X5908395Y625094D01*
X5907887Y628243D01*
X5907887Y895756D01*
X5908395Y898906D01*
X5909868Y901700D01*
X5912104Y903986D01*
X5915863Y906729D01*
X5926480Y916686D01*
X5935776Y927862D01*
X5943549Y940155D01*
X5949746Y953363D01*
X5954268Y967181D01*
X5956960Y981456D01*
X5957925Y996340D01*
X5957925Y1035659D01*
X5956960Y1050544D01*
X5954268Y1064818D01*
X5949746Y1078636D01*
X5943549Y1091844D01*
X5935776Y1104138D01*
X5926480Y1115314D01*
X5915863Y1125270D01*
X5904077Y1133856D01*
X5891326Y1140866D01*
X5877814Y1146200D01*
X5863691Y1149858D01*
X5849264Y1151636D01*
X5834735Y1151636D01*
X5820308Y1149858D01*
X5806186Y1146200D01*
X5792673Y1140866D01*
X5779922Y1133856D01*
X5768136Y1125270D01*
X5757519Y1115314D01*
X5748223Y1104138D01*
X5740450Y1091844D01*
X5734253Y1078636D01*
X5729732Y1064818D01*
X5727039Y1050544D01*
X5726074Y1035659D01*
X5726074Y996340D01*
X5727039Y981456D01*
X5729732Y967181D01*
X5734253Y953363D01*
X5740450Y940155D01*
X5748223Y927862D01*
X5757519Y916686D01*
X5768136Y906729D01*
X5771896Y903986D01*
X5774131Y901700D01*
X5775604Y898906D01*
X5776112Y895756D01*
X5776112Y628243D01*
X5775604Y625094D01*
X5774131Y622300D01*
X5771896Y620014D01*
X5768136Y617270D01*
X5757519Y607314D01*
X5748223Y596138D01*
X5740450Y583844D01*
X5734253Y570636D01*
X5729732Y556818D01*
X5727039Y542544D01*
X5726074Y527659D01*
X5726074Y488340D01*
X5727039Y473456D01*
X5729732Y459181D01*
X5734253Y445363D01*
X5740450Y432155D01*
X5748223Y419862D01*
X5757519Y408686D01*
X5768136Y398729D01*
X5779922Y390144D01*
X5792673Y383133D01*
X5806186Y377799D01*
X5820308Y374142D01*
G37*
G36*
X6342735Y372364D02*
G01*
X6357264Y372364D01*
X6371691Y374142D01*
X6385814Y377799D01*
X6399326Y383133D01*
X6412077Y390144D01*
X6423863Y398729D01*
X6434480Y408686D01*
X6443776Y419862D01*
X6451549Y432155D01*
X6457746Y445363D01*
X6462268Y459181D01*
X6464960Y473456D01*
X6465925Y488340D01*
X6465925Y527659D01*
X6464960Y542544D01*
X6462268Y556818D01*
X6457746Y570636D01*
X6451549Y583844D01*
X6443776Y596138D01*
X6434480Y607314D01*
X6423863Y617270D01*
X6420104Y620014D01*
X6417868Y622300D01*
X6416395Y625094D01*
X6415887Y628243D01*
X6415887Y895756D01*
X6416395Y898906D01*
X6417868Y901700D01*
X6420104Y903986D01*
X6423863Y906729D01*
X6434480Y916686D01*
X6443776Y927862D01*
X6451549Y940155D01*
X6457746Y953363D01*
X6462268Y967181D01*
X6464960Y981456D01*
X6465925Y996340D01*
X6465925Y1035659D01*
X6464960Y1050544D01*
X6462268Y1064818D01*
X6457746Y1078636D01*
X6451549Y1091844D01*
X6443776Y1104138D01*
X6434480Y1115314D01*
X6423863Y1125270D01*
X6412077Y1133856D01*
X6399326Y1140866D01*
X6385814Y1146200D01*
X6371691Y1149858D01*
X6357264Y1151636D01*
X6342735Y1151636D01*
X6328308Y1149858D01*
X6314186Y1146200D01*
X6300673Y1140866D01*
X6287922Y1133856D01*
X6276136Y1125270D01*
X6265519Y1115314D01*
X6256223Y1104138D01*
X6248450Y1091844D01*
X6242253Y1078636D01*
X6237732Y1064818D01*
X6235039Y1050544D01*
X6234074Y1035659D01*
X6234074Y996340D01*
X6235039Y981456D01*
X6237732Y967181D01*
X6242253Y953363D01*
X6248450Y940155D01*
X6256223Y927862D01*
X6265519Y916686D01*
X6276136Y906729D01*
X6279896Y903986D01*
X6282131Y901700D01*
X6283604Y898906D01*
X6284112Y895756D01*
X6284112Y628243D01*
X6283604Y625094D01*
X6282131Y622300D01*
X6279896Y620014D01*
X6276136Y617270D01*
X6265519Y607314D01*
X6256223Y596138D01*
X6248450Y583844D01*
X6242253Y570636D01*
X6237732Y556818D01*
X6235039Y542544D01*
X6234074Y527659D01*
X6234074Y488340D01*
X6235039Y473456D01*
X6237732Y459181D01*
X6242253Y445363D01*
X6248450Y432155D01*
X6256223Y419862D01*
X6265519Y408686D01*
X6276136Y398729D01*
X6287922Y390144D01*
X6300673Y383133D01*
X6314186Y377799D01*
X6328308Y374142D01*
G37*
G36*
X5326735Y372364D02*
G01*
X5341264Y372364D01*
X5355691Y374142D01*
X5369814Y377799D01*
X5383326Y383133D01*
X5396077Y390144D01*
X5407863Y398729D01*
X5418480Y408686D01*
X5427776Y419862D01*
X5435549Y432155D01*
X5441746Y445363D01*
X5446268Y459181D01*
X5448960Y473456D01*
X5449925Y488340D01*
X5449925Y527659D01*
X5448960Y542544D01*
X5446268Y556818D01*
X5441746Y570636D01*
X5435549Y583844D01*
X5427776Y596138D01*
X5418480Y607314D01*
X5407863Y617270D01*
X5404104Y620014D01*
X5401868Y622300D01*
X5400395Y625094D01*
X5399887Y628243D01*
X5399887Y895756D01*
X5400395Y898906D01*
X5401868Y901700D01*
X5404104Y903986D01*
X5407863Y906729D01*
X5418480Y916686D01*
X5427776Y927862D01*
X5435549Y940155D01*
X5441746Y953363D01*
X5446268Y967181D01*
X5448960Y981456D01*
X5449925Y996340D01*
X5449925Y1035659D01*
X5448960Y1050544D01*
X5446268Y1064818D01*
X5441746Y1078636D01*
X5435549Y1091844D01*
X5427776Y1104138D01*
X5418480Y1115314D01*
X5407863Y1125270D01*
X5396077Y1133856D01*
X5383326Y1140866D01*
X5369814Y1146200D01*
X5355691Y1149858D01*
X5341264Y1151636D01*
X5326735Y1151636D01*
X5312308Y1149858D01*
X5298186Y1146200D01*
X5284673Y1140866D01*
X5271922Y1133856D01*
X5260136Y1125270D01*
X5249519Y1115314D01*
X5240223Y1104138D01*
X5232450Y1091844D01*
X5226253Y1078636D01*
X5221732Y1064818D01*
X5219039Y1050544D01*
X5218074Y1035659D01*
X5218074Y996340D01*
X5219039Y981456D01*
X5221732Y967181D01*
X5226253Y953363D01*
X5232450Y940155D01*
X5240223Y927862D01*
X5249519Y916686D01*
X5260136Y906729D01*
X5263896Y903986D01*
X5266131Y901700D01*
X5267604Y898906D01*
X5268112Y895756D01*
X5268112Y628243D01*
X5267604Y625094D01*
X5266131Y622300D01*
X5263896Y620014D01*
X5260136Y617270D01*
X5249519Y607314D01*
X5240223Y596138D01*
X5232450Y583844D01*
X5226253Y570636D01*
X5221732Y556818D01*
X5219039Y542544D01*
X5218074Y527659D01*
X5218074Y488340D01*
X5219039Y473456D01*
X5221732Y459181D01*
X5226253Y445363D01*
X5232450Y432155D01*
X5240223Y419862D01*
X5249519Y408686D01*
X5260136Y398729D01*
X5271922Y390144D01*
X5284673Y383133D01*
X5298186Y377799D01*
X5312308Y374142D01*
G37*
G36*
X4818735Y372364D02*
G01*
X4833264Y372364D01*
X4847691Y374142D01*
X4861814Y377799D01*
X4875326Y383133D01*
X4888077Y390144D01*
X4899863Y398729D01*
X4910480Y408686D01*
X4919776Y419862D01*
X4927549Y432155D01*
X4933746Y445363D01*
X4938268Y459181D01*
X4940960Y473456D01*
X4941925Y488340D01*
X4941925Y527659D01*
X4940960Y542544D01*
X4938268Y556818D01*
X4933746Y570636D01*
X4927549Y583844D01*
X4919776Y596138D01*
X4910480Y607314D01*
X4899863Y617270D01*
X4896104Y620014D01*
X4893868Y622300D01*
X4892395Y625094D01*
X4891887Y628243D01*
X4891887Y895756D01*
X4892395Y898906D01*
X4893868Y901700D01*
X4896104Y903986D01*
X4899863Y906729D01*
X4910480Y916686D01*
X4919776Y927862D01*
X4927549Y940155D01*
X4933746Y953363D01*
X4938268Y967181D01*
X4940960Y981456D01*
X4941925Y996340D01*
X4941925Y1035659D01*
X4940960Y1050544D01*
X4938268Y1064818D01*
X4933746Y1078636D01*
X4927549Y1091844D01*
X4919776Y1104138D01*
X4910480Y1115314D01*
X4899863Y1125270D01*
X4888077Y1133856D01*
X4875326Y1140866D01*
X4861814Y1146200D01*
X4847691Y1149858D01*
X4833264Y1151636D01*
X4818735Y1151636D01*
X4804308Y1149858D01*
X4790186Y1146200D01*
X4776673Y1140866D01*
X4763922Y1133856D01*
X4752136Y1125270D01*
X4741519Y1115314D01*
X4732223Y1104138D01*
X4724450Y1091844D01*
X4718253Y1078636D01*
X4713732Y1064818D01*
X4711039Y1050544D01*
X4710074Y1035659D01*
X4710074Y996340D01*
X4711039Y981456D01*
X4713732Y967181D01*
X4718253Y953363D01*
X4724450Y940155D01*
X4732223Y927862D01*
X4741519Y916686D01*
X4752136Y906729D01*
X4755896Y903986D01*
X4758131Y901700D01*
X4759604Y898906D01*
X4760112Y895756D01*
X4760112Y628243D01*
X4759604Y625094D01*
X4758131Y622300D01*
X4755896Y620014D01*
X4752136Y617270D01*
X4741519Y607314D01*
X4732223Y596138D01*
X4724450Y583844D01*
X4718253Y570636D01*
X4713732Y556818D01*
X4711039Y542544D01*
X4710074Y527659D01*
X4710074Y488340D01*
X4711039Y473456D01*
X4713732Y459181D01*
X4718253Y445363D01*
X4724450Y432155D01*
X4732223Y419862D01*
X4741519Y408686D01*
X4752136Y398729D01*
X4763922Y390144D01*
X4776673Y383133D01*
X4790186Y377799D01*
X4804308Y374142D01*
G37*
G36*
X5580735Y372364D02*
G01*
X5595264Y372364D01*
X5609691Y374142D01*
X5623814Y377799D01*
X5637326Y383133D01*
X5650077Y390144D01*
X5661863Y398729D01*
X5672480Y408686D01*
X5681776Y419862D01*
X5689549Y432155D01*
X5695746Y445363D01*
X5700268Y459181D01*
X5702960Y473456D01*
X5703925Y488340D01*
X5703925Y527659D01*
X5702960Y542544D01*
X5700268Y556818D01*
X5695746Y570636D01*
X5689549Y583844D01*
X5681776Y596138D01*
X5672480Y607314D01*
X5661863Y617270D01*
X5658104Y620014D01*
X5655868Y622300D01*
X5654395Y625094D01*
X5653887Y628243D01*
X5653887Y895756D01*
X5654395Y898906D01*
X5655868Y901700D01*
X5658104Y903986D01*
X5661863Y906729D01*
X5672480Y916686D01*
X5681776Y927862D01*
X5689549Y940155D01*
X5695746Y953363D01*
X5700268Y967181D01*
X5702960Y981456D01*
X5703925Y996340D01*
X5703925Y1035659D01*
X5702960Y1050544D01*
X5700268Y1064818D01*
X5695746Y1078636D01*
X5689549Y1091844D01*
X5681776Y1104138D01*
X5672480Y1115314D01*
X5661863Y1125270D01*
X5650077Y1133856D01*
X5637326Y1140866D01*
X5623814Y1146200D01*
X5609691Y1149858D01*
X5595264Y1151636D01*
X5580735Y1151636D01*
X5566308Y1149858D01*
X5552186Y1146200D01*
X5538673Y1140866D01*
X5525922Y1133856D01*
X5514136Y1125270D01*
X5503519Y1115314D01*
X5494223Y1104138D01*
X5486450Y1091844D01*
X5480253Y1078636D01*
X5475732Y1064818D01*
X5473039Y1050544D01*
X5472074Y1035659D01*
X5472074Y996340D01*
X5473039Y981456D01*
X5475732Y967181D01*
X5480253Y953363D01*
X5486450Y940155D01*
X5494223Y927862D01*
X5503519Y916686D01*
X5514136Y906729D01*
X5517896Y903986D01*
X5520131Y901700D01*
X5521604Y898906D01*
X5522112Y895756D01*
X5522112Y628243D01*
X5521604Y625094D01*
X5520131Y622300D01*
X5517896Y620014D01*
X5514136Y617270D01*
X5503519Y607314D01*
X5494223Y596138D01*
X5486450Y583844D01*
X5480253Y570636D01*
X5475732Y556818D01*
X5473039Y542544D01*
X5472074Y527659D01*
X5472074Y488340D01*
X5473039Y473456D01*
X5475732Y459181D01*
X5480253Y445363D01*
X5486450Y432155D01*
X5494223Y419862D01*
X5503519Y408686D01*
X5514136Y398729D01*
X5525922Y390144D01*
X5538673Y383133D01*
X5552186Y377799D01*
X5566308Y374142D01*
G37*
G36*
X4564735Y372364D02*
G01*
X4579264Y372364D01*
X4593691Y374142D01*
X4607814Y377799D01*
X4621326Y383133D01*
X4634077Y390144D01*
X4645863Y398729D01*
X4656480Y408686D01*
X4665776Y419862D01*
X4673549Y432155D01*
X4679746Y445363D01*
X4684268Y459181D01*
X4686960Y473456D01*
X4687925Y488340D01*
X4687925Y527659D01*
X4686960Y542544D01*
X4684268Y556818D01*
X4679746Y570636D01*
X4673549Y583844D01*
X4665776Y596138D01*
X4656480Y607314D01*
X4645863Y617270D01*
X4642104Y620014D01*
X4639868Y622300D01*
X4638395Y625094D01*
X4637887Y628243D01*
X4637887Y895756D01*
X4638395Y898906D01*
X4639868Y901700D01*
X4642104Y903986D01*
X4645863Y906729D01*
X4656480Y916686D01*
X4665776Y927862D01*
X4673549Y940155D01*
X4679746Y953363D01*
X4684268Y967181D01*
X4686960Y981456D01*
X4687925Y996340D01*
X4687925Y1035659D01*
X4686960Y1050544D01*
X4684268Y1064818D01*
X4679746Y1078636D01*
X4673549Y1091844D01*
X4665776Y1104138D01*
X4656480Y1115314D01*
X4645863Y1125270D01*
X4634077Y1133856D01*
X4621326Y1140866D01*
X4607814Y1146200D01*
X4593691Y1149858D01*
X4579264Y1151636D01*
X4564735Y1151636D01*
X4550308Y1149858D01*
X4536186Y1146200D01*
X4522673Y1140866D01*
X4509922Y1133856D01*
X4498136Y1125270D01*
X4487519Y1115314D01*
X4478223Y1104138D01*
X4470450Y1091844D01*
X4464253Y1078636D01*
X4459732Y1064818D01*
X4457039Y1050544D01*
X4456074Y1035659D01*
X4456074Y996340D01*
X4457039Y981456D01*
X4459732Y967181D01*
X4464253Y953363D01*
X4470450Y940155D01*
X4478223Y927862D01*
X4487519Y916686D01*
X4498136Y906729D01*
X4501896Y903986D01*
X4504131Y901700D01*
X4505604Y898906D01*
X4506112Y895756D01*
X4506112Y628243D01*
X4505604Y625094D01*
X4504131Y622300D01*
X4501896Y620014D01*
X4498136Y617270D01*
X4487519Y607314D01*
X4478223Y596138D01*
X4470450Y583844D01*
X4464253Y570636D01*
X4459732Y556818D01*
X4457039Y542544D01*
X4456074Y527659D01*
X4456074Y488340D01*
X4457039Y473456D01*
X4459732Y459181D01*
X4464253Y445363D01*
X4470450Y432155D01*
X4478223Y419862D01*
X4487519Y408686D01*
X4498136Y398729D01*
X4509922Y390144D01*
X4522673Y383133D01*
X4536186Y377799D01*
X4550308Y374142D01*
G37*
G36*
X8374735Y392328D02*
G01*
X8389264Y392328D01*
X8403691Y394157D01*
X8417814Y397764D01*
X8431326Y403148D01*
X8444077Y410159D01*
X8455863Y418693D01*
X8466480Y428650D01*
X8474557Y438404D01*
X8478062Y441147D01*
X8482380Y442112D01*
X8711793Y442112D01*
X8722512Y442925D01*
X8732570Y445363D01*
X8742121Y449326D01*
X8750909Y454710D01*
X8759088Y461670D01*
X8936329Y638911D01*
X8943289Y647090D01*
X8948674Y655878D01*
X8952636Y665429D01*
X8955074Y675487D01*
X8955887Y686206D01*
X8955887Y895756D01*
X8956395Y898906D01*
X8957868Y901700D01*
X8960104Y903986D01*
X8963863Y906729D01*
X8974480Y916686D01*
X8983776Y927862D01*
X8991549Y940155D01*
X8997746Y953363D01*
X9002268Y967181D01*
X9004960Y981456D01*
X9005925Y996340D01*
X9005925Y1035659D01*
X9004960Y1050544D01*
X9002268Y1064818D01*
X8997746Y1078636D01*
X8991549Y1091844D01*
X8983776Y1104138D01*
X8974480Y1115314D01*
X8963863Y1125270D01*
X8960104Y1128014D01*
X8957868Y1130300D01*
X8956395Y1133094D01*
X8955887Y1136243D01*
X8955887Y1523593D01*
X8955074Y1534312D01*
X8952636Y1544370D01*
X8948674Y1553921D01*
X8943289Y1562709D01*
X8936329Y1570888D01*
X8753449Y1753717D01*
X8751671Y1756206D01*
X8750655Y1759102D01*
X8750554Y1762201D01*
X8751671Y1770735D01*
X8751671Y1785264D01*
X8749842Y1799691D01*
X8746236Y1813814D01*
X8740851Y1827326D01*
X8733840Y1840077D01*
X8725306Y1851863D01*
X8715349Y1862480D01*
X8704122Y1871776D01*
X8691829Y1879549D01*
X8678672Y1885746D01*
X8664803Y1890268D01*
X8650528Y1892960D01*
X8636000Y1893874D01*
X8621471Y1892960D01*
X8607196Y1890268D01*
X8593328Y1885746D01*
X8580170Y1879549D01*
X8567877Y1871776D01*
X8556650Y1862480D01*
X8546693Y1851863D01*
X8538159Y1840077D01*
X8531148Y1827326D01*
X8525764Y1813814D01*
X8522157Y1799691D01*
X8520328Y1785264D01*
X8520328Y1770735D01*
X8522157Y1756257D01*
X8525764Y1742186D01*
X8531148Y1728673D01*
X8538159Y1715922D01*
X8546693Y1704136D01*
X8556650Y1693519D01*
X8567877Y1684223D01*
X8580170Y1676450D01*
X8593328Y1670253D01*
X8607196Y1665732D01*
X8621471Y1663039D01*
X8636000Y1662125D01*
X8654592Y1663242D01*
X8657742Y1662277D01*
X8660384Y1660398D01*
X8821115Y1499666D01*
X8823299Y1496364D01*
X8824112Y1492504D01*
X8824112Y1136243D01*
X8823604Y1133094D01*
X8822131Y1130300D01*
X8819896Y1128014D01*
X8816136Y1125270D01*
X8805519Y1115314D01*
X8796223Y1104138D01*
X8788450Y1091844D01*
X8782253Y1078636D01*
X8777732Y1064818D01*
X8775039Y1050544D01*
X8774074Y1035659D01*
X8774074Y996340D01*
X8775039Y981456D01*
X8777732Y967181D01*
X8782253Y953363D01*
X8788450Y940155D01*
X8796223Y927862D01*
X8805519Y916686D01*
X8816136Y906729D01*
X8819896Y903986D01*
X8822131Y901700D01*
X8823604Y898906D01*
X8824112Y895756D01*
X8824112Y717296D01*
X8823299Y713435D01*
X8821115Y710133D01*
X8687866Y576884D01*
X8684564Y574700D01*
X8680704Y573887D01*
X8482380Y573887D01*
X8478062Y574852D01*
X8474557Y577596D01*
X8466480Y587349D01*
X8455863Y597306D01*
X8444077Y605840D01*
X8431326Y612851D01*
X8417814Y618236D01*
X8403691Y621842D01*
X8389264Y623671D01*
X8374735Y623671D01*
X8360308Y621842D01*
X8346186Y618236D01*
X8332673Y612851D01*
X8319922Y605840D01*
X8308136Y597306D01*
X8297519Y587349D01*
X8288223Y576122D01*
X8280450Y563829D01*
X8274253Y550672D01*
X8269731Y536803D01*
X8267039Y522528D01*
X8266125Y508000D01*
X8267039Y493471D01*
X8269731Y479196D01*
X8274253Y465328D01*
X8280450Y452170D01*
X8288223Y439877D01*
X8297519Y428650D01*
X8308136Y418693D01*
X8319922Y410159D01*
X8332673Y403148D01*
X8346186Y397764D01*
X8360308Y394157D01*
G37*
G36*
X9529521Y459181D02*
G01*
X9547606Y460552D01*
X9565386Y463804D01*
X9582810Y468884D01*
X9599574Y475691D01*
X9615525Y484225D01*
X9630562Y494334D01*
X9644481Y505917D01*
X9657130Y518871D01*
X9668357Y533095D01*
X9678060Y548386D01*
X9686188Y564540D01*
X9692538Y581507D01*
X9697161Y599033D01*
X9699955Y616915D01*
X9700869Y635000D01*
X9699955Y653084D01*
X9697161Y670966D01*
X9692538Y688492D01*
X9686188Y705459D01*
X9678060Y721614D01*
X9668357Y736904D01*
X9657130Y751128D01*
X9644481Y764082D01*
X9630562Y775665D01*
X9615525Y785774D01*
X9599574Y794308D01*
X9582810Y801116D01*
X9565386Y806196D01*
X9547606Y809447D01*
X9529521Y810818D01*
X9511436Y810361D01*
X9493453Y808024D01*
X9475825Y803910D01*
X9458756Y797915D01*
X9442348Y790244D01*
X9426803Y780948D01*
X9412325Y770077D01*
X9399016Y757783D01*
X9387078Y744169D01*
X9376562Y729386D01*
X9367672Y713638D01*
X9360408Y697026D01*
X9354921Y679805D01*
X9351213Y662076D01*
X9349333Y644042D01*
X9349333Y625957D01*
X9351213Y607923D01*
X9354921Y590194D01*
X9360408Y572973D01*
X9367672Y556361D01*
X9376562Y540613D01*
X9387078Y525830D01*
X9399016Y512216D01*
X9412325Y499922D01*
X9426803Y489051D01*
X9442348Y479755D01*
X9458756Y472084D01*
X9475825Y466090D01*
X9493453Y461975D01*
X9511436Y459638D01*
G37*
G36*
X3687521Y459181D02*
G01*
X3705606Y460552D01*
X3723386Y463804D01*
X3740810Y468884D01*
X3757574Y475691D01*
X3773525Y484225D01*
X3788562Y494334D01*
X3802481Y505917D01*
X3815130Y518871D01*
X3826357Y533095D01*
X3836060Y548386D01*
X3844188Y564540D01*
X3850538Y581507D01*
X3855161Y599033D01*
X3857955Y616915D01*
X3858869Y635000D01*
X3857955Y653084D01*
X3855161Y670966D01*
X3850538Y688492D01*
X3844188Y705459D01*
X3836060Y721614D01*
X3826357Y736904D01*
X3815130Y751128D01*
X3802481Y764082D01*
X3788562Y775665D01*
X3773525Y785774D01*
X3757574Y794308D01*
X3740810Y801116D01*
X3723386Y806196D01*
X3705606Y809447D01*
X3687521Y810818D01*
X3669436Y810361D01*
X3651453Y808024D01*
X3633825Y803910D01*
X3616756Y797915D01*
X3600348Y790244D01*
X3584803Y780948D01*
X3570325Y770077D01*
X3557015Y757783D01*
X3545078Y744169D01*
X3534562Y729386D01*
X3525672Y713638D01*
X3518408Y697026D01*
X3512921Y679805D01*
X3509213Y662076D01*
X3507333Y644042D01*
X3507333Y625957D01*
X3509213Y607923D01*
X3512921Y590194D01*
X3518408Y572973D01*
X3525672Y556361D01*
X3534562Y540613D01*
X3545078Y525830D01*
X3557015Y512216D01*
X3570325Y499922D01*
X3584803Y489051D01*
X3600348Y479755D01*
X3616756Y472084D01*
X3633825Y466090D01*
X3651453Y461975D01*
X3669436Y459638D01*
G37*
G36*
X4202074Y569366D02*
G01*
X4266641Y569366D01*
X4266641Y643890D01*
X4228592Y643890D01*
X4222242Y643178D01*
X4216806Y641299D01*
X4211878Y638200D01*
X4207814Y634136D01*
X4204716Y629208D01*
X4202785Y623773D01*
X4202074Y617423D01*
G37*
G36*
X6742074Y569366D02*
G01*
X6806641Y569366D01*
X6806641Y643890D01*
X6768592Y643890D01*
X6762242Y643178D01*
X6756806Y641299D01*
X6751878Y638200D01*
X6747814Y634136D01*
X6744716Y629208D01*
X6742785Y623773D01*
X6742074Y617423D01*
G37*
G36*
X4369358Y569366D02*
G01*
X4433925Y569366D01*
X4433925Y617423D01*
X4433214Y623773D01*
X4431284Y629208D01*
X4428185Y634136D01*
X4424121Y638200D01*
X4419193Y641299D01*
X4413758Y643178D01*
X4407408Y643890D01*
X4369358Y643890D01*
G37*
G36*
X6909358Y569366D02*
G01*
X6973925Y569366D01*
X6973925Y617423D01*
X6973214Y623773D01*
X6971284Y629208D01*
X6968185Y634136D01*
X6964121Y638200D01*
X6959193Y641299D01*
X6953758Y643178D01*
X6947408Y643890D01*
X6909358Y643890D01*
G37*
G36*
X7530541Y880110D02*
G01*
X7568641Y880110D01*
X7568641Y954633D01*
X7504074Y954633D01*
X7504074Y906576D01*
X7504785Y900226D01*
X7506716Y894791D01*
X7509814Y889863D01*
X7513878Y885799D01*
X7518806Y882700D01*
X7524242Y880821D01*
G37*
G36*
X7022541Y880110D02*
G01*
X7060641Y880110D01*
X7060641Y954633D01*
X6996074Y954633D01*
X6996074Y906576D01*
X6996785Y900226D01*
X6998716Y894791D01*
X7001814Y889863D01*
X7005878Y885799D01*
X7010806Y882700D01*
X7016242Y880821D01*
G37*
G36*
X7276541Y880110D02*
G01*
X7314641Y880110D01*
X7314641Y954633D01*
X7250074Y954633D01*
X7250074Y906576D01*
X7250785Y900226D01*
X7252716Y894791D01*
X7255814Y889863D01*
X7259878Y885799D01*
X7264806Y882700D01*
X7270242Y880821D01*
G37*
G36*
X8546592Y880110D02*
G01*
X8584641Y880110D01*
X8584641Y954633D01*
X8520074Y954633D01*
X8520074Y906576D01*
X8520785Y900226D01*
X8522716Y894791D01*
X8525814Y889863D01*
X8529878Y885799D01*
X8534806Y882700D01*
X8540242Y880821D01*
G37*
G36*
X7925358Y880110D02*
G01*
X7963408Y880110D01*
X7969758Y880821D01*
X7975193Y882700D01*
X7980121Y885799D01*
X7984185Y889863D01*
X7987284Y894791D01*
X7989214Y900226D01*
X7989925Y906576D01*
X7989925Y954633D01*
X7925358Y954633D01*
G37*
G36*
X7671358Y880110D02*
G01*
X7709408Y880110D01*
X7715758Y880821D01*
X7721193Y882700D01*
X7726121Y885799D01*
X7730185Y889863D01*
X7733284Y894791D01*
X7735214Y900226D01*
X7735925Y906576D01*
X7735925Y954633D01*
X7671358Y954633D01*
G37*
G36*
X6909358Y880110D02*
G01*
X6947408Y880110D01*
X6953758Y880821D01*
X6959193Y882700D01*
X6964121Y885799D01*
X6968185Y889863D01*
X6971284Y894791D01*
X6973214Y900226D01*
X6973925Y906576D01*
X6973925Y954633D01*
X6909358Y954633D01*
G37*
G36*
X8687358Y880110D02*
G01*
X8725408Y880110D01*
X8731758Y880821D01*
X8737193Y882700D01*
X8742121Y885799D01*
X8746185Y889863D01*
X8749284Y894791D01*
X8751214Y900226D01*
X8751925Y906576D01*
X8751925Y954633D01*
X8687358Y954633D01*
G37*
G36*
X7163358Y880110D02*
G01*
X7201408Y880110D01*
X7207758Y880821D01*
X7213193Y882700D01*
X7218121Y885799D01*
X7222185Y889863D01*
X7225284Y894791D01*
X7227214Y900226D01*
X7227925Y906576D01*
X7227925Y954633D01*
X7163358Y954633D01*
G37*
G36*
X4369358Y880110D02*
G01*
X4407408Y880110D01*
X4413758Y880821D01*
X4419193Y882700D01*
X4424121Y885799D01*
X4428185Y889863D01*
X4431284Y894791D01*
X4433214Y900226D01*
X4433925Y906576D01*
X4433925Y954633D01*
X4369358Y954633D01*
G37*
G36*
X4228592Y880110D02*
G01*
X4266641Y880110D01*
X4266641Y954633D01*
X4202074Y954633D01*
X4202074Y906576D01*
X4202785Y900226D01*
X4204716Y894791D01*
X4207814Y889863D01*
X4211878Y885799D01*
X4216806Y882700D01*
X4222242Y880821D01*
G37*
G36*
X7417358Y880110D02*
G01*
X7455408Y880110D01*
X7461758Y880821D01*
X7467193Y882700D01*
X7472121Y885799D01*
X7476185Y889863D01*
X7479284Y894791D01*
X7481214Y900226D01*
X7481925Y906576D01*
X7481925Y954633D01*
X7417358Y954633D01*
G37*
G36*
X6768541Y880110D02*
G01*
X6806641Y880110D01*
X6806641Y954633D01*
X6742074Y954633D01*
X6742074Y906576D01*
X6742785Y900226D01*
X6744716Y894791D01*
X6747814Y889863D01*
X6751878Y885799D01*
X6756806Y882700D01*
X6762242Y880821D01*
G37*
G36*
X7784541Y880110D02*
G01*
X7822641Y880110D01*
X7822641Y954633D01*
X7758074Y954633D01*
X7758074Y906576D01*
X7758785Y900226D01*
X7760716Y894791D01*
X7763814Y889863D01*
X7767878Y885799D01*
X7772806Y882700D01*
X7778242Y880821D01*
G37*
G36*
X8374735Y880364D02*
G01*
X8389264Y880364D01*
X8403691Y882142D01*
X8417814Y885799D01*
X8431326Y891133D01*
X8444077Y898144D01*
X8455863Y906729D01*
X8466480Y916686D01*
X8475776Y927862D01*
X8483549Y940155D01*
X8489746Y953363D01*
X8494268Y967181D01*
X8496960Y981456D01*
X8497925Y996340D01*
X8497925Y1035659D01*
X8496960Y1050544D01*
X8494268Y1064818D01*
X8489746Y1078636D01*
X8483549Y1091844D01*
X8475776Y1104138D01*
X8466480Y1115314D01*
X8455863Y1125270D01*
X8452104Y1128014D01*
X8449868Y1130300D01*
X8448395Y1133094D01*
X8447887Y1136243D01*
X8447887Y2000504D01*
X8448700Y2004364D01*
X8450884Y2007666D01*
X8660333Y2217115D01*
X8663635Y2219299D01*
X8667496Y2220112D01*
X9410293Y2220112D01*
X9421012Y2220925D01*
X9431070Y2223363D01*
X9440621Y2227326D01*
X9449409Y2232710D01*
X9457588Y2239670D01*
X9698329Y2480411D01*
X9705289Y2488590D01*
X9710674Y2497378D01*
X9714636Y2506929D01*
X9717074Y2516987D01*
X9717887Y2527706D01*
X9717887Y4717186D01*
X9718497Y4720539D01*
X9720122Y4723485D01*
X9722612Y4725771D01*
X9732822Y4732223D01*
X9744049Y4741519D01*
X9754006Y4752136D01*
X9762540Y4763922D01*
X9769551Y4776673D01*
X9774936Y4790186D01*
X9778542Y4804308D01*
X9780371Y4818735D01*
X9780371Y4833264D01*
X9778542Y4847691D01*
X9774936Y4861814D01*
X9769551Y4875326D01*
X9762540Y4888077D01*
X9754006Y4899863D01*
X9744049Y4910480D01*
X9732822Y4919776D01*
X9722612Y4926228D01*
X9720122Y4928514D01*
X9718497Y4931460D01*
X9717887Y4934813D01*
X9717887Y5710936D01*
X9718700Y5714796D01*
X9720884Y5718098D01*
X9724186Y5720334D01*
X9728047Y5721096D01*
X9746437Y5721096D01*
X9752736Y5721807D01*
X9758222Y5723737D01*
X9763099Y5726785D01*
X9767214Y5730900D01*
X9770262Y5735777D01*
X9772192Y5741263D01*
X9772904Y5747562D01*
X9772904Y5936437D01*
X9772192Y5942736D01*
X9770262Y5948222D01*
X9767214Y5953099D01*
X9763099Y5957214D01*
X9758019Y5960414D01*
X9755073Y5963208D01*
X9753498Y5966968D01*
X9753498Y5971032D01*
X9755073Y5974791D01*
X9758019Y5977585D01*
X9763099Y5980785D01*
X9767214Y5984900D01*
X9770262Y5989777D01*
X9772192Y5995263D01*
X9772904Y6001562D01*
X9772904Y6190437D01*
X9772192Y6196736D01*
X9770262Y6202222D01*
X9767214Y6207099D01*
X9763099Y6211214D01*
X9758222Y6214262D01*
X9752736Y6216192D01*
X9746437Y6216904D01*
X9557562Y6216904D01*
X9551263Y6216192D01*
X9545777Y6214262D01*
X9540900Y6211214D01*
X9536785Y6207099D01*
X9533585Y6202019D01*
X9530791Y6199073D01*
X9527032Y6197498D01*
X9522968Y6197498D01*
X9519208Y6199073D01*
X9516414Y6202019D01*
X9513214Y6207099D01*
X9509099Y6211214D01*
X9504222Y6214262D01*
X9498736Y6216192D01*
X9492437Y6216904D01*
X9451848Y6216904D01*
X9451848Y6149848D01*
X9520936Y6149848D01*
X9524796Y6149086D01*
X9528098Y6146850D01*
X9530334Y6143599D01*
X9531096Y6139688D01*
X9531096Y6052312D01*
X9530334Y6048400D01*
X9528098Y6045149D01*
X9524796Y6042914D01*
X9520936Y6042152D01*
X9451848Y6042152D01*
X9451848Y5895848D01*
X9520936Y5895848D01*
X9524796Y5895086D01*
X9528098Y5892850D01*
X9530334Y5889599D01*
X9531096Y5885688D01*
X9531096Y5798312D01*
X9530334Y5794400D01*
X9528098Y5791149D01*
X9524796Y5788914D01*
X9520936Y5788152D01*
X9451848Y5788152D01*
X9451848Y5721096D01*
X9492437Y5721096D01*
X9498736Y5721807D01*
X9504222Y5723737D01*
X9509099Y5726785D01*
X9513214Y5730900D01*
X9516414Y5735980D01*
X9519208Y5738926D01*
X9522968Y5740501D01*
X9527032Y5740501D01*
X9530791Y5738926D01*
X9533585Y5735980D01*
X9536785Y5730900D01*
X9540900Y5726785D01*
X9545777Y5723737D01*
X9551263Y5721807D01*
X9557562Y5721096D01*
X9575952Y5721096D01*
X9579813Y5720334D01*
X9583115Y5718098D01*
X9585299Y5714796D01*
X9586112Y5710936D01*
X9586112Y4915255D01*
X9585401Y4911547D01*
X9583318Y4908296D01*
X9575393Y4899863D01*
X9566859Y4888077D01*
X9559848Y4875326D01*
X9554464Y4861814D01*
X9550857Y4847691D01*
X9549028Y4833264D01*
X9549028Y4818735D01*
X9550857Y4804308D01*
X9554464Y4790186D01*
X9559848Y4776673D01*
X9566859Y4763922D01*
X9575393Y4752136D01*
X9583318Y4743704D01*
X9585401Y4740452D01*
X9586112Y4736744D01*
X9586112Y2558796D01*
X9585299Y2554935D01*
X9583115Y2551633D01*
X9386366Y2354884D01*
X9383064Y2352700D01*
X9379204Y2351887D01*
X8636406Y2351887D01*
X8625687Y2351074D01*
X8615629Y2348636D01*
X8606078Y2344674D01*
X8597290Y2339289D01*
X8589111Y2332329D01*
X8335670Y2078888D01*
X8328710Y2070709D01*
X8323325Y2061921D01*
X8319363Y2052370D01*
X8316925Y2042312D01*
X8316112Y2031593D01*
X8316112Y1352042D01*
X8315299Y1348181D01*
X8313115Y1344879D01*
X8309813Y1342644D01*
X8305952Y1341882D01*
X8302040Y1342644D01*
X8298738Y1344879D01*
X8200288Y1443329D01*
X8192109Y1450289D01*
X8183321Y1455674D01*
X8173770Y1459636D01*
X8163712Y1462074D01*
X8152993Y1462887D01*
X4476496Y1462887D01*
X4472635Y1463700D01*
X4469333Y1465884D01*
X4386884Y1548333D01*
X4384700Y1551635D01*
X4383887Y1555496D01*
X4383887Y1657756D01*
X4384395Y1660906D01*
X4385868Y1663700D01*
X4388104Y1665986D01*
X4391863Y1668729D01*
X4402480Y1678686D01*
X4411776Y1689862D01*
X4419549Y1702155D01*
X4425746Y1715363D01*
X4430268Y1729181D01*
X4432960Y1743456D01*
X4433925Y1758340D01*
X4433925Y1797659D01*
X4432960Y1812543D01*
X4430268Y1826818D01*
X4425746Y1840636D01*
X4419549Y1853844D01*
X4411776Y1866138D01*
X4402480Y1877314D01*
X4391863Y1887270D01*
X4380077Y1895856D01*
X4367326Y1902866D01*
X4353814Y1908200D01*
X4339691Y1911857D01*
X4325264Y1913636D01*
X4310735Y1913636D01*
X4296308Y1911857D01*
X4282186Y1908200D01*
X4268673Y1902866D01*
X4255922Y1895856D01*
X4244136Y1887270D01*
X4233519Y1877314D01*
X4224223Y1866138D01*
X4216450Y1853844D01*
X4210253Y1840636D01*
X4205732Y1826818D01*
X4203039Y1812543D01*
X4202074Y1797659D01*
X4202074Y1758340D01*
X4203039Y1743456D01*
X4205732Y1729181D01*
X4210253Y1715363D01*
X4216450Y1702155D01*
X4224223Y1689862D01*
X4233519Y1678686D01*
X4244136Y1668729D01*
X4247896Y1665986D01*
X4250131Y1663700D01*
X4251604Y1660906D01*
X4252112Y1657756D01*
X4252112Y1524406D01*
X4252925Y1513687D01*
X4255363Y1503629D01*
X4259326Y1494078D01*
X4264710Y1485290D01*
X4271670Y1477111D01*
X4398111Y1350670D01*
X4406290Y1343710D01*
X4415078Y1338326D01*
X4424629Y1334363D01*
X4434687Y1331925D01*
X4445406Y1331112D01*
X8121903Y1331112D01*
X8125764Y1330299D01*
X8129066Y1328115D01*
X8313115Y1144066D01*
X8315299Y1140764D01*
X8316112Y1136243D01*
X8315604Y1133094D01*
X8314131Y1130300D01*
X8311896Y1128014D01*
X8308136Y1125270D01*
X8297519Y1115314D01*
X8288223Y1104138D01*
X8280450Y1091844D01*
X8274253Y1078636D01*
X8269731Y1064818D01*
X8267039Y1050544D01*
X8266074Y1035659D01*
X8266074Y996340D01*
X8267039Y981456D01*
X8269731Y967181D01*
X8274253Y953363D01*
X8280450Y940155D01*
X8288223Y927862D01*
X8297519Y916686D01*
X8308136Y906729D01*
X8319922Y898144D01*
X8332673Y891133D01*
X8346186Y885799D01*
X8360308Y882142D01*
G37*
G36*
X6996074Y1077366D02*
G01*
X7060641Y1077366D01*
X7060641Y1151890D01*
X7022541Y1151890D01*
X7016242Y1151178D01*
X7010806Y1149299D01*
X7005878Y1146200D01*
X7001814Y1142136D01*
X6998716Y1137208D01*
X6996785Y1131773D01*
X6996074Y1125423D01*
G37*
G36*
X7250074Y1077366D02*
G01*
X7314641Y1077366D01*
X7314641Y1151890D01*
X7276541Y1151890D01*
X7270242Y1151178D01*
X7264806Y1149299D01*
X7259878Y1146200D01*
X7255814Y1142136D01*
X7252716Y1137208D01*
X7250785Y1131773D01*
X7250074Y1125423D01*
G37*
G36*
X8520074Y1077366D02*
G01*
X8584641Y1077366D01*
X8584641Y1151890D01*
X8546592Y1151890D01*
X8540242Y1151178D01*
X8534806Y1149299D01*
X8529878Y1146200D01*
X8525814Y1142136D01*
X8522716Y1137208D01*
X8520785Y1131773D01*
X8520074Y1125423D01*
G37*
G36*
X7925358Y1077366D02*
G01*
X7989925Y1077366D01*
X7989925Y1125423D01*
X7989214Y1131773D01*
X7987284Y1137208D01*
X7984185Y1142136D01*
X7980121Y1146200D01*
X7975193Y1149299D01*
X7969758Y1151178D01*
X7963408Y1151890D01*
X7925358Y1151890D01*
G37*
G36*
X7671358Y1077366D02*
G01*
X7735925Y1077366D01*
X7735925Y1125423D01*
X7735214Y1131773D01*
X7733284Y1137208D01*
X7730185Y1142136D01*
X7726121Y1146200D01*
X7721193Y1149299D01*
X7715758Y1151178D01*
X7709408Y1151890D01*
X7671358Y1151890D01*
G37*
G36*
X7417358Y1077366D02*
G01*
X7481925Y1077366D01*
X7481925Y1125423D01*
X7481214Y1131773D01*
X7479284Y1137208D01*
X7476185Y1142136D01*
X7472121Y1146200D01*
X7467193Y1149299D01*
X7461758Y1151178D01*
X7455408Y1151890D01*
X7417358Y1151890D01*
G37*
G36*
X6909358Y1077366D02*
G01*
X6973925Y1077366D01*
X6973925Y1125423D01*
X6973214Y1131773D01*
X6971284Y1137208D01*
X6968185Y1142136D01*
X6964121Y1146200D01*
X6959193Y1149299D01*
X6953758Y1151178D01*
X6947408Y1151890D01*
X6909358Y1151890D01*
G37*
G36*
X8687358Y1077366D02*
G01*
X8751925Y1077366D01*
X8751925Y1125423D01*
X8751214Y1131773D01*
X8749284Y1137208D01*
X8746185Y1142136D01*
X8742121Y1146200D01*
X8737193Y1149299D01*
X8731758Y1151178D01*
X8725408Y1151890D01*
X8687358Y1151890D01*
G37*
G36*
X7504074Y1077366D02*
G01*
X7568641Y1077366D01*
X7568641Y1151890D01*
X7530541Y1151890D01*
X7524242Y1151178D01*
X7518806Y1149299D01*
X7513878Y1146200D01*
X7509814Y1142136D01*
X7506716Y1137208D01*
X7504785Y1131773D01*
X7504074Y1125423D01*
G37*
G36*
X4369358Y1077366D02*
G01*
X4433925Y1077366D01*
X4433925Y1125423D01*
X4433214Y1131773D01*
X4431284Y1137208D01*
X4428185Y1142136D01*
X4424121Y1146200D01*
X4419193Y1149299D01*
X4413758Y1151178D01*
X4407408Y1151890D01*
X4369358Y1151890D01*
G37*
G36*
X6742074Y1077366D02*
G01*
X6806641Y1077366D01*
X6806641Y1151890D01*
X6768541Y1151890D01*
X6762242Y1151178D01*
X6756806Y1149299D01*
X6751878Y1146200D01*
X6747814Y1142136D01*
X6744716Y1137208D01*
X6742785Y1131773D01*
X6742074Y1125423D01*
G37*
G36*
X7163358Y1077366D02*
G01*
X7227925Y1077366D01*
X7227925Y1125423D01*
X7227214Y1131773D01*
X7225284Y1137208D01*
X7222185Y1142136D01*
X7218121Y1146200D01*
X7213193Y1149299D01*
X7207758Y1151178D01*
X7201408Y1151890D01*
X7163358Y1151890D01*
G37*
G36*
X4202074Y1077366D02*
G01*
X4266641Y1077366D01*
X4266641Y1151890D01*
X4228592Y1151890D01*
X4222242Y1151178D01*
X4216806Y1149299D01*
X4211878Y1146200D01*
X4207814Y1142136D01*
X4204716Y1137208D01*
X4202785Y1131773D01*
X4202074Y1125423D01*
G37*
G36*
X7758074Y1077366D02*
G01*
X7822641Y1077366D01*
X7822641Y1151890D01*
X7784541Y1151890D01*
X7778242Y1151178D01*
X7772806Y1149299D01*
X7767878Y1146200D01*
X7763814Y1142136D01*
X7760716Y1137208D01*
X7758785Y1131773D01*
X7758074Y1125423D01*
G37*
G36*
X9726066Y1154074D02*
G01*
X9774123Y1154074D01*
X9780473Y1154785D01*
X9785908Y1156716D01*
X9790836Y1159814D01*
X9794900Y1163878D01*
X9797999Y1168806D01*
X9799878Y1174242D01*
X9800590Y1180592D01*
X9800590Y1218641D01*
X9726066Y1218641D01*
G37*
G36*
X9555276Y1154074D02*
G01*
X9603333Y1154074D01*
X9603333Y1218641D01*
X9528810Y1218641D01*
X9528810Y1180592D01*
X9529521Y1174242D01*
X9531400Y1168806D01*
X9534499Y1163878D01*
X9538563Y1159814D01*
X9543491Y1156716D01*
X9548926Y1154785D01*
G37*
G36*
X9528810Y1321358D02*
G01*
X9603333Y1321358D01*
X9603333Y1385925D01*
X9555276Y1385925D01*
X9548926Y1385214D01*
X9543491Y1383284D01*
X9538563Y1380185D01*
X9534499Y1376121D01*
X9531400Y1371193D01*
X9529521Y1365758D01*
X9528810Y1359408D01*
G37*
G36*
X9726066Y1321358D02*
G01*
X9800590Y1321358D01*
X9800590Y1359408D01*
X9799878Y1365758D01*
X9797999Y1371193D01*
X9794900Y1376121D01*
X9790836Y1380185D01*
X9785908Y1383284D01*
X9780473Y1385214D01*
X9774123Y1385925D01*
X9726066Y1385925D01*
G37*
G36*
X4077258Y1388110D02*
G01*
X4115308Y1388110D01*
X4121658Y1388821D01*
X4127093Y1390700D01*
X4132021Y1393799D01*
X4136085Y1397863D01*
X4139184Y1402791D01*
X4141114Y1408226D01*
X4141825Y1414576D01*
X4141825Y1462633D01*
X4077258Y1462633D01*
G37*
G36*
X3823258Y1388110D02*
G01*
X3861308Y1388110D01*
X3867658Y1388821D01*
X3873093Y1390700D01*
X3878021Y1393799D01*
X3882085Y1397863D01*
X3885184Y1402791D01*
X3887114Y1408226D01*
X3887825Y1414576D01*
X3887825Y1462633D01*
X3823258Y1462633D01*
G37*
G36*
X3682492Y1388110D02*
G01*
X3720541Y1388110D01*
X3720541Y1462633D01*
X3655974Y1462633D01*
X3655974Y1414576D01*
X3656685Y1408226D01*
X3658615Y1402791D01*
X3661714Y1397863D01*
X3665778Y1393799D01*
X3670706Y1390700D01*
X3676142Y1388821D01*
G37*
G36*
X3936492Y1388110D02*
G01*
X3974541Y1388110D01*
X3974541Y1462633D01*
X3909974Y1462633D01*
X3909974Y1414576D01*
X3910685Y1408226D01*
X3912615Y1402791D01*
X3915714Y1397863D01*
X3919778Y1393799D01*
X3924706Y1390700D01*
X3930142Y1388821D01*
G37*
G36*
X3428492Y1388110D02*
G01*
X3466541Y1388110D01*
X3466541Y1462633D01*
X3401974Y1462633D01*
X3401974Y1414576D01*
X3402685Y1408226D01*
X3404615Y1402791D01*
X3407714Y1397863D01*
X3411778Y1393799D01*
X3416706Y1390700D01*
X3422142Y1388821D01*
G37*
G36*
X3569258Y1388110D02*
G01*
X3607308Y1388110D01*
X3613658Y1388821D01*
X3619093Y1390700D01*
X3624021Y1393799D01*
X3628085Y1397863D01*
X3631184Y1402791D01*
X3633114Y1408226D01*
X3633825Y1414576D01*
X3633825Y1462633D01*
X3569258Y1462633D01*
G37*
G36*
X9645040Y1408074D02*
G01*
X9684359Y1408074D01*
X9699244Y1409039D01*
X9713518Y1411732D01*
X9727336Y1416253D01*
X9740544Y1422450D01*
X9752838Y1430223D01*
X9764014Y1439519D01*
X9773970Y1450136D01*
X9782556Y1461922D01*
X9789566Y1474673D01*
X9794900Y1488186D01*
X9798558Y1502308D01*
X9800336Y1516735D01*
X9800336Y1531264D01*
X9798558Y1545691D01*
X9794900Y1559814D01*
X9789566Y1573326D01*
X9782556Y1586077D01*
X9773970Y1597863D01*
X9764014Y1608480D01*
X9752838Y1617776D01*
X9740544Y1625549D01*
X9727336Y1631746D01*
X9713518Y1636268D01*
X9699244Y1638960D01*
X9684359Y1639925D01*
X9645040Y1639925D01*
X9630156Y1638960D01*
X9615881Y1636268D01*
X9602063Y1631746D01*
X9588855Y1625549D01*
X9576562Y1617776D01*
X9565386Y1608480D01*
X9555429Y1597863D01*
X9552686Y1594104D01*
X9550400Y1591868D01*
X9547606Y1590395D01*
X9544456Y1589887D01*
X9175496Y1589887D01*
X9171635Y1590700D01*
X9168333Y1592884D01*
X8958884Y1802333D01*
X8956700Y1805635D01*
X8955887Y1809496D01*
X8955887Y1931619D01*
X8956852Y1935937D01*
X8959596Y1939442D01*
X8969349Y1947519D01*
X8979306Y1958136D01*
X8987840Y1969922D01*
X8994851Y1982673D01*
X9000236Y1996186D01*
X9003842Y2010308D01*
X9005671Y2024735D01*
X9005671Y2039264D01*
X9003842Y2053691D01*
X9000236Y2067814D01*
X8994851Y2081326D01*
X8987840Y2094077D01*
X8979306Y2105863D01*
X8969349Y2116480D01*
X8958122Y2125776D01*
X8945829Y2133549D01*
X8932672Y2139746D01*
X8918803Y2144268D01*
X8904528Y2146960D01*
X8890000Y2147874D01*
X8875471Y2146960D01*
X8861196Y2144268D01*
X8847328Y2139746D01*
X8834170Y2133549D01*
X8821877Y2125776D01*
X8810650Y2116480D01*
X8800693Y2105863D01*
X8792159Y2094077D01*
X8785148Y2081326D01*
X8779764Y2067814D01*
X8776157Y2053691D01*
X8774328Y2039264D01*
X8774328Y2024735D01*
X8776157Y2010308D01*
X8779764Y1996186D01*
X8785148Y1982673D01*
X8792159Y1969922D01*
X8800693Y1958136D01*
X8810650Y1947519D01*
X8820404Y1939442D01*
X8823147Y1935937D01*
X8824112Y1931619D01*
X8824112Y1778406D01*
X8824925Y1767687D01*
X8827363Y1757629D01*
X8831326Y1748078D01*
X8836710Y1739290D01*
X8843670Y1731111D01*
X9097111Y1477670D01*
X9105290Y1470710D01*
X9114078Y1465326D01*
X9123629Y1461363D01*
X9133687Y1458925D01*
X9144406Y1458112D01*
X9544456Y1458112D01*
X9547606Y1457604D01*
X9550400Y1456131D01*
X9552686Y1453896D01*
X9555429Y1450136D01*
X9565386Y1439519D01*
X9576562Y1430223D01*
X9588855Y1422450D01*
X9602063Y1416253D01*
X9615881Y1411732D01*
X9630156Y1409039D01*
G37*
G36*
X4077258Y1585366D02*
G01*
X4141825Y1585366D01*
X4141825Y1633423D01*
X4141114Y1639773D01*
X4139184Y1645208D01*
X4136085Y1650136D01*
X4132021Y1654200D01*
X4127093Y1657299D01*
X4121658Y1659178D01*
X4115308Y1659889D01*
X4077258Y1659889D01*
G37*
G36*
X3823258Y1585366D02*
G01*
X3887825Y1585366D01*
X3887825Y1633423D01*
X3887114Y1639773D01*
X3885184Y1645208D01*
X3882085Y1650136D01*
X3878021Y1654200D01*
X3873093Y1657299D01*
X3867658Y1659178D01*
X3861308Y1659889D01*
X3823258Y1659889D01*
G37*
G36*
X3569258Y1585366D02*
G01*
X3633825Y1585366D01*
X3633825Y1633423D01*
X3633114Y1639773D01*
X3631184Y1645208D01*
X3628085Y1650136D01*
X3624021Y1654200D01*
X3619093Y1657299D01*
X3613658Y1659178D01*
X3607308Y1659889D01*
X3569258Y1659889D01*
G37*
G36*
X3655974Y1585366D02*
G01*
X3720541Y1585366D01*
X3720541Y1659889D01*
X3682492Y1659889D01*
X3676142Y1659178D01*
X3670706Y1657299D01*
X3665778Y1654200D01*
X3661714Y1650136D01*
X3658615Y1645208D01*
X3656685Y1639773D01*
X3655974Y1633423D01*
G37*
G36*
X3909974Y1585366D02*
G01*
X3974541Y1585366D01*
X3974541Y1659889D01*
X3936492Y1659889D01*
X3930142Y1659178D01*
X3924706Y1657299D01*
X3919778Y1654200D01*
X3915714Y1650136D01*
X3912615Y1645208D01*
X3910685Y1639773D01*
X3909974Y1633423D01*
G37*
G36*
X3401974Y1585366D02*
G01*
X3466541Y1585366D01*
X3466541Y1659889D01*
X3428492Y1659889D01*
X3422142Y1659178D01*
X3416706Y1657299D01*
X3411778Y1654200D01*
X3407714Y1650136D01*
X3404615Y1645208D01*
X3402685Y1639773D01*
X3401974Y1633423D01*
G37*
G36*
X7612735Y1642364D02*
G01*
X7627264Y1642364D01*
X7641691Y1644142D01*
X7655814Y1647799D01*
X7669326Y1653133D01*
X7682077Y1660143D01*
X7693863Y1668729D01*
X7704480Y1678686D01*
X7713776Y1689862D01*
X7721549Y1702155D01*
X7727746Y1715363D01*
X7732268Y1729181D01*
X7734960Y1743456D01*
X7735925Y1758340D01*
X7735925Y1797659D01*
X7734960Y1812543D01*
X7732268Y1826818D01*
X7727746Y1840636D01*
X7721549Y1853844D01*
X7713776Y1866138D01*
X7704480Y1877314D01*
X7693863Y1887270D01*
X7682077Y1895856D01*
X7669326Y1902866D01*
X7655814Y1908200D01*
X7641691Y1911857D01*
X7627264Y1913636D01*
X7612735Y1913636D01*
X7598308Y1911857D01*
X7584186Y1908200D01*
X7570673Y1902866D01*
X7557922Y1895856D01*
X7546136Y1887270D01*
X7535519Y1877314D01*
X7526223Y1866138D01*
X7518450Y1853844D01*
X7512253Y1840636D01*
X7507731Y1826818D01*
X7505039Y1812543D01*
X7504074Y1797659D01*
X7504074Y1758340D01*
X7505039Y1743456D01*
X7507731Y1729181D01*
X7512253Y1715363D01*
X7518450Y1702155D01*
X7526223Y1689862D01*
X7535519Y1678686D01*
X7546136Y1668729D01*
X7557922Y1660143D01*
X7570673Y1653133D01*
X7584186Y1647799D01*
X7598308Y1644142D01*
G37*
G36*
X7104735Y1642364D02*
G01*
X7119264Y1642364D01*
X7133691Y1644142D01*
X7147814Y1647799D01*
X7161326Y1653133D01*
X7174077Y1660143D01*
X7185863Y1668729D01*
X7196480Y1678686D01*
X7205776Y1689862D01*
X7213549Y1702155D01*
X7219746Y1715363D01*
X7224268Y1729181D01*
X7226960Y1743456D01*
X7227925Y1758340D01*
X7227925Y1797659D01*
X7226960Y1812543D01*
X7224268Y1826818D01*
X7219746Y1840636D01*
X7213549Y1853844D01*
X7205776Y1866138D01*
X7196480Y1877314D01*
X7185863Y1887270D01*
X7174077Y1895856D01*
X7161326Y1902866D01*
X7147814Y1908200D01*
X7133691Y1911857D01*
X7119264Y1913636D01*
X7104735Y1913636D01*
X7090308Y1911857D01*
X7076186Y1908200D01*
X7062673Y1902866D01*
X7049922Y1895856D01*
X7038136Y1887270D01*
X7027519Y1877314D01*
X7018223Y1866138D01*
X7010450Y1853844D01*
X7004253Y1840636D01*
X6999731Y1826818D01*
X6997039Y1812543D01*
X6996074Y1797659D01*
X6996074Y1758340D01*
X6997039Y1743456D01*
X6999731Y1729181D01*
X7004253Y1715363D01*
X7010450Y1702155D01*
X7018223Y1689862D01*
X7027519Y1678686D01*
X7038136Y1668729D01*
X7049922Y1660143D01*
X7062673Y1653133D01*
X7076186Y1647799D01*
X7090308Y1644142D01*
G37*
G36*
X7358735Y1642364D02*
G01*
X7373264Y1642364D01*
X7387691Y1644142D01*
X7401814Y1647799D01*
X7415326Y1653133D01*
X7428077Y1660143D01*
X7439863Y1668729D01*
X7450480Y1678686D01*
X7459776Y1689862D01*
X7467549Y1702155D01*
X7473746Y1715363D01*
X7478268Y1729181D01*
X7480960Y1743456D01*
X7481925Y1758340D01*
X7481925Y1797659D01*
X7480960Y1812543D01*
X7478268Y1826818D01*
X7473746Y1840636D01*
X7467549Y1853844D01*
X7459776Y1866138D01*
X7450480Y1877314D01*
X7439863Y1887270D01*
X7428077Y1895856D01*
X7415326Y1902866D01*
X7401814Y1908200D01*
X7387691Y1911857D01*
X7373264Y1913636D01*
X7358735Y1913636D01*
X7344308Y1911857D01*
X7330186Y1908200D01*
X7316673Y1902866D01*
X7303922Y1895856D01*
X7292136Y1887270D01*
X7281519Y1877314D01*
X7272223Y1866138D01*
X7264450Y1853844D01*
X7258253Y1840636D01*
X7253731Y1826818D01*
X7251039Y1812543D01*
X7250074Y1797659D01*
X7250074Y1758340D01*
X7251039Y1743456D01*
X7253731Y1729181D01*
X7258253Y1715363D01*
X7264450Y1702155D01*
X7272223Y1689862D01*
X7281519Y1678686D01*
X7292136Y1668729D01*
X7303922Y1660143D01*
X7316673Y1653133D01*
X7330186Y1647799D01*
X7344308Y1644142D01*
G37*
G36*
X7866735Y1642364D02*
G01*
X7881264Y1642364D01*
X7895691Y1644142D01*
X7909814Y1647799D01*
X7923326Y1653133D01*
X7936077Y1660143D01*
X7947863Y1668729D01*
X7958480Y1678686D01*
X7967776Y1689862D01*
X7975549Y1702155D01*
X7981746Y1715363D01*
X7986268Y1729181D01*
X7988960Y1743456D01*
X7989925Y1758340D01*
X7989925Y1797659D01*
X7988960Y1812543D01*
X7986268Y1826818D01*
X7981746Y1840636D01*
X7975549Y1853844D01*
X7967776Y1866138D01*
X7958480Y1877314D01*
X7947863Y1887270D01*
X7936077Y1895856D01*
X7923326Y1902866D01*
X7909814Y1908200D01*
X7895691Y1911857D01*
X7881264Y1913636D01*
X7866735Y1913636D01*
X7852308Y1911857D01*
X7838186Y1908200D01*
X7824673Y1902866D01*
X7811922Y1895856D01*
X7800136Y1887270D01*
X7789519Y1877314D01*
X7780223Y1866138D01*
X7772450Y1853844D01*
X7766253Y1840636D01*
X7761731Y1826818D01*
X7759039Y1812543D01*
X7758074Y1797659D01*
X7758074Y1758340D01*
X7759039Y1743456D01*
X7761731Y1729181D01*
X7766253Y1715363D01*
X7772450Y1702155D01*
X7780223Y1689862D01*
X7789519Y1678686D01*
X7800136Y1668729D01*
X7811922Y1660143D01*
X7824673Y1653133D01*
X7838186Y1647799D01*
X7852308Y1644142D01*
G37*
G36*
X6850735Y1642364D02*
G01*
X6865264Y1642364D01*
X6879691Y1644142D01*
X6893814Y1647799D01*
X6907326Y1653133D01*
X6920077Y1660143D01*
X6931863Y1668729D01*
X6942480Y1678686D01*
X6951776Y1689862D01*
X6959549Y1702155D01*
X6965746Y1715363D01*
X6970268Y1729181D01*
X6972960Y1743456D01*
X6973925Y1758340D01*
X6973925Y1797659D01*
X6972960Y1812543D01*
X6970268Y1826818D01*
X6965746Y1840636D01*
X6959549Y1853844D01*
X6951776Y1866138D01*
X6942480Y1877314D01*
X6931863Y1887270D01*
X6920077Y1895856D01*
X6907326Y1902866D01*
X6893814Y1908200D01*
X6879691Y1911857D01*
X6865264Y1913636D01*
X6850735Y1913636D01*
X6836308Y1911857D01*
X6822186Y1908200D01*
X6808673Y1902866D01*
X6795922Y1895856D01*
X6784136Y1887270D01*
X6773519Y1877314D01*
X6764223Y1866138D01*
X6756450Y1853844D01*
X6750253Y1840636D01*
X6745731Y1826818D01*
X6743039Y1812543D01*
X6742074Y1797659D01*
X6742074Y1758340D01*
X6743039Y1743456D01*
X6745731Y1729181D01*
X6750253Y1715363D01*
X6756450Y1702155D01*
X6764223Y1689862D01*
X6773519Y1678686D01*
X6784136Y1668729D01*
X6795922Y1660143D01*
X6808673Y1653133D01*
X6822186Y1647799D01*
X6836308Y1644142D01*
G37*
G36*
X4564735Y1642364D02*
G01*
X4579264Y1642364D01*
X4593691Y1644142D01*
X4607814Y1647799D01*
X4621326Y1653133D01*
X4634077Y1660143D01*
X4645863Y1668729D01*
X4656480Y1678686D01*
X4665776Y1689862D01*
X4673549Y1702155D01*
X4679746Y1715363D01*
X4684268Y1729181D01*
X4686960Y1743456D01*
X4687925Y1758340D01*
X4687925Y1797659D01*
X4686960Y1812543D01*
X4684268Y1826818D01*
X4679746Y1840636D01*
X4673549Y1853844D01*
X4665776Y1866138D01*
X4656480Y1877314D01*
X4645863Y1887270D01*
X4642104Y1890014D01*
X4639868Y1892300D01*
X4638395Y1895093D01*
X4637887Y1898243D01*
X4637887Y2408936D01*
X4638700Y2412796D01*
X4640884Y2416098D01*
X4644186Y2418334D01*
X4648047Y2419096D01*
X4666437Y2419096D01*
X4672736Y2419807D01*
X4678222Y2421737D01*
X4683099Y2424785D01*
X4687214Y2428900D01*
X4690414Y2433980D01*
X4693208Y2436926D01*
X4696968Y2438501D01*
X4701032Y2438501D01*
X4704791Y2436926D01*
X4707585Y2433980D01*
X4710785Y2428900D01*
X4714900Y2424785D01*
X4719777Y2421737D01*
X4725263Y2419807D01*
X4731562Y2419096D01*
X4749952Y2419096D01*
X4753813Y2418334D01*
X4757115Y2416098D01*
X4759299Y2412796D01*
X4760112Y2408936D01*
X4760112Y1898243D01*
X4759604Y1895093D01*
X4758131Y1892300D01*
X4755896Y1890014D01*
X4752136Y1887270D01*
X4741519Y1877314D01*
X4732223Y1866138D01*
X4724450Y1853844D01*
X4718253Y1840636D01*
X4713732Y1826818D01*
X4711039Y1812543D01*
X4710074Y1797659D01*
X4710074Y1758340D01*
X4711039Y1743456D01*
X4713732Y1729181D01*
X4718253Y1715363D01*
X4724450Y1702155D01*
X4732223Y1689862D01*
X4741519Y1678686D01*
X4752136Y1668729D01*
X4763922Y1660143D01*
X4776673Y1653133D01*
X4790186Y1647799D01*
X4804308Y1644142D01*
X4818735Y1642364D01*
X4833264Y1642364D01*
X4847691Y1644142D01*
X4861814Y1647799D01*
X4875326Y1653133D01*
X4888077Y1660143D01*
X4899863Y1668729D01*
X4910480Y1678686D01*
X4919776Y1689862D01*
X4927549Y1702155D01*
X4933746Y1715363D01*
X4938268Y1729181D01*
X4940960Y1743456D01*
X4941925Y1758340D01*
X4941925Y1797659D01*
X4940960Y1812543D01*
X4938268Y1826818D01*
X4933746Y1840636D01*
X4927549Y1853844D01*
X4919776Y1866138D01*
X4910480Y1877314D01*
X4899863Y1887270D01*
X4896104Y1890014D01*
X4893868Y1892300D01*
X4892395Y1895093D01*
X4891887Y1898243D01*
X4891887Y2408936D01*
X4892700Y2412796D01*
X4894884Y2416098D01*
X4898186Y2418334D01*
X4902047Y2419096D01*
X4920437Y2419096D01*
X4926736Y2419807D01*
X4932222Y2421737D01*
X4937099Y2424785D01*
X4941214Y2428900D01*
X4944414Y2433980D01*
X4947208Y2436926D01*
X4950968Y2438501D01*
X4955032Y2438501D01*
X4958791Y2436926D01*
X4961585Y2433980D01*
X4964785Y2428900D01*
X4968900Y2424785D01*
X4973777Y2421737D01*
X4979263Y2419807D01*
X4985562Y2419096D01*
X5003952Y2419096D01*
X5007813Y2418334D01*
X5011115Y2416098D01*
X5013299Y2412796D01*
X5014112Y2408936D01*
X5014112Y1898243D01*
X5013604Y1895093D01*
X5012131Y1892300D01*
X5009896Y1890014D01*
X5006136Y1887270D01*
X4995519Y1877314D01*
X4986223Y1866138D01*
X4978450Y1853844D01*
X4972253Y1840636D01*
X4967732Y1826818D01*
X4965039Y1812543D01*
X4964074Y1797659D01*
X4964074Y1758340D01*
X4965039Y1743456D01*
X4967732Y1729181D01*
X4972253Y1715363D01*
X4978450Y1702155D01*
X4986223Y1689862D01*
X4995519Y1678686D01*
X5006136Y1668729D01*
X5017922Y1660143D01*
X5030673Y1653133D01*
X5044186Y1647799D01*
X5058308Y1644142D01*
X5072735Y1642364D01*
X5087264Y1642364D01*
X5101691Y1644142D01*
X5115814Y1647799D01*
X5129326Y1653133D01*
X5142077Y1660143D01*
X5153863Y1668729D01*
X5164480Y1678686D01*
X5173776Y1689862D01*
X5181549Y1702155D01*
X5187746Y1715363D01*
X5192268Y1729181D01*
X5194960Y1743456D01*
X5195925Y1758340D01*
X5195925Y1797659D01*
X5194960Y1812543D01*
X5192268Y1826818D01*
X5187746Y1840636D01*
X5181549Y1853844D01*
X5173776Y1866138D01*
X5164480Y1877314D01*
X5153863Y1887270D01*
X5150104Y1890014D01*
X5147868Y1892300D01*
X5146395Y1895093D01*
X5145887Y1898243D01*
X5145887Y2408936D01*
X5146700Y2412796D01*
X5148884Y2416098D01*
X5152186Y2418334D01*
X5156047Y2419096D01*
X5174437Y2419096D01*
X5180736Y2419807D01*
X5186222Y2421737D01*
X5191099Y2424785D01*
X5195214Y2428900D01*
X5198414Y2433980D01*
X5201208Y2436926D01*
X5204968Y2438501D01*
X5209032Y2438501D01*
X5212791Y2436926D01*
X5215585Y2433980D01*
X5218785Y2428900D01*
X5222900Y2424785D01*
X5227777Y2421737D01*
X5233263Y2419807D01*
X5239562Y2419096D01*
X5257952Y2419096D01*
X5261813Y2418334D01*
X5265115Y2416098D01*
X5267299Y2412796D01*
X5268112Y2408936D01*
X5268112Y1898243D01*
X5267604Y1895093D01*
X5266131Y1892300D01*
X5263896Y1890014D01*
X5260136Y1887270D01*
X5249519Y1877314D01*
X5240223Y1866138D01*
X5232450Y1853844D01*
X5226253Y1840636D01*
X5221732Y1826818D01*
X5219039Y1812543D01*
X5218074Y1797659D01*
X5218074Y1758340D01*
X5219039Y1743456D01*
X5221732Y1729181D01*
X5226253Y1715363D01*
X5232450Y1702155D01*
X5240223Y1689862D01*
X5249519Y1678686D01*
X5260136Y1668729D01*
X5271922Y1660143D01*
X5284673Y1653133D01*
X5298186Y1647799D01*
X5312308Y1644142D01*
X5326735Y1642364D01*
X5341264Y1642364D01*
X5355691Y1644142D01*
X5369814Y1647799D01*
X5383326Y1653133D01*
X5396077Y1660143D01*
X5407863Y1668729D01*
X5418480Y1678686D01*
X5427776Y1689862D01*
X5435549Y1702155D01*
X5441746Y1715363D01*
X5446268Y1729181D01*
X5448960Y1743456D01*
X5449925Y1758340D01*
X5449925Y1797659D01*
X5448960Y1812543D01*
X5446268Y1826818D01*
X5441746Y1840636D01*
X5435549Y1853844D01*
X5427776Y1866138D01*
X5418480Y1877314D01*
X5407863Y1887270D01*
X5404104Y1890014D01*
X5401868Y1892300D01*
X5400395Y1895093D01*
X5399887Y1898243D01*
X5399887Y2408936D01*
X5400700Y2412796D01*
X5402884Y2416098D01*
X5406186Y2418334D01*
X5410047Y2419096D01*
X5428437Y2419096D01*
X5434736Y2419807D01*
X5440222Y2421737D01*
X5445099Y2424785D01*
X5449214Y2428900D01*
X5452414Y2433980D01*
X5455208Y2436926D01*
X5458968Y2438501D01*
X5463032Y2438501D01*
X5466791Y2436926D01*
X5469585Y2433980D01*
X5472785Y2428900D01*
X5476900Y2424785D01*
X5481777Y2421737D01*
X5487263Y2419807D01*
X5493562Y2419096D01*
X5511952Y2419096D01*
X5515813Y2418334D01*
X5519115Y2416098D01*
X5521299Y2412796D01*
X5522112Y2408936D01*
X5522112Y1898243D01*
X5521604Y1895093D01*
X5520131Y1892300D01*
X5517896Y1890014D01*
X5514136Y1887270D01*
X5503519Y1877314D01*
X5494223Y1866138D01*
X5486450Y1853844D01*
X5480253Y1840636D01*
X5475732Y1826818D01*
X5473039Y1812543D01*
X5472074Y1797659D01*
X5472074Y1758340D01*
X5473039Y1743456D01*
X5475732Y1729181D01*
X5480253Y1715363D01*
X5486450Y1702155D01*
X5494223Y1689862D01*
X5503519Y1678686D01*
X5514136Y1668729D01*
X5525922Y1660143D01*
X5538673Y1653133D01*
X5552186Y1647799D01*
X5566308Y1644142D01*
X5580735Y1642364D01*
X5595264Y1642364D01*
X5609691Y1644142D01*
X5623814Y1647799D01*
X5637326Y1653133D01*
X5650077Y1660143D01*
X5661863Y1668729D01*
X5672480Y1678686D01*
X5681776Y1689862D01*
X5689549Y1702155D01*
X5695746Y1715363D01*
X5700268Y1729181D01*
X5702960Y1743456D01*
X5703925Y1758340D01*
X5703925Y1797659D01*
X5702960Y1812543D01*
X5700268Y1826818D01*
X5695746Y1840636D01*
X5689549Y1853844D01*
X5681776Y1866138D01*
X5672480Y1877314D01*
X5661863Y1887270D01*
X5658104Y1890014D01*
X5655868Y1892300D01*
X5654395Y1895093D01*
X5653887Y1898243D01*
X5653887Y2408936D01*
X5654700Y2412796D01*
X5656884Y2416098D01*
X5660186Y2418334D01*
X5664047Y2419096D01*
X5682437Y2419096D01*
X5688736Y2419807D01*
X5694222Y2421737D01*
X5699099Y2424785D01*
X5703214Y2428900D01*
X5706414Y2433980D01*
X5709208Y2436926D01*
X5712968Y2438501D01*
X5717032Y2438501D01*
X5720791Y2436926D01*
X5723585Y2433980D01*
X5726785Y2428900D01*
X5730900Y2424785D01*
X5735777Y2421737D01*
X5741263Y2419807D01*
X5747562Y2419096D01*
X5765952Y2419096D01*
X5769813Y2418334D01*
X5773115Y2416098D01*
X5775299Y2412796D01*
X5776112Y2408936D01*
X5776112Y1898243D01*
X5775604Y1895093D01*
X5774131Y1892300D01*
X5771896Y1890014D01*
X5768136Y1887270D01*
X5757519Y1877314D01*
X5748223Y1866138D01*
X5740450Y1853844D01*
X5734253Y1840636D01*
X5729732Y1826818D01*
X5727039Y1812543D01*
X5726074Y1797659D01*
X5726074Y1758340D01*
X5727039Y1743456D01*
X5729732Y1729181D01*
X5734253Y1715363D01*
X5740450Y1702155D01*
X5748223Y1689862D01*
X5757519Y1678686D01*
X5768136Y1668729D01*
X5779922Y1660143D01*
X5792673Y1653133D01*
X5806186Y1647799D01*
X5820308Y1644142D01*
X5834735Y1642364D01*
X5849264Y1642364D01*
X5863691Y1644142D01*
X5877814Y1647799D01*
X5891326Y1653133D01*
X5904077Y1660143D01*
X5915863Y1668729D01*
X5926480Y1678686D01*
X5935776Y1689862D01*
X5943549Y1702155D01*
X5949746Y1715363D01*
X5954268Y1729181D01*
X5956960Y1743456D01*
X5957925Y1758340D01*
X5957925Y1797659D01*
X5956960Y1812543D01*
X5954268Y1826818D01*
X5949746Y1840636D01*
X5943549Y1853844D01*
X5935776Y1866138D01*
X5926480Y1877314D01*
X5915863Y1887270D01*
X5912104Y1890014D01*
X5909868Y1892300D01*
X5908395Y1895093D01*
X5907887Y1898243D01*
X5907887Y2408936D01*
X5908700Y2412796D01*
X5910884Y2416098D01*
X5914186Y2418334D01*
X5918047Y2419096D01*
X5936437Y2419096D01*
X5942736Y2419807D01*
X5948222Y2421737D01*
X5953099Y2424785D01*
X5957214Y2428900D01*
X5960414Y2433980D01*
X5963208Y2436926D01*
X5966968Y2438501D01*
X5971032Y2438501D01*
X5974791Y2436926D01*
X5977585Y2433980D01*
X5980785Y2428900D01*
X5984900Y2424785D01*
X5989777Y2421737D01*
X5995263Y2419807D01*
X6001562Y2419096D01*
X6019952Y2419096D01*
X6023813Y2418334D01*
X6027115Y2416098D01*
X6029299Y2412796D01*
X6030112Y2408936D01*
X6030112Y1898243D01*
X6029604Y1895093D01*
X6028131Y1892300D01*
X6025896Y1890014D01*
X6022136Y1887270D01*
X6011519Y1877314D01*
X6002223Y1866138D01*
X5994450Y1853844D01*
X5988253Y1840636D01*
X5983732Y1826818D01*
X5981039Y1812543D01*
X5980074Y1797659D01*
X5980074Y1758340D01*
X5981039Y1743456D01*
X5983732Y1729181D01*
X5988253Y1715363D01*
X5994450Y1702155D01*
X6002223Y1689862D01*
X6011519Y1678686D01*
X6022136Y1668729D01*
X6033922Y1660143D01*
X6046673Y1653133D01*
X6060186Y1647799D01*
X6074308Y1644142D01*
X6088735Y1642364D01*
X6103264Y1642364D01*
X6117691Y1644142D01*
X6131814Y1647799D01*
X6145326Y1653133D01*
X6158077Y1660143D01*
X6169863Y1668729D01*
X6180480Y1678686D01*
X6189776Y1689862D01*
X6197549Y1702155D01*
X6203746Y1715363D01*
X6208268Y1729181D01*
X6210960Y1743456D01*
X6211925Y1758340D01*
X6211925Y1797659D01*
X6210960Y1812543D01*
X6208268Y1826818D01*
X6203746Y1840636D01*
X6197549Y1853844D01*
X6189776Y1866138D01*
X6180480Y1877314D01*
X6169863Y1887270D01*
X6166104Y1890014D01*
X6163868Y1892300D01*
X6162395Y1895093D01*
X6161887Y1898243D01*
X6161887Y2408936D01*
X6162700Y2412796D01*
X6164884Y2416098D01*
X6168186Y2418334D01*
X6172047Y2419096D01*
X6190437Y2419096D01*
X6196736Y2419807D01*
X6202222Y2421737D01*
X6207099Y2424785D01*
X6211214Y2428900D01*
X6214414Y2433980D01*
X6217208Y2436926D01*
X6220968Y2438501D01*
X6225032Y2438501D01*
X6228791Y2436926D01*
X6231585Y2433980D01*
X6234785Y2428900D01*
X6238900Y2424785D01*
X6243777Y2421737D01*
X6249263Y2419807D01*
X6255562Y2419096D01*
X6273952Y2419096D01*
X6277813Y2418334D01*
X6281115Y2416098D01*
X6283299Y2412796D01*
X6284112Y2408936D01*
X6284112Y1898243D01*
X6283604Y1895093D01*
X6282131Y1892300D01*
X6279896Y1890014D01*
X6276136Y1887270D01*
X6265519Y1877314D01*
X6256223Y1866138D01*
X6248450Y1853844D01*
X6242253Y1840636D01*
X6237732Y1826818D01*
X6235039Y1812543D01*
X6234074Y1797659D01*
X6234074Y1758340D01*
X6235039Y1743456D01*
X6237732Y1729181D01*
X6242253Y1715363D01*
X6248450Y1702155D01*
X6256223Y1689862D01*
X6265519Y1678686D01*
X6276136Y1668729D01*
X6287922Y1660143D01*
X6300673Y1653133D01*
X6314186Y1647799D01*
X6328308Y1644142D01*
X6342735Y1642364D01*
X6357264Y1642364D01*
X6371691Y1644142D01*
X6385814Y1647799D01*
X6399326Y1653133D01*
X6412077Y1660143D01*
X6423863Y1668729D01*
X6434480Y1678686D01*
X6443776Y1689862D01*
X6451549Y1702155D01*
X6457746Y1715363D01*
X6462268Y1729181D01*
X6464960Y1743456D01*
X6465925Y1758340D01*
X6465925Y1797659D01*
X6464960Y1812543D01*
X6462268Y1826818D01*
X6457746Y1840636D01*
X6451549Y1853844D01*
X6443776Y1866138D01*
X6434480Y1877314D01*
X6423863Y1887270D01*
X6420104Y1890014D01*
X6417868Y1892300D01*
X6416395Y1895093D01*
X6415887Y1898243D01*
X6415887Y2408936D01*
X6416700Y2412796D01*
X6418884Y2416098D01*
X6422186Y2418334D01*
X6426047Y2419096D01*
X6444437Y2419096D01*
X6450736Y2419807D01*
X6456222Y2421737D01*
X6461099Y2424785D01*
X6465214Y2428900D01*
X6468414Y2433980D01*
X6471208Y2436926D01*
X6474968Y2438501D01*
X6479032Y2438501D01*
X6482791Y2436926D01*
X6485585Y2433980D01*
X6488785Y2428900D01*
X6492900Y2424785D01*
X6497777Y2421737D01*
X6503263Y2419807D01*
X6509562Y2419096D01*
X6698437Y2419096D01*
X6704736Y2419807D01*
X6710222Y2421737D01*
X6715099Y2424785D01*
X6719214Y2428900D01*
X6722414Y2433980D01*
X6725208Y2436926D01*
X6728968Y2438501D01*
X6733031Y2438501D01*
X6736791Y2436926D01*
X6739585Y2433980D01*
X6742785Y2428900D01*
X6746900Y2424785D01*
X6751777Y2421737D01*
X6757263Y2419807D01*
X6763562Y2419096D01*
X6952437Y2419096D01*
X6958736Y2419807D01*
X6964222Y2421737D01*
X6969099Y2424785D01*
X6973214Y2428900D01*
X6976414Y2433980D01*
X6979208Y2436926D01*
X6982968Y2438501D01*
X6987031Y2438501D01*
X6990791Y2436926D01*
X6993585Y2433980D01*
X6996785Y2428900D01*
X7000900Y2424785D01*
X7005777Y2421737D01*
X7011263Y2419807D01*
X7017562Y2419096D01*
X7206437Y2419096D01*
X7212736Y2419807D01*
X7218222Y2421737D01*
X7223099Y2424785D01*
X7227214Y2428900D01*
X7230414Y2433980D01*
X7233208Y2436926D01*
X7236968Y2438501D01*
X7241031Y2438501D01*
X7244791Y2436926D01*
X7247585Y2433980D01*
X7250785Y2428900D01*
X7254900Y2424785D01*
X7259777Y2421737D01*
X7265263Y2419807D01*
X7271562Y2419096D01*
X7460437Y2419096D01*
X7466736Y2419807D01*
X7472222Y2421737D01*
X7477099Y2424785D01*
X7481214Y2428900D01*
X7484414Y2433980D01*
X7487208Y2436926D01*
X7490968Y2438501D01*
X7495031Y2438501D01*
X7498791Y2436926D01*
X7501585Y2433980D01*
X7504785Y2428900D01*
X7508900Y2424785D01*
X7513777Y2421737D01*
X7519263Y2419807D01*
X7525562Y2419096D01*
X7714437Y2419096D01*
X7720736Y2419807D01*
X7726222Y2421737D01*
X7731099Y2424785D01*
X7735214Y2428900D01*
X7738414Y2433980D01*
X7741208Y2436926D01*
X7744968Y2438501D01*
X7749031Y2438501D01*
X7752791Y2436926D01*
X7755585Y2433980D01*
X7758785Y2428900D01*
X7762900Y2424785D01*
X7767777Y2421737D01*
X7773263Y2419807D01*
X7779562Y2419096D01*
X7968437Y2419096D01*
X7974736Y2419807D01*
X7980222Y2421737D01*
X7985099Y2424785D01*
X7989214Y2428900D01*
X7992414Y2433980D01*
X7995208Y2436926D01*
X7998968Y2438501D01*
X8003031Y2438501D01*
X8006791Y2436926D01*
X8009585Y2433980D01*
X8012785Y2428900D01*
X8016900Y2424785D01*
X8021777Y2421737D01*
X8027263Y2419807D01*
X8033562Y2419096D01*
X8222437Y2419096D01*
X8228736Y2419807D01*
X8234222Y2421737D01*
X8239099Y2424785D01*
X8243214Y2428900D01*
X8246414Y2433980D01*
X8249208Y2436926D01*
X8252968Y2438501D01*
X8257031Y2438501D01*
X8260791Y2436926D01*
X8263585Y2433980D01*
X8266785Y2428900D01*
X8270900Y2424785D01*
X8275777Y2421737D01*
X8281263Y2419807D01*
X8287562Y2419096D01*
X8476437Y2419096D01*
X8482736Y2419807D01*
X8488222Y2421737D01*
X8493099Y2424785D01*
X8497214Y2428900D01*
X8500262Y2433777D01*
X8502192Y2439263D01*
X8502904Y2445562D01*
X8502904Y2634437D01*
X8502192Y2640736D01*
X8500262Y2646222D01*
X8497214Y2651099D01*
X8493099Y2655214D01*
X8488019Y2658414D01*
X8485073Y2661208D01*
X8483498Y2664968D01*
X8483498Y2669032D01*
X8485073Y2672791D01*
X8488019Y2675585D01*
X8493099Y2678785D01*
X8497214Y2682900D01*
X8500262Y2687777D01*
X8502192Y2693263D01*
X8502904Y2699562D01*
X8502904Y2888437D01*
X8502192Y2894736D01*
X8500262Y2900222D01*
X8497214Y2905099D01*
X8493099Y2909214D01*
X8488222Y2912262D01*
X8482736Y2914192D01*
X8476437Y2914904D01*
X8458047Y2914904D01*
X8454186Y2915666D01*
X8450884Y2917901D01*
X8448700Y2921203D01*
X8447887Y2925064D01*
X8447887Y3188919D01*
X8448852Y3193237D01*
X8451596Y3196742D01*
X8461349Y3204819D01*
X8471306Y3215436D01*
X8479840Y3227222D01*
X8481822Y3230829D01*
X8484108Y3233623D01*
X8487206Y3235452D01*
X8490762Y3236112D01*
X8535720Y3236112D01*
X8538870Y3235604D01*
X8541715Y3234131D01*
X8543950Y3231896D01*
X8546693Y3228136D01*
X8556650Y3217519D01*
X8567877Y3208223D01*
X8580170Y3200450D01*
X8593328Y3194253D01*
X8607196Y3189732D01*
X8621471Y3187039D01*
X8636000Y3186125D01*
X8650528Y3187039D01*
X8664803Y3189732D01*
X8678672Y3194253D01*
X8691829Y3200450D01*
X8704122Y3208223D01*
X8715349Y3217519D01*
X8725306Y3228136D01*
X8733840Y3239922D01*
X8740851Y3252673D01*
X8746236Y3266186D01*
X8749842Y3280308D01*
X8751671Y3294735D01*
X8751671Y3309264D01*
X8749842Y3323691D01*
X8746236Y3337814D01*
X8740851Y3351326D01*
X8733840Y3364077D01*
X8725306Y3375863D01*
X8715349Y3386480D01*
X8704122Y3395776D01*
X8691829Y3403549D01*
X8678672Y3409746D01*
X8664803Y3414268D01*
X8650528Y3416960D01*
X8636000Y3417874D01*
X8621471Y3416960D01*
X8607196Y3414268D01*
X8593328Y3409746D01*
X8580170Y3403549D01*
X8567877Y3395776D01*
X8556650Y3386480D01*
X8546693Y3375863D01*
X8543950Y3372104D01*
X8541715Y3369868D01*
X8538870Y3368395D01*
X8535720Y3367887D01*
X8471255Y3367887D01*
X8467191Y3368751D01*
X8463838Y3371087D01*
X8461349Y3373780D01*
X8451596Y3381857D01*
X8448852Y3385312D01*
X8447887Y3389680D01*
X8447887Y3455720D01*
X8448395Y3458870D01*
X8449868Y3461715D01*
X8452104Y3463950D01*
X8455863Y3466693D01*
X8466480Y3476650D01*
X8475776Y3487877D01*
X8483549Y3500170D01*
X8489746Y3513328D01*
X8494268Y3527196D01*
X8496960Y3541471D01*
X8497874Y3556000D01*
X8496960Y3570528D01*
X8494268Y3584803D01*
X8489746Y3598672D01*
X8483549Y3611829D01*
X8475776Y3624122D01*
X8466480Y3635349D01*
X8455863Y3645306D01*
X8444077Y3653840D01*
X8431326Y3660851D01*
X8417814Y3666236D01*
X8403691Y3669842D01*
X8389264Y3671671D01*
X8374735Y3671671D01*
X8360308Y3669842D01*
X8346186Y3666236D01*
X8332673Y3660851D01*
X8319922Y3653840D01*
X8308136Y3645306D01*
X8297519Y3635349D01*
X8288223Y3624122D01*
X8280450Y3611829D01*
X8274253Y3598672D01*
X8269731Y3584803D01*
X8267039Y3570528D01*
X8266125Y3556000D01*
X8267039Y3541471D01*
X8269731Y3527196D01*
X8274253Y3513328D01*
X8280450Y3500170D01*
X8288223Y3487877D01*
X8297519Y3476650D01*
X8308136Y3466693D01*
X8311896Y3463950D01*
X8314131Y3461715D01*
X8315604Y3458870D01*
X8316112Y3455720D01*
X8316112Y3389680D01*
X8315147Y3385312D01*
X8312403Y3381857D01*
X8302650Y3373780D01*
X8292693Y3363163D01*
X8284159Y3351377D01*
X8277148Y3338626D01*
X8271764Y3325114D01*
X8268157Y3310991D01*
X8266328Y3296564D01*
X8266328Y3282035D01*
X8268157Y3267557D01*
X8271764Y3253486D01*
X8277148Y3239973D01*
X8284159Y3227222D01*
X8292693Y3215436D01*
X8302650Y3204819D01*
X8312403Y3196742D01*
X8315147Y3193237D01*
X8316112Y3188919D01*
X8316112Y2925064D01*
X8315299Y2921203D01*
X8313115Y2917901D01*
X8309813Y2915666D01*
X8305952Y2914904D01*
X8287562Y2914904D01*
X8281263Y2914192D01*
X8275777Y2912262D01*
X8270900Y2909214D01*
X8266785Y2905099D01*
X8263585Y2900019D01*
X8260791Y2897073D01*
X8257031Y2895498D01*
X8252968Y2895498D01*
X8249208Y2897073D01*
X8246414Y2900019D01*
X8243214Y2905099D01*
X8239099Y2909214D01*
X8234222Y2912262D01*
X8228736Y2914192D01*
X8222437Y2914904D01*
X8204047Y2914904D01*
X8200186Y2915666D01*
X8196884Y2917901D01*
X8194700Y2921203D01*
X8193887Y2925064D01*
X8193887Y3709619D01*
X8194852Y3713937D01*
X8197596Y3717442D01*
X8207349Y3725519D01*
X8217306Y3736136D01*
X8220049Y3739896D01*
X8222284Y3742131D01*
X8225129Y3743604D01*
X8228279Y3744112D01*
X8281720Y3744112D01*
X8284870Y3743604D01*
X8287715Y3742131D01*
X8289950Y3739896D01*
X8292693Y3736136D01*
X8302650Y3725519D01*
X8313877Y3716223D01*
X8326170Y3708450D01*
X8339328Y3702253D01*
X8353196Y3697732D01*
X8367471Y3695039D01*
X8382000Y3694125D01*
X8396528Y3695039D01*
X8410803Y3697732D01*
X8424672Y3702253D01*
X8437829Y3708450D01*
X8450122Y3716223D01*
X8461349Y3725519D01*
X8471306Y3736136D01*
X8479840Y3747922D01*
X8486851Y3760673D01*
X8492236Y3774186D01*
X8495842Y3788308D01*
X8497671Y3802735D01*
X8497671Y3817264D01*
X8495842Y3831691D01*
X8492236Y3845814D01*
X8486851Y3859326D01*
X8479840Y3872077D01*
X8471306Y3883863D01*
X8461349Y3894480D01*
X8450122Y3903776D01*
X8437829Y3911549D01*
X8424672Y3917746D01*
X8410803Y3922268D01*
X8396528Y3924960D01*
X8382000Y3925874D01*
X8367471Y3924960D01*
X8353196Y3922268D01*
X8339328Y3917746D01*
X8326170Y3911549D01*
X8313877Y3903776D01*
X8302650Y3894480D01*
X8292693Y3883863D01*
X8289950Y3880104D01*
X8287715Y3877868D01*
X8284870Y3876395D01*
X8281720Y3875887D01*
X8228228Y3875887D01*
X8225129Y3876395D01*
X8222284Y3877868D01*
X8220049Y3880104D01*
X8217306Y3883863D01*
X8207349Y3894480D01*
X8197596Y3902557D01*
X8194852Y3906012D01*
X8193887Y3910380D01*
X8193887Y3963720D01*
X8194395Y3966870D01*
X8195868Y3969715D01*
X8198103Y3971950D01*
X8201863Y3974693D01*
X8212480Y3984650D01*
X8221776Y3995877D01*
X8229549Y4008170D01*
X8235746Y4021328D01*
X8240268Y4035196D01*
X8242960Y4049471D01*
X8243874Y4064000D01*
X8242960Y4078528D01*
X8240268Y4092803D01*
X8235746Y4106672D01*
X8229549Y4119829D01*
X8221776Y4132122D01*
X8212480Y4143349D01*
X8201863Y4153306D01*
X8190077Y4161840D01*
X8177326Y4168851D01*
X8163814Y4174236D01*
X8149691Y4177842D01*
X8135264Y4179671D01*
X8120735Y4179671D01*
X8106308Y4177842D01*
X8092186Y4174236D01*
X8078673Y4168851D01*
X8065922Y4161840D01*
X8054136Y4153306D01*
X8043519Y4143349D01*
X8034223Y4132122D01*
X8026450Y4119829D01*
X8020253Y4106672D01*
X8015731Y4092803D01*
X8013039Y4078528D01*
X8012125Y4064000D01*
X8013039Y4049471D01*
X8015731Y4035196D01*
X8020253Y4021328D01*
X8026450Y4008170D01*
X8034223Y3995877D01*
X8043519Y3984650D01*
X8054136Y3974693D01*
X8057896Y3971950D01*
X8060131Y3969715D01*
X8061604Y3966870D01*
X8062112Y3963720D01*
X8062112Y3910380D01*
X8061147Y3906012D01*
X8058403Y3902557D01*
X8048650Y3894480D01*
X8038693Y3883863D01*
X8030159Y3872077D01*
X8023148Y3859326D01*
X8017764Y3845814D01*
X8014157Y3831691D01*
X8012328Y3817264D01*
X8012328Y3802735D01*
X8014157Y3788257D01*
X8017764Y3774186D01*
X8023148Y3760673D01*
X8030159Y3747922D01*
X8038693Y3736136D01*
X8048650Y3725519D01*
X8058403Y3717442D01*
X8061147Y3713937D01*
X8062112Y3709619D01*
X8062112Y2925064D01*
X8061299Y2921203D01*
X8059115Y2917901D01*
X8055813Y2915666D01*
X8051952Y2914904D01*
X8033562Y2914904D01*
X8027263Y2914192D01*
X8021777Y2912262D01*
X8016900Y2909214D01*
X8012785Y2905099D01*
X8009585Y2900019D01*
X8006791Y2897073D01*
X8003031Y2895498D01*
X7998968Y2895498D01*
X7995208Y2897073D01*
X7992414Y2900019D01*
X7989214Y2905099D01*
X7985099Y2909214D01*
X7980222Y2912262D01*
X7974736Y2914192D01*
X7968437Y2914904D01*
X7779562Y2914904D01*
X7773263Y2914192D01*
X7767777Y2912262D01*
X7762900Y2909214D01*
X7758785Y2905099D01*
X7755585Y2900019D01*
X7752791Y2897073D01*
X7749031Y2895498D01*
X7744968Y2895498D01*
X7741208Y2897073D01*
X7738414Y2900019D01*
X7735214Y2905099D01*
X7731099Y2909214D01*
X7726222Y2912262D01*
X7720736Y2914192D01*
X7714437Y2914904D01*
X7525562Y2914904D01*
X7519263Y2914192D01*
X7513777Y2912262D01*
X7508900Y2909214D01*
X7504785Y2905099D01*
X7501585Y2900019D01*
X7498791Y2897073D01*
X7495031Y2895498D01*
X7490968Y2895498D01*
X7487208Y2897073D01*
X7484414Y2900019D01*
X7481214Y2905099D01*
X7477099Y2909214D01*
X7472222Y2912262D01*
X7466736Y2914192D01*
X7460437Y2914904D01*
X7271562Y2914904D01*
X7265263Y2914192D01*
X7259777Y2912262D01*
X7254900Y2909214D01*
X7250785Y2905099D01*
X7247585Y2900019D01*
X7244791Y2897073D01*
X7241031Y2895498D01*
X7236968Y2895498D01*
X7233208Y2897073D01*
X7230414Y2900019D01*
X7227214Y2905099D01*
X7223099Y2909214D01*
X7218222Y2912262D01*
X7212736Y2914192D01*
X7206437Y2914904D01*
X7017562Y2914904D01*
X7011263Y2914192D01*
X7005777Y2912262D01*
X7000900Y2909214D01*
X6996785Y2905099D01*
X6993585Y2900019D01*
X6990791Y2897073D01*
X6987031Y2895498D01*
X6982968Y2895498D01*
X6979208Y2897073D01*
X6976414Y2900019D01*
X6973214Y2905099D01*
X6969099Y2909214D01*
X6964222Y2912262D01*
X6958736Y2914192D01*
X6952437Y2914904D01*
X6763562Y2914904D01*
X6757263Y2914192D01*
X6751777Y2912262D01*
X6746900Y2909214D01*
X6742785Y2905099D01*
X6739585Y2900019D01*
X6736791Y2897073D01*
X6733031Y2895498D01*
X6728968Y2895498D01*
X6725208Y2897073D01*
X6722414Y2900019D01*
X6719214Y2905099D01*
X6715099Y2909214D01*
X6710222Y2912262D01*
X6704736Y2914192D01*
X6698437Y2914904D01*
X6509562Y2914904D01*
X6503263Y2914192D01*
X6497777Y2912262D01*
X6492900Y2909214D01*
X6488785Y2905099D01*
X6485585Y2900019D01*
X6482791Y2897073D01*
X6479032Y2895498D01*
X6474968Y2895498D01*
X6471208Y2897073D01*
X6468414Y2900019D01*
X6465214Y2905099D01*
X6461099Y2909214D01*
X6456222Y2912262D01*
X6450736Y2914192D01*
X6444437Y2914904D01*
X6255562Y2914904D01*
X6249263Y2914192D01*
X6243777Y2912262D01*
X6238900Y2909214D01*
X6234785Y2905099D01*
X6231585Y2900019D01*
X6228791Y2897073D01*
X6225032Y2895498D01*
X6220968Y2895498D01*
X6217208Y2897073D01*
X6214414Y2900019D01*
X6211214Y2905099D01*
X6207099Y2909214D01*
X6202222Y2912262D01*
X6196736Y2914192D01*
X6190437Y2914904D01*
X6172047Y2914904D01*
X6168186Y2915666D01*
X6164884Y2917901D01*
X6162700Y2921203D01*
X6161887Y2925064D01*
X6161887Y4088993D01*
X6161074Y4099712D01*
X6158636Y4109770D01*
X6154674Y4119321D01*
X6149289Y4128109D01*
X6142329Y4136288D01*
X5393588Y4885029D01*
X5385409Y4891989D01*
X5376621Y4897374D01*
X5367070Y4901336D01*
X5357012Y4903774D01*
X5346293Y4904587D01*
X3676243Y4904587D01*
X3673094Y4905095D01*
X3670300Y4906568D01*
X3668014Y4908804D01*
X3665270Y4912563D01*
X3655314Y4923180D01*
X3644137Y4932476D01*
X3631844Y4940249D01*
X3618636Y4946446D01*
X3604818Y4950968D01*
X3590544Y4953660D01*
X3575659Y4954625D01*
X3536340Y4954625D01*
X3521456Y4953660D01*
X3507181Y4950968D01*
X3493363Y4946446D01*
X3480155Y4940249D01*
X3467862Y4932476D01*
X3456686Y4923180D01*
X3446729Y4912563D01*
X3438144Y4900777D01*
X3431133Y4888026D01*
X3425799Y4874514D01*
X3422142Y4860391D01*
X3420364Y4845964D01*
X3420364Y4831435D01*
X3422142Y4817008D01*
X3425799Y4802886D01*
X3431133Y4789373D01*
X3438144Y4776622D01*
X3446729Y4764836D01*
X3456686Y4754219D01*
X3467862Y4744923D01*
X3480155Y4737150D01*
X3493363Y4730953D01*
X3507181Y4726432D01*
X3521456Y4723739D01*
X3536340Y4722774D01*
X3575659Y4722774D01*
X3590544Y4723739D01*
X3604818Y4726432D01*
X3618636Y4730953D01*
X3631844Y4737150D01*
X3644137Y4744923D01*
X3655314Y4754219D01*
X3665270Y4764836D01*
X3668014Y4768596D01*
X3670300Y4770831D01*
X3673094Y4772304D01*
X3676243Y4772812D01*
X5315204Y4772812D01*
X5319064Y4771999D01*
X5322366Y4769815D01*
X6027115Y4065066D01*
X6029299Y4061764D01*
X6030112Y4057904D01*
X6030112Y2925064D01*
X6029299Y2921203D01*
X6027115Y2917901D01*
X6023813Y2915666D01*
X6019952Y2914904D01*
X6001562Y2914904D01*
X5995263Y2914192D01*
X5989777Y2912262D01*
X5984900Y2909214D01*
X5980785Y2905099D01*
X5977585Y2900019D01*
X5974791Y2897073D01*
X5971032Y2895498D01*
X5966968Y2895498D01*
X5963208Y2897073D01*
X5960414Y2900019D01*
X5957214Y2905099D01*
X5953099Y2909214D01*
X5948222Y2912262D01*
X5942736Y2914192D01*
X5936437Y2914904D01*
X5918047Y2914904D01*
X5914186Y2915666D01*
X5910884Y2917901D01*
X5908700Y2921203D01*
X5907887Y2925064D01*
X5907887Y4076293D01*
X5907074Y4087012D01*
X5904636Y4097070D01*
X5900674Y4106621D01*
X5895289Y4115409D01*
X5888329Y4123588D01*
X5380888Y4631029D01*
X5372709Y4637989D01*
X5363921Y4643374D01*
X5354370Y4647336D01*
X5344312Y4649774D01*
X5333593Y4650587D01*
X3676243Y4650587D01*
X3673094Y4651095D01*
X3670300Y4652568D01*
X3668014Y4654804D01*
X3665270Y4658563D01*
X3655314Y4669180D01*
X3644137Y4678476D01*
X3631844Y4686249D01*
X3618636Y4692446D01*
X3604818Y4696968D01*
X3590544Y4699660D01*
X3575659Y4700625D01*
X3536340Y4700625D01*
X3521456Y4699660D01*
X3507181Y4696968D01*
X3493363Y4692446D01*
X3480155Y4686249D01*
X3467862Y4678476D01*
X3456686Y4669180D01*
X3446729Y4658563D01*
X3438144Y4646777D01*
X3431133Y4634026D01*
X3425799Y4620514D01*
X3422142Y4606391D01*
X3420364Y4591964D01*
X3420364Y4577435D01*
X3422142Y4563008D01*
X3425799Y4548886D01*
X3431133Y4535373D01*
X3438144Y4522622D01*
X3446729Y4510836D01*
X3456686Y4500219D01*
X3467862Y4490923D01*
X3480155Y4483150D01*
X3493363Y4476953D01*
X3507181Y4472432D01*
X3521456Y4469739D01*
X3536340Y4468774D01*
X3575659Y4468774D01*
X3590544Y4469739D01*
X3604818Y4472432D01*
X3618636Y4476953D01*
X3631844Y4483150D01*
X3644137Y4490923D01*
X3655314Y4500219D01*
X3665270Y4510836D01*
X3668014Y4514596D01*
X3670300Y4516831D01*
X3673094Y4518304D01*
X3676243Y4518812D01*
X5302504Y4518812D01*
X5306364Y4517999D01*
X5309666Y4515815D01*
X5773115Y4052366D01*
X5775299Y4049064D01*
X5776112Y4045204D01*
X5776112Y2925064D01*
X5775299Y2921203D01*
X5773115Y2917901D01*
X5769813Y2915666D01*
X5765952Y2914904D01*
X5747562Y2914904D01*
X5741263Y2914192D01*
X5735777Y2912262D01*
X5730900Y2909214D01*
X5726785Y2905099D01*
X5723585Y2900019D01*
X5720791Y2897073D01*
X5717032Y2895498D01*
X5712968Y2895498D01*
X5709208Y2897073D01*
X5706414Y2900019D01*
X5703214Y2905099D01*
X5699099Y2909214D01*
X5694222Y2912262D01*
X5688736Y2914192D01*
X5682437Y2914904D01*
X5664047Y2914904D01*
X5660186Y2915666D01*
X5656884Y2917901D01*
X5654700Y2921203D01*
X5653887Y2925064D01*
X5653887Y4000093D01*
X5653074Y4010812D01*
X5650636Y4020870D01*
X5646674Y4030421D01*
X5641289Y4039209D01*
X5634329Y4047388D01*
X5304688Y4377029D01*
X5296509Y4383989D01*
X5287721Y4389374D01*
X5278170Y4393336D01*
X5268112Y4395774D01*
X5257393Y4396587D01*
X3676243Y4396587D01*
X3673094Y4397095D01*
X3670300Y4398568D01*
X3668014Y4400804D01*
X3665270Y4404563D01*
X3655314Y4415180D01*
X3644137Y4424476D01*
X3631844Y4432249D01*
X3618636Y4438446D01*
X3604818Y4442968D01*
X3590544Y4445660D01*
X3575659Y4446625D01*
X3536340Y4446625D01*
X3521456Y4445660D01*
X3507181Y4442968D01*
X3493363Y4438446D01*
X3480155Y4432249D01*
X3467862Y4424476D01*
X3456686Y4415180D01*
X3446729Y4404563D01*
X3438144Y4392777D01*
X3431133Y4380026D01*
X3425799Y4366514D01*
X3422142Y4352391D01*
X3420364Y4337964D01*
X3420364Y4323435D01*
X3422142Y4309008D01*
X3425799Y4294886D01*
X3431133Y4281373D01*
X3438144Y4268622D01*
X3446729Y4256836D01*
X3456686Y4246219D01*
X3467862Y4236923D01*
X3480155Y4229150D01*
X3493363Y4222953D01*
X3507181Y4218432D01*
X3521456Y4215739D01*
X3536340Y4214774D01*
X3575659Y4214774D01*
X3590544Y4215739D01*
X3604818Y4218432D01*
X3618636Y4222953D01*
X3631844Y4229150D01*
X3644137Y4236923D01*
X3655314Y4246219D01*
X3665270Y4256836D01*
X3668014Y4260596D01*
X3670300Y4262831D01*
X3673094Y4264304D01*
X3676243Y4264812D01*
X5226304Y4264812D01*
X5230164Y4263999D01*
X5233466Y4261815D01*
X5519115Y3976166D01*
X5521299Y3972864D01*
X5522112Y3969004D01*
X5522112Y2925064D01*
X5521299Y2921203D01*
X5519115Y2917901D01*
X5515813Y2915666D01*
X5511952Y2914904D01*
X5493562Y2914904D01*
X5487263Y2914192D01*
X5481777Y2912262D01*
X5476900Y2909214D01*
X5472785Y2905099D01*
X5469585Y2900019D01*
X5466791Y2897073D01*
X5463032Y2895498D01*
X5458968Y2895498D01*
X5455208Y2897073D01*
X5452414Y2900019D01*
X5449214Y2905099D01*
X5445099Y2909214D01*
X5440222Y2912262D01*
X5434736Y2914192D01*
X5428437Y2914904D01*
X5410047Y2914904D01*
X5406186Y2915666D01*
X5402884Y2917901D01*
X5400700Y2921203D01*
X5399887Y2925064D01*
X5399887Y3847693D01*
X5399074Y3858412D01*
X5396636Y3868470D01*
X5392674Y3878021D01*
X5387289Y3886809D01*
X5380329Y3894988D01*
X5152288Y4123029D01*
X5144109Y4129989D01*
X5135321Y4135374D01*
X5125770Y4139336D01*
X5115712Y4141774D01*
X5104993Y4142587D01*
X3676243Y4142587D01*
X3673094Y4143095D01*
X3670300Y4144568D01*
X3668014Y4146804D01*
X3665270Y4150563D01*
X3655314Y4161180D01*
X3644137Y4170476D01*
X3631844Y4178249D01*
X3618636Y4184446D01*
X3604818Y4188968D01*
X3590544Y4191660D01*
X3575659Y4192625D01*
X3536340Y4192625D01*
X3521456Y4191660D01*
X3507181Y4188968D01*
X3493363Y4184446D01*
X3480155Y4178249D01*
X3467862Y4170476D01*
X3456686Y4161180D01*
X3446729Y4150563D01*
X3438144Y4138777D01*
X3431133Y4126026D01*
X3425799Y4112514D01*
X3422142Y4098391D01*
X3420364Y4083964D01*
X3420364Y4069435D01*
X3422142Y4055008D01*
X3425799Y4040886D01*
X3431133Y4027373D01*
X3438144Y4014622D01*
X3446729Y4002836D01*
X3456686Y3992219D01*
X3467862Y3982923D01*
X3480155Y3975150D01*
X3493363Y3968953D01*
X3507181Y3964432D01*
X3521456Y3961739D01*
X3536340Y3960774D01*
X3575659Y3960774D01*
X3590544Y3961739D01*
X3604818Y3964432D01*
X3618636Y3968953D01*
X3631844Y3975150D01*
X3644137Y3982923D01*
X3655314Y3992219D01*
X3665270Y4002836D01*
X3668014Y4006596D01*
X3670300Y4008831D01*
X3673094Y4010304D01*
X3676243Y4010812D01*
X5073904Y4010812D01*
X5077764Y4009999D01*
X5081066Y4007815D01*
X5265115Y3823766D01*
X5267299Y3820464D01*
X5268112Y3816604D01*
X5268112Y2925064D01*
X5267299Y2921203D01*
X5265115Y2917901D01*
X5261813Y2915666D01*
X5257952Y2914904D01*
X5239562Y2914904D01*
X5233263Y2914192D01*
X5227777Y2912262D01*
X5222900Y2909214D01*
X5218785Y2905099D01*
X5215585Y2900019D01*
X5212791Y2897073D01*
X5209032Y2895498D01*
X5204968Y2895498D01*
X5201208Y2897073D01*
X5198414Y2900019D01*
X5195214Y2905099D01*
X5191099Y2909214D01*
X5186222Y2912262D01*
X5180736Y2914192D01*
X5174437Y2914904D01*
X4985562Y2914904D01*
X4979263Y2914192D01*
X4973777Y2912262D01*
X4968900Y2909214D01*
X4964785Y2905099D01*
X4961585Y2900019D01*
X4958791Y2897073D01*
X4955032Y2895498D01*
X4950968Y2895498D01*
X4947208Y2897073D01*
X4944414Y2900019D01*
X4941214Y2905099D01*
X4937099Y2909214D01*
X4932019Y2912414D01*
X4929073Y2915208D01*
X4927498Y2918968D01*
X4927498Y2923032D01*
X4929073Y2926791D01*
X4932019Y2929585D01*
X4937099Y2932785D01*
X4941214Y2936900D01*
X4944262Y2941777D01*
X4946192Y2947263D01*
X4946904Y2953562D01*
X4946904Y3142437D01*
X4946192Y3148736D01*
X4944262Y3154222D01*
X4941214Y3159099D01*
X4937099Y3163214D01*
X4932019Y3166414D01*
X4929073Y3169208D01*
X4927498Y3172968D01*
X4927498Y3177032D01*
X4929073Y3180791D01*
X4932019Y3183585D01*
X4937099Y3186785D01*
X4941214Y3190900D01*
X4944262Y3195777D01*
X4946192Y3201263D01*
X4946904Y3207562D01*
X4946904Y3396437D01*
X4946192Y3402736D01*
X4944262Y3408222D01*
X4941214Y3413099D01*
X4937099Y3417214D01*
X4932019Y3420414D01*
X4929073Y3423208D01*
X4927498Y3426968D01*
X4927498Y3431032D01*
X4929073Y3434791D01*
X4932019Y3437585D01*
X4937099Y3440785D01*
X4941214Y3444900D01*
X4944262Y3449777D01*
X4946192Y3455263D01*
X4946904Y3461562D01*
X4946904Y3650437D01*
X4946192Y3656736D01*
X4944262Y3662222D01*
X4941214Y3667099D01*
X4937099Y3671214D01*
X4932222Y3674262D01*
X4926736Y3676192D01*
X4920437Y3676904D01*
X4731562Y3676904D01*
X4725263Y3676192D01*
X4719777Y3674262D01*
X4714900Y3671214D01*
X4710785Y3667099D01*
X4707585Y3662019D01*
X4704791Y3659073D01*
X4701032Y3657498D01*
X4696968Y3657498D01*
X4693208Y3659073D01*
X4690414Y3662019D01*
X4687214Y3667099D01*
X4683099Y3671214D01*
X4678222Y3674262D01*
X4672736Y3676192D01*
X4666437Y3676904D01*
X4477562Y3676904D01*
X4471263Y3676192D01*
X4465777Y3674262D01*
X4460900Y3671214D01*
X4456785Y3667099D01*
X4453737Y3662222D01*
X4451807Y3656736D01*
X4451096Y3650437D01*
X4451096Y3632047D01*
X4450334Y3628186D01*
X4448098Y3624884D01*
X4444796Y3622700D01*
X4440936Y3621887D01*
X3676243Y3621887D01*
X3673094Y3622395D01*
X3670300Y3623868D01*
X3668014Y3626104D01*
X3665270Y3629863D01*
X3655314Y3640480D01*
X3644137Y3649776D01*
X3631844Y3657549D01*
X3618636Y3663746D01*
X3604818Y3668268D01*
X3590544Y3670960D01*
X3575659Y3671925D01*
X3536340Y3671925D01*
X3521456Y3670960D01*
X3507181Y3668268D01*
X3493363Y3663746D01*
X3480155Y3657549D01*
X3467862Y3649776D01*
X3456686Y3640480D01*
X3446729Y3629863D01*
X3438144Y3618077D01*
X3431133Y3605326D01*
X3425799Y3591814D01*
X3422142Y3577691D01*
X3420364Y3563264D01*
X3420364Y3548735D01*
X3422142Y3534308D01*
X3425799Y3520186D01*
X3431133Y3506673D01*
X3438144Y3493922D01*
X3446729Y3482136D01*
X3456686Y3471519D01*
X3467862Y3462223D01*
X3480155Y3454450D01*
X3493363Y3448253D01*
X3507181Y3443732D01*
X3521456Y3441039D01*
X3536340Y3440074D01*
X3575659Y3440074D01*
X3590544Y3441039D01*
X3604818Y3443732D01*
X3618636Y3448253D01*
X3631844Y3454450D01*
X3644137Y3462223D01*
X3655314Y3471519D01*
X3665270Y3482136D01*
X3668014Y3485896D01*
X3670300Y3488131D01*
X3673094Y3489604D01*
X3676243Y3490112D01*
X4440936Y3490112D01*
X4444796Y3489299D01*
X4448098Y3487115D01*
X4450334Y3483813D01*
X4451096Y3479952D01*
X4451096Y3461562D01*
X4451807Y3455263D01*
X4453737Y3449777D01*
X4456785Y3444900D01*
X4460900Y3440785D01*
X4465980Y3437585D01*
X4468926Y3434791D01*
X4470501Y3431032D01*
X4470501Y3426968D01*
X4468926Y3423208D01*
X4465980Y3420414D01*
X4460900Y3417214D01*
X4456785Y3413099D01*
X4453737Y3408222D01*
X4451807Y3402736D01*
X4451096Y3396437D01*
X4451096Y3378047D01*
X4450334Y3374186D01*
X4448098Y3370884D01*
X4444796Y3368700D01*
X4440936Y3367887D01*
X4077106Y3367887D01*
X4066387Y3367074D01*
X4056329Y3364636D01*
X4046778Y3360674D01*
X4037990Y3355289D01*
X4029811Y3348329D01*
X3798366Y3116884D01*
X3795064Y3114700D01*
X3791204Y3113887D01*
X3676243Y3113887D01*
X3673094Y3114395D01*
X3670300Y3115868D01*
X3668014Y3118104D01*
X3665270Y3121863D01*
X3655314Y3132480D01*
X3644137Y3141776D01*
X3631844Y3149549D01*
X3618636Y3155746D01*
X3604818Y3160268D01*
X3590544Y3162960D01*
X3575659Y3163925D01*
X3536340Y3163925D01*
X3521456Y3162960D01*
X3507181Y3160268D01*
X3493363Y3155746D01*
X3480155Y3149549D01*
X3467862Y3141776D01*
X3456686Y3132480D01*
X3446729Y3121863D01*
X3438144Y3110077D01*
X3431133Y3097326D01*
X3425799Y3083814D01*
X3422142Y3069691D01*
X3420364Y3055264D01*
X3420364Y3040735D01*
X3422142Y3026308D01*
X3425799Y3012186D01*
X3431133Y2998673D01*
X3438144Y2985922D01*
X3446729Y2974136D01*
X3456686Y2963519D01*
X3467862Y2954223D01*
X3480155Y2946450D01*
X3493363Y2940253D01*
X3507181Y2935732D01*
X3521456Y2933039D01*
X3536340Y2932074D01*
X3575659Y2932074D01*
X3590544Y2933039D01*
X3604818Y2935732D01*
X3618636Y2940253D01*
X3631844Y2946450D01*
X3644137Y2954223D01*
X3655314Y2963519D01*
X3665270Y2974136D01*
X3668014Y2977896D01*
X3670300Y2980131D01*
X3673094Y2981604D01*
X3676243Y2982112D01*
X3822293Y2982112D01*
X3833012Y2982925D01*
X3843070Y2985363D01*
X3852621Y2989326D01*
X3861409Y2994710D01*
X3869588Y3001670D01*
X4101033Y3233115D01*
X4104335Y3235299D01*
X4108196Y3236112D01*
X4440936Y3236112D01*
X4444796Y3235299D01*
X4448098Y3233115D01*
X4450334Y3229813D01*
X4451096Y3225952D01*
X4451096Y3207562D01*
X4451807Y3201263D01*
X4453737Y3195777D01*
X4456785Y3190900D01*
X4460900Y3186785D01*
X4465980Y3183585D01*
X4468926Y3180791D01*
X4470501Y3177032D01*
X4470501Y3172968D01*
X4468926Y3169208D01*
X4465980Y3166414D01*
X4460900Y3163214D01*
X4456785Y3159099D01*
X4453737Y3154222D01*
X4451807Y3148736D01*
X4451096Y3142437D01*
X4451096Y2953562D01*
X4451807Y2947263D01*
X4453737Y2941777D01*
X4456785Y2936900D01*
X4460900Y2932785D01*
X4465980Y2929585D01*
X4468926Y2926791D01*
X4470501Y2923032D01*
X4470501Y2918968D01*
X4468926Y2915208D01*
X4465980Y2912414D01*
X4460900Y2909214D01*
X4456785Y2905099D01*
X4453737Y2900222D01*
X4451807Y2894736D01*
X4451096Y2888437D01*
X4451096Y2699562D01*
X4451807Y2693263D01*
X4453737Y2687777D01*
X4456785Y2682900D01*
X4460900Y2678785D01*
X4465980Y2675585D01*
X4468926Y2672791D01*
X4470501Y2669032D01*
X4470501Y2664968D01*
X4468926Y2661208D01*
X4465980Y2658414D01*
X4460900Y2655214D01*
X4456785Y2651099D01*
X4453737Y2646222D01*
X4451807Y2640736D01*
X4451096Y2634437D01*
X4451096Y2445562D01*
X4451807Y2439263D01*
X4453737Y2433777D01*
X4456785Y2428900D01*
X4460900Y2424785D01*
X4465777Y2421737D01*
X4471263Y2419807D01*
X4477562Y2419096D01*
X4495952Y2419096D01*
X4499813Y2418334D01*
X4503115Y2416098D01*
X4505299Y2412796D01*
X4506112Y2408936D01*
X4506112Y1898243D01*
X4505604Y1895093D01*
X4504131Y1892300D01*
X4501896Y1890014D01*
X4498136Y1887270D01*
X4487519Y1877314D01*
X4478223Y1866138D01*
X4470450Y1853844D01*
X4464253Y1840636D01*
X4459732Y1826818D01*
X4457039Y1812543D01*
X4456074Y1797659D01*
X4456074Y1758340D01*
X4457039Y1743456D01*
X4459732Y1729181D01*
X4464253Y1715363D01*
X4470450Y1702155D01*
X4478223Y1689862D01*
X4487519Y1678686D01*
X4498136Y1668729D01*
X4509922Y1660143D01*
X4522673Y1653133D01*
X4536186Y1647799D01*
X4550308Y1644142D01*
G37*
G36*
X8179358Y1662074D02*
G01*
X8217408Y1662074D01*
X8223758Y1662785D01*
X8229193Y1664716D01*
X8234121Y1667814D01*
X8238185Y1671878D01*
X8241284Y1676806D01*
X8243214Y1682242D01*
X8243925Y1688541D01*
X8243925Y1726641D01*
X8179358Y1726641D01*
G37*
G36*
X8038592Y1662074D02*
G01*
X8076641Y1662074D01*
X8076641Y1726641D01*
X8012074Y1726641D01*
X8012074Y1688541D01*
X8012785Y1682242D01*
X8014716Y1676806D01*
X8017814Y1671878D01*
X8021878Y1667814D01*
X8026806Y1664716D01*
X8032242Y1662785D01*
G37*
G36*
X9645040Y1662074D02*
G01*
X9684359Y1662074D01*
X9699244Y1663039D01*
X9713518Y1665732D01*
X9727336Y1670253D01*
X9740544Y1676450D01*
X9752838Y1684223D01*
X9764014Y1693519D01*
X9773970Y1704136D01*
X9782556Y1715922D01*
X9789566Y1728673D01*
X9794900Y1742186D01*
X9798558Y1756308D01*
X9800336Y1770735D01*
X9800336Y1785264D01*
X9798558Y1799691D01*
X9794900Y1813814D01*
X9789566Y1827326D01*
X9782556Y1840077D01*
X9773970Y1851863D01*
X9764014Y1862480D01*
X9752838Y1871776D01*
X9740544Y1879549D01*
X9727336Y1885746D01*
X9713518Y1890268D01*
X9699244Y1892960D01*
X9684359Y1893925D01*
X9645040Y1893925D01*
X9630156Y1892960D01*
X9615881Y1890268D01*
X9602063Y1885746D01*
X9588855Y1879549D01*
X9576562Y1871776D01*
X9565386Y1862480D01*
X9555429Y1851863D01*
X9552686Y1848104D01*
X9550400Y1845868D01*
X9547606Y1844395D01*
X9544456Y1843887D01*
X9531096Y1843887D01*
X9527235Y1844700D01*
X9523933Y1846884D01*
X9466884Y1903933D01*
X9464700Y1907235D01*
X9463887Y1911096D01*
X9463887Y1931619D01*
X9464852Y1935937D01*
X9467596Y1939442D01*
X9477349Y1947519D01*
X9487306Y1958136D01*
X9495840Y1969922D01*
X9502851Y1982673D01*
X9508236Y1996186D01*
X9511842Y2010308D01*
X9513671Y2024735D01*
X9513671Y2039264D01*
X9511842Y2053691D01*
X9508236Y2067814D01*
X9502851Y2081326D01*
X9495840Y2094077D01*
X9487306Y2105863D01*
X9477349Y2116480D01*
X9466122Y2125776D01*
X9453829Y2133549D01*
X9440672Y2139746D01*
X9426803Y2144268D01*
X9412528Y2146960D01*
X9398000Y2147874D01*
X9383471Y2146960D01*
X9369196Y2144268D01*
X9355328Y2139746D01*
X9342170Y2133549D01*
X9329877Y2125776D01*
X9318650Y2116480D01*
X9308693Y2105863D01*
X9300159Y2094077D01*
X9293148Y2081326D01*
X9287764Y2067814D01*
X9284157Y2053691D01*
X9282328Y2039264D01*
X9282328Y2024735D01*
X9284157Y2010308D01*
X9287764Y1996186D01*
X9293148Y1982673D01*
X9300159Y1969922D01*
X9308693Y1958136D01*
X9318650Y1947519D01*
X9328404Y1939442D01*
X9331147Y1935937D01*
X9332112Y1931619D01*
X9332112Y1880006D01*
X9332925Y1869287D01*
X9335363Y1859229D01*
X9339326Y1849678D01*
X9344710Y1840890D01*
X9351670Y1832711D01*
X9452711Y1731670D01*
X9460890Y1724710D01*
X9469678Y1719325D01*
X9479229Y1715363D01*
X9489287Y1712925D01*
X9500006Y1712112D01*
X9544456Y1712112D01*
X9547606Y1711604D01*
X9550400Y1710131D01*
X9552686Y1707896D01*
X9555429Y1704136D01*
X9565386Y1693519D01*
X9576562Y1684223D01*
X9588855Y1676450D01*
X9602063Y1670253D01*
X9615881Y1665732D01*
X9630156Y1663039D01*
G37*
G36*
X8012074Y1829358D02*
G01*
X8076641Y1829358D01*
X8076641Y1893925D01*
X8038592Y1893925D01*
X8032242Y1893214D01*
X8026806Y1891284D01*
X8021878Y1888185D01*
X8017814Y1884121D01*
X8014716Y1879193D01*
X8012785Y1873757D01*
X8012074Y1867407D01*
G37*
G36*
X8179358Y1829358D02*
G01*
X8243925Y1829358D01*
X8243925Y1867407D01*
X8243214Y1873757D01*
X8241284Y1879193D01*
X8238185Y1884121D01*
X8234121Y1888185D01*
X8229193Y1891284D01*
X8223758Y1893214D01*
X8217408Y1893925D01*
X8179358Y1893925D01*
G37*
G36*
X3764635Y2150364D02*
G01*
X3779164Y2150364D01*
X3793591Y2152142D01*
X3807714Y2155799D01*
X3821226Y2161133D01*
X3833977Y2168144D01*
X3845763Y2176729D01*
X3856380Y2186686D01*
X3865676Y2197862D01*
X3873449Y2210155D01*
X3879646Y2223363D01*
X3884168Y2237181D01*
X3886860Y2251456D01*
X3887825Y2266340D01*
X3887825Y2305659D01*
X3886860Y2320544D01*
X3884168Y2334818D01*
X3879646Y2348636D01*
X3873449Y2361844D01*
X3865676Y2374138D01*
X3856380Y2385314D01*
X3845763Y2395270D01*
X3833977Y2403856D01*
X3821226Y2410866D01*
X3807714Y2416200D01*
X3793591Y2419858D01*
X3779164Y2421636D01*
X3764635Y2421636D01*
X3750208Y2419858D01*
X3736086Y2416200D01*
X3722573Y2410866D01*
X3709822Y2403856D01*
X3698036Y2395270D01*
X3687419Y2385314D01*
X3678123Y2374138D01*
X3670350Y2361844D01*
X3664153Y2348636D01*
X3659632Y2334818D01*
X3656939Y2320544D01*
X3655974Y2305659D01*
X3655974Y2266340D01*
X3656939Y2251456D01*
X3659632Y2237181D01*
X3664153Y2223363D01*
X3670350Y2210155D01*
X3678123Y2197862D01*
X3687419Y2186686D01*
X3698036Y2176729D01*
X3709822Y2168144D01*
X3722573Y2161133D01*
X3736086Y2155799D01*
X3750208Y2152142D01*
G37*
G36*
X4018635Y2150364D02*
G01*
X4033164Y2150364D01*
X4047591Y2152142D01*
X4061714Y2155799D01*
X4075226Y2161133D01*
X4087977Y2168144D01*
X4099763Y2176729D01*
X4110380Y2186686D01*
X4119676Y2197862D01*
X4127449Y2210155D01*
X4133646Y2223363D01*
X4138168Y2237181D01*
X4140860Y2251456D01*
X4141825Y2266340D01*
X4141825Y2305659D01*
X4140860Y2320544D01*
X4138168Y2334818D01*
X4133646Y2348636D01*
X4127449Y2361844D01*
X4119676Y2374138D01*
X4110380Y2385314D01*
X4099763Y2395270D01*
X4087977Y2403856D01*
X4075226Y2410866D01*
X4061714Y2416200D01*
X4047591Y2419858D01*
X4033164Y2421636D01*
X4018635Y2421636D01*
X4004208Y2419858D01*
X3990086Y2416200D01*
X3976573Y2410866D01*
X3963822Y2403856D01*
X3952036Y2395270D01*
X3941419Y2385314D01*
X3932123Y2374138D01*
X3924350Y2361844D01*
X3918153Y2348636D01*
X3913632Y2334818D01*
X3910939Y2320544D01*
X3909974Y2305659D01*
X3909974Y2266340D01*
X3910939Y2251456D01*
X3913632Y2237181D01*
X3918153Y2223363D01*
X3924350Y2210155D01*
X3932123Y2197862D01*
X3941419Y2186686D01*
X3952036Y2176729D01*
X3963822Y2168144D01*
X3976573Y2161133D01*
X3990086Y2155799D01*
X4004208Y2152142D01*
G37*
G36*
X3510635Y2150364D02*
G01*
X3525164Y2150364D01*
X3539591Y2152142D01*
X3553714Y2155799D01*
X3567226Y2161133D01*
X3579977Y2168144D01*
X3591763Y2176729D01*
X3602380Y2186686D01*
X3611676Y2197862D01*
X3619449Y2210155D01*
X3625646Y2223363D01*
X3630168Y2237181D01*
X3632860Y2251456D01*
X3633825Y2266340D01*
X3633825Y2305659D01*
X3632860Y2320544D01*
X3630168Y2334818D01*
X3625646Y2348636D01*
X3619449Y2361844D01*
X3611676Y2374138D01*
X3602380Y2385314D01*
X3591763Y2395270D01*
X3579977Y2403856D01*
X3567226Y2410866D01*
X3553714Y2416200D01*
X3539591Y2419858D01*
X3525164Y2421636D01*
X3510635Y2421636D01*
X3496208Y2419858D01*
X3482086Y2416200D01*
X3468573Y2410866D01*
X3455822Y2403856D01*
X3444036Y2395270D01*
X3433419Y2385314D01*
X3424123Y2374138D01*
X3416350Y2361844D01*
X3410153Y2348636D01*
X3405632Y2334818D01*
X3402939Y2320544D01*
X3401974Y2305659D01*
X3401974Y2266340D01*
X3402939Y2251456D01*
X3405632Y2237181D01*
X3410153Y2223363D01*
X3416350Y2210155D01*
X3424123Y2197862D01*
X3433419Y2186686D01*
X3444036Y2176729D01*
X3455822Y2168144D01*
X3468573Y2161133D01*
X3482086Y2155799D01*
X3496208Y2152142D01*
G37*
G36*
X3536340Y2678074D02*
G01*
X3575659Y2678074D01*
X3590544Y2679039D01*
X3604818Y2681732D01*
X3618636Y2686253D01*
X3631844Y2692450D01*
X3644137Y2700223D01*
X3655314Y2709519D01*
X3665270Y2720136D01*
X3673856Y2731922D01*
X3680866Y2744673D01*
X3686200Y2758186D01*
X3689858Y2772308D01*
X3691636Y2786735D01*
X3691636Y2801264D01*
X3689858Y2815691D01*
X3686200Y2829814D01*
X3680866Y2843326D01*
X3673856Y2856077D01*
X3665270Y2867863D01*
X3655314Y2878480D01*
X3644137Y2887776D01*
X3631844Y2895549D01*
X3618636Y2901746D01*
X3604818Y2906268D01*
X3590544Y2908960D01*
X3575659Y2909925D01*
X3536340Y2909925D01*
X3521456Y2908960D01*
X3507181Y2906268D01*
X3493363Y2901746D01*
X3480155Y2895549D01*
X3467862Y2887776D01*
X3456686Y2878480D01*
X3446729Y2867863D01*
X3438144Y2856077D01*
X3431133Y2843326D01*
X3425799Y2829814D01*
X3422142Y2815691D01*
X3420364Y2801264D01*
X3420364Y2786735D01*
X3422142Y2772308D01*
X3425799Y2758186D01*
X3431133Y2744673D01*
X3438144Y2731922D01*
X3446729Y2720136D01*
X3456686Y2709519D01*
X3467862Y2700223D01*
X3480155Y2692450D01*
X3493363Y2686253D01*
X3507181Y2681732D01*
X3521456Y2679039D01*
G37*
G36*
X9398000Y2932125D02*
G01*
X9412528Y2933039D01*
X9426803Y2935732D01*
X9440672Y2940253D01*
X9453829Y2946450D01*
X9466122Y2954223D01*
X9477349Y2963519D01*
X9487306Y2974136D01*
X9495840Y2985922D01*
X9502851Y2998673D01*
X9508236Y3012186D01*
X9511842Y3026308D01*
X9513671Y3040735D01*
X9513671Y3055264D01*
X9511842Y3069691D01*
X9508236Y3083814D01*
X9502851Y3097326D01*
X9495840Y3110077D01*
X9487306Y3121863D01*
X9477349Y3132480D01*
X9467596Y3140557D01*
X9464852Y3144062D01*
X9463887Y3148380D01*
X9463887Y3201619D01*
X9464852Y3205937D01*
X9467596Y3209442D01*
X9477349Y3217519D01*
X9487306Y3228136D01*
X9495840Y3239922D01*
X9502851Y3252673D01*
X9508236Y3266186D01*
X9511842Y3280257D01*
X9513671Y3294735D01*
X9513671Y3309264D01*
X9511842Y3323691D01*
X9508236Y3337814D01*
X9502851Y3351326D01*
X9495840Y3364077D01*
X9487306Y3375863D01*
X9477349Y3386480D01*
X9466122Y3395776D01*
X9453829Y3403549D01*
X9440672Y3409746D01*
X9426803Y3414268D01*
X9412528Y3416960D01*
X9398000Y3417874D01*
X9383471Y3416960D01*
X9369196Y3414268D01*
X9355328Y3409746D01*
X9342170Y3403549D01*
X9329877Y3395776D01*
X9318650Y3386480D01*
X9308693Y3375863D01*
X9300159Y3364077D01*
X9293148Y3351326D01*
X9287764Y3337814D01*
X9284157Y3323691D01*
X9282328Y3309264D01*
X9282328Y3294735D01*
X9284157Y3280257D01*
X9287764Y3266186D01*
X9293148Y3252673D01*
X9300159Y3239922D01*
X9308693Y3228136D01*
X9318650Y3217519D01*
X9328404Y3209442D01*
X9331147Y3205937D01*
X9332112Y3201619D01*
X9332112Y3148380D01*
X9331147Y3144062D01*
X9328404Y3140557D01*
X9318650Y3132480D01*
X9308693Y3121863D01*
X9300159Y3110077D01*
X9293148Y3097326D01*
X9287764Y3083814D01*
X9284157Y3069691D01*
X9282328Y3055264D01*
X9282328Y3040735D01*
X9284157Y3026308D01*
X9287764Y3012186D01*
X9293148Y2998673D01*
X9300159Y2985922D01*
X9308693Y2974136D01*
X9318650Y2963519D01*
X9329877Y2954223D01*
X9342170Y2946450D01*
X9355328Y2940253D01*
X9369196Y2935732D01*
X9383471Y2933039D01*
G37*
G36*
X8890000Y2932125D02*
G01*
X8904528Y2933039D01*
X8918803Y2935732D01*
X8932672Y2940253D01*
X8945829Y2946450D01*
X8958122Y2954223D01*
X8969349Y2963519D01*
X8979306Y2974136D01*
X8987840Y2985922D01*
X8994851Y2998673D01*
X9000236Y3012186D01*
X9003842Y3026308D01*
X9005671Y3040735D01*
X9005671Y3055264D01*
X9004604Y3063798D01*
X9004655Y3066897D01*
X9005671Y3069793D01*
X9007500Y3072282D01*
X9190329Y3255111D01*
X9197289Y3263290D01*
X9202674Y3272078D01*
X9206636Y3281629D01*
X9209074Y3291687D01*
X9209887Y3302406D01*
X9209887Y3709619D01*
X9210852Y3713937D01*
X9213596Y3717442D01*
X9223349Y3725519D01*
X9233306Y3736136D01*
X9241840Y3747922D01*
X9248851Y3760673D01*
X9254236Y3774186D01*
X9257842Y3788257D01*
X9259671Y3802735D01*
X9259671Y3817264D01*
X9257842Y3831691D01*
X9254236Y3845814D01*
X9248851Y3859326D01*
X9241840Y3872077D01*
X9233306Y3883863D01*
X9223349Y3894480D01*
X9212122Y3903776D01*
X9199829Y3911549D01*
X9186672Y3917746D01*
X9172803Y3922268D01*
X9158528Y3924960D01*
X9144000Y3925874D01*
X9129471Y3924960D01*
X9115196Y3922268D01*
X9101328Y3917746D01*
X9088170Y3911549D01*
X9075877Y3903776D01*
X9064650Y3894480D01*
X9054693Y3883863D01*
X9046159Y3872077D01*
X9039148Y3859326D01*
X9033764Y3845814D01*
X9030157Y3831691D01*
X9028328Y3817264D01*
X9028328Y3802735D01*
X9030157Y3788257D01*
X9033764Y3774186D01*
X9039148Y3760673D01*
X9046159Y3747922D01*
X9054693Y3736136D01*
X9064650Y3725519D01*
X9074404Y3717442D01*
X9077147Y3713937D01*
X9078112Y3709619D01*
X9078112Y3333496D01*
X9077299Y3329635D01*
X9075115Y3326333D01*
X8914434Y3165602D01*
X8911742Y3163722D01*
X8908592Y3162757D01*
X8890000Y3163874D01*
X8875471Y3162960D01*
X8861196Y3160268D01*
X8847328Y3155746D01*
X8834170Y3149549D01*
X8821877Y3141776D01*
X8810650Y3132480D01*
X8800693Y3121863D01*
X8792159Y3110077D01*
X8785148Y3097326D01*
X8779764Y3083814D01*
X8776157Y3069691D01*
X8774328Y3055264D01*
X8774328Y3040735D01*
X8776157Y3026308D01*
X8779764Y3012186D01*
X8785148Y2998673D01*
X8792159Y2985922D01*
X8800693Y2974136D01*
X8810650Y2963519D01*
X8821877Y2954223D01*
X8834170Y2946450D01*
X8847328Y2940253D01*
X8861196Y2935732D01*
X8875471Y2933039D01*
G37*
G36*
X7530592Y3173374D02*
G01*
X7568641Y3173374D01*
X7568641Y3237941D01*
X7504074Y3237941D01*
X7504074Y3199892D01*
X7504785Y3193542D01*
X7506716Y3188106D01*
X7509814Y3183178D01*
X7513878Y3179114D01*
X7518806Y3176016D01*
X7524242Y3174085D01*
G37*
G36*
X7671358Y3173374D02*
G01*
X7709408Y3173374D01*
X7715758Y3174085D01*
X7721193Y3176016D01*
X7726121Y3179114D01*
X7730185Y3183178D01*
X7733284Y3188106D01*
X7735214Y3193542D01*
X7735925Y3199892D01*
X7735925Y3237941D01*
X7671358Y3237941D01*
G37*
G36*
X3536340Y3186074D02*
G01*
X3575659Y3186074D01*
X3590544Y3187039D01*
X3604818Y3189732D01*
X3618636Y3194253D01*
X3631844Y3200450D01*
X3644137Y3208223D01*
X3655314Y3217519D01*
X3665270Y3228136D01*
X3673856Y3239922D01*
X3680866Y3252673D01*
X3686200Y3266186D01*
X3689858Y3280308D01*
X3691636Y3294735D01*
X3691636Y3309264D01*
X3689858Y3323691D01*
X3686200Y3337814D01*
X3680866Y3351326D01*
X3673856Y3364077D01*
X3665270Y3375863D01*
X3655314Y3386480D01*
X3644137Y3395776D01*
X3631844Y3403549D01*
X3618636Y3409746D01*
X3604818Y3414268D01*
X3590544Y3416960D01*
X3575659Y3417925D01*
X3536340Y3417925D01*
X3521456Y3416960D01*
X3507181Y3414268D01*
X3493363Y3409746D01*
X3480155Y3403549D01*
X3467862Y3395776D01*
X3456686Y3386480D01*
X3446729Y3375863D01*
X3438144Y3364077D01*
X3431133Y3351326D01*
X3425799Y3337814D01*
X3422142Y3323691D01*
X3420364Y3309264D01*
X3420364Y3294735D01*
X3422142Y3280308D01*
X3425799Y3266186D01*
X3431133Y3252673D01*
X3438144Y3239922D01*
X3446729Y3228136D01*
X3456686Y3217519D01*
X3467862Y3208223D01*
X3480155Y3200450D01*
X3493363Y3194253D01*
X3507181Y3189732D01*
X3521456Y3187039D01*
G37*
G36*
X7671358Y3340658D02*
G01*
X7735925Y3340658D01*
X7735925Y3378708D01*
X7735214Y3385058D01*
X7733284Y3390493D01*
X7730185Y3395421D01*
X7726121Y3399485D01*
X7721193Y3402584D01*
X7715758Y3404514D01*
X7709408Y3405225D01*
X7671358Y3405225D01*
G37*
G36*
X7504074Y3340658D02*
G01*
X7568641Y3340658D01*
X7568641Y3405225D01*
X7530592Y3405225D01*
X7524242Y3404514D01*
X7518806Y3402584D01*
X7513878Y3399485D01*
X7509814Y3395421D01*
X7506716Y3390493D01*
X7504785Y3385058D01*
X7504074Y3378708D01*
G37*
G36*
X7784592Y3440074D02*
G01*
X7822641Y3440074D01*
X7822641Y3504641D01*
X7758074Y3504641D01*
X7758074Y3466592D01*
X7758785Y3460242D01*
X7760716Y3454806D01*
X7763814Y3449878D01*
X7767878Y3445814D01*
X7772806Y3442715D01*
X7778242Y3440785D01*
G37*
G36*
X7925358Y3440074D02*
G01*
X7963408Y3440074D01*
X7969758Y3440785D01*
X7975193Y3442715D01*
X7980121Y3445814D01*
X7984185Y3449878D01*
X7987284Y3454806D01*
X7989214Y3460242D01*
X7989925Y3466592D01*
X7989925Y3504641D01*
X7925358Y3504641D01*
G37*
G36*
X7925358Y3607358D02*
G01*
X7989925Y3607358D01*
X7989925Y3645408D01*
X7989214Y3651758D01*
X7987284Y3657193D01*
X7984185Y3662121D01*
X7980121Y3666185D01*
X7975193Y3669284D01*
X7969758Y3671214D01*
X7963408Y3671925D01*
X7925358Y3671925D01*
G37*
G36*
X7758074Y3607358D02*
G01*
X7822641Y3607358D01*
X7822641Y3671925D01*
X7784592Y3671925D01*
X7778242Y3671214D01*
X7772806Y3669284D01*
X7767878Y3666185D01*
X7763814Y3662121D01*
X7760716Y3657193D01*
X7758785Y3651758D01*
X7758074Y3645408D01*
G37*
G36*
X7417358Y3694074D02*
G01*
X7455408Y3694074D01*
X7461758Y3694785D01*
X7467193Y3696715D01*
X7472121Y3699814D01*
X7476185Y3703878D01*
X7479284Y3708806D01*
X7481214Y3714242D01*
X7481925Y3720592D01*
X7481925Y3758641D01*
X7417358Y3758641D01*
G37*
G36*
X7276592Y3694074D02*
G01*
X7314641Y3694074D01*
X7314641Y3758641D01*
X7250074Y3758641D01*
X7250074Y3720592D01*
X7250785Y3714242D01*
X7252716Y3708806D01*
X7255814Y3703878D01*
X7259878Y3699814D01*
X7264806Y3696715D01*
X7270242Y3694785D01*
G37*
G36*
X7250074Y3861358D02*
G01*
X7314641Y3861358D01*
X7314641Y3925925D01*
X7276592Y3925925D01*
X7270242Y3925214D01*
X7264806Y3923284D01*
X7259878Y3920185D01*
X7255814Y3916121D01*
X7252716Y3911193D01*
X7250785Y3905758D01*
X7250074Y3899408D01*
G37*
G36*
X7417358Y3861358D02*
G01*
X7481925Y3861358D01*
X7481925Y3899408D01*
X7481214Y3905758D01*
X7479284Y3911193D01*
X7476185Y3916121D01*
X7472121Y3920185D01*
X7467193Y3923284D01*
X7461758Y3925214D01*
X7455408Y3925925D01*
X7417358Y3925925D01*
G37*
G36*
X7530592Y3948074D02*
G01*
X7568641Y3948074D01*
X7568641Y4012641D01*
X7504074Y4012641D01*
X7504074Y3974592D01*
X7504785Y3968242D01*
X7506716Y3962806D01*
X7509814Y3957878D01*
X7513878Y3953814D01*
X7518806Y3950715D01*
X7524242Y3948785D01*
G37*
G36*
X7671358Y3948074D02*
G01*
X7709408Y3948074D01*
X7715758Y3948785D01*
X7721193Y3950715D01*
X7726121Y3953814D01*
X7730185Y3957878D01*
X7733284Y3962806D01*
X7735214Y3968242D01*
X7735925Y3974592D01*
X7735925Y4012641D01*
X7671358Y4012641D01*
G37*
G36*
X7671358Y4115358D02*
G01*
X7735925Y4115358D01*
X7735925Y4153408D01*
X7735214Y4159758D01*
X7733284Y4165193D01*
X7730185Y4170121D01*
X7726121Y4174185D01*
X7721193Y4177284D01*
X7715758Y4179214D01*
X7709408Y4179925D01*
X7671358Y4179925D01*
G37*
G36*
X7504074Y4115358D02*
G01*
X7568641Y4115358D01*
X7568641Y4179925D01*
X7530592Y4179925D01*
X7524242Y4179214D01*
X7518806Y4177284D01*
X7513878Y4174185D01*
X7509814Y4170121D01*
X7506716Y4165193D01*
X7504785Y4159758D01*
X7504074Y4153408D01*
G37*
G36*
X6778548Y4374083D02*
G01*
X6811670Y4374083D01*
X6811670Y4416145D01*
X6752081Y4416145D01*
X6752081Y4400550D01*
X6752793Y4394250D01*
X6754723Y4388764D01*
X6757771Y4383887D01*
X6761886Y4379772D01*
X6766763Y4376724D01*
X6772249Y4374794D01*
G37*
G36*
X6904329Y4374083D02*
G01*
X6937451Y4374083D01*
X6943750Y4374794D01*
X6949236Y4376724D01*
X6954113Y4379772D01*
X6958228Y4383887D01*
X6961276Y4388764D01*
X6963206Y4394250D01*
X6963918Y4400550D01*
X6963918Y4416145D01*
X6904329Y4416145D01*
G37*
G36*
X7366000Y4456125D02*
G01*
X7380528Y4457039D01*
X7394803Y4459732D01*
X7408672Y4464253D01*
X7421829Y4470450D01*
X7434122Y4478223D01*
X7445349Y4487519D01*
X7455306Y4498136D01*
X7463840Y4509922D01*
X7470851Y4522673D01*
X7476236Y4536186D01*
X7479842Y4550308D01*
X7481671Y4564735D01*
X7481671Y4579264D01*
X7480604Y4587798D01*
X7480655Y4590897D01*
X7481671Y4593793D01*
X7483500Y4596282D01*
X7644333Y4757115D01*
X7647635Y4759299D01*
X7651496Y4760112D01*
X7775956Y4760112D01*
X7779715Y4759350D01*
X7782915Y4757318D01*
X7785150Y4754168D01*
X7786065Y4750460D01*
X7785557Y4746650D01*
X7783677Y4743348D01*
X7781391Y4740656D01*
X7775549Y4731156D01*
X7771333Y4720894D01*
X7768742Y4710074D01*
X7767828Y4699000D01*
X7768742Y4687925D01*
X7771333Y4677105D01*
X7775549Y4666843D01*
X7781391Y4657344D01*
X7783626Y4654702D01*
X7785658Y4650892D01*
X7785963Y4646574D01*
X7784388Y4642561D01*
X7781290Y4639513D01*
X7777632Y4637227D01*
X7773517Y4633112D01*
X7770418Y4628235D01*
X7768539Y4622749D01*
X7767828Y4616450D01*
X7767828Y4600854D01*
X7827365Y4600854D01*
X7827365Y4618024D01*
X7828229Y4622088D01*
X7830616Y4625492D01*
X7834223Y4627626D01*
X7839100Y4628083D01*
X7908340Y4628083D01*
X7913268Y4627626D01*
X7916824Y4625492D01*
X7919212Y4622088D01*
X7920075Y4618024D01*
X7920075Y4600854D01*
X7979613Y4600854D01*
X7979613Y4616450D01*
X7979054Y4621784D01*
X7979460Y4626000D01*
X7981543Y4629708D01*
X7984998Y4632198D01*
X7989112Y4633112D01*
X8013293Y4633112D01*
X8024012Y4633925D01*
X8034070Y4636363D01*
X8043621Y4640326D01*
X8052409Y4645710D01*
X8060588Y4652670D01*
X8174329Y4766411D01*
X8181289Y4774590D01*
X8186674Y4783378D01*
X8190636Y4792929D01*
X8193074Y4802987D01*
X8193887Y4813706D01*
X8193887Y4927193D01*
X8193074Y4937912D01*
X8190636Y4947970D01*
X8186674Y4957521D01*
X8181289Y4966309D01*
X8174329Y4974488D01*
X8035188Y5113629D01*
X8027009Y5120589D01*
X8018221Y5125974D01*
X8008670Y5129936D01*
X7998612Y5132374D01*
X7987893Y5133187D01*
X7156196Y5133187D01*
X7152335Y5134000D01*
X7149033Y5136184D01*
X6975602Y5309565D01*
X6973722Y5312257D01*
X6972757Y5315407D01*
X6973874Y5334000D01*
X6972960Y5348528D01*
X6970268Y5362803D01*
X6965746Y5376672D01*
X6959549Y5389829D01*
X6951776Y5402122D01*
X6942480Y5413349D01*
X6931863Y5423306D01*
X6920077Y5431840D01*
X6907326Y5438851D01*
X6893814Y5444236D01*
X6879691Y5447842D01*
X6865264Y5449671D01*
X6850735Y5449671D01*
X6836308Y5447842D01*
X6822186Y5444236D01*
X6808673Y5438851D01*
X6795922Y5431840D01*
X6784136Y5423306D01*
X6773519Y5413349D01*
X6764223Y5402122D01*
X6756450Y5389829D01*
X6750253Y5376672D01*
X6745731Y5362803D01*
X6743039Y5348528D01*
X6742125Y5334000D01*
X6743039Y5319471D01*
X6745731Y5305196D01*
X6750253Y5291328D01*
X6756450Y5278170D01*
X6764223Y5265877D01*
X6773519Y5254650D01*
X6784136Y5244693D01*
X6795922Y5236159D01*
X6808673Y5229148D01*
X6822186Y5223764D01*
X6836308Y5220157D01*
X6850735Y5218328D01*
X6865264Y5218328D01*
X6873798Y5219395D01*
X6876897Y5219344D01*
X6879793Y5218328D01*
X6882282Y5216499D01*
X7077811Y5020970D01*
X7085990Y5014010D01*
X7094778Y5008626D01*
X7104329Y5004663D01*
X7114387Y5002225D01*
X7125106Y5001412D01*
X7956803Y5001412D01*
X7960664Y5000599D01*
X7963966Y4998415D01*
X8059115Y4903266D01*
X8061299Y4899964D01*
X8062112Y4896104D01*
X8062112Y4844796D01*
X8061299Y4840935D01*
X8059115Y4837633D01*
X7989366Y4767884D01*
X7986064Y4765700D01*
X7982203Y4764887D01*
X7971485Y4764887D01*
X7967725Y4765649D01*
X7964525Y4767681D01*
X7962290Y4770831D01*
X7961375Y4774539D01*
X7961884Y4778349D01*
X7963763Y4781651D01*
X7966049Y4784344D01*
X7971891Y4793843D01*
X7976108Y4804105D01*
X7978749Y4814925D01*
X7979613Y4826000D01*
X7978749Y4837074D01*
X7976108Y4847894D01*
X7971891Y4858156D01*
X7966049Y4867656D01*
X7958836Y4876139D01*
X7950403Y4883353D01*
X7940903Y4889144D01*
X7930642Y4893411D01*
X7919821Y4896002D01*
X7908340Y4896916D01*
X7839100Y4896916D01*
X7827619Y4896002D01*
X7816799Y4893411D01*
X7815072Y4892700D01*
X7811160Y4891887D01*
X7620406Y4891887D01*
X7609687Y4891074D01*
X7599629Y4888636D01*
X7590078Y4884674D01*
X7581290Y4879289D01*
X7573111Y4872329D01*
X7390434Y4689602D01*
X7387742Y4687722D01*
X7384592Y4686757D01*
X7366000Y4687874D01*
X7351471Y4686960D01*
X7337196Y4684268D01*
X7323328Y4679746D01*
X7310170Y4673549D01*
X7297877Y4665776D01*
X7286650Y4656480D01*
X7276693Y4645863D01*
X7273950Y4642104D01*
X7271715Y4639868D01*
X7268870Y4638395D01*
X7265771Y4637887D01*
X6955790Y4637887D01*
X6952030Y4638649D01*
X6948779Y4640681D01*
X6946544Y4643831D01*
X6945630Y4647539D01*
X6946138Y4651349D01*
X6948068Y4654651D01*
X6950354Y4657344D01*
X6956145Y4666843D01*
X6960412Y4677105D01*
X6963003Y4687925D01*
X6963867Y4699000D01*
X6963003Y4710074D01*
X6960412Y4720894D01*
X6956145Y4731156D01*
X6950354Y4740656D01*
X6943140Y4749139D01*
X6934657Y4756353D01*
X6925157Y4762144D01*
X6914896Y4766411D01*
X6904075Y4769002D01*
X6892594Y4769916D01*
X6823405Y4769916D01*
X6811924Y4769002D01*
X6801103Y4766411D01*
X6799325Y4765700D01*
X6795465Y4764887D01*
X6495796Y4764887D01*
X6491935Y4765700D01*
X6488633Y4767884D01*
X6409588Y4846929D01*
X6401409Y4853889D01*
X6392621Y4859274D01*
X6383070Y4863236D01*
X6373012Y4865674D01*
X6362293Y4866487D01*
X5759196Y4866487D01*
X5755335Y4867300D01*
X5752033Y4869484D01*
X5507888Y5113629D01*
X5499709Y5120589D01*
X5490921Y5125974D01*
X5481370Y5129936D01*
X5471312Y5132374D01*
X5460593Y5133187D01*
X4247896Y5133187D01*
X4244035Y5134000D01*
X4240733Y5136184D01*
X3878884Y5498033D01*
X3876700Y5501335D01*
X3875887Y5505196D01*
X3875887Y5810504D01*
X3876700Y5814364D01*
X3878884Y5817666D01*
X4110329Y6049111D01*
X4117289Y6057290D01*
X4122674Y6066078D01*
X4126636Y6075629D01*
X4129074Y6085687D01*
X4129887Y6096406D01*
X4129887Y6318504D01*
X4130700Y6322364D01*
X4132884Y6325666D01*
X4228033Y6420815D01*
X4231335Y6422999D01*
X4235196Y6423812D01*
X5937504Y6423812D01*
X5941364Y6422999D01*
X5944666Y6420815D01*
X6027115Y6338366D01*
X6029299Y6335064D01*
X6030112Y6331204D01*
X6030112Y6227064D01*
X6029299Y6223203D01*
X6027115Y6219901D01*
X6023813Y6217666D01*
X6019952Y6216904D01*
X6001562Y6216904D01*
X5995263Y6216192D01*
X5989777Y6214262D01*
X5984900Y6211214D01*
X5980785Y6207099D01*
X5977585Y6202019D01*
X5974791Y6199073D01*
X5971032Y6197498D01*
X5966968Y6197498D01*
X5963208Y6199073D01*
X5960414Y6202019D01*
X5957214Y6207099D01*
X5953099Y6211214D01*
X5948222Y6214262D01*
X5942736Y6216192D01*
X5936437Y6216904D01*
X5747562Y6216904D01*
X5741263Y6216192D01*
X5735777Y6214262D01*
X5730900Y6211214D01*
X5726785Y6207099D01*
X5723585Y6202019D01*
X5720791Y6199073D01*
X5717032Y6197498D01*
X5712968Y6197498D01*
X5709208Y6199073D01*
X5706414Y6202019D01*
X5703214Y6207099D01*
X5699099Y6211214D01*
X5694222Y6214262D01*
X5688736Y6216192D01*
X5682437Y6216904D01*
X5493562Y6216904D01*
X5487263Y6216192D01*
X5481777Y6214262D01*
X5476900Y6211214D01*
X5472785Y6207099D01*
X5469585Y6202019D01*
X5466791Y6199073D01*
X5463032Y6197498D01*
X5458968Y6197498D01*
X5455208Y6199073D01*
X5452414Y6202019D01*
X5449214Y6207099D01*
X5445099Y6211214D01*
X5440222Y6214262D01*
X5434736Y6216192D01*
X5428437Y6216904D01*
X5239562Y6216904D01*
X5233263Y6216192D01*
X5227777Y6214262D01*
X5222900Y6211214D01*
X5218785Y6207099D01*
X5215585Y6202019D01*
X5212791Y6199073D01*
X5209032Y6197498D01*
X5204968Y6197498D01*
X5201208Y6199073D01*
X5198414Y6202019D01*
X5195214Y6207099D01*
X5191099Y6211214D01*
X5186222Y6214262D01*
X5180736Y6216192D01*
X5174437Y6216904D01*
X4985562Y6216904D01*
X4979263Y6216192D01*
X4973777Y6214262D01*
X4968900Y6211214D01*
X4964785Y6207099D01*
X4961585Y6202019D01*
X4958791Y6199073D01*
X4955032Y6197498D01*
X4950968Y6197498D01*
X4947208Y6199073D01*
X4944414Y6202019D01*
X4941214Y6207099D01*
X4937099Y6211214D01*
X4932222Y6214262D01*
X4926736Y6216192D01*
X4920437Y6216904D01*
X4731562Y6216904D01*
X4725263Y6216192D01*
X4719777Y6214262D01*
X4714900Y6211214D01*
X4710785Y6207099D01*
X4707585Y6202019D01*
X4704791Y6199073D01*
X4701032Y6197498D01*
X4696968Y6197498D01*
X4693208Y6199073D01*
X4690414Y6202019D01*
X4687214Y6207099D01*
X4683099Y6211214D01*
X4678222Y6214262D01*
X4672736Y6216192D01*
X4666437Y6216904D01*
X4477562Y6216904D01*
X4471263Y6216192D01*
X4465777Y6214262D01*
X4460900Y6211214D01*
X4456785Y6207099D01*
X4453737Y6202222D01*
X4451807Y6196736D01*
X4451096Y6190437D01*
X4451096Y6001562D01*
X4451807Y5995263D01*
X4453737Y5989777D01*
X4456785Y5984900D01*
X4460900Y5980785D01*
X4465980Y5977585D01*
X4468926Y5974791D01*
X4470501Y5971032D01*
X4470501Y5966968D01*
X4468926Y5963208D01*
X4465980Y5960414D01*
X4460900Y5957214D01*
X4456785Y5953099D01*
X4453737Y5948222D01*
X4451807Y5942736D01*
X4451096Y5936437D01*
X4451096Y5747562D01*
X4451807Y5741263D01*
X4453737Y5735777D01*
X4456785Y5730900D01*
X4460900Y5726785D01*
X4465777Y5723737D01*
X4471263Y5721807D01*
X4477562Y5721096D01*
X4666437Y5721096D01*
X4672736Y5721807D01*
X4678222Y5723737D01*
X4683099Y5726785D01*
X4687214Y5730900D01*
X4690414Y5735980D01*
X4693208Y5738926D01*
X4696968Y5740501D01*
X4701032Y5740501D01*
X4704791Y5738926D01*
X4707585Y5735980D01*
X4710785Y5730900D01*
X4714900Y5726785D01*
X4719777Y5723737D01*
X4725263Y5721807D01*
X4731562Y5721096D01*
X4920437Y5721096D01*
X4926736Y5721807D01*
X4932222Y5723737D01*
X4937099Y5726785D01*
X4941214Y5730900D01*
X4944414Y5735980D01*
X4947208Y5738926D01*
X4950968Y5740501D01*
X4955032Y5740501D01*
X4958791Y5738926D01*
X4961585Y5735980D01*
X4964785Y5730900D01*
X4968900Y5726785D01*
X4973777Y5723737D01*
X4979263Y5721807D01*
X4985562Y5721096D01*
X5174437Y5721096D01*
X5180736Y5721807D01*
X5186222Y5723737D01*
X5191099Y5726785D01*
X5195214Y5730900D01*
X5198414Y5735980D01*
X5201208Y5738926D01*
X5204968Y5740501D01*
X5209032Y5740501D01*
X5212791Y5738926D01*
X5215585Y5735980D01*
X5218785Y5730900D01*
X5222900Y5726785D01*
X5227777Y5723737D01*
X5233263Y5721807D01*
X5239562Y5721096D01*
X5428437Y5721096D01*
X5434736Y5721807D01*
X5440222Y5723737D01*
X5445099Y5726785D01*
X5449214Y5730900D01*
X5452414Y5735980D01*
X5455208Y5738926D01*
X5458968Y5740501D01*
X5463032Y5740501D01*
X5466791Y5738926D01*
X5469585Y5735980D01*
X5472785Y5730900D01*
X5476900Y5726785D01*
X5481777Y5723737D01*
X5487263Y5721807D01*
X5493562Y5721096D01*
X5682437Y5721096D01*
X5688736Y5721807D01*
X5694222Y5723737D01*
X5699099Y5726785D01*
X5703214Y5730900D01*
X5706414Y5735980D01*
X5709208Y5738926D01*
X5712968Y5740501D01*
X5717032Y5740501D01*
X5720791Y5738926D01*
X5723585Y5735980D01*
X5726785Y5730900D01*
X5730900Y5726785D01*
X5735777Y5723737D01*
X5741263Y5721807D01*
X5747562Y5721096D01*
X5936437Y5721096D01*
X5942736Y5721807D01*
X5948222Y5723737D01*
X5953099Y5726785D01*
X5957214Y5730900D01*
X5960414Y5735980D01*
X5963208Y5738926D01*
X5966968Y5740501D01*
X5971032Y5740501D01*
X5974791Y5738926D01*
X5977585Y5735980D01*
X5980785Y5730900D01*
X5984900Y5726785D01*
X5989777Y5723737D01*
X5995263Y5721807D01*
X6001562Y5721096D01*
X6019952Y5721096D01*
X6023813Y5720334D01*
X6027115Y5718098D01*
X6029299Y5714796D01*
X6030112Y5710936D01*
X6030112Y5434279D01*
X6029604Y5431129D01*
X6028131Y5428284D01*
X6025896Y5426049D01*
X6022136Y5423306D01*
X6011519Y5413349D01*
X6002223Y5402122D01*
X5994450Y5389829D01*
X5988253Y5376672D01*
X5983732Y5362803D01*
X5981039Y5348528D01*
X5980125Y5334000D01*
X5981039Y5319471D01*
X5983732Y5305196D01*
X5988253Y5291328D01*
X5994450Y5278170D01*
X6002223Y5265877D01*
X6011519Y5254650D01*
X6022136Y5244693D01*
X6033922Y5236159D01*
X6046673Y5229148D01*
X6060186Y5223764D01*
X6074308Y5220157D01*
X6088735Y5218328D01*
X6103264Y5218328D01*
X6117691Y5220157D01*
X6131814Y5223764D01*
X6145326Y5229148D01*
X6158077Y5236159D01*
X6169863Y5244693D01*
X6180480Y5254650D01*
X6189776Y5265877D01*
X6197549Y5278170D01*
X6203746Y5291328D01*
X6208268Y5305196D01*
X6210960Y5319471D01*
X6211874Y5334000D01*
X6210960Y5348528D01*
X6208268Y5362803D01*
X6203746Y5376672D01*
X6197549Y5389829D01*
X6189776Y5402122D01*
X6180480Y5413349D01*
X6169863Y5423306D01*
X6166104Y5426049D01*
X6163868Y5428284D01*
X6162395Y5431129D01*
X6161887Y5434279D01*
X6161887Y5710936D01*
X6162700Y5714796D01*
X6164884Y5718098D01*
X6168186Y5720334D01*
X6172047Y5721096D01*
X6190437Y5721096D01*
X6196736Y5721807D01*
X6202222Y5723737D01*
X6207099Y5726785D01*
X6211214Y5730900D01*
X6214414Y5735980D01*
X6217208Y5738926D01*
X6220968Y5740501D01*
X6225032Y5740501D01*
X6228791Y5738926D01*
X6231585Y5735980D01*
X6234785Y5730900D01*
X6238900Y5726785D01*
X6243777Y5723737D01*
X6249263Y5721807D01*
X6255562Y5721096D01*
X6444437Y5721096D01*
X6450736Y5721807D01*
X6456222Y5723737D01*
X6461099Y5726785D01*
X6465214Y5730900D01*
X6468414Y5735980D01*
X6471208Y5738926D01*
X6474968Y5740501D01*
X6479032Y5740501D01*
X6482791Y5738926D01*
X6485585Y5735980D01*
X6488785Y5730900D01*
X6492900Y5726785D01*
X6497777Y5723737D01*
X6503263Y5721807D01*
X6509562Y5721096D01*
X6698437Y5721096D01*
X6704736Y5721807D01*
X6710222Y5723737D01*
X6715099Y5726785D01*
X6719214Y5730900D01*
X6722414Y5735980D01*
X6725208Y5738926D01*
X6728968Y5740501D01*
X6733031Y5740501D01*
X6736791Y5738926D01*
X6739585Y5735980D01*
X6742785Y5730900D01*
X6746900Y5726785D01*
X6751777Y5723737D01*
X6757263Y5721807D01*
X6763562Y5721096D01*
X6952437Y5721096D01*
X6958736Y5721807D01*
X6964222Y5723737D01*
X6969099Y5726785D01*
X6973214Y5730900D01*
X6976414Y5735980D01*
X6979208Y5738926D01*
X6982968Y5740501D01*
X6987031Y5740501D01*
X6990791Y5738926D01*
X6993585Y5735980D01*
X6996785Y5730900D01*
X7000900Y5726785D01*
X7005777Y5723737D01*
X7011263Y5721807D01*
X7017562Y5721096D01*
X7206437Y5721096D01*
X7212736Y5721807D01*
X7218222Y5723737D01*
X7223099Y5726785D01*
X7227214Y5730900D01*
X7230414Y5735980D01*
X7233208Y5738926D01*
X7236968Y5740501D01*
X7241031Y5740501D01*
X7244791Y5738926D01*
X7247585Y5735980D01*
X7250785Y5730900D01*
X7254900Y5726785D01*
X7259777Y5723737D01*
X7265263Y5721807D01*
X7271562Y5721096D01*
X7460437Y5721096D01*
X7466736Y5721807D01*
X7472222Y5723737D01*
X7477099Y5726785D01*
X7481214Y5730900D01*
X7484414Y5735980D01*
X7487208Y5738926D01*
X7490968Y5740501D01*
X7495031Y5740501D01*
X7498791Y5738926D01*
X7501585Y5735980D01*
X7504785Y5730900D01*
X7508900Y5726785D01*
X7513777Y5723737D01*
X7519263Y5721807D01*
X7525562Y5721096D01*
X7714437Y5721096D01*
X7720736Y5721807D01*
X7726222Y5723737D01*
X7731099Y5726785D01*
X7735214Y5730900D01*
X7738414Y5735980D01*
X7741208Y5738926D01*
X7744968Y5740501D01*
X7749031Y5740501D01*
X7752791Y5738926D01*
X7755585Y5735980D01*
X7758785Y5730900D01*
X7762900Y5726785D01*
X7767777Y5723737D01*
X7773263Y5721807D01*
X7779562Y5721096D01*
X7968437Y5721096D01*
X7974736Y5721807D01*
X7980222Y5723737D01*
X7985099Y5726785D01*
X7989214Y5730900D01*
X7992414Y5735980D01*
X7995208Y5738926D01*
X7998968Y5740501D01*
X8003031Y5740501D01*
X8006791Y5738926D01*
X8009585Y5735980D01*
X8012785Y5730900D01*
X8016900Y5726785D01*
X8021777Y5723737D01*
X8027263Y5721807D01*
X8033562Y5721096D01*
X8222437Y5721096D01*
X8228736Y5721807D01*
X8234222Y5723737D01*
X8239099Y5726785D01*
X8243214Y5730900D01*
X8246414Y5735980D01*
X8249208Y5738926D01*
X8252968Y5740501D01*
X8257031Y5740501D01*
X8260791Y5738926D01*
X8263585Y5735980D01*
X8266785Y5730900D01*
X8270900Y5726785D01*
X8275777Y5723737D01*
X8281263Y5721807D01*
X8287562Y5721096D01*
X8476437Y5721096D01*
X8482736Y5721807D01*
X8488222Y5723737D01*
X8493099Y5726785D01*
X8497214Y5730900D01*
X8500414Y5735980D01*
X8503208Y5738926D01*
X8506968Y5740501D01*
X8511032Y5740501D01*
X8514791Y5738926D01*
X8517585Y5735980D01*
X8520785Y5730900D01*
X8524900Y5726785D01*
X8529777Y5723737D01*
X8535263Y5721807D01*
X8541562Y5721096D01*
X8730437Y5721096D01*
X8736736Y5721807D01*
X8742222Y5723737D01*
X8747099Y5726785D01*
X8751214Y5730900D01*
X8754414Y5735980D01*
X8757208Y5738926D01*
X8760968Y5740501D01*
X8765032Y5740501D01*
X8768791Y5738926D01*
X8771585Y5735980D01*
X8774785Y5730900D01*
X8778900Y5726785D01*
X8783777Y5723737D01*
X8789263Y5721807D01*
X8795562Y5721096D01*
X8984437Y5721096D01*
X8990736Y5721807D01*
X8996222Y5723737D01*
X9001099Y5726785D01*
X9005214Y5730900D01*
X9008414Y5735980D01*
X9011208Y5738926D01*
X9014968Y5740501D01*
X9019032Y5740501D01*
X9022791Y5738926D01*
X9025585Y5735980D01*
X9028785Y5730900D01*
X9032900Y5726785D01*
X9037777Y5723737D01*
X9043263Y5721807D01*
X9049562Y5721096D01*
X9067952Y5721096D01*
X9071813Y5720334D01*
X9075115Y5718098D01*
X9077299Y5714796D01*
X9078112Y5710936D01*
X9078112Y5632196D01*
X9077299Y5628335D01*
X9075115Y5625033D01*
X8865666Y5415584D01*
X8862364Y5413400D01*
X8858504Y5412587D01*
X7455255Y5412587D01*
X7451191Y5413451D01*
X7447838Y5415788D01*
X7445349Y5418480D01*
X7434122Y5427776D01*
X7421829Y5435549D01*
X7408672Y5441746D01*
X7394803Y5446268D01*
X7380528Y5448960D01*
X7366000Y5449874D01*
X7351471Y5448960D01*
X7337196Y5446268D01*
X7323328Y5441746D01*
X7310170Y5435549D01*
X7297877Y5427776D01*
X7286650Y5418480D01*
X7276693Y5407863D01*
X7268159Y5396077D01*
X7261148Y5383326D01*
X7255814Y5369814D01*
X7252157Y5355691D01*
X7250328Y5341264D01*
X7250328Y5326735D01*
X7252157Y5312308D01*
X7255814Y5298186D01*
X7261148Y5284673D01*
X7268159Y5271922D01*
X7276693Y5260136D01*
X7286650Y5249519D01*
X7297877Y5240223D01*
X7310170Y5232450D01*
X7323328Y5226253D01*
X7337196Y5221732D01*
X7351471Y5219039D01*
X7366000Y5218125D01*
X7380528Y5219039D01*
X7394803Y5221732D01*
X7408672Y5226253D01*
X7421829Y5232450D01*
X7434122Y5240223D01*
X7445349Y5249519D01*
X7455306Y5260136D01*
X7463840Y5271922D01*
X7465822Y5275529D01*
X7468108Y5278323D01*
X7471206Y5280152D01*
X7474762Y5280812D01*
X8889593Y5280812D01*
X8900312Y5281625D01*
X8910370Y5284063D01*
X8919921Y5288026D01*
X8928709Y5293410D01*
X8936888Y5300370D01*
X9190329Y5553811D01*
X9197289Y5561990D01*
X9202674Y5570778D01*
X9206636Y5580329D01*
X9209074Y5590387D01*
X9209887Y5601106D01*
X9209887Y5710936D01*
X9210700Y5714796D01*
X9212884Y5718098D01*
X9216186Y5720334D01*
X9220047Y5721096D01*
X9238437Y5721096D01*
X9244736Y5721807D01*
X9250222Y5723737D01*
X9255099Y5726785D01*
X9259214Y5730900D01*
X9262414Y5735980D01*
X9265208Y5738926D01*
X9268968Y5740501D01*
X9273032Y5740501D01*
X9276791Y5738926D01*
X9279585Y5735980D01*
X9282785Y5730900D01*
X9286900Y5726785D01*
X9291777Y5723737D01*
X9297263Y5721807D01*
X9303562Y5721096D01*
X9344152Y5721096D01*
X9344152Y5788152D01*
X9275064Y5788152D01*
X9271203Y5788914D01*
X9267901Y5791149D01*
X9265666Y5794400D01*
X9264904Y5798312D01*
X9264904Y5885688D01*
X9265666Y5889599D01*
X9267901Y5892850D01*
X9271203Y5895086D01*
X9275064Y5895848D01*
X9344152Y5895848D01*
X9344152Y6042152D01*
X9275064Y6042152D01*
X9271203Y6042914D01*
X9267901Y6045149D01*
X9265666Y6048400D01*
X9264904Y6052312D01*
X9264904Y6139688D01*
X9265666Y6143599D01*
X9267901Y6146850D01*
X9271203Y6149086D01*
X9275064Y6149848D01*
X9344152Y6149848D01*
X9344152Y6216904D01*
X9303562Y6216904D01*
X9297263Y6216192D01*
X9291777Y6214262D01*
X9286900Y6211214D01*
X9282785Y6207099D01*
X9279585Y6202019D01*
X9276791Y6199073D01*
X9273032Y6197498D01*
X9268968Y6197498D01*
X9265208Y6199073D01*
X9262414Y6202019D01*
X9259214Y6207099D01*
X9255099Y6211214D01*
X9250222Y6214262D01*
X9244736Y6216192D01*
X9238437Y6216904D01*
X9049562Y6216904D01*
X9043263Y6216192D01*
X9037777Y6214262D01*
X9032900Y6211214D01*
X9028785Y6207099D01*
X9025585Y6202019D01*
X9022791Y6199073D01*
X9019032Y6197498D01*
X9014968Y6197498D01*
X9011208Y6199073D01*
X9008414Y6202019D01*
X9005214Y6207099D01*
X9001099Y6211214D01*
X8996222Y6214262D01*
X8990736Y6216192D01*
X8984437Y6216904D01*
X8795562Y6216904D01*
X8789263Y6216192D01*
X8783777Y6214262D01*
X8778900Y6211214D01*
X8774785Y6207099D01*
X8771585Y6202019D01*
X8768791Y6199073D01*
X8765032Y6197498D01*
X8760968Y6197498D01*
X8757208Y6199073D01*
X8754414Y6202019D01*
X8751214Y6207099D01*
X8747099Y6211214D01*
X8742222Y6214262D01*
X8736736Y6216192D01*
X8730437Y6216904D01*
X8541562Y6216904D01*
X8535263Y6216192D01*
X8529777Y6214262D01*
X8524900Y6211214D01*
X8520785Y6207099D01*
X8517585Y6202019D01*
X8514791Y6199073D01*
X8511032Y6197498D01*
X8506968Y6197498D01*
X8503208Y6199073D01*
X8500414Y6202019D01*
X8497214Y6207099D01*
X8493099Y6211214D01*
X8488222Y6214262D01*
X8482736Y6216192D01*
X8476437Y6216904D01*
X8287562Y6216904D01*
X8281263Y6216192D01*
X8275777Y6214262D01*
X8270900Y6211214D01*
X8266785Y6207099D01*
X8263585Y6202019D01*
X8260791Y6199073D01*
X8257031Y6197498D01*
X8252968Y6197498D01*
X8249208Y6199073D01*
X8246414Y6202019D01*
X8243214Y6207099D01*
X8239099Y6211214D01*
X8234222Y6214262D01*
X8228736Y6216192D01*
X8222437Y6216904D01*
X8204047Y6216904D01*
X8200186Y6217666D01*
X8196884Y6219901D01*
X8194700Y6223203D01*
X8193887Y6227064D01*
X8193887Y6318504D01*
X8194700Y6322364D01*
X8196884Y6325666D01*
X8406333Y6535115D01*
X8409635Y6537299D01*
X8413496Y6538112D01*
X9043619Y6538112D01*
X9047988Y6537147D01*
X9051442Y6534404D01*
X9059519Y6524650D01*
X9070136Y6514693D01*
X9081922Y6506159D01*
X9094673Y6499148D01*
X9108186Y6493764D01*
X9122308Y6490157D01*
X9136735Y6488328D01*
X9151264Y6488328D01*
X9165742Y6490157D01*
X9179814Y6493764D01*
X9193326Y6499148D01*
X9206077Y6506159D01*
X9217863Y6514693D01*
X9228480Y6524650D01*
X9236557Y6534404D01*
X9240062Y6537147D01*
X9244380Y6538112D01*
X9531756Y6538112D01*
X9534906Y6537604D01*
X9537700Y6536131D01*
X9539986Y6533896D01*
X9542729Y6530136D01*
X9552686Y6519519D01*
X9563862Y6510223D01*
X9576155Y6502450D01*
X9589363Y6496253D01*
X9603181Y6491732D01*
X9617456Y6489039D01*
X9632340Y6488074D01*
X9671659Y6488074D01*
X9686544Y6489039D01*
X9700818Y6491732D01*
X9714636Y6496253D01*
X9727844Y6502450D01*
X9740138Y6510223D01*
X9751314Y6519519D01*
X9761270Y6530136D01*
X9769856Y6541922D01*
X9776866Y6554673D01*
X9782200Y6568186D01*
X9785858Y6582308D01*
X9787636Y6596735D01*
X9787636Y6611264D01*
X9785858Y6625691D01*
X9782200Y6639814D01*
X9776866Y6653326D01*
X9769856Y6666077D01*
X9761270Y6677863D01*
X9751314Y6688480D01*
X9740138Y6697776D01*
X9727844Y6705549D01*
X9714636Y6711746D01*
X9700818Y6716268D01*
X9686544Y6718960D01*
X9671659Y6719925D01*
X9632340Y6719925D01*
X9617456Y6718960D01*
X9603181Y6716268D01*
X9589363Y6711746D01*
X9576155Y6705549D01*
X9563862Y6697776D01*
X9552686Y6688480D01*
X9542729Y6677863D01*
X9539986Y6674103D01*
X9537700Y6671868D01*
X9534906Y6670395D01*
X9531756Y6669887D01*
X9244380Y6669887D01*
X9240062Y6670852D01*
X9236557Y6673596D01*
X9228480Y6683349D01*
X9217863Y6693306D01*
X9206077Y6701840D01*
X9193326Y6708851D01*
X9179814Y6714236D01*
X9165742Y6717842D01*
X9151264Y6719671D01*
X9136735Y6719671D01*
X9122308Y6717842D01*
X9108186Y6714236D01*
X9094673Y6708851D01*
X9081922Y6701840D01*
X9070136Y6693306D01*
X9059519Y6683349D01*
X9051442Y6673596D01*
X9047988Y6670852D01*
X9043619Y6669887D01*
X8382406Y6669887D01*
X8371687Y6669074D01*
X8361629Y6666636D01*
X8352078Y6662674D01*
X8343290Y6657289D01*
X8335111Y6650329D01*
X8081670Y6396888D01*
X8074710Y6388709D01*
X8069325Y6379921D01*
X8065363Y6370370D01*
X8062925Y6360312D01*
X8062112Y6349593D01*
X8062112Y6227064D01*
X8061299Y6223203D01*
X8059115Y6219901D01*
X8055813Y6217666D01*
X8051952Y6216904D01*
X8033562Y6216904D01*
X8027263Y6216192D01*
X8021777Y6214262D01*
X8016900Y6211214D01*
X8012785Y6207099D01*
X8009585Y6202019D01*
X8006791Y6199073D01*
X8003031Y6197498D01*
X7998968Y6197498D01*
X7995208Y6199073D01*
X7992414Y6202019D01*
X7989214Y6207099D01*
X7985099Y6211214D01*
X7980222Y6214262D01*
X7974736Y6216192D01*
X7968437Y6216904D01*
X7950047Y6216904D01*
X7946186Y6217666D01*
X7942884Y6219901D01*
X7940700Y6223203D01*
X7939887Y6227064D01*
X7939887Y6572503D01*
X7940700Y6576364D01*
X7942884Y6579666D01*
X8152333Y6789115D01*
X8155635Y6791299D01*
X8159496Y6792112D01*
X8789619Y6792112D01*
X8793988Y6791147D01*
X8797442Y6788403D01*
X8805519Y6778650D01*
X8816136Y6768693D01*
X8827922Y6760159D01*
X8840673Y6753148D01*
X8854186Y6747764D01*
X8868308Y6744157D01*
X8882735Y6742328D01*
X8897264Y6742328D01*
X8911742Y6744157D01*
X8925814Y6747764D01*
X8939326Y6753148D01*
X8952077Y6760159D01*
X8963863Y6768693D01*
X8974480Y6778650D01*
X8982557Y6788403D01*
X8986062Y6791147D01*
X8990380Y6792112D01*
X9531756Y6792112D01*
X9534906Y6791604D01*
X9537700Y6790131D01*
X9539986Y6787896D01*
X9542729Y6784136D01*
X9552686Y6773519D01*
X9563862Y6764223D01*
X9576155Y6756450D01*
X9589363Y6750253D01*
X9603181Y6745731D01*
X9617456Y6743039D01*
X9632340Y6742074D01*
X9671659Y6742074D01*
X9686544Y6743039D01*
X9700818Y6745731D01*
X9714636Y6750253D01*
X9727844Y6756450D01*
X9740138Y6764223D01*
X9751314Y6773519D01*
X9761270Y6784136D01*
X9769856Y6795922D01*
X9776866Y6808673D01*
X9782200Y6822186D01*
X9785858Y6836308D01*
X9787636Y6850735D01*
X9787636Y6865264D01*
X9785858Y6879691D01*
X9782200Y6893814D01*
X9776866Y6907326D01*
X9769856Y6920077D01*
X9761270Y6931863D01*
X9751314Y6942480D01*
X9740138Y6951776D01*
X9727844Y6959549D01*
X9714636Y6965746D01*
X9700818Y6970268D01*
X9686544Y6972960D01*
X9671659Y6973925D01*
X9632340Y6973925D01*
X9617456Y6972960D01*
X9603181Y6970268D01*
X9589363Y6965746D01*
X9576155Y6959549D01*
X9563862Y6951776D01*
X9552686Y6942480D01*
X9542729Y6931863D01*
X9539986Y6928103D01*
X9537700Y6925868D01*
X9534906Y6924395D01*
X9531756Y6923887D01*
X8990380Y6923887D01*
X8986062Y6924852D01*
X8982557Y6927596D01*
X8974480Y6937349D01*
X8963863Y6947306D01*
X8952077Y6955840D01*
X8939326Y6962851D01*
X8925814Y6968236D01*
X8911742Y6971842D01*
X8897264Y6973671D01*
X8882735Y6973671D01*
X8868308Y6971842D01*
X8854186Y6968236D01*
X8840673Y6962851D01*
X8827922Y6955840D01*
X8816136Y6947306D01*
X8805519Y6937349D01*
X8797442Y6927596D01*
X8793988Y6924852D01*
X8789619Y6923887D01*
X8128406Y6923887D01*
X8117687Y6923074D01*
X8107629Y6920636D01*
X8098078Y6916674D01*
X8089290Y6911289D01*
X8081111Y6904329D01*
X7827670Y6650888D01*
X7820710Y6642709D01*
X7815325Y6633921D01*
X7811363Y6624370D01*
X7808925Y6614312D01*
X7808112Y6603593D01*
X7808112Y6227064D01*
X7807299Y6223203D01*
X7805115Y6219901D01*
X7801813Y6217666D01*
X7797952Y6216904D01*
X7779562Y6216904D01*
X7773263Y6216192D01*
X7767777Y6214262D01*
X7762900Y6211214D01*
X7758785Y6207099D01*
X7755585Y6202019D01*
X7752791Y6199073D01*
X7749031Y6197498D01*
X7744968Y6197498D01*
X7741208Y6199073D01*
X7738414Y6202019D01*
X7735214Y6207099D01*
X7731099Y6211214D01*
X7726222Y6214262D01*
X7720736Y6216192D01*
X7714437Y6216904D01*
X7696047Y6216904D01*
X7692186Y6217666D01*
X7688884Y6219901D01*
X7686700Y6223203D01*
X7685887Y6227064D01*
X7685887Y6826503D01*
X7686700Y6830364D01*
X7688884Y6833666D01*
X7898333Y7043115D01*
X7901635Y7045299D01*
X7905496Y7046112D01*
X8535619Y7046112D01*
X8539988Y7045147D01*
X8543442Y7042403D01*
X8551519Y7032650D01*
X8562136Y7022693D01*
X8573922Y7014159D01*
X8586673Y7007148D01*
X8600186Y7001764D01*
X8614308Y6998157D01*
X8628735Y6996328D01*
X8643264Y6996328D01*
X8657742Y6998157D01*
X8671814Y7001764D01*
X8685326Y7007148D01*
X8698077Y7014159D01*
X8709863Y7022693D01*
X8720480Y7032650D01*
X8728557Y7042403D01*
X8732062Y7045147D01*
X8736380Y7046112D01*
X9531756Y7046112D01*
X9534906Y7045604D01*
X9537700Y7044131D01*
X9539986Y7041896D01*
X9542729Y7038136D01*
X9552686Y7027519D01*
X9563862Y7018223D01*
X9576155Y7010450D01*
X9589363Y7004253D01*
X9603181Y6999731D01*
X9617456Y6997039D01*
X9632340Y6996074D01*
X9671659Y6996074D01*
X9686544Y6997039D01*
X9700818Y6999731D01*
X9714636Y7004253D01*
X9727844Y7010450D01*
X9740138Y7018223D01*
X9751314Y7027519D01*
X9761270Y7038136D01*
X9769856Y7049922D01*
X9776866Y7062673D01*
X9782200Y7076186D01*
X9785858Y7090308D01*
X9787636Y7104735D01*
X9787636Y7119264D01*
X9785858Y7133691D01*
X9782200Y7147814D01*
X9776866Y7161326D01*
X9769856Y7174077D01*
X9761270Y7185863D01*
X9751314Y7196480D01*
X9740138Y7205776D01*
X9727844Y7213549D01*
X9714636Y7219746D01*
X9700818Y7224268D01*
X9686544Y7226960D01*
X9671659Y7227925D01*
X9632340Y7227925D01*
X9617456Y7226960D01*
X9603181Y7224268D01*
X9589363Y7219746D01*
X9576155Y7213549D01*
X9563862Y7205776D01*
X9552686Y7196480D01*
X9542729Y7185863D01*
X9539986Y7182103D01*
X9537700Y7179868D01*
X9534906Y7178395D01*
X9531756Y7177887D01*
X8736380Y7177887D01*
X8732062Y7178852D01*
X8728557Y7181596D01*
X8720480Y7191349D01*
X8709863Y7201306D01*
X8698077Y7209840D01*
X8685326Y7216851D01*
X8671814Y7222236D01*
X8657742Y7225842D01*
X8643264Y7227671D01*
X8628735Y7227671D01*
X8614308Y7225842D01*
X8600186Y7222236D01*
X8586673Y7216851D01*
X8573922Y7209840D01*
X8562136Y7201306D01*
X8551519Y7191349D01*
X8543442Y7181596D01*
X8539988Y7178852D01*
X8535619Y7177887D01*
X7874406Y7177887D01*
X7863687Y7177074D01*
X7853629Y7174636D01*
X7844078Y7170674D01*
X7835290Y7165289D01*
X7827111Y7158329D01*
X7573670Y6904888D01*
X7566710Y6896709D01*
X7561325Y6887921D01*
X7557363Y6878370D01*
X7554925Y6868312D01*
X7554112Y6857593D01*
X7554112Y6227064D01*
X7553299Y6223203D01*
X7551115Y6219901D01*
X7547813Y6217666D01*
X7543952Y6216904D01*
X7525562Y6216904D01*
X7519263Y6216192D01*
X7513777Y6214262D01*
X7508900Y6211214D01*
X7504785Y6207099D01*
X7501585Y6202019D01*
X7498791Y6199073D01*
X7495031Y6197498D01*
X7490968Y6197498D01*
X7487208Y6199073D01*
X7484414Y6202019D01*
X7481214Y6207099D01*
X7477099Y6211214D01*
X7472222Y6214262D01*
X7466736Y6216192D01*
X7460437Y6216904D01*
X7442047Y6216904D01*
X7438186Y6217666D01*
X7434884Y6219901D01*
X7432700Y6223203D01*
X7431887Y6227064D01*
X7431887Y7080503D01*
X7432700Y7084364D01*
X7434884Y7087666D01*
X7644333Y7297115D01*
X7647635Y7299299D01*
X7651496Y7300112D01*
X8281619Y7300112D01*
X8285988Y7299147D01*
X8289442Y7296403D01*
X8297519Y7286650D01*
X8308136Y7276693D01*
X8319922Y7268159D01*
X8332673Y7261148D01*
X8346186Y7255764D01*
X8360308Y7252157D01*
X8374735Y7250328D01*
X8389264Y7250328D01*
X8403742Y7252157D01*
X8417814Y7255764D01*
X8431326Y7261148D01*
X8444077Y7268159D01*
X8455863Y7276693D01*
X8466480Y7286650D01*
X8474557Y7296403D01*
X8478062Y7299147D01*
X8482380Y7300112D01*
X9531756Y7300112D01*
X9534906Y7299604D01*
X9537700Y7298131D01*
X9539986Y7295896D01*
X9542729Y7292136D01*
X9552686Y7281519D01*
X9563862Y7272223D01*
X9576155Y7264450D01*
X9589363Y7258253D01*
X9603181Y7253731D01*
X9617456Y7251039D01*
X9632340Y7250074D01*
X9671659Y7250074D01*
X9686544Y7251039D01*
X9700818Y7253731D01*
X9714636Y7258253D01*
X9727844Y7264450D01*
X9740138Y7272223D01*
X9751314Y7281519D01*
X9761270Y7292136D01*
X9769856Y7303922D01*
X9776866Y7316673D01*
X9782200Y7330186D01*
X9785858Y7344308D01*
X9787636Y7358735D01*
X9787636Y7373264D01*
X9785858Y7387691D01*
X9782200Y7401814D01*
X9776866Y7415326D01*
X9769856Y7428077D01*
X9761270Y7439863D01*
X9751314Y7450480D01*
X9740138Y7459776D01*
X9727844Y7467549D01*
X9714636Y7473746D01*
X9700818Y7478268D01*
X9686544Y7480960D01*
X9671659Y7481925D01*
X9632340Y7481925D01*
X9617456Y7480960D01*
X9603181Y7478268D01*
X9589363Y7473746D01*
X9576155Y7467549D01*
X9563862Y7459776D01*
X9552686Y7450480D01*
X9542729Y7439863D01*
X9539986Y7436103D01*
X9537700Y7433868D01*
X9534906Y7432395D01*
X9531756Y7431887D01*
X8482380Y7431887D01*
X8478062Y7432852D01*
X8474557Y7435596D01*
X8466480Y7445349D01*
X8455863Y7455306D01*
X8444077Y7463840D01*
X8431326Y7470851D01*
X8417814Y7476236D01*
X8403742Y7479842D01*
X8389264Y7481671D01*
X8374735Y7481671D01*
X8360308Y7479842D01*
X8346186Y7476236D01*
X8332673Y7470851D01*
X8319922Y7463840D01*
X8308136Y7455306D01*
X8297519Y7445349D01*
X8289442Y7435596D01*
X8285988Y7432852D01*
X8281619Y7431887D01*
X7620406Y7431887D01*
X7609687Y7431074D01*
X7599629Y7428636D01*
X7590078Y7424674D01*
X7581290Y7419289D01*
X7573111Y7412329D01*
X7319670Y7158888D01*
X7312710Y7150709D01*
X7307325Y7141921D01*
X7303363Y7132370D01*
X7300925Y7122312D01*
X7300112Y7111593D01*
X7300112Y6227064D01*
X7299299Y6223203D01*
X7297115Y6219901D01*
X7293813Y6217666D01*
X7289952Y6216904D01*
X7271562Y6216904D01*
X7265263Y6216192D01*
X7259777Y6214262D01*
X7254900Y6211214D01*
X7250785Y6207099D01*
X7247585Y6202019D01*
X7244791Y6199073D01*
X7241031Y6197498D01*
X7236968Y6197498D01*
X7233208Y6199073D01*
X7230414Y6202019D01*
X7227214Y6207099D01*
X7223099Y6211214D01*
X7218222Y6214262D01*
X7212736Y6216192D01*
X7206437Y6216904D01*
X7017562Y6216904D01*
X7011263Y6216192D01*
X7005777Y6214262D01*
X7000900Y6211214D01*
X6996785Y6207099D01*
X6993585Y6202019D01*
X6990791Y6199073D01*
X6987031Y6197498D01*
X6982968Y6197498D01*
X6979208Y6199073D01*
X6976414Y6202019D01*
X6973214Y6207099D01*
X6969099Y6211214D01*
X6964222Y6214262D01*
X6958736Y6216192D01*
X6952437Y6216904D01*
X6763562Y6216904D01*
X6757263Y6216192D01*
X6751777Y6214262D01*
X6746900Y6211214D01*
X6742785Y6207099D01*
X6739585Y6202019D01*
X6736791Y6199073D01*
X6733031Y6197498D01*
X6728968Y6197498D01*
X6725208Y6199073D01*
X6722414Y6202019D01*
X6719214Y6207099D01*
X6715099Y6211214D01*
X6710222Y6214262D01*
X6704736Y6216192D01*
X6698437Y6216904D01*
X6680047Y6216904D01*
X6676186Y6217666D01*
X6672884Y6219901D01*
X6670700Y6223203D01*
X6669887Y6227064D01*
X6669887Y8281720D01*
X6670395Y8284870D01*
X6671868Y8287715D01*
X6674103Y8289950D01*
X6677863Y8292693D01*
X6688480Y8302650D01*
X6697776Y8313877D01*
X6705549Y8326170D01*
X6711746Y8339328D01*
X6716268Y8353196D01*
X6718960Y8367471D01*
X6719874Y8382000D01*
X6718960Y8396528D01*
X6716268Y8410803D01*
X6711746Y8424672D01*
X6705549Y8437829D01*
X6697776Y8450122D01*
X6688480Y8461349D01*
X6677863Y8471306D01*
X6666077Y8479840D01*
X6653326Y8486851D01*
X6639814Y8492236D01*
X6625691Y8495842D01*
X6611264Y8497671D01*
X6596735Y8497671D01*
X6588201Y8496604D01*
X6585102Y8496655D01*
X6582206Y8497671D01*
X6579717Y8499500D01*
X6396888Y8682329D01*
X6388709Y8689289D01*
X6379921Y8694674D01*
X6370370Y8698636D01*
X6360312Y8701074D01*
X6349593Y8701887D01*
X4430674Y8701887D01*
X4426915Y8702598D01*
X4423714Y8704681D01*
X4421479Y8707729D01*
X4419549Y8711844D01*
X4411776Y8724138D01*
X4402480Y8735314D01*
X4391863Y8745270D01*
X4380077Y8753856D01*
X4367326Y8760866D01*
X4353814Y8766200D01*
X4339691Y8769858D01*
X4325264Y8771636D01*
X4310735Y8771636D01*
X4296308Y8769858D01*
X4282186Y8766200D01*
X4268673Y8760866D01*
X4255922Y8753856D01*
X4244136Y8745270D01*
X4233519Y8735314D01*
X4224223Y8724138D01*
X4216450Y8711844D01*
X4210253Y8698636D01*
X4205732Y8684818D01*
X4203039Y8670544D01*
X4202074Y8655659D01*
X4202074Y8616340D01*
X4203039Y8601456D01*
X4205732Y8587181D01*
X4210253Y8573363D01*
X4216450Y8560155D01*
X4224223Y8547862D01*
X4233519Y8536686D01*
X4244136Y8526729D01*
X4255922Y8518144D01*
X4268673Y8511133D01*
X4282186Y8505799D01*
X4296308Y8502142D01*
X4310735Y8500364D01*
X4325264Y8500364D01*
X4339691Y8502142D01*
X4353814Y8505799D01*
X4367326Y8511133D01*
X4380077Y8518144D01*
X4391863Y8526729D01*
X4402480Y8536686D01*
X4411776Y8547862D01*
X4419549Y8560155D01*
X4421479Y8564270D01*
X4423714Y8567318D01*
X4426915Y8569401D01*
X4430674Y8570112D01*
X6318504Y8570112D01*
X6322364Y8569299D01*
X6325666Y8567115D01*
X6486398Y8406434D01*
X6488277Y8403742D01*
X6489242Y8400592D01*
X6488125Y8382000D01*
X6489039Y8367471D01*
X6491732Y8353196D01*
X6496253Y8339328D01*
X6502450Y8326170D01*
X6510223Y8313877D01*
X6519519Y8302650D01*
X6530136Y8292693D01*
X6533896Y8289950D01*
X6536131Y8287715D01*
X6537604Y8284870D01*
X6538112Y8281720D01*
X6538112Y6227064D01*
X6537299Y6223203D01*
X6535115Y6219901D01*
X6531813Y6217666D01*
X6527952Y6216904D01*
X6509562Y6216904D01*
X6503263Y6216192D01*
X6497777Y6214262D01*
X6492900Y6211214D01*
X6488785Y6207099D01*
X6485585Y6202019D01*
X6482791Y6199073D01*
X6479032Y6197498D01*
X6474968Y6197498D01*
X6471208Y6199073D01*
X6468414Y6202019D01*
X6465214Y6207099D01*
X6461099Y6211214D01*
X6456222Y6214262D01*
X6450736Y6216192D01*
X6444437Y6216904D01*
X6426047Y6216904D01*
X6422186Y6217666D01*
X6418884Y6219901D01*
X6416700Y6223203D01*
X6415887Y6227064D01*
X6415887Y6489293D01*
X6415074Y6500012D01*
X6412636Y6510070D01*
X6408674Y6519621D01*
X6403289Y6528409D01*
X6396329Y6536588D01*
X6155588Y6777329D01*
X6147409Y6784289D01*
X6138621Y6789674D01*
X6129070Y6793636D01*
X6119012Y6796074D01*
X6108293Y6796887D01*
X3937406Y6796887D01*
X3926687Y6796074D01*
X3916629Y6793636D01*
X3907078Y6789674D01*
X3898290Y6784289D01*
X3890111Y6777329D01*
X3785666Y6672884D01*
X3782364Y6670700D01*
X3778504Y6669887D01*
X3676243Y6669887D01*
X3673094Y6670395D01*
X3670300Y6671868D01*
X3668014Y6674103D01*
X3665270Y6677863D01*
X3655314Y6688480D01*
X3644137Y6697776D01*
X3631844Y6705549D01*
X3618636Y6711746D01*
X3604818Y6716268D01*
X3590544Y6718960D01*
X3575659Y6719925D01*
X3536340Y6719925D01*
X3521456Y6718960D01*
X3507181Y6716268D01*
X3493363Y6711746D01*
X3480155Y6705549D01*
X3467862Y6697776D01*
X3456686Y6688480D01*
X3446729Y6677863D01*
X3438144Y6666077D01*
X3431133Y6653326D01*
X3425799Y6639814D01*
X3422142Y6625691D01*
X3420364Y6611264D01*
X3420364Y6596735D01*
X3422142Y6582308D01*
X3425799Y6568186D01*
X3431133Y6554673D01*
X3438144Y6541922D01*
X3446729Y6530136D01*
X3456686Y6519519D01*
X3467862Y6510223D01*
X3480155Y6502450D01*
X3493363Y6496253D01*
X3507181Y6491732D01*
X3521456Y6489039D01*
X3536340Y6488074D01*
X3575659Y6488074D01*
X3590544Y6489039D01*
X3604818Y6491732D01*
X3618636Y6496253D01*
X3631844Y6502450D01*
X3644137Y6510223D01*
X3655314Y6519519D01*
X3665270Y6530136D01*
X3668014Y6533896D01*
X3670300Y6536131D01*
X3673094Y6537604D01*
X3676243Y6538112D01*
X3809593Y6538112D01*
X3820312Y6538925D01*
X3830370Y6541363D01*
X3839921Y6545326D01*
X3848709Y6550710D01*
X3856888Y6557670D01*
X3961333Y6662115D01*
X3964635Y6664299D01*
X3968496Y6665112D01*
X6077204Y6665112D01*
X6081064Y6664299D01*
X6084366Y6662115D01*
X6281115Y6465366D01*
X6283299Y6462064D01*
X6284112Y6458204D01*
X6284112Y6227064D01*
X6283299Y6223203D01*
X6281115Y6219901D01*
X6277813Y6217666D01*
X6273952Y6216904D01*
X6255562Y6216904D01*
X6249263Y6216192D01*
X6243777Y6214262D01*
X6238900Y6211214D01*
X6234785Y6207099D01*
X6231585Y6202019D01*
X6228791Y6199073D01*
X6225032Y6197498D01*
X6220968Y6197498D01*
X6217208Y6199073D01*
X6214414Y6202019D01*
X6211214Y6207099D01*
X6207099Y6211214D01*
X6202222Y6214262D01*
X6196736Y6216192D01*
X6190437Y6216904D01*
X6172047Y6216904D01*
X6168186Y6217666D01*
X6164884Y6219901D01*
X6162700Y6223203D01*
X6161887Y6227064D01*
X6161887Y6362293D01*
X6161074Y6373012D01*
X6158636Y6383070D01*
X6154674Y6392621D01*
X6149289Y6401409D01*
X6142329Y6409588D01*
X6015888Y6536029D01*
X6007709Y6542989D01*
X5998921Y6548374D01*
X5989370Y6552336D01*
X5979312Y6554774D01*
X5968593Y6555587D01*
X4204106Y6555587D01*
X4193387Y6554774D01*
X4183329Y6552336D01*
X4173778Y6548374D01*
X4164990Y6542989D01*
X4156811Y6536029D01*
X4017670Y6396888D01*
X4010710Y6388709D01*
X4005326Y6379921D01*
X4001363Y6370370D01*
X3998925Y6360312D01*
X3998112Y6349593D01*
X3998112Y6127496D01*
X3997299Y6123635D01*
X3995115Y6120333D01*
X3785666Y5910884D01*
X3782364Y5908700D01*
X3778504Y5907887D01*
X3676243Y5907887D01*
X3673094Y5908395D01*
X3670300Y5909868D01*
X3668014Y5912104D01*
X3665270Y5915863D01*
X3655314Y5926480D01*
X3644137Y5935776D01*
X3631844Y5943549D01*
X3618636Y5949746D01*
X3604818Y5954268D01*
X3590544Y5956960D01*
X3575659Y5957925D01*
X3536340Y5957925D01*
X3521456Y5956960D01*
X3507181Y5954268D01*
X3493363Y5949746D01*
X3480155Y5943549D01*
X3467862Y5935776D01*
X3456686Y5926480D01*
X3446729Y5915863D01*
X3438144Y5904077D01*
X3431133Y5891326D01*
X3425799Y5877814D01*
X3422142Y5863691D01*
X3420364Y5849264D01*
X3420364Y5834735D01*
X3422142Y5820308D01*
X3425799Y5806186D01*
X3431133Y5792673D01*
X3438144Y5779922D01*
X3446729Y5768136D01*
X3456686Y5757519D01*
X3467862Y5748223D01*
X3480155Y5740450D01*
X3493363Y5734253D01*
X3507181Y5729732D01*
X3521456Y5727039D01*
X3536340Y5726074D01*
X3575659Y5726074D01*
X3590544Y5727039D01*
X3604818Y5729732D01*
X3618636Y5734253D01*
X3631844Y5740450D01*
X3644137Y5748223D01*
X3655314Y5757519D01*
X3665270Y5768136D01*
X3668014Y5771896D01*
X3670300Y5774131D01*
X3673094Y5775604D01*
X3676243Y5776112D01*
X3733952Y5776112D01*
X3737813Y5775299D01*
X3741115Y5773115D01*
X3743299Y5769813D01*
X3744112Y5765952D01*
X3744112Y5474106D01*
X3744925Y5463387D01*
X3747363Y5453329D01*
X3751326Y5443778D01*
X3756710Y5434990D01*
X3763670Y5426811D01*
X4169511Y5020970D01*
X4177690Y5014010D01*
X4186478Y5008626D01*
X4196029Y5004663D01*
X4206087Y5002225D01*
X4216806Y5001412D01*
X5429504Y5001412D01*
X5433364Y5000599D01*
X5436666Y4998415D01*
X5680811Y4754270D01*
X5688990Y4747310D01*
X5697778Y4741926D01*
X5707329Y4737963D01*
X5717387Y4735525D01*
X5728106Y4734712D01*
X6331204Y4734712D01*
X6335064Y4733899D01*
X6338366Y4731715D01*
X6417411Y4652670D01*
X6425590Y4645710D01*
X6434378Y4640326D01*
X6443929Y4636363D01*
X6453987Y4633925D01*
X6464706Y4633112D01*
X6760209Y4633112D01*
X6763969Y4632350D01*
X6767220Y4630318D01*
X6769455Y4627168D01*
X6770370Y4623460D01*
X6769862Y4619650D01*
X6767931Y4616348D01*
X6765645Y4613656D01*
X6759854Y4604156D01*
X6755587Y4593894D01*
X6752996Y4583074D01*
X6752132Y4572000D01*
X6752996Y4560925D01*
X6755587Y4550105D01*
X6759854Y4539843D01*
X6765645Y4530344D01*
X6767880Y4527702D01*
X6769963Y4523892D01*
X6770217Y4519574D01*
X6768642Y4515561D01*
X6765594Y4512513D01*
X6761886Y4510227D01*
X6757771Y4506112D01*
X6754723Y4501235D01*
X6752793Y4495749D01*
X6752081Y4489450D01*
X6752081Y4473854D01*
X6811670Y4473854D01*
X6811670Y4491024D01*
X6812483Y4495088D01*
X6814921Y4498492D01*
X6818477Y4500626D01*
X6823405Y4501083D01*
X6892594Y4501083D01*
X6897522Y4500626D01*
X6901078Y4498492D01*
X6903516Y4495088D01*
X6904329Y4491024D01*
X6904329Y4473854D01*
X6963918Y4473854D01*
X6963918Y4489450D01*
X6963308Y4494784D01*
X6963714Y4499000D01*
X6965848Y4502708D01*
X6969252Y4505198D01*
X6973417Y4506112D01*
X7265771Y4506112D01*
X7268870Y4505604D01*
X7271715Y4504131D01*
X7273950Y4501896D01*
X7276693Y4498136D01*
X7286650Y4487519D01*
X7297877Y4478223D01*
X7310170Y4470450D01*
X7323328Y4464253D01*
X7337196Y4459732D01*
X7351471Y4457039D01*
G37*
G36*
X7794294Y4501083D02*
G01*
X7827365Y4501083D01*
X7827365Y4543145D01*
X7767828Y4543145D01*
X7767828Y4527550D01*
X7768539Y4521250D01*
X7770418Y4515764D01*
X7773517Y4510887D01*
X7777632Y4506772D01*
X7782509Y4503724D01*
X7787995Y4501794D01*
G37*
G36*
X7920075Y4501083D02*
G01*
X7953146Y4501083D01*
X7959496Y4501794D01*
X7964931Y4503724D01*
X7969859Y4506772D01*
X7973923Y4510887D01*
X7977022Y4515764D01*
X7978902Y4521250D01*
X7979613Y4527550D01*
X7979613Y4543145D01*
X7920075Y4543145D01*
G37*
G36*
X9067292Y4710074D02*
G01*
X9105341Y4710074D01*
X9105341Y4774641D01*
X9040774Y4774641D01*
X9040774Y4736592D01*
X9041485Y4730242D01*
X9043416Y4724806D01*
X9046514Y4719878D01*
X9050578Y4715814D01*
X9055506Y4712716D01*
X9060942Y4710785D01*
G37*
G36*
X9208058Y4710074D02*
G01*
X9246108Y4710074D01*
X9252458Y4710785D01*
X9257893Y4712716D01*
X9262821Y4715814D01*
X9266885Y4719878D01*
X9269984Y4724806D01*
X9271914Y4730242D01*
X9272625Y4736592D01*
X9272625Y4774641D01*
X9208058Y4774641D01*
G37*
G36*
X9040774Y4877358D02*
G01*
X9105341Y4877358D01*
X9105341Y4941925D01*
X9067292Y4941925D01*
X9060942Y4941214D01*
X9055506Y4939284D01*
X9050578Y4936185D01*
X9046514Y4932121D01*
X9043416Y4927193D01*
X9041485Y4921758D01*
X9040774Y4915408D01*
G37*
G36*
X9208058Y4877358D02*
G01*
X9272625Y4877358D01*
X9272625Y4915408D01*
X9271914Y4921758D01*
X9269984Y4927193D01*
X9266885Y4932121D01*
X9262821Y4936185D01*
X9257893Y4939284D01*
X9252458Y4941214D01*
X9246108Y4941925D01*
X9208058Y4941925D01*
G37*
G36*
X3617366Y5472074D02*
G01*
X3665423Y5472074D01*
X3671773Y5472785D01*
X3677208Y5474716D01*
X3682085Y5477814D01*
X3686200Y5481878D01*
X3689299Y5486806D01*
X3691178Y5492242D01*
X3691890Y5498592D01*
X3691890Y5536641D01*
X3617366Y5536641D01*
G37*
G36*
X3446576Y5472074D02*
G01*
X3494633Y5472074D01*
X3494633Y5536641D01*
X3420110Y5536641D01*
X3420110Y5498592D01*
X3420821Y5492242D01*
X3422700Y5486806D01*
X3425799Y5481878D01*
X3429863Y5477814D01*
X3434791Y5474716D01*
X3440226Y5472785D01*
G37*
G36*
X3420110Y5639358D02*
G01*
X3494633Y5639358D01*
X3494633Y5703925D01*
X3446576Y5703925D01*
X3440226Y5703214D01*
X3434791Y5701284D01*
X3429863Y5698185D01*
X3425799Y5694121D01*
X3422700Y5689193D01*
X3420821Y5683758D01*
X3420110Y5677408D01*
G37*
G36*
X3617366Y5639358D02*
G01*
X3691890Y5639358D01*
X3691890Y5677408D01*
X3691178Y5683758D01*
X3689299Y5689193D01*
X3686200Y5694121D01*
X3682085Y5698185D01*
X3677208Y5701284D01*
X3671773Y5703214D01*
X3665423Y5703925D01*
X3617366Y5703925D01*
G37*
G36*
X3536340Y6234074D02*
G01*
X3575659Y6234074D01*
X3590544Y6235039D01*
X3604818Y6237732D01*
X3618636Y6242253D01*
X3631844Y6248450D01*
X3644137Y6256223D01*
X3655314Y6265519D01*
X3665270Y6276136D01*
X3673856Y6287922D01*
X3680866Y6300673D01*
X3686200Y6314186D01*
X3689807Y6328308D01*
X3691636Y6342735D01*
X3691636Y6357264D01*
X3689807Y6371691D01*
X3686200Y6385814D01*
X3680866Y6399326D01*
X3673856Y6412077D01*
X3665270Y6423863D01*
X3655314Y6434480D01*
X3644137Y6443776D01*
X3631844Y6451549D01*
X3618636Y6457746D01*
X3604818Y6462268D01*
X3590544Y6464960D01*
X3575659Y6465925D01*
X3536340Y6465925D01*
X3521456Y6464960D01*
X3507181Y6462268D01*
X3493312Y6457746D01*
X3480155Y6451549D01*
X3467862Y6443776D01*
X3456686Y6434480D01*
X3446729Y6423863D01*
X3438144Y6412077D01*
X3431133Y6399326D01*
X3425799Y6385814D01*
X3422142Y6371691D01*
X3420313Y6357264D01*
X3420313Y6342735D01*
X3422142Y6328308D01*
X3425799Y6314186D01*
X3431133Y6300673D01*
X3438144Y6287922D01*
X3446729Y6276136D01*
X3456686Y6265519D01*
X3467862Y6256223D01*
X3480155Y6248450D01*
X3493312Y6242253D01*
X3507181Y6237732D01*
X3521456Y6235039D01*
G37*
G36*
X5212740Y6932574D02*
G01*
X5252059Y6932574D01*
X5266944Y6933539D01*
X5281218Y6936231D01*
X5295036Y6940753D01*
X5308244Y6946950D01*
X5320538Y6954723D01*
X5331714Y6964019D01*
X5341670Y6974636D01*
X5350256Y6986422D01*
X5357266Y6999173D01*
X5362600Y7012686D01*
X5366258Y7026808D01*
X5368036Y7041235D01*
X5368036Y7055764D01*
X5366258Y7070191D01*
X5362600Y7084314D01*
X5357266Y7097826D01*
X5350256Y7110577D01*
X5341670Y7122363D01*
X5331714Y7132980D01*
X5320538Y7142276D01*
X5308244Y7150049D01*
X5295036Y7156246D01*
X5281218Y7160768D01*
X5266944Y7163460D01*
X5252059Y7164425D01*
X5212740Y7164425D01*
X5197856Y7163460D01*
X5183581Y7160768D01*
X5169763Y7156246D01*
X5156555Y7150049D01*
X5144262Y7142276D01*
X5133086Y7132980D01*
X5123129Y7122363D01*
X5114544Y7110577D01*
X5107533Y7097826D01*
X5102199Y7084314D01*
X5098542Y7070191D01*
X5096764Y7055764D01*
X5096764Y7041235D01*
X5098542Y7026808D01*
X5102199Y7012686D01*
X5107533Y6999173D01*
X5114544Y6986422D01*
X5123129Y6974636D01*
X5133086Y6964019D01*
X5144262Y6954723D01*
X5156555Y6946950D01*
X5169763Y6940753D01*
X5183581Y6936231D01*
X5197856Y6933539D01*
G37*
G36*
X3536289Y6996074D02*
G01*
X3575659Y6996074D01*
X3590544Y6997039D01*
X3604818Y6999731D01*
X3618636Y7004253D01*
X3631844Y7010450D01*
X3644087Y7018223D01*
X3655314Y7027519D01*
X3665270Y7038136D01*
X3673856Y7049922D01*
X3680866Y7062673D01*
X3686200Y7076186D01*
X3689807Y7090308D01*
X3691636Y7104735D01*
X3691636Y7119264D01*
X3689807Y7133691D01*
X3686200Y7147814D01*
X3680866Y7161326D01*
X3673856Y7174077D01*
X3665270Y7185863D01*
X3655314Y7196480D01*
X3644087Y7205776D01*
X3631844Y7213549D01*
X3618636Y7219746D01*
X3604818Y7224268D01*
X3590544Y7226960D01*
X3575659Y7227925D01*
X3536289Y7227925D01*
X3521456Y7226960D01*
X3507181Y7224268D01*
X3493312Y7219746D01*
X3480155Y7213549D01*
X3467862Y7205776D01*
X3456686Y7196480D01*
X3446678Y7185863D01*
X3438144Y7174077D01*
X3431133Y7161326D01*
X3425799Y7147814D01*
X3422142Y7133691D01*
X3420313Y7119264D01*
X3420313Y7104735D01*
X3422142Y7090308D01*
X3425799Y7076186D01*
X3431133Y7062673D01*
X3438144Y7049922D01*
X3446678Y7038136D01*
X3456686Y7027519D01*
X3467862Y7018223D01*
X3480155Y7010450D01*
X3493312Y7004253D01*
X3507181Y6999731D01*
X3521456Y6997039D01*
G37*
G36*
X5212740Y7186574D02*
G01*
X5252059Y7186574D01*
X5266944Y7187539D01*
X5281218Y7190231D01*
X5295036Y7194753D01*
X5308244Y7200950D01*
X5320538Y7208723D01*
X5331714Y7218019D01*
X5341670Y7228636D01*
X5350256Y7240422D01*
X5357266Y7253173D01*
X5362600Y7266686D01*
X5366258Y7280808D01*
X5368036Y7295235D01*
X5368036Y7309764D01*
X5366258Y7324191D01*
X5362600Y7338314D01*
X5357266Y7351826D01*
X5350256Y7364577D01*
X5341670Y7376363D01*
X5331714Y7386980D01*
X5320538Y7396276D01*
X5308244Y7404049D01*
X5295036Y7410246D01*
X5281218Y7414768D01*
X5266944Y7417460D01*
X5252059Y7418425D01*
X5212740Y7418425D01*
X5197856Y7417460D01*
X5183581Y7414768D01*
X5169763Y7410246D01*
X5156555Y7404049D01*
X5144262Y7396276D01*
X5133086Y7386980D01*
X5123129Y7376363D01*
X5114544Y7364577D01*
X5107533Y7351826D01*
X5102199Y7338314D01*
X5098542Y7324191D01*
X5096764Y7309764D01*
X5096764Y7295235D01*
X5098542Y7280808D01*
X5102199Y7266686D01*
X5107533Y7253173D01*
X5114544Y7240422D01*
X5123129Y7228636D01*
X5133086Y7218019D01*
X5144262Y7208723D01*
X5156555Y7200950D01*
X5169763Y7194753D01*
X5183581Y7190231D01*
X5197856Y7187539D01*
G37*
G36*
X3536289Y7250074D02*
G01*
X3575659Y7250074D01*
X3590544Y7251039D01*
X3604818Y7253731D01*
X3618636Y7258253D01*
X3631844Y7264450D01*
X3644087Y7272223D01*
X3655314Y7281519D01*
X3665270Y7292136D01*
X3673856Y7303922D01*
X3680866Y7316673D01*
X3686200Y7330186D01*
X3689807Y7344308D01*
X3691636Y7358735D01*
X3691636Y7373264D01*
X3689807Y7387691D01*
X3686200Y7401814D01*
X3680866Y7415326D01*
X3673856Y7428077D01*
X3665270Y7439863D01*
X3655314Y7450480D01*
X3644087Y7459776D01*
X3631844Y7467549D01*
X3618636Y7473746D01*
X3604818Y7478268D01*
X3590544Y7480960D01*
X3575659Y7481925D01*
X3536289Y7481925D01*
X3521456Y7480960D01*
X3507181Y7478268D01*
X3493312Y7473746D01*
X3480155Y7467549D01*
X3467862Y7459776D01*
X3456686Y7450480D01*
X3446678Y7439863D01*
X3438144Y7428077D01*
X3431133Y7415326D01*
X3425799Y7401814D01*
X3422142Y7387691D01*
X3420313Y7373264D01*
X3420313Y7358735D01*
X3422142Y7344308D01*
X3425799Y7330186D01*
X3431133Y7316673D01*
X3438144Y7303922D01*
X3446678Y7292136D01*
X3456686Y7281519D01*
X3467862Y7272223D01*
X3480155Y7264450D01*
X3493312Y7258253D01*
X3507181Y7253731D01*
X3521456Y7251039D01*
G37*
G36*
X5212740Y7440574D02*
G01*
X5252059Y7440574D01*
X5266944Y7441539D01*
X5281218Y7444231D01*
X5295036Y7448753D01*
X5308244Y7454950D01*
X5320538Y7462723D01*
X5331714Y7472019D01*
X5341670Y7482636D01*
X5350256Y7494422D01*
X5357266Y7507173D01*
X5362600Y7520686D01*
X5366258Y7534808D01*
X5368036Y7549235D01*
X5368036Y7563764D01*
X5366258Y7578191D01*
X5362600Y7592314D01*
X5357266Y7605826D01*
X5350256Y7618577D01*
X5341670Y7630363D01*
X5331714Y7640980D01*
X5320538Y7650276D01*
X5308244Y7658049D01*
X5295036Y7664246D01*
X5281218Y7668768D01*
X5266944Y7671460D01*
X5252059Y7672425D01*
X5212740Y7672425D01*
X5197856Y7671460D01*
X5183581Y7668768D01*
X5169763Y7664246D01*
X5156555Y7658049D01*
X5144262Y7650276D01*
X5133086Y7640980D01*
X5123129Y7630363D01*
X5114544Y7618577D01*
X5107533Y7605826D01*
X5102199Y7592314D01*
X5098542Y7578191D01*
X5096764Y7563764D01*
X5096764Y7549235D01*
X5098542Y7534808D01*
X5102199Y7520686D01*
X5107533Y7507173D01*
X5114544Y7494422D01*
X5123129Y7482636D01*
X5133086Y7472019D01*
X5144262Y7462723D01*
X5156555Y7454950D01*
X5169763Y7448753D01*
X5183581Y7444231D01*
X5197856Y7441539D01*
G37*
G36*
X8800592Y7504074D02*
G01*
X8838641Y7504074D01*
X8838641Y7568641D01*
X8774074Y7568641D01*
X8774074Y7530592D01*
X8774785Y7524242D01*
X8776716Y7518806D01*
X8779814Y7513878D01*
X8783878Y7509814D01*
X8788806Y7506716D01*
X8794242Y7504785D01*
G37*
G36*
X8941358Y7504074D02*
G01*
X8979458Y7504074D01*
X8985758Y7504785D01*
X8991193Y7506716D01*
X8996121Y7509814D01*
X9000185Y7513878D01*
X9003284Y7518806D01*
X9005214Y7524242D01*
X9005925Y7530592D01*
X9005925Y7568641D01*
X8941358Y7568641D01*
G37*
G36*
X3536289Y7504074D02*
G01*
X3575659Y7504074D01*
X3590544Y7505039D01*
X3604818Y7507731D01*
X3618636Y7512253D01*
X3631844Y7518450D01*
X3644087Y7526223D01*
X3655314Y7535519D01*
X3665270Y7546136D01*
X3673856Y7557922D01*
X3680866Y7570673D01*
X3686200Y7584186D01*
X3689807Y7598308D01*
X3691636Y7612735D01*
X3691636Y7627264D01*
X3689807Y7641691D01*
X3686200Y7655814D01*
X3680866Y7669326D01*
X3673856Y7682077D01*
X3665270Y7693863D01*
X3655314Y7704480D01*
X3644087Y7713776D01*
X3631844Y7721549D01*
X3618636Y7727746D01*
X3604818Y7732268D01*
X3590544Y7734960D01*
X3575659Y7735925D01*
X3536289Y7735925D01*
X3521456Y7734960D01*
X3507181Y7732268D01*
X3493312Y7727746D01*
X3480155Y7721549D01*
X3467862Y7713776D01*
X3456686Y7704480D01*
X3446678Y7693863D01*
X3438144Y7682077D01*
X3431133Y7669326D01*
X3425799Y7655814D01*
X3422142Y7641691D01*
X3420313Y7627264D01*
X3420313Y7612735D01*
X3422142Y7598308D01*
X3425799Y7584186D01*
X3431133Y7570673D01*
X3438144Y7557922D01*
X3446678Y7546136D01*
X3456686Y7535519D01*
X3467862Y7526223D01*
X3480155Y7518450D01*
X3493312Y7512253D01*
X3507181Y7507731D01*
X3521456Y7505039D01*
G37*
G36*
X9054592Y7516774D02*
G01*
X9092641Y7516774D01*
X9092641Y7581341D01*
X9028074Y7581341D01*
X9028074Y7543292D01*
X9028785Y7536942D01*
X9030716Y7531506D01*
X9033814Y7526578D01*
X9037878Y7522514D01*
X9042806Y7519416D01*
X9048242Y7517485D01*
G37*
G36*
X9195358Y7516774D02*
G01*
X9233408Y7516774D01*
X9239758Y7517485D01*
X9245193Y7519416D01*
X9250121Y7522514D01*
X9254185Y7526578D01*
X9257284Y7531506D01*
X9259214Y7536942D01*
X9259925Y7543292D01*
X9259925Y7581341D01*
X9195358Y7581341D01*
G37*
G36*
X8774074Y7671358D02*
G01*
X8838641Y7671358D01*
X8838641Y7735925D01*
X8800592Y7735925D01*
X8794242Y7735214D01*
X8788806Y7733284D01*
X8783878Y7730185D01*
X8779814Y7726121D01*
X8776716Y7721193D01*
X8774785Y7715758D01*
X8774074Y7709408D01*
G37*
G36*
X8941358Y7671358D02*
G01*
X9005925Y7671358D01*
X9005925Y7709408D01*
X9005214Y7715758D01*
X9003284Y7721193D01*
X9000185Y7726121D01*
X8996121Y7730185D01*
X8991193Y7733284D01*
X8985758Y7735214D01*
X8979458Y7735925D01*
X8941358Y7735925D01*
G37*
G36*
X9028074Y7684058D02*
G01*
X9092641Y7684058D01*
X9092641Y7748625D01*
X9054592Y7748625D01*
X9048242Y7747914D01*
X9042806Y7745984D01*
X9037878Y7742885D01*
X9033814Y7738821D01*
X9030716Y7733893D01*
X9028785Y7728458D01*
X9028074Y7722108D01*
G37*
G36*
X9195358Y7684058D02*
G01*
X9259925Y7684058D01*
X9259925Y7722108D01*
X9259214Y7728458D01*
X9257284Y7733893D01*
X9254185Y7738821D01*
X9250121Y7742885D01*
X9245193Y7745984D01*
X9239758Y7747914D01*
X9233408Y7748625D01*
X9195358Y7748625D01*
G37*
G36*
X5212740Y7694574D02*
G01*
X5252059Y7694574D01*
X5266944Y7695539D01*
X5281218Y7698231D01*
X5295036Y7702753D01*
X5308244Y7708950D01*
X5320538Y7716723D01*
X5331714Y7726019D01*
X5341670Y7736636D01*
X5350256Y7748422D01*
X5357266Y7761173D01*
X5362600Y7774686D01*
X5366258Y7788808D01*
X5368036Y7803235D01*
X5368036Y7817764D01*
X5366258Y7832191D01*
X5362600Y7846314D01*
X5357266Y7859826D01*
X5350256Y7872577D01*
X5341670Y7884363D01*
X5331714Y7894980D01*
X5320538Y7904276D01*
X5308244Y7912049D01*
X5295036Y7918246D01*
X5281218Y7922768D01*
X5266944Y7925460D01*
X5252059Y7926425D01*
X5212740Y7926425D01*
X5197856Y7925460D01*
X5183581Y7922768D01*
X5169763Y7918246D01*
X5156555Y7912049D01*
X5144262Y7904276D01*
X5133086Y7894980D01*
X5123129Y7884363D01*
X5114544Y7872577D01*
X5107533Y7859826D01*
X5102199Y7846314D01*
X5098542Y7832191D01*
X5096764Y7817764D01*
X5096764Y7803235D01*
X5098542Y7788808D01*
X5102199Y7774686D01*
X5107533Y7761173D01*
X5114544Y7748422D01*
X5123129Y7736636D01*
X5133086Y7726019D01*
X5144262Y7716723D01*
X5156555Y7708950D01*
X5169763Y7702753D01*
X5183581Y7698231D01*
X5197856Y7695539D01*
G37*
G36*
X8546592Y7758074D02*
G01*
X8584641Y7758074D01*
X8584641Y7822641D01*
X8520074Y7822641D01*
X8520074Y7784592D01*
X8520785Y7778242D01*
X8522716Y7772806D01*
X8525814Y7767878D01*
X8529878Y7763814D01*
X8534806Y7760716D01*
X8540242Y7758785D01*
G37*
G36*
X8687358Y7758074D02*
G01*
X8725458Y7758074D01*
X8731758Y7758785D01*
X8737193Y7760716D01*
X8742121Y7763814D01*
X8746185Y7767878D01*
X8749284Y7772806D01*
X8751214Y7778242D01*
X8751925Y7784592D01*
X8751925Y7822641D01*
X8687358Y7822641D01*
G37*
G36*
X9713366Y7758074D02*
G01*
X9761423Y7758074D01*
X9767773Y7758785D01*
X9773208Y7760716D01*
X9778136Y7763814D01*
X9782200Y7767878D01*
X9785299Y7772806D01*
X9787178Y7778242D01*
X9787890Y7784592D01*
X9787890Y7822641D01*
X9713366Y7822641D01*
G37*
G36*
X9542576Y7758074D02*
G01*
X9590633Y7758074D01*
X9590633Y7822641D01*
X9516110Y7822641D01*
X9516110Y7784592D01*
X9516821Y7778242D01*
X9518700Y7772806D01*
X9521799Y7767878D01*
X9525863Y7763814D01*
X9530791Y7760716D01*
X9536226Y7758785D01*
G37*
G36*
X3617366Y7770774D02*
G01*
X3665423Y7770774D01*
X3671722Y7771485D01*
X3677208Y7773416D01*
X3682085Y7776514D01*
X3686200Y7780578D01*
X3689299Y7785506D01*
X3691178Y7790942D01*
X3691890Y7797292D01*
X3691890Y7835341D01*
X3617366Y7835341D01*
G37*
G36*
X3446576Y7770774D02*
G01*
X3494633Y7770774D01*
X3494633Y7835341D01*
X3420110Y7835341D01*
X3420110Y7797292D01*
X3420821Y7790942D01*
X3422700Y7785506D01*
X3425799Y7780578D01*
X3429863Y7776514D01*
X3434791Y7773416D01*
X3440226Y7771485D01*
G37*
G36*
X8520074Y7925358D02*
G01*
X8584641Y7925358D01*
X8584641Y7989925D01*
X8546592Y7989925D01*
X8540242Y7989214D01*
X8534806Y7987284D01*
X8529878Y7984185D01*
X8525814Y7980121D01*
X8522716Y7975193D01*
X8520785Y7969758D01*
X8520074Y7963408D01*
G37*
G36*
X8687358Y7925358D02*
G01*
X8751925Y7925358D01*
X8751925Y7963408D01*
X8751214Y7969758D01*
X8749284Y7975193D01*
X8746185Y7980121D01*
X8742121Y7984185D01*
X8737193Y7987284D01*
X8731758Y7989214D01*
X8725458Y7989925D01*
X8687358Y7989925D01*
G37*
G36*
X9516110Y7925358D02*
G01*
X9590633Y7925358D01*
X9590633Y7989925D01*
X9542576Y7989925D01*
X9536226Y7989214D01*
X9530791Y7987284D01*
X9525863Y7984185D01*
X9521799Y7980121D01*
X9518700Y7975193D01*
X9516821Y7969758D01*
X9516110Y7963408D01*
G37*
G36*
X9713366Y7925358D02*
G01*
X9787890Y7925358D01*
X9787890Y7963408D01*
X9787178Y7969758D01*
X9785299Y7975193D01*
X9782200Y7980121D01*
X9778136Y7984185D01*
X9773208Y7987284D01*
X9767773Y7989214D01*
X9761423Y7989925D01*
X9713366Y7989925D01*
G37*
G36*
X3420110Y7938058D02*
G01*
X3494633Y7938058D01*
X3494633Y8002625D01*
X3446576Y8002625D01*
X3440226Y8001914D01*
X3434791Y7999984D01*
X3429863Y7996885D01*
X3425799Y7992821D01*
X3422700Y7987893D01*
X3420821Y7982458D01*
X3420110Y7976108D01*
G37*
G36*
X3617366Y7938058D02*
G01*
X3691890Y7938058D01*
X3691890Y7976108D01*
X3691178Y7982458D01*
X3689299Y7987893D01*
X3686200Y7992821D01*
X3682085Y7996885D01*
X3677208Y7999984D01*
X3671722Y8001914D01*
X3665423Y8002625D01*
X3617366Y8002625D01*
G37*
G36*
X5212740Y7948574D02*
G01*
X5252059Y7948574D01*
X5266944Y7949539D01*
X5281218Y7952231D01*
X5295036Y7956753D01*
X5308244Y7962950D01*
X5320538Y7970723D01*
X5331714Y7980019D01*
X5341670Y7990636D01*
X5350256Y8002422D01*
X5357266Y8015173D01*
X5362600Y8028686D01*
X5366258Y8042808D01*
X5368036Y8057235D01*
X5368036Y8071764D01*
X5366258Y8086191D01*
X5362600Y8100314D01*
X5357266Y8113826D01*
X5350256Y8126577D01*
X5341670Y8138363D01*
X5331714Y8148980D01*
X5320538Y8158276D01*
X5308244Y8166049D01*
X5295036Y8172246D01*
X5281218Y8176768D01*
X5266944Y8179460D01*
X5252059Y8180425D01*
X5212740Y8180425D01*
X5197856Y8179460D01*
X5183581Y8176768D01*
X5169763Y8172246D01*
X5156555Y8166049D01*
X5144262Y8158276D01*
X5133086Y8148980D01*
X5123129Y8138363D01*
X5114544Y8126577D01*
X5107533Y8113826D01*
X5102199Y8100314D01*
X5098542Y8086191D01*
X5096764Y8071764D01*
X5096764Y8057235D01*
X5098542Y8042808D01*
X5102199Y8028686D01*
X5107533Y8015173D01*
X5114544Y8002422D01*
X5123129Y7990636D01*
X5133086Y7980019D01*
X5144262Y7970723D01*
X5156555Y7962950D01*
X5169763Y7956753D01*
X5183581Y7952231D01*
X5197856Y7949539D01*
G37*
G36*
X8292592Y8012074D02*
G01*
X8330641Y8012074D01*
X8330641Y8076641D01*
X8266074Y8076641D01*
X8266074Y8038592D01*
X8266785Y8032242D01*
X8268716Y8026806D01*
X8271814Y8021878D01*
X8275878Y8017814D01*
X8280806Y8014716D01*
X8286242Y8012785D01*
G37*
G36*
X8433358Y8012074D02*
G01*
X8471458Y8012074D01*
X8477758Y8012785D01*
X8483193Y8014716D01*
X8488121Y8017814D01*
X8492185Y8021878D01*
X8495284Y8026806D01*
X8497214Y8032242D01*
X8497925Y8038592D01*
X8497925Y8076641D01*
X8433358Y8076641D01*
G37*
G36*
X9632340Y8012074D02*
G01*
X9671659Y8012074D01*
X9686544Y8013039D01*
X9700818Y8015731D01*
X9714687Y8020253D01*
X9727844Y8026450D01*
X9740138Y8034223D01*
X9751314Y8043519D01*
X9761270Y8054136D01*
X9769856Y8065922D01*
X9776866Y8078673D01*
X9782200Y8092186D01*
X9785858Y8106308D01*
X9787686Y8120735D01*
X9787686Y8135264D01*
X9785858Y8149691D01*
X9782200Y8163814D01*
X9776866Y8177326D01*
X9769856Y8190077D01*
X9761270Y8201863D01*
X9751314Y8212480D01*
X9740138Y8221776D01*
X9727844Y8229549D01*
X9714687Y8235746D01*
X9700818Y8240268D01*
X9686544Y8242960D01*
X9671659Y8243925D01*
X9632340Y8243925D01*
X9617456Y8242960D01*
X9603181Y8240268D01*
X9589363Y8235746D01*
X9576155Y8229549D01*
X9563862Y8221776D01*
X9552686Y8212480D01*
X9542729Y8201863D01*
X9534144Y8190077D01*
X9527133Y8177326D01*
X9521799Y8163814D01*
X9518192Y8149691D01*
X9516364Y8135264D01*
X9516364Y8120735D01*
X9518192Y8106308D01*
X9521799Y8092186D01*
X9527133Y8078673D01*
X9534144Y8065922D01*
X9542729Y8054136D01*
X9552686Y8043519D01*
X9563862Y8034223D01*
X9576155Y8026450D01*
X9589363Y8020253D01*
X9603181Y8015731D01*
X9617456Y8013039D01*
G37*
G36*
X8266074Y8179358D02*
G01*
X8330641Y8179358D01*
X8330641Y8243925D01*
X8292592Y8243925D01*
X8286242Y8243214D01*
X8280806Y8241284D01*
X8275878Y8238185D01*
X8271814Y8234121D01*
X8268716Y8229193D01*
X8266785Y8223758D01*
X8266074Y8217408D01*
G37*
G36*
X8433358Y8179358D02*
G01*
X8497925Y8179358D01*
X8497925Y8217408D01*
X8497214Y8223758D01*
X8495284Y8229193D01*
X8492185Y8234121D01*
X8488121Y8238185D01*
X8483193Y8241284D01*
X8477758Y8243214D01*
X8471458Y8243925D01*
X8433358Y8243925D01*
G37*
G36*
X5293766Y8202574D02*
G01*
X5341823Y8202574D01*
X5348173Y8203285D01*
X5353608Y8205216D01*
X5358536Y8208314D01*
X5362600Y8212378D01*
X5365699Y8217306D01*
X5367578Y8222742D01*
X5368290Y8229092D01*
X5368290Y8267141D01*
X5293766Y8267141D01*
G37*
G36*
X5122976Y8202574D02*
G01*
X5171033Y8202574D01*
X5171033Y8267141D01*
X5096510Y8267141D01*
X5096510Y8229092D01*
X5097221Y8222742D01*
X5099100Y8217306D01*
X5102199Y8212378D01*
X5106263Y8208314D01*
X5111191Y8205216D01*
X5116626Y8203285D01*
G37*
G36*
X7276592Y8266074D02*
G01*
X7314641Y8266074D01*
X7314641Y8330641D01*
X7250074Y8330641D01*
X7250074Y8292592D01*
X7250785Y8286242D01*
X7252716Y8280806D01*
X7255814Y8275878D01*
X7259878Y8271814D01*
X7264806Y8268716D01*
X7270242Y8266785D01*
G37*
G36*
X7417358Y8266074D02*
G01*
X7455408Y8266074D01*
X7461758Y8266785D01*
X7467193Y8268716D01*
X7472121Y8271814D01*
X7476185Y8275878D01*
X7479284Y8280806D01*
X7481214Y8286242D01*
X7481925Y8292592D01*
X7481925Y8330641D01*
X7417358Y8330641D01*
G37*
G36*
X5096510Y8369858D02*
G01*
X5171033Y8369858D01*
X5171033Y8434425D01*
X5122976Y8434425D01*
X5116626Y8433714D01*
X5111191Y8431784D01*
X5106263Y8428685D01*
X5102199Y8424621D01*
X5099100Y8419693D01*
X5097221Y8414258D01*
X5096510Y8407908D01*
G37*
G36*
X5293766Y8369858D02*
G01*
X5368290Y8369858D01*
X5368290Y8407908D01*
X5367578Y8414258D01*
X5365699Y8419693D01*
X5362600Y8424621D01*
X5358536Y8428685D01*
X5353608Y8431784D01*
X5348173Y8433714D01*
X5341823Y8434425D01*
X5293766Y8434425D01*
G37*
G36*
X7250074Y8433358D02*
G01*
X7314641Y8433358D01*
X7314641Y8497925D01*
X7276592Y8497925D01*
X7270242Y8497214D01*
X7264806Y8495284D01*
X7259878Y8492185D01*
X7255814Y8488121D01*
X7252716Y8483193D01*
X7250785Y8477758D01*
X7250074Y8471408D01*
G37*
G36*
X7417358Y8433358D02*
G01*
X7481925Y8433358D01*
X7481925Y8471408D01*
X7481214Y8477758D01*
X7479284Y8483193D01*
X7476185Y8488121D01*
X7472121Y8492185D01*
X7467193Y8495284D01*
X7461758Y8497214D01*
X7455408Y8497925D01*
X7417358Y8497925D01*
G37*
G36*
X4056735Y8500364D02*
G01*
X4071264Y8500364D01*
X4085691Y8502142D01*
X4099814Y8505799D01*
X4113326Y8511133D01*
X4126077Y8518144D01*
X4137863Y8526729D01*
X4148480Y8536686D01*
X4157776Y8547862D01*
X4165549Y8560155D01*
X4171746Y8573363D01*
X4176268Y8587181D01*
X4178960Y8601456D01*
X4179925Y8616340D01*
X4179925Y8655659D01*
X4178960Y8670544D01*
X4176268Y8684818D01*
X4171746Y8698636D01*
X4165549Y8711844D01*
X4157776Y8724138D01*
X4148480Y8735314D01*
X4137863Y8745270D01*
X4126077Y8753856D01*
X4113326Y8760866D01*
X4099814Y8766200D01*
X4085691Y8769858D01*
X4071264Y8771636D01*
X4056735Y8771636D01*
X4042308Y8769858D01*
X4028186Y8766200D01*
X4014673Y8760866D01*
X4001922Y8753856D01*
X3990136Y8745270D01*
X3979519Y8735314D01*
X3970223Y8724138D01*
X3962450Y8711844D01*
X3956253Y8698636D01*
X3951732Y8684818D01*
X3949039Y8670544D01*
X3948074Y8655659D01*
X3948074Y8616340D01*
X3949039Y8601456D01*
X3951732Y8587181D01*
X3956253Y8573363D01*
X3962450Y8560155D01*
X3970223Y8547862D01*
X3979519Y8536686D01*
X3990136Y8526729D01*
X4001922Y8518144D01*
X4014673Y8511133D01*
X4028186Y8505799D01*
X4042308Y8502142D01*
G37*
G36*
X9542221Y8587181D02*
G01*
X9560306Y8588552D01*
X9578086Y8591804D01*
X9595510Y8596884D01*
X9612274Y8603691D01*
X9628225Y8612225D01*
X9643262Y8622334D01*
X9657181Y8633917D01*
X9669830Y8646871D01*
X9681057Y8661095D01*
X9690760Y8676386D01*
X9698888Y8692540D01*
X9705238Y8709507D01*
X9709861Y8727033D01*
X9712655Y8744915D01*
X9713569Y8763000D01*
X9712655Y8781084D01*
X9709861Y8798966D01*
X9705238Y8816492D01*
X9698888Y8833459D01*
X9690760Y8849614D01*
X9681057Y8864904D01*
X9669830Y8879128D01*
X9657181Y8892082D01*
X9643262Y8903665D01*
X9628225Y8913774D01*
X9612274Y8922308D01*
X9595510Y8929116D01*
X9578086Y8934196D01*
X9560306Y8937447D01*
X9542221Y8938818D01*
X9524136Y8938361D01*
X9506153Y8936024D01*
X9488525Y8931910D01*
X9471456Y8925915D01*
X9455048Y8918244D01*
X9439503Y8908948D01*
X9425025Y8898077D01*
X9411716Y8885783D01*
X9399778Y8872169D01*
X9389262Y8857386D01*
X9380372Y8841638D01*
X9373108Y8825026D01*
X9367621Y8807805D01*
X9363913Y8790076D01*
X9362033Y8772042D01*
X9362033Y8753957D01*
X9363913Y8735923D01*
X9367621Y8718194D01*
X9373108Y8700973D01*
X9380372Y8684361D01*
X9389262Y8668613D01*
X9399778Y8653830D01*
X9411716Y8640216D01*
X9425025Y8627922D01*
X9439503Y8617051D01*
X9455048Y8607755D01*
X9471456Y8600084D01*
X9488525Y8594090D01*
X9506153Y8589975D01*
X9524136Y8587638D01*
G37*
G36*
X3674821Y8599881D02*
G01*
X3692906Y8601252D01*
X3710686Y8604504D01*
X3728110Y8609584D01*
X3744874Y8616391D01*
X3760825Y8624925D01*
X3775862Y8635034D01*
X3789781Y8646617D01*
X3802430Y8659571D01*
X3813657Y8673795D01*
X3823360Y8689086D01*
X3831488Y8705240D01*
X3837838Y8722207D01*
X3842461Y8739733D01*
X3845255Y8757615D01*
X3846169Y8775700D01*
X3845255Y8793784D01*
X3842461Y8811666D01*
X3837838Y8829192D01*
X3831488Y8846159D01*
X3823360Y8862314D01*
X3813657Y8877604D01*
X3802430Y8891828D01*
X3789781Y8904782D01*
X3775862Y8916365D01*
X3760825Y8926474D01*
X3744874Y8935008D01*
X3728110Y8941816D01*
X3710686Y8946896D01*
X3692906Y8950147D01*
X3674821Y8951518D01*
X3656736Y8951061D01*
X3638753Y8948724D01*
X3621125Y8944610D01*
X3604056Y8938615D01*
X3587648Y8930944D01*
X3572103Y8921648D01*
X3557625Y8910777D01*
X3544315Y8898483D01*
X3532378Y8884869D01*
X3521862Y8870086D01*
X3512972Y8854338D01*
X3505708Y8837726D01*
X3500221Y8820505D01*
X3496513Y8802776D01*
X3494633Y8784742D01*
X3494633Y8766657D01*
X3496513Y8748623D01*
X3500221Y8730894D01*
X3505708Y8713673D01*
X3512972Y8697061D01*
X3521862Y8681313D01*
X3532378Y8666530D01*
X3544315Y8652916D01*
X3557625Y8640622D01*
X3572103Y8629751D01*
X3587648Y8620455D01*
X3604056Y8612784D01*
X3621125Y8606790D01*
X3638753Y8602675D01*
X3656736Y8600338D01*
G37*

%LPD*%
D11*
X6858000Y4699000D02*
G01*
X6464300Y4699000D01*
X6362700Y4800600D01*
X5727700Y4800600D01*
X5461000Y5067300D01*
X4216400Y5067300D01*
X3810000Y5473700D01*
X3810000Y5842000D01*
X7366000Y4572000D02*
G01*
X7620000Y4826000D01*
X7873720Y4826000D01*
X6858000Y4572000D02*
G01*
X7366000Y4572000D01*
X9144000Y5842000D02*
G01*
X9144000Y5600700D01*
X8890000Y5346700D01*
X7378700Y5346700D01*
X7366000Y5334000D01*
X7873720Y4699000D02*
G01*
X8013700Y4699000D01*
X8128000Y4813300D01*
X8128000Y4927600D01*
X7988300Y5067300D01*
X7124700Y5067300D01*
X6858000Y5334000D01*
X7620000Y6096000D02*
G01*
X7620000Y6858000D01*
X7874000Y7112000D01*
X8636000Y7112000D01*
X7366000Y6096000D02*
G01*
X7366000Y7112000D01*
X7620000Y7366000D01*
X8382000Y7366000D01*
X8382000Y7366000D02*
G01*
X9652000Y7366000D01*
X8128000Y6096000D02*
G01*
X8128000Y6350000D01*
X8382000Y6604000D01*
X9144000Y6604000D01*
X9652000Y6604000D02*
G01*
X9144000Y6604000D01*
X8890000Y6858000D02*
G01*
X9652000Y6858000D01*
X8636000Y7112000D02*
G01*
X9652000Y7112000D01*
X7874000Y6096000D02*
G01*
X7874000Y6604000D01*
X8128000Y6858000D01*
X8890000Y6858000D01*
X9664700Y1524000D02*
G01*
X9144000Y1524000D01*
X8890000Y1778000D01*
X8890000Y2032000D01*
X9664700Y1778000D02*
G01*
X9499600Y1778000D01*
X9398000Y1879600D01*
X9398000Y2032000D01*
X8890000Y3048000D02*
G01*
X9144000Y3302000D01*
X9144000Y3809994D01*
X9398000Y3048000D02*
G01*
X9398000Y3301994D01*
X8382000Y2794000D02*
G01*
X8382000Y3289300D01*
X8636000Y3302000D02*
G01*
X8394700Y3302000D01*
X8382000Y3289300D01*
X8382000Y3289294D02*
G01*
X8382000Y3556000D01*
X8128000Y2794000D02*
G01*
X8128000Y3810000D01*
X8382000Y3810000D02*
G01*
X8128000Y3810000D01*
X8128000Y4063997D02*
G01*
X8128000Y3809994D01*
X7112000Y508000D02*
G01*
X7366000Y508000D01*
X6350000Y1016000D02*
G01*
X6350000Y508000D01*
X6096000Y1016000D02*
G01*
X6096000Y508000D01*
X5842000Y1016000D02*
G01*
X5842000Y508000D01*
X5588000Y1016000D02*
G01*
X5588000Y508000D01*
X5334000Y1016000D02*
G01*
X5334000Y508000D01*
X5080000Y1016000D02*
G01*
X5080000Y508000D01*
X4826000Y1016000D02*
G01*
X4826000Y508000D01*
X4572000Y1016000D02*
G01*
X4572000Y508000D01*
X6350000Y2540000D02*
G01*
X6350000Y1778000D01*
X6096000Y2540000D02*
G01*
X6096000Y1778000D01*
X5842000Y2540000D02*
G01*
X5842000Y1778000D01*
X5588000Y2540000D02*
G01*
X5588000Y1778000D01*
X5334000Y2540000D02*
G01*
X5334000Y1778000D01*
X5080000Y2540000D02*
G01*
X5080000Y1778000D01*
X4826000Y2540000D02*
G01*
X4826000Y1778000D01*
X4572000Y2540000D02*
G01*
X4572000Y1778000D01*
X6604000Y8382000D02*
G01*
X6350000Y8636000D01*
X4318000Y8636000D01*
X6096000Y6096000D02*
G01*
X6096000Y6362700D01*
X5969000Y6489700D01*
X4203700Y6489700D01*
X4064000Y6350000D01*
X4064000Y6096000D01*
X3810000Y5842000D01*
X3556000Y5842000D01*
X8890000Y6096000D02*
G01*
X8890000Y5842000D01*
X9144000Y6096000D02*
G01*
X9144000Y5842000D01*
X9652000Y6096000D02*
G01*
X9652000Y5842000D01*
X6096000Y5334000D02*
G01*
X6096000Y5842000D01*
X3556000Y3556000D02*
G01*
X4572000Y3556000D01*
X5334000Y2794000D02*
G01*
X5334000Y3848100D01*
X5105400Y4076700D01*
X3556000Y4076700D01*
X9664700Y4826000D02*
G01*
X9652000Y4838700D01*
X9652000Y5842000D01*
X8382000Y508000D02*
G01*
X8712200Y508000D01*
X8890000Y685800D01*
X8890000Y1016000D01*
X8890000Y1016000D02*
G01*
X8890000Y1523994D01*
X8635997Y1777997D01*
X8382000Y1016000D02*
G01*
X8382000Y1168400D01*
X8153400Y1397000D01*
X4445000Y1397000D01*
X4318000Y1524000D01*
X4318000Y1778000D01*
X8382000Y1016000D02*
G01*
X8382000Y2032000D01*
X8636000Y2286000D01*
X9410700Y2286000D01*
X9652000Y2527300D01*
X9652000Y4813300D01*
X9664700Y4826000D01*
X5842000Y2794000D02*
G01*
X5842000Y4076700D01*
X5334000Y4584700D01*
X3556000Y4584700D01*
X3556000Y3048000D02*
G01*
X3822700Y3048000D01*
X4076700Y3302000D01*
X4572000Y3302000D01*
X3556000Y4330700D02*
G01*
X5257800Y4330700D01*
X5588000Y4000500D01*
X5588000Y2794000D01*
X3556000Y4838700D02*
G01*
X5346700Y4838700D01*
X6096000Y4089400D01*
X6096000Y2794000D01*
X6350000Y6096000D02*
G01*
X6350000Y6489700D01*
X6108700Y6731000D01*
X3937000Y6731000D01*
X3810000Y6604000D01*
X3556000Y6604000D01*
X6604000Y6096000D02*
G01*
X6604000Y8382000D01*
D12*
G01*
X9652000Y5842000D03*
G01*
X9652000Y6096000D03*
G01*
X9398000Y5842000D03*
G01*
X9398000Y6096000D03*
G01*
X9144000Y5842000D03*
G01*
X9144000Y6096000D03*
G01*
X8890000Y5842000D03*
G01*
X8890000Y6096000D03*
G01*
X8636000Y5842000D03*
G01*
X8636000Y6096000D03*
G01*
X8382000Y5842000D03*
G01*
X8382000Y6096000D03*
G01*
X8128000Y5842000D03*
G01*
X8128000Y6096000D03*
G01*
X7874000Y5842000D03*
G01*
X7874000Y6096000D03*
G01*
X7620000Y5842000D03*
G01*
X7620000Y6096000D03*
G01*
X7366000Y5842000D03*
G01*
X7366000Y6096000D03*
G01*
X7112000Y5842000D03*
G01*
X7112000Y6096000D03*
G01*
X6858000Y5842000D03*
G01*
X6858000Y6096000D03*
G01*
X6604000Y5842000D03*
G01*
X6604000Y6096000D03*
G01*
X6350000Y5842000D03*
G01*
X6350000Y6096000D03*
G01*
X6096000Y5842000D03*
G01*
X6096000Y6096000D03*
G01*
X5842000Y5842000D03*
G01*
X5842000Y6096000D03*
G01*
X5588000Y5842000D03*
G01*
X5588000Y6096000D03*
G01*
X5334000Y5842000D03*
G01*
X5334000Y6096000D03*
G01*
X5080000Y5842000D03*
G01*
X5080000Y6096000D03*
G01*
X4826000Y5842000D03*
G01*
X4826000Y6096000D03*
G01*
X4572000Y5842000D03*
G01*
X4572000Y6096000D03*
G01*
X4826000Y3556000D03*
G01*
X4572000Y3556000D03*
G01*
X4826000Y3302000D03*
G01*
X4572000Y3302000D03*
G01*
X4826000Y3048000D03*
G01*
X4572000Y3048000D03*
G01*
X4572000Y2794000D03*
G01*
X4572000Y2540000D03*
G01*
X4826000Y2794000D03*
G01*
X4826000Y2540000D03*
G01*
X5080000Y2794000D03*
G01*
X5080000Y2540000D03*
G01*
X5334000Y2794000D03*
G01*
X5334000Y2540000D03*
G01*
X5588000Y2794000D03*
G01*
X5588000Y2540000D03*
G01*
X5842000Y2794000D03*
G01*
X5842000Y2540000D03*
G01*
X6096000Y2794000D03*
G01*
X6096000Y2540000D03*
G01*
X6350000Y2794000D03*
G01*
X6350000Y2540000D03*
G01*
X6604000Y2794000D03*
G01*
X6604000Y2540000D03*
G01*
X6858000Y2794000D03*
G01*
X6858000Y2540000D03*
G01*
X7112000Y2794000D03*
G01*
X7112000Y2540000D03*
G01*
X7366000Y2794000D03*
G01*
X7366000Y2540000D03*
G01*
X7620000Y2794000D03*
G01*
X7620000Y2540000D03*
G01*
X7874000Y2794000D03*
G01*
X7874000Y2540000D03*
G01*
X8128000Y2794000D03*
G01*
X8128000Y2540000D03*
G01*
X8382000Y2794000D03*
G01*
X8382000Y2540000D03*
G36*
X9542000Y7963999D02*
G01*
X9761999Y7963999D01*
X9761999Y7784000D01*
X9542000Y7784000D01*
G37*
G36*
X3935900Y1633999D02*
G01*
X4115899Y1633999D01*
X4115899Y1414000D01*
X3935900Y1414000D01*
G37*
G36*
X3681900Y1633999D02*
G01*
X3861899Y1633999D01*
X3861899Y1414000D01*
X3681900Y1414000D01*
G37*
G36*
X3427900Y1633999D02*
G01*
X3607899Y1633999D01*
X3607899Y1414000D01*
X3427900Y1414000D01*
G37*
G36*
X3445995Y7976699D02*
G01*
X3665994Y7976699D01*
X3665994Y7796700D01*
X3445995Y7796700D01*
G37*
G36*
X3445997Y5677999D02*
G01*
X3665997Y5677999D01*
X3665997Y5498000D01*
X3445997Y5498000D01*
G37*
G36*
X5122400Y8408499D02*
G01*
X5342399Y8408499D01*
X5342399Y8228500D01*
X5122400Y8228500D01*
G37*
G36*
X7276000Y8472002D02*
G01*
X7455999Y8472002D01*
X7455999Y8292000D01*
X7276000Y8292000D01*
G37*
D16*
G01*
X6604000Y8382000D03*
D17*
G01*
X6858000Y4445000D03*
G01*
X7873720Y4572000D03*
D16*
G01*
X6858000Y5334000D03*
G01*
X6096000Y5334000D03*
G01*
X7366000Y5334000D03*
G01*
X7366000Y4572000D03*
D14*
G01*
X4318000Y1016000D03*
G36*
X4228000Y617999D02*
G01*
X4407999Y617999D01*
X4407999Y398000D01*
X4228000Y398000D01*
G37*
G36*
X6767995Y1125999D02*
G01*
X6947994Y1125999D01*
X6947994Y906000D01*
X6767995Y906000D01*
G37*
G36*
X7021995Y1125999D02*
G01*
X7201994Y1125999D01*
X7201994Y906000D01*
X7021995Y906000D01*
G37*
G36*
X7275995Y1125999D02*
G01*
X7455994Y1125999D01*
X7455994Y906000D01*
X7275995Y906000D01*
G37*
G36*
X7529995Y1125999D02*
G01*
X7709994Y1125999D01*
X7709994Y906000D01*
X7529995Y906000D01*
G37*
G36*
X7783995Y1125999D02*
G01*
X7963994Y1125999D01*
X7963994Y906000D01*
X7783995Y906000D01*
G37*
G36*
X6768000Y617999D02*
G01*
X6947999Y617999D01*
X6947999Y398000D01*
X6768000Y398000D01*
G37*
D16*
G01*
X8382000Y508000D03*
G01*
X7366000Y508000D03*
G01*
X8382000Y3289300D03*
D15*
G01*
X7620000Y3289300D03*
D16*
G01*
X8128000Y3810000D03*
D15*
G01*
X7366000Y3810000D03*
D16*
G01*
X9144000Y3810000D03*
G01*
X8382000Y3810000D03*
G01*
X9398000Y3302000D03*
G01*
X8636000Y3302000D03*
G01*
X8382000Y3556000D03*
G36*
X7784000Y3646002D02*
G01*
X7963999Y3646002D01*
X7963999Y3466002D01*
X7784000Y3466002D01*
G37*
G01*
X8128000Y4064000D03*
G36*
X7530000Y4153999D02*
G01*
X7709999Y4153999D01*
X7709999Y3974000D01*
X7530000Y3974000D01*
G37*
G01*
X9398000Y3048000D03*
G01*
X9398000Y2032000D03*
G01*
X8890000Y3048000D03*
G01*
X8890000Y2032000D03*
G36*
X9554700Y1359999D02*
G01*
X9774699Y1359999D01*
X9774699Y1180000D01*
X9554700Y1180000D01*
G37*
G01*
X8890000Y6858000D03*
D15*
G01*
X8890000Y7620000D03*
D16*
G01*
X8636000Y7112000D03*
D15*
G01*
X8636000Y7874000D03*
D16*
G01*
X8382000Y7366000D03*
D15*
G01*
X8382000Y8128000D03*
D16*
G01*
X9144000Y6604000D03*
D15*
G01*
X9144000Y7632700D03*
G01*
X8128000Y1778000D03*
D16*
G01*
X8636000Y1778000D03*
D15*
G01*
X9156700Y4826000D03*
D16*
G01*
X9664700Y4826000D03*
D14*
G01*
X8636000Y1016000D03*
D16*
X9632000Y6604000D02*
G01*
X9671999Y6604000D01*
X9632000Y6858000D02*
G01*
X9671999Y6858000D01*
X9632000Y7112000D02*
G01*
X9671999Y7112000D01*
X9632000Y7366000D02*
G01*
X9671999Y7366000D01*
X9632000Y8128000D02*
G01*
X9671999Y8128000D01*
X4025900Y2305999D02*
G01*
X4025900Y2266000D01*
X3771900Y2305999D02*
G01*
X3771900Y2266000D01*
X3517900Y2305999D02*
G01*
X3517900Y2266000D01*
X3536000Y7112000D02*
G01*
X3575999Y7112000D01*
X3536000Y7366000D02*
G01*
X3575999Y7366000D01*
X3536000Y7620000D02*
G01*
X3575999Y7620000D01*
X3536000Y6604000D02*
G01*
X3575999Y6604000D01*
X3536000Y6350000D02*
G01*
X3575999Y6350000D01*
X3536000Y5842000D02*
G01*
X3575999Y5842000D01*
X5212400Y8064500D02*
G01*
X5252399Y8064500D01*
X5212400Y7810500D02*
G01*
X5252399Y7810500D01*
X5212400Y7556500D02*
G01*
X5252399Y7556500D01*
X5212400Y7302500D02*
G01*
X5252399Y7302500D01*
X5212400Y7048500D02*
G01*
X5252399Y7048500D01*
X4318000Y8655999D02*
G01*
X4318000Y8616000D01*
X4064000Y8655999D02*
G01*
X4064000Y8616000D01*
D18*
X6823001Y4572000D02*
G01*
X6893001Y4572000D01*
X6823001Y4699000D02*
G01*
X6893001Y4699000D01*
X7838719Y4699000D02*
G01*
X7908721Y4699000D01*
X7838719Y4826000D02*
G01*
X7908721Y4826000D01*
D16*
X3575999Y2794000D02*
G01*
X3536000Y2794000D01*
X3575999Y3048000D02*
G01*
X3536000Y3048000D01*
X3575999Y3302000D02*
G01*
X3536000Y3302000D01*
X3575999Y3556000D02*
G01*
X3536000Y3556000D01*
X3575999Y4076700D02*
G01*
X3536000Y4076700D01*
X3575999Y4330700D02*
G01*
X3536000Y4330700D01*
X3575999Y4584700D02*
G01*
X3536000Y4584700D01*
X3575999Y4838700D02*
G01*
X3536000Y4838700D01*
X6350000Y996000D02*
G01*
X6350000Y1035999D01*
X6096000Y996000D02*
G01*
X6096000Y1035999D01*
X5842000Y996000D02*
G01*
X5842000Y1035999D01*
X5588000Y996000D02*
G01*
X5588000Y1035999D01*
X5334000Y996000D02*
G01*
X5334000Y1035999D01*
X5080000Y996000D02*
G01*
X5080000Y1035999D01*
X4826000Y996000D02*
G01*
X4826000Y1035999D01*
X4572000Y996000D02*
G01*
X4572000Y1035999D01*
X4318000Y1758000D02*
G01*
X4318000Y1797999D01*
X4572000Y1758000D02*
G01*
X4572000Y1797999D01*
X4826000Y1758000D02*
G01*
X4826000Y1797999D01*
X5080000Y1758000D02*
G01*
X5080000Y1797999D01*
X5334000Y1758000D02*
G01*
X5334000Y1797999D01*
X5588000Y1758000D02*
G01*
X5588000Y1797999D01*
X5842000Y1758000D02*
G01*
X5842000Y1797999D01*
X6096000Y1758000D02*
G01*
X6096000Y1797999D01*
X6350000Y1758000D02*
G01*
X6350000Y1797999D01*
X6350000Y527999D02*
G01*
X6350000Y488000D01*
X6096000Y527999D02*
G01*
X6096000Y488000D01*
X5842000Y527999D02*
G01*
X5842000Y488000D01*
X5588000Y527999D02*
G01*
X5588000Y488000D01*
X5334000Y527999D02*
G01*
X5334000Y488000D01*
X5080000Y527999D02*
G01*
X5080000Y488000D01*
X4826000Y527999D02*
G01*
X4826000Y488000D01*
X4572000Y527999D02*
G01*
X4572000Y488000D01*
X6858000Y1797999D02*
G01*
X6858000Y1758000D01*
X7112000Y1797999D02*
G01*
X7112000Y1758000D01*
X7366000Y1797999D02*
G01*
X7366000Y1758000D01*
X7620000Y1797999D02*
G01*
X7620000Y1758000D01*
X7874000Y1797999D02*
G01*
X7874000Y1758000D01*
X7112000Y527999D02*
G01*
X7112000Y488000D01*
X9644700Y1778000D02*
G01*
X9684699Y1778000D01*
X9644700Y1524000D02*
G01*
X9684699Y1524000D01*
X8382000Y996000D02*
G01*
X8382000Y1035999D01*
X8890000Y996000D02*
G01*
X8890000Y1035999D01*
M02*
