M48
METRIC,LZ,000.000
;FILE_FORMAT=3:3
;TYPE=PLATED
;Layer: Drill PTH
;EasyEDA v6.4.21, 2021-08-27T10:15:53+02:00
;9e47797760d14a1ba145978a01478d27,3a21a940fc264e4589df007fb316c5b6,10
;Gerber Generator version 0.2
;Holesize 1 = 0.800 mm
T01C0.800
;Holesize 2 = 0.915 mm
T02C0.915
;Holesize 3 = 1.000 mm
T03C1.000
;Holesize 4 = 1.021 mm
T04C1.021
%
G05
G90
T01
X068580Y044450
X068580Y045720
X068580Y046990
X078737Y045720
X078737Y046990
X078737Y048260
T02
X096520Y058420
X096520Y060960
X093980Y058420
X093980Y060960
X091440Y058420
X091440Y060960
X088900Y058420
X088900Y060960
X086360Y058420
X086360Y060960
X083820Y058420
X083820Y060960
X081280Y058420
X081280Y060960
X078740Y058420
X078740Y060960
X076200Y058420
X076200Y060960
X073660Y058420
X073660Y060960
X071120Y058420
X071120Y060960
X068580Y058420
X068580Y060960
X066040Y058420
X066040Y060960
X063500Y058420
X063500Y060960
X060960Y058420
X060960Y060960
X058420Y058420
X058420Y060960
X055880Y058420
X055880Y060960
X053340Y058420
X053340Y060960
X050800Y058420
X050800Y060960
X048260Y058420
X048260Y060960
X045720Y058420
X045720Y060960
X048260Y035560
X045720Y035560
X048260Y033020
X045720Y033020
X048260Y030480
X045720Y030480
X045720Y027940
X045720Y025400
X048260Y027940
X048260Y025400
X050800Y027940
X050800Y025400
X053340Y027940
X053340Y025400
X055880Y027940
X055880Y025400
X058420Y027940
X058420Y025400
X060960Y027940
X060960Y025400
X063500Y027940
X063500Y025400
X066040Y027940
X066040Y025400
X068580Y027940
X068580Y025400
X071120Y027940
X071120Y025400
X073660Y027940
X073660Y025400
X076200Y027940
X076200Y025400
X078740Y027940
X078740Y025400
X081280Y027940
X081280Y025400
X083820Y027940
X083820Y025400
X096520Y066040
X096520Y068580
X096520Y071120
X096520Y073660
X096520Y081280
X096520Y078740
X040259Y015240
X040259Y022860
X037719Y015240
X037719Y022860
X035179Y015240
X035179Y022860
X035560Y071120
X035560Y073660
X035560Y076200
X035560Y078867
X035560Y066040
X035560Y063500
X035560Y058420
X035560Y055880
X052324Y083185
X052324Y080645
X052324Y078105
X052324Y075565
X052324Y073025
X052324Y070485
X043180Y086360
X040640Y086360
X073660Y083820
X066040Y083820
X068580Y053340
X060960Y053340
X073660Y053340
X073660Y045720
X063500Y010160
X060960Y010160
X058420Y010160
X055880Y010160
X053340Y010160
X050800Y010160
X048260Y010160
X045720Y010160
X043180Y010160
X043180Y017780
X045720Y017780
X048260Y017780
X050800Y017780
X053340Y017780
X055880Y017780
X058420Y017780
X060960Y017780
X063500Y017780
X063500Y005080
X060960Y005080
X058420Y005080
X055880Y005080
X053340Y005080
X050800Y005080
X048260Y005080
X045720Y005080
X043180Y005080
X068580Y017780
X068580Y010160
X071120Y017780
X071120Y010160
X073660Y017780
X073660Y010160
X076200Y017780
X076200Y010160
X078740Y017780
X078740Y010160
X071120Y005080
X068580Y005080
X083820Y005080
X073660Y005080
X083820Y032893
X076200Y032893
X081280Y038100
X073660Y038100
X091440Y038100
X083820Y038100
X093980Y033020
X086360Y033020
X083820Y035560
X078740Y035560
X081280Y040640
X076200Y040640
X093980Y030480
X093980Y020320
X088900Y030480
X088900Y020320
X096647Y017780
X096647Y015240
X096647Y012700
X088900Y068580
X088900Y076200
X086360Y071120
X086360Y078740
X083820Y073660
X083820Y081280
X091440Y066040
X091440Y076327
X081280Y017780
X086360Y017780
X091567Y048260
X096647Y048260
T03
X083820Y010160
X086360Y010160
X088900Y010160
T04
X035560Y027940
X035560Y030480
X035560Y033020
X035560Y035560
X035560Y040767
X035560Y043307
X035560Y045847
X035560Y048387
M30
