G04 Layer: TopSilkLayer*
G04 EasyEDA v6.4.21, 2021-08-27T10:15:53+02:00*
G04 9e47797760d14a1ba145978a01478d27,3a21a940fc264e4589df007fb316c5b6,10*
G04 Gerber Generator version 0.2*
G04 Scale: 100 percent, Rotated: No, Reflected: No *
G04 Dimensions in millimeters *
G04 leading zeros omitted , absolute positions ,4 integer and 5 decimal *
%FSLAX45Y45*%
%MOMM*%

%ADD10C,0.2540*%
%ADD19C,0.2032*%
%ADD20C,0.1400*%
%ADD21C,0.1200*%
%ADD22C,0.2000*%
%ADD23C,0.1800*%

%LPD*%
D19*
X9320022Y3810000D02*
G01*
X9458452Y3810000D01*
X9486138Y3819144D01*
X9504679Y3837686D01*
X9513824Y3865371D01*
X9513824Y3883913D01*
X9504679Y3911600D01*
X9486138Y3930142D01*
X9458452Y3939286D01*
X9320022Y3939286D01*
X9347708Y4129531D02*
G01*
X9329165Y4110989D01*
X9320022Y4083304D01*
X9320022Y4046473D01*
X9329165Y4018787D01*
X9347708Y4000245D01*
X9366250Y4000245D01*
X9384538Y4009389D01*
X9393936Y4018787D01*
X9403079Y4037329D01*
X9421622Y4092702D01*
X9430765Y4110989D01*
X9439909Y4120387D01*
X9458452Y4129531D01*
X9486138Y4129531D01*
X9504679Y4110989D01*
X9513824Y4083304D01*
X9513824Y4046473D01*
X9504679Y4018787D01*
X9486138Y4000245D01*
X9320022Y4190492D02*
G01*
X9513824Y4190492D01*
X9320022Y4190492D02*
G01*
X9320022Y4273550D01*
X9329165Y4301489D01*
X9338309Y4310634D01*
X9356852Y4319778D01*
X9375393Y4319778D01*
X9393936Y4310634D01*
X9403079Y4301489D01*
X9412224Y4273550D01*
X9412224Y4190492D02*
G01*
X9412224Y4273550D01*
X9421622Y4301489D01*
X9430765Y4310634D01*
X9449308Y4319778D01*
X9476993Y4319778D01*
X9495536Y4310634D01*
X9504679Y4301489D01*
X9513824Y4273550D01*
X9513824Y4190492D01*
D20*
X9563100Y5694171D02*
G01*
X9592309Y5617718D01*
X9621265Y5694171D02*
G01*
X9592309Y5617718D01*
X9645395Y5694171D02*
G01*
X9645395Y5617718D01*
X9669272Y5694171D02*
G01*
X9669272Y5617718D01*
X9669272Y5694171D02*
G01*
X9720072Y5617718D01*
X9720072Y5694171D02*
G01*
X9720072Y5617718D01*
X9367774Y5675884D02*
G01*
X9364218Y5683250D01*
X9356852Y5690615D01*
X9349740Y5694171D01*
X9335261Y5694171D01*
X9327895Y5690615D01*
X9320529Y5683250D01*
X9316974Y5675884D01*
X9313418Y5664962D01*
X9313418Y5646928D01*
X9316974Y5636005D01*
X9320529Y5628639D01*
X9327895Y5621273D01*
X9335261Y5617718D01*
X9349740Y5617718D01*
X9356852Y5621273D01*
X9364218Y5628639D01*
X9367774Y5636005D01*
X9367774Y5646928D01*
X9349740Y5646928D02*
G01*
X9367774Y5646928D01*
X9391904Y5694171D02*
G01*
X9391904Y5617718D01*
X9391904Y5694171D02*
G01*
X9442704Y5617718D01*
X9442704Y5694171D02*
G01*
X9442704Y5617718D01*
X9466834Y5694171D02*
G01*
X9466834Y5617718D01*
X9466834Y5694171D02*
G01*
X9492234Y5694171D01*
X9503156Y5690615D01*
X9510522Y5683250D01*
X9514077Y5675884D01*
X9517634Y5664962D01*
X9517634Y5646928D01*
X9514077Y5636005D01*
X9510522Y5628639D01*
X9503156Y5621273D01*
X9492234Y5617718D01*
X9466834Y5617718D01*
X9107170Y5694171D02*
G01*
X9070847Y5694171D01*
X9067291Y5661405D01*
X9070847Y5664962D01*
X9081770Y5668771D01*
X9092691Y5668771D01*
X9103613Y5664962D01*
X9110725Y5657850D01*
X9114536Y5646928D01*
X9114536Y5639562D01*
X9110725Y5628639D01*
X9103613Y5621273D01*
X9092691Y5617718D01*
X9081770Y5617718D01*
X9070847Y5621273D01*
X9067291Y5625084D01*
X9063481Y5632195D01*
X9138411Y5694171D02*
G01*
X9167622Y5617718D01*
X9196577Y5694171D02*
G01*
X9167622Y5617718D01*
X8821165Y5694171D02*
G01*
X8861043Y5694171D01*
X8839200Y5664962D01*
X8850122Y5664962D01*
X8857488Y5661405D01*
X8861043Y5657850D01*
X8864600Y5646928D01*
X8864600Y5639562D01*
X8861043Y5628639D01*
X8853677Y5621273D01*
X8843009Y5617718D01*
X8832088Y5617718D01*
X8821165Y5621273D01*
X8817356Y5625084D01*
X8813800Y5632195D01*
X8892286Y5636005D02*
G01*
X8888729Y5632195D01*
X8892286Y5628639D01*
X8896095Y5632195D01*
X8892286Y5636005D01*
X8927338Y5694171D02*
G01*
X8967215Y5694171D01*
X8945372Y5664962D01*
X8956293Y5664962D01*
X8963659Y5661405D01*
X8967215Y5657850D01*
X8970772Y5646928D01*
X8970772Y5639562D01*
X8967215Y5628639D01*
X8960104Y5621273D01*
X8949181Y5617718D01*
X8938259Y5617718D01*
X8927338Y5621273D01*
X8923527Y5625084D01*
X8919972Y5632195D01*
X8077200Y6303771D02*
G01*
X8077200Y6227318D01*
X8077200Y6303771D02*
G01*
X8102600Y6303771D01*
X8113522Y6300215D01*
X8120888Y6292850D01*
X8124443Y6285484D01*
X8128000Y6274562D01*
X8128000Y6256528D01*
X8124443Y6245605D01*
X8120888Y6238239D01*
X8113522Y6230873D01*
X8102600Y6227318D01*
X8077200Y6227318D01*
X8159495Y6303771D02*
G01*
X8199374Y6303771D01*
X8177529Y6274562D01*
X8188452Y6274562D01*
X8195818Y6271005D01*
X8199374Y6267450D01*
X8202929Y6256528D01*
X8202929Y6249162D01*
X8199374Y6238239D01*
X8192008Y6230873D01*
X8181086Y6227318D01*
X8170163Y6227318D01*
X8159495Y6230873D01*
X8155686Y6234684D01*
X8152129Y6241795D01*
X7823200Y6303771D02*
G01*
X7823200Y6227318D01*
X7823200Y6303771D02*
G01*
X7848600Y6303771D01*
X7859522Y6300215D01*
X7866888Y6292850D01*
X7870443Y6285484D01*
X7874000Y6274562D01*
X7874000Y6256528D01*
X7870443Y6245605D01*
X7866888Y6238239D01*
X7859522Y6230873D01*
X7848600Y6227318D01*
X7823200Y6227318D01*
X7941818Y6303771D02*
G01*
X7905495Y6303771D01*
X7901686Y6271005D01*
X7905495Y6274562D01*
X7916163Y6278371D01*
X7927086Y6278371D01*
X7938008Y6274562D01*
X7945374Y6267450D01*
X7948929Y6256528D01*
X7948929Y6249162D01*
X7945374Y6238239D01*
X7938008Y6230873D01*
X7927086Y6227318D01*
X7916163Y6227318D01*
X7905495Y6230873D01*
X7901686Y6234684D01*
X7898129Y6241795D01*
X7569200Y6303771D02*
G01*
X7569200Y6227318D01*
X7569200Y6303771D02*
G01*
X7594600Y6303771D01*
X7605522Y6300215D01*
X7612888Y6292850D01*
X7616443Y6285484D01*
X7620000Y6274562D01*
X7620000Y6256528D01*
X7616443Y6245605D01*
X7612888Y6238239D01*
X7605522Y6230873D01*
X7594600Y6227318D01*
X7569200Y6227318D01*
X7694929Y6303771D02*
G01*
X7658608Y6227318D01*
X7644129Y6303771D02*
G01*
X7694929Y6303771D01*
X7315200Y6303771D02*
G01*
X7315200Y6227318D01*
X7315200Y6303771D02*
G01*
X7340600Y6303771D01*
X7351522Y6300215D01*
X7358888Y6292850D01*
X7362443Y6285484D01*
X7366000Y6274562D01*
X7366000Y6256528D01*
X7362443Y6245605D01*
X7358888Y6238239D01*
X7351522Y6230873D01*
X7340600Y6227318D01*
X7315200Y6227318D01*
X7437374Y6278371D02*
G01*
X7433818Y6267450D01*
X7426452Y6260084D01*
X7415529Y6256528D01*
X7411974Y6256528D01*
X7401052Y6260084D01*
X7393686Y6267450D01*
X7390129Y6278371D01*
X7390129Y6281928D01*
X7393686Y6292850D01*
X7401052Y6300215D01*
X7411974Y6303771D01*
X7415529Y6303771D01*
X7426452Y6300215D01*
X7433818Y6292850D01*
X7437374Y6278371D01*
X7437374Y6260084D01*
X7433818Y6241795D01*
X7426452Y6230873D01*
X7415529Y6227318D01*
X7408163Y6227318D01*
X7397495Y6230873D01*
X7393686Y6238239D01*
X6565900Y6295644D02*
G01*
X6573265Y6299200D01*
X6584188Y6310121D01*
X6584188Y6233668D01*
X6651752Y6310121D02*
G01*
X6615429Y6310121D01*
X6611620Y6277355D01*
X6615429Y6280912D01*
X6626352Y6284721D01*
X6637274Y6284721D01*
X6648195Y6280912D01*
X6655308Y6273800D01*
X6658863Y6262878D01*
X6658863Y6255512D01*
X6655308Y6244589D01*
X6648195Y6237223D01*
X6637274Y6233668D01*
X6626352Y6233668D01*
X6615429Y6237223D01*
X6611620Y6241034D01*
X6608063Y6248145D01*
X6296152Y5679694D02*
G01*
X6303518Y5683250D01*
X6314440Y5694171D01*
X6314440Y5617718D01*
X6382004Y5683250D02*
G01*
X6378447Y5690615D01*
X6367525Y5694171D01*
X6360159Y5694171D01*
X6349238Y5690615D01*
X6341872Y5679694D01*
X6338315Y5661405D01*
X6338315Y5643118D01*
X6341872Y5628639D01*
X6349238Y5621273D01*
X6360159Y5617718D01*
X6363715Y5617718D01*
X6374638Y5621273D01*
X6382004Y5628639D01*
X6385559Y5639562D01*
X6385559Y5643118D01*
X6382004Y5654039D01*
X6374638Y5661405D01*
X6363715Y5664962D01*
X6360159Y5664962D01*
X6349238Y5661405D01*
X6341872Y5654039D01*
X6338315Y5643118D01*
X6303434Y6295644D02*
G01*
X6310800Y6299200D01*
X6321722Y6310121D01*
X6321722Y6233668D01*
X6396398Y6310121D02*
G01*
X6360076Y6233668D01*
X6345598Y6310121D02*
G01*
X6396398Y6310121D01*
X6051806Y5679694D02*
G01*
X6059172Y5683250D01*
X6070094Y5694171D01*
X6070094Y5617718D01*
X6112258Y5694171D02*
G01*
X6101336Y5690615D01*
X6097526Y5683250D01*
X6097526Y5675884D01*
X6101336Y5668771D01*
X6108448Y5664962D01*
X6123180Y5661405D01*
X6134102Y5657850D01*
X6141214Y5650484D01*
X6144770Y5643118D01*
X6144770Y5632195D01*
X6141214Y5625084D01*
X6137658Y5621273D01*
X6126736Y5617718D01*
X6112258Y5617718D01*
X6101336Y5621273D01*
X6097526Y5625084D01*
X6093970Y5632195D01*
X6093970Y5643118D01*
X6097526Y5650484D01*
X6104892Y5657850D01*
X6115814Y5661405D01*
X6130292Y5664962D01*
X6137658Y5668771D01*
X6141214Y5675884D01*
X6141214Y5683250D01*
X6137658Y5690615D01*
X6126736Y5694171D01*
X6112258Y5694171D01*
X6040965Y6295644D02*
G01*
X6048331Y6299200D01*
X6059253Y6310121D01*
X6059253Y6233668D01*
X6130373Y6284721D02*
G01*
X6126817Y6273800D01*
X6119451Y6266434D01*
X6108529Y6262878D01*
X6104973Y6262878D01*
X6094051Y6266434D01*
X6086685Y6273800D01*
X6083129Y6284721D01*
X6083129Y6288278D01*
X6086685Y6299200D01*
X6094051Y6306565D01*
X6104973Y6310121D01*
X6108529Y6310121D01*
X6119451Y6306565D01*
X6126817Y6299200D01*
X6130373Y6284721D01*
X6130373Y6266434D01*
X6126817Y6248145D01*
X6119451Y6237223D01*
X6108529Y6233668D01*
X6101417Y6233668D01*
X6090495Y6237223D01*
X6086685Y6244589D01*
X5782056Y5675884D02*
G01*
X5782056Y5679694D01*
X5785865Y5686805D01*
X5789422Y5690615D01*
X5796788Y5694171D01*
X5811265Y5694171D01*
X5818377Y5690615D01*
X5822188Y5686805D01*
X5825743Y5679694D01*
X5825743Y5672328D01*
X5822188Y5664962D01*
X5814822Y5654039D01*
X5778500Y5617718D01*
X5829300Y5617718D01*
X5875274Y5694171D02*
G01*
X5864352Y5690615D01*
X5856986Y5679694D01*
X5853429Y5661405D01*
X5853429Y5650484D01*
X5856986Y5632195D01*
X5864352Y5621273D01*
X5875274Y5617718D01*
X5882386Y5617718D01*
X5893308Y5621273D01*
X5900674Y5632195D01*
X5904229Y5650484D01*
X5904229Y5661405D01*
X5900674Y5679694D01*
X5893308Y5690615D01*
X5882386Y5694171D01*
X5875274Y5694171D01*
X5782056Y6291834D02*
G01*
X5782056Y6295644D01*
X5785865Y6302755D01*
X5789422Y6306565D01*
X5796788Y6310121D01*
X5811265Y6310121D01*
X5818377Y6306565D01*
X5822188Y6302755D01*
X5825743Y6295644D01*
X5825743Y6288278D01*
X5822188Y6280912D01*
X5814822Y6269989D01*
X5778500Y6233668D01*
X5829300Y6233668D01*
X5853429Y6295644D02*
G01*
X5860795Y6299200D01*
X5871463Y6310121D01*
X5871463Y6233668D01*
X3859022Y7916671D02*
G01*
X3822700Y7865618D01*
X3877309Y7865618D01*
X3859022Y7916671D02*
G01*
X3859022Y7840218D01*
X3957320Y7916671D02*
G01*
X3986275Y7840218D01*
X4015486Y7916671D02*
G01*
X3986275Y7840218D01*
X4039361Y7916671D02*
G01*
X4039361Y7840218D01*
X4039361Y7916671D02*
G01*
X4064761Y7916671D01*
X4075684Y7913115D01*
X4083050Y7905750D01*
X4086606Y7898384D01*
X4090415Y7887462D01*
X4090415Y7869428D01*
X4086606Y7858505D01*
X4083050Y7851139D01*
X4075684Y7843773D01*
X4064761Y7840218D01*
X4039361Y7840218D01*
X4114291Y7916671D02*
G01*
X4114291Y7840218D01*
X4114291Y7916671D02*
G01*
X4139691Y7916671D01*
X4150613Y7913115D01*
X4157979Y7905750D01*
X4161536Y7898384D01*
X4165345Y7887462D01*
X4165345Y7869428D01*
X4161536Y7858505D01*
X4157979Y7851139D01*
X4150613Y7843773D01*
X4139691Y7840218D01*
X4114291Y7840218D01*
X3830065Y7662671D02*
G01*
X3869943Y7662671D01*
X3848100Y7633462D01*
X3859022Y7633462D01*
X3866388Y7629905D01*
X3869943Y7626350D01*
X3873500Y7615428D01*
X3873500Y7608062D01*
X3869943Y7597139D01*
X3862577Y7589773D01*
X3851909Y7586218D01*
X3840988Y7586218D01*
X3830065Y7589773D01*
X3826256Y7593584D01*
X3822700Y7600695D01*
X3953509Y7662671D02*
G01*
X3982720Y7586218D01*
X4011675Y7662671D02*
G01*
X3982720Y7586218D01*
X4090415Y7644384D02*
G01*
X4086606Y7651750D01*
X4079493Y7659115D01*
X4072127Y7662671D01*
X4057650Y7662671D01*
X4050284Y7659115D01*
X4043172Y7651750D01*
X4039361Y7644384D01*
X4035806Y7633462D01*
X4035806Y7615428D01*
X4039361Y7604505D01*
X4043172Y7597139D01*
X4050284Y7589773D01*
X4057650Y7586218D01*
X4072127Y7586218D01*
X4079493Y7589773D01*
X4086606Y7597139D01*
X4090415Y7604505D01*
X4168902Y7644384D02*
G01*
X4165345Y7651750D01*
X4157979Y7659115D01*
X4150613Y7662671D01*
X4136136Y7662671D01*
X4128770Y7659115D01*
X4121658Y7651750D01*
X4117847Y7644384D01*
X4114291Y7633462D01*
X4114291Y7615428D01*
X4117847Y7604505D01*
X4121658Y7597139D01*
X4128770Y7589773D01*
X4136136Y7586218D01*
X4150613Y7586218D01*
X4157979Y7589773D01*
X4165345Y7597139D01*
X4168902Y7604505D01*
X3826256Y7390384D02*
G01*
X3826256Y7394194D01*
X3830065Y7401305D01*
X3833622Y7405115D01*
X3840988Y7408671D01*
X3855465Y7408671D01*
X3862577Y7405115D01*
X3866388Y7401305D01*
X3869943Y7394194D01*
X3869943Y7386828D01*
X3866388Y7379462D01*
X3859022Y7368539D01*
X3822700Y7332218D01*
X3873500Y7332218D01*
X4004563Y7397750D02*
G01*
X3997197Y7405115D01*
X3986275Y7408671D01*
X3971797Y7408671D01*
X3960875Y7405115D01*
X3953509Y7397750D01*
X3953509Y7390384D01*
X3957320Y7383271D01*
X3960875Y7379462D01*
X3968241Y7375905D01*
X3990086Y7368539D01*
X3997197Y7364984D01*
X4001008Y7361428D01*
X4004563Y7354062D01*
X4004563Y7343139D01*
X3997197Y7335773D01*
X3986275Y7332218D01*
X3971797Y7332218D01*
X3960875Y7335773D01*
X3953509Y7343139D01*
X4028440Y7408671D02*
G01*
X4028440Y7332218D01*
X4028440Y7408671D02*
G01*
X4054093Y7408671D01*
X4064761Y7405115D01*
X4072127Y7397750D01*
X4075684Y7390384D01*
X4079493Y7379462D01*
X4079493Y7361428D01*
X4075684Y7350505D01*
X4072127Y7343139D01*
X4064761Y7335773D01*
X4054093Y7332218D01*
X4028440Y7332218D01*
X4132579Y7408671D02*
G01*
X4103370Y7332218D01*
X4132579Y7408671D02*
G01*
X4161536Y7332218D01*
X4114291Y7357618D02*
G01*
X4150613Y7357618D01*
X3822700Y7140194D02*
G01*
X3830065Y7143750D01*
X3840988Y7154671D01*
X3840988Y7078218D01*
X3971797Y7143750D02*
G01*
X3964431Y7151115D01*
X3953509Y7154671D01*
X3939031Y7154671D01*
X3928109Y7151115D01*
X3920997Y7143750D01*
X3920997Y7136384D01*
X3924554Y7129271D01*
X3928109Y7125462D01*
X3935475Y7121905D01*
X3957320Y7114539D01*
X3964431Y7110984D01*
X3968241Y7107428D01*
X3971797Y7100062D01*
X3971797Y7089139D01*
X3964431Y7081773D01*
X3953509Y7078218D01*
X3939031Y7078218D01*
X3928109Y7081773D01*
X3920997Y7089139D01*
X4050284Y7136384D02*
G01*
X4046727Y7143750D01*
X4039361Y7151115D01*
X4032250Y7154671D01*
X4017518Y7154671D01*
X4010406Y7151115D01*
X4003040Y7143750D01*
X3999484Y7136384D01*
X3995674Y7125462D01*
X3995674Y7107428D01*
X3999484Y7096505D01*
X4003040Y7089139D01*
X4010406Y7081773D01*
X4017518Y7078218D01*
X4032250Y7078218D01*
X4039361Y7081773D01*
X4046727Y7089139D01*
X4050284Y7096505D01*
X4074413Y7154671D02*
G01*
X4074413Y7078218D01*
X4074413Y7078218D02*
G01*
X4117847Y7078218D01*
X6437122Y5363253D02*
G01*
X6400800Y5312199D01*
X6455409Y5312199D01*
X6437122Y5363253D02*
G01*
X6437122Y5286799D01*
X6479286Y5363253D02*
G01*
X6479286Y5286799D01*
X6530340Y5363253D02*
G01*
X6479286Y5312199D01*
X6497574Y5330487D02*
G01*
X6530340Y5286799D01*
X6605270Y5363253D02*
G01*
X6568693Y5286799D01*
X6554215Y5363253D02*
G01*
X6605270Y5363253D01*
D19*
X5029200Y1447037D02*
G01*
X5029200Y1378965D01*
X5033772Y1365250D01*
X5042915Y1356105D01*
X5056377Y1351534D01*
X5065522Y1351534D01*
X5079238Y1356105D01*
X5088381Y1365250D01*
X5092954Y1378965D01*
X5092954Y1447037D01*
X5122925Y1447037D02*
G01*
X5122925Y1351534D01*
X5122925Y1447037D02*
G01*
X5154675Y1447037D01*
X5168391Y1442465D01*
X5177281Y1433576D01*
X5181854Y1424431D01*
X5186425Y1410715D01*
X5186425Y1388110D01*
X5181854Y1374394D01*
X5177281Y1365250D01*
X5168391Y1356105D01*
X5154675Y1351534D01*
X5122925Y1351534D01*
X5216397Y1447037D02*
G01*
X5216397Y1351534D01*
X5216397Y1447037D02*
G01*
X5280152Y1351534D01*
X5280152Y1447037D02*
G01*
X5280152Y1351534D01*
X5314695Y1424431D02*
G01*
X5314695Y1429004D01*
X5319268Y1437894D01*
X5323840Y1442465D01*
X5332729Y1447037D01*
X5351018Y1447037D01*
X5360161Y1442465D01*
X5364734Y1437894D01*
X5369306Y1429004D01*
X5369306Y1419860D01*
X5364734Y1410715D01*
X5355590Y1397000D01*
X5310124Y1351534D01*
X5373624Y1351534D01*
X5462777Y1415287D02*
G01*
X5458206Y1401571D01*
X5449315Y1392681D01*
X5435600Y1388110D01*
X5431027Y1388110D01*
X5417311Y1392681D01*
X5408168Y1401571D01*
X5403850Y1415287D01*
X5403850Y1419860D01*
X5408168Y1433576D01*
X5417311Y1442465D01*
X5431027Y1447037D01*
X5435600Y1447037D01*
X5449315Y1442465D01*
X5458206Y1433576D01*
X5462777Y1415287D01*
X5462777Y1392681D01*
X5458206Y1369821D01*
X5449315Y1356105D01*
X5435600Y1351534D01*
X5426456Y1351534D01*
X5412740Y1356105D01*
X5408168Y1365250D01*
X5515609Y1447037D02*
G01*
X5501893Y1442465D01*
X5497322Y1433576D01*
X5497322Y1424431D01*
X5501893Y1415287D01*
X5511038Y1410715D01*
X5529325Y1406144D01*
X5542788Y1401571D01*
X5551931Y1392681D01*
X5556504Y1383537D01*
X5556504Y1369821D01*
X5551931Y1360678D01*
X5547359Y1356105D01*
X5533643Y1351534D01*
X5515609Y1351534D01*
X5501893Y1356105D01*
X5497322Y1360678D01*
X5492750Y1369821D01*
X5492750Y1383537D01*
X5497322Y1392681D01*
X5506465Y1401571D01*
X5520181Y1406144D01*
X5538215Y1410715D01*
X5547359Y1415287D01*
X5551931Y1424431D01*
X5551931Y1433576D01*
X5547359Y1442465D01*
X5533643Y1447037D01*
X5515609Y1447037D01*
X5586475Y1429004D02*
G01*
X5595620Y1433576D01*
X5609081Y1447037D01*
X5609081Y1351534D01*
X7687056Y532384D02*
G01*
X7687056Y536194D01*
X7690865Y543305D01*
X7694422Y547115D01*
X7701788Y550671D01*
X7716265Y550671D01*
X7723377Y547115D01*
X7727188Y543305D01*
X7730743Y536194D01*
X7730743Y528828D01*
X7727188Y521462D01*
X7719822Y510539D01*
X7683500Y474218D01*
X7734300Y474218D01*
X7761986Y532384D02*
G01*
X7761986Y536194D01*
X7765795Y543305D01*
X7769352Y547115D01*
X7776463Y550671D01*
X7791195Y550671D01*
X7798308Y547115D01*
X7802118Y543305D01*
X7805674Y536194D01*
X7805674Y528828D01*
X7802118Y521462D01*
X7794752Y510539D01*
X7758429Y474218D01*
X7809229Y474218D01*
X7855204Y550671D02*
G01*
X7844281Y547115D01*
X7836915Y536194D01*
X7833359Y517905D01*
X7833359Y506984D01*
X7836915Y488695D01*
X7844281Y477773D01*
X7855204Y474218D01*
X7862315Y474218D01*
X7873238Y477773D01*
X7880604Y488695D01*
X7884159Y506984D01*
X7884159Y517905D01*
X7880604Y536194D01*
X7873238Y547115D01*
X7862315Y550671D01*
X7855204Y550671D01*
X7908290Y525271D02*
G01*
X7908290Y488695D01*
X7911845Y477773D01*
X7919211Y474218D01*
X7930134Y474218D01*
X7937245Y477773D01*
X7948168Y488695D01*
X7948168Y525271D02*
G01*
X7948168Y474218D01*
X7972297Y550671D02*
G01*
X7972297Y474218D01*
X8023097Y550671D02*
G01*
X8023097Y474218D01*
X7972297Y514350D02*
G01*
X8023097Y514350D01*
D21*
X7810500Y1484629D02*
G01*
X7815834Y1487423D01*
X7824215Y1495552D01*
X7824215Y1438402D01*
X7858506Y1495552D02*
G01*
X7850377Y1493012D01*
X7844790Y1484629D01*
X7842250Y1471168D01*
X7842250Y1463039D01*
X7844790Y1449323D01*
X7850377Y1441195D01*
X7858506Y1438402D01*
X7863840Y1438402D01*
X7872222Y1441195D01*
X7877556Y1449323D01*
X7880350Y1463039D01*
X7880350Y1471168D01*
X7877556Y1484629D01*
X7872222Y1493012D01*
X7863840Y1495552D01*
X7858506Y1495552D01*
X7898384Y1495552D02*
G01*
X7898384Y1438402D01*
X7936484Y1495552D02*
G01*
X7898384Y1457452D01*
X7911845Y1471168D02*
G01*
X7936484Y1438402D01*
X7556500Y1484629D02*
G01*
X7561834Y1487423D01*
X7570215Y1495552D01*
X7570215Y1438402D01*
X7604506Y1495552D02*
G01*
X7596377Y1493012D01*
X7590790Y1484629D01*
X7588250Y1471168D01*
X7588250Y1463039D01*
X7590790Y1449323D01*
X7596377Y1441195D01*
X7604506Y1438402D01*
X7609840Y1438402D01*
X7618222Y1441195D01*
X7623556Y1449323D01*
X7626350Y1463039D01*
X7626350Y1471168D01*
X7623556Y1484629D01*
X7618222Y1493012D01*
X7609840Y1495552D01*
X7604506Y1495552D01*
X7644384Y1495552D02*
G01*
X7644384Y1438402D01*
X7682484Y1495552D02*
G01*
X7644384Y1457452D01*
X7657845Y1471168D02*
G01*
X7682484Y1438402D01*
X7302500Y1484629D02*
G01*
X7307834Y1487423D01*
X7316215Y1495552D01*
X7316215Y1438402D01*
X7350506Y1495552D02*
G01*
X7342377Y1493012D01*
X7336790Y1484629D01*
X7334250Y1471168D01*
X7334250Y1463039D01*
X7336790Y1449323D01*
X7342377Y1441195D01*
X7350506Y1438402D01*
X7355840Y1438402D01*
X7364222Y1441195D01*
X7369556Y1449323D01*
X7372350Y1463039D01*
X7372350Y1471168D01*
X7369556Y1484629D01*
X7364222Y1493012D01*
X7355840Y1495552D01*
X7350506Y1495552D01*
X7390384Y1495552D02*
G01*
X7390384Y1438402D01*
X7428484Y1495552D02*
G01*
X7390384Y1457452D01*
X7403845Y1471168D02*
G01*
X7428484Y1438402D01*
X7048500Y1484629D02*
G01*
X7053834Y1487423D01*
X7062215Y1495552D01*
X7062215Y1438402D01*
X7096506Y1495552D02*
G01*
X7088377Y1493012D01*
X7082790Y1484629D01*
X7080250Y1471168D01*
X7080250Y1463039D01*
X7082790Y1449323D01*
X7088377Y1441195D01*
X7096506Y1438402D01*
X7101840Y1438402D01*
X7110222Y1441195D01*
X7115556Y1449323D01*
X7118350Y1463039D01*
X7118350Y1471168D01*
X7115556Y1484629D01*
X7110222Y1493012D01*
X7101840Y1495552D01*
X7096506Y1495552D01*
X7136384Y1495552D02*
G01*
X7136384Y1438402D01*
X7174484Y1495552D02*
G01*
X7136384Y1457452D01*
X7149845Y1471168D02*
G01*
X7174484Y1438402D01*
X6794500Y1484629D02*
G01*
X6799834Y1487423D01*
X6808215Y1495552D01*
X6808215Y1438402D01*
X6842506Y1495552D02*
G01*
X6834377Y1493012D01*
X6828790Y1484629D01*
X6826250Y1471168D01*
X6826250Y1463039D01*
X6828790Y1449323D01*
X6834377Y1441195D01*
X6842506Y1438402D01*
X6847840Y1438402D01*
X6856222Y1441195D01*
X6861556Y1449323D01*
X6864350Y1463039D01*
X6864350Y1471168D01*
X6861556Y1484629D01*
X6856222Y1493012D01*
X6847840Y1495552D01*
X6842506Y1495552D01*
X6882384Y1495552D02*
G01*
X6882384Y1438402D01*
X6920484Y1495552D02*
G01*
X6882384Y1457452D01*
X6895845Y1471168D02*
G01*
X6920484Y1438402D01*
X3962400Y2005329D02*
G01*
X3967734Y2008123D01*
X3976115Y2016252D01*
X3976115Y1959102D01*
X4010406Y2016252D02*
G01*
X4002277Y2013712D01*
X3996690Y2005329D01*
X3994150Y1991868D01*
X3994150Y1983739D01*
X3996690Y1970023D01*
X4002277Y1961895D01*
X4010406Y1959102D01*
X4015740Y1959102D01*
X4024122Y1961895D01*
X4029456Y1970023D01*
X4032250Y1983739D01*
X4032250Y1991868D01*
X4029456Y2005329D01*
X4024122Y2013712D01*
X4015740Y2016252D01*
X4010406Y2016252D01*
X4050284Y2016252D02*
G01*
X4050284Y1959102D01*
X4088384Y2016252D02*
G01*
X4050284Y1978152D01*
X4063745Y1991868D02*
G01*
X4088384Y1959102D01*
X3708400Y2005329D02*
G01*
X3713734Y2008123D01*
X3722115Y2016252D01*
X3722115Y1959102D01*
X3756406Y2016252D02*
G01*
X3748277Y2013712D01*
X3742690Y2005329D01*
X3740150Y1991868D01*
X3740150Y1983739D01*
X3742690Y1970023D01*
X3748277Y1961895D01*
X3756406Y1959102D01*
X3761740Y1959102D01*
X3770122Y1961895D01*
X3775456Y1970023D01*
X3778250Y1983739D01*
X3778250Y1991868D01*
X3775456Y2005329D01*
X3770122Y2013712D01*
X3761740Y2016252D01*
X3756406Y2016252D01*
X3796284Y2016252D02*
G01*
X3796284Y1959102D01*
X3834384Y2016252D02*
G01*
X3796284Y1978152D01*
X3809745Y1991868D02*
G01*
X3834384Y1959102D01*
X3467100Y2005329D02*
G01*
X3472434Y2008123D01*
X3480815Y2016252D01*
X3480815Y1959102D01*
X3515106Y2016252D02*
G01*
X3506977Y2013712D01*
X3501390Y2005329D01*
X3498850Y1991868D01*
X3498850Y1983739D01*
X3501390Y1970023D01*
X3506977Y1961895D01*
X3515106Y1959102D01*
X3520440Y1959102D01*
X3528822Y1961895D01*
X3534156Y1970023D01*
X3536950Y1983739D01*
X3536950Y1991868D01*
X3534156Y2005329D01*
X3528822Y2013712D01*
X3520440Y2016252D01*
X3515106Y2016252D01*
X3554984Y2016252D02*
G01*
X3554984Y1959102D01*
X3593084Y2016252D02*
G01*
X3554984Y1978152D01*
X3568445Y1991868D02*
G01*
X3593084Y1959102D01*
X7317511Y5051552D02*
G01*
X7290333Y5013452D01*
X7331227Y5013452D01*
X7317511Y5051552D02*
G01*
X7317511Y4994402D01*
X7349261Y5051552D02*
G01*
X7349261Y4994402D01*
X7387361Y5051552D02*
G01*
X7349261Y5013452D01*
X7362977Y5027168D02*
G01*
X7387361Y4994402D01*
X7443495Y5051552D02*
G01*
X7416317Y4994402D01*
X7405395Y5051552D02*
G01*
X7443495Y5051552D01*
X6721093Y4911089D02*
G01*
X6721093Y4913629D01*
X6723634Y4919218D01*
X6726427Y4922012D01*
X6732015Y4924552D01*
X6742938Y4924552D01*
X6748272Y4922012D01*
X6751065Y4919218D01*
X6753859Y4913629D01*
X6753859Y4908295D01*
X6751065Y4902707D01*
X6745477Y4894579D01*
X6718300Y4867402D01*
X6756400Y4867402D01*
X6774434Y4924552D02*
G01*
X6774434Y4867402D01*
X6774434Y4924552D02*
G01*
X6812788Y4867402D01*
X6812788Y4924552D02*
G01*
X6812788Y4867402D01*
X6833361Y4911089D02*
G01*
X6833361Y4913629D01*
X6836156Y4919218D01*
X6838950Y4922012D01*
X6844284Y4924552D01*
X6855206Y4924552D01*
X6860540Y4922012D01*
X6863334Y4919218D01*
X6866127Y4913629D01*
X6866127Y4908295D01*
X6863334Y4902707D01*
X6858000Y4894579D01*
X6830568Y4867402D01*
X6868922Y4867402D01*
X6889495Y4911089D02*
G01*
X6889495Y4913629D01*
X6892290Y4919218D01*
X6895084Y4922012D01*
X6900418Y4924552D01*
X6911340Y4924552D01*
X6916927Y4922012D01*
X6919468Y4919218D01*
X6922261Y4913629D01*
X6922261Y4908295D01*
X6919468Y4902707D01*
X6914134Y4894579D01*
X6886956Y4867402D01*
X6925056Y4867402D01*
X6945629Y4911089D02*
G01*
X6945629Y4913629D01*
X6948424Y4919218D01*
X6951218Y4922012D01*
X6956552Y4924552D01*
X6967474Y4924552D01*
X6973061Y4922012D01*
X6975856Y4919218D01*
X6978395Y4913629D01*
X6978395Y4908295D01*
X6975856Y4902707D01*
X6970268Y4894579D01*
X6943090Y4867402D01*
X6981190Y4867402D01*
X7002018Y4911089D02*
G01*
X7002018Y4913629D01*
X7004558Y4919218D01*
X7007352Y4922012D01*
X7012940Y4924552D01*
X7023861Y4924552D01*
X7029195Y4922012D01*
X7031990Y4919218D01*
X7034784Y4913629D01*
X7034784Y4908295D01*
X7031990Y4902707D01*
X7026402Y4894579D01*
X6999224Y4867402D01*
X7037324Y4867402D01*
X7737093Y5050789D02*
G01*
X7737093Y5053329D01*
X7739634Y5058918D01*
X7742427Y5061712D01*
X7748015Y5064252D01*
X7758938Y5064252D01*
X7764272Y5061712D01*
X7767065Y5058918D01*
X7769859Y5053329D01*
X7769859Y5047995D01*
X7767065Y5042407D01*
X7761477Y5034279D01*
X7734300Y5007102D01*
X7772400Y5007102D01*
X7790434Y5064252D02*
G01*
X7790434Y5007102D01*
X7790434Y5064252D02*
G01*
X7828788Y5007102D01*
X7828788Y5064252D02*
G01*
X7828788Y5007102D01*
X7849361Y5050789D02*
G01*
X7849361Y5053329D01*
X7852156Y5058918D01*
X7854950Y5061712D01*
X7860284Y5064252D01*
X7871206Y5064252D01*
X7876540Y5061712D01*
X7879334Y5058918D01*
X7882127Y5053329D01*
X7882127Y5047995D01*
X7879334Y5042407D01*
X7874000Y5034279D01*
X7846568Y5007102D01*
X7884922Y5007102D01*
X7905495Y5050789D02*
G01*
X7905495Y5053329D01*
X7908290Y5058918D01*
X7911084Y5061712D01*
X7916418Y5064252D01*
X7927340Y5064252D01*
X7932927Y5061712D01*
X7935468Y5058918D01*
X7938261Y5053329D01*
X7938261Y5047995D01*
X7935468Y5042407D01*
X7930134Y5034279D01*
X7902956Y5007102D01*
X7941056Y5007102D01*
X7961629Y5050789D02*
G01*
X7961629Y5053329D01*
X7964424Y5058918D01*
X7967218Y5061712D01*
X7972552Y5064252D01*
X7983474Y5064252D01*
X7989061Y5061712D01*
X7991856Y5058918D01*
X7994395Y5053329D01*
X7994395Y5047995D01*
X7991856Y5042407D01*
X7986268Y5034279D01*
X7959090Y5007102D01*
X7997190Y5007102D01*
X8018018Y5050789D02*
G01*
X8018018Y5053329D01*
X8020558Y5058918D01*
X8023352Y5061712D01*
X8028940Y5064252D01*
X8039861Y5064252D01*
X8045195Y5061712D01*
X8047990Y5058918D01*
X8050784Y5053329D01*
X8050784Y5047995D01*
X8047990Y5042407D01*
X8042402Y5034279D01*
X8015224Y5007102D01*
X8053324Y5007102D01*
X6738365Y4706873D02*
G01*
X6732777Y4712207D01*
X6727443Y4715002D01*
X6719315Y4715002D01*
X6713727Y4712207D01*
X6708393Y4706873D01*
X6705600Y4698745D01*
X6705600Y4693157D01*
X6708393Y4685029D01*
X6713727Y4679695D01*
X6719315Y4676902D01*
X6727443Y4676902D01*
X6732777Y4679695D01*
X6738365Y4685029D01*
X7754365Y4821173D02*
G01*
X7748777Y4826507D01*
X7743443Y4829302D01*
X7735315Y4829302D01*
X7729727Y4826507D01*
X7724393Y4821173D01*
X7721600Y4813045D01*
X7721600Y4807457D01*
X7724393Y4799329D01*
X7729727Y4793995D01*
X7735315Y4791202D01*
X7743443Y4791202D01*
X7748777Y4793995D01*
X7754365Y4799329D01*
X7698993Y3831589D02*
G01*
X7698993Y3834129D01*
X7701534Y3839718D01*
X7704327Y3842512D01*
X7709915Y3845052D01*
X7720838Y3845052D01*
X7726172Y3842512D01*
X7728965Y3839718D01*
X7731759Y3834129D01*
X7731759Y3828795D01*
X7728965Y3823207D01*
X7723377Y3815079D01*
X7696200Y3787902D01*
X7734300Y3787902D01*
X7752334Y3845052D02*
G01*
X7752334Y3787902D01*
X7790688Y3845052D02*
G01*
X7752334Y3806952D01*
X7766050Y3820668D02*
G01*
X7790688Y3787902D01*
X7811261Y3831589D02*
G01*
X7811261Y3834129D01*
X7814056Y3839718D01*
X7816850Y3842512D01*
X7822184Y3845052D01*
X7833106Y3845052D01*
X7838440Y3842512D01*
X7841234Y3839718D01*
X7844027Y3834129D01*
X7844027Y3828795D01*
X7841234Y3823207D01*
X7835900Y3815079D01*
X7808468Y3787902D01*
X7846822Y3787902D01*
X8739377Y3845052D02*
G01*
X8712200Y3806952D01*
X8753093Y3806952D01*
X8739377Y3845052D02*
G01*
X8739377Y3787902D01*
X8773922Y3801618D02*
G01*
X8771127Y3798823D01*
X8773922Y3796029D01*
X8776461Y3798823D01*
X8773922Y3801618D01*
X8832850Y3845052D02*
G01*
X8805418Y3787902D01*
X8794495Y3845052D02*
G01*
X8832850Y3845052D01*
X7964677Y3324352D02*
G01*
X7937500Y3286252D01*
X7978393Y3286252D01*
X7964677Y3324352D02*
G01*
X7964677Y3267202D01*
X7996427Y3324352D02*
G01*
X7996427Y3267202D01*
X8034527Y3324352D02*
G01*
X7996427Y3286252D01*
X8010143Y3299968D02*
G01*
X8034527Y3267202D01*
X8090661Y3324352D02*
G01*
X8063484Y3267202D01*
X8052561Y3324352D02*
G01*
X8090661Y3324352D01*
X8984234Y3337052D02*
G01*
X9014459Y3337052D01*
X8997950Y3315207D01*
X9006077Y3315207D01*
X9011665Y3312668D01*
X9014459Y3309873D01*
X9017000Y3301745D01*
X9017000Y3296157D01*
X9014459Y3288029D01*
X9008872Y3282695D01*
X9000743Y3279902D01*
X8992615Y3279902D01*
X8984234Y3282695D01*
X8981693Y3285236D01*
X8978900Y3290823D01*
X9035034Y3337052D02*
G01*
X9035034Y3279902D01*
X9073388Y3337052D02*
G01*
X9035034Y3298952D01*
X9048750Y3312668D02*
G01*
X9073388Y3279902D01*
X9096756Y3337052D02*
G01*
X9126727Y3337052D01*
X9110472Y3315207D01*
X9118600Y3315207D01*
X9123934Y3312668D01*
X9126727Y3309873D01*
X9129522Y3301745D01*
X9129522Y3296157D01*
X9126727Y3288029D01*
X9121140Y3282695D01*
X9113011Y3279902D01*
X9104884Y3279902D01*
X9096756Y3282695D01*
X9093961Y3285236D01*
X9091168Y3290823D01*
X7318756Y4111752D02*
G01*
X7310627Y4109212D01*
X7305293Y4100829D01*
X7302500Y4087368D01*
X7302500Y4079239D01*
X7305293Y4065523D01*
X7310627Y4057395D01*
X7318756Y4054602D01*
X7324343Y4054602D01*
X7332472Y4057395D01*
X7338059Y4065523D01*
X7340600Y4079239D01*
X7340600Y4087368D01*
X7338059Y4100829D01*
X7332472Y4109212D01*
X7324343Y4111752D01*
X7318756Y4111752D01*
X7361427Y4068318D02*
G01*
X7358634Y4065523D01*
X7361427Y4062729D01*
X7364222Y4065523D01*
X7361427Y4068318D01*
X7382256Y4100829D02*
G01*
X7387590Y4103623D01*
X7395718Y4111752D01*
X7395718Y4054602D01*
X7413752Y4092702D02*
G01*
X7413752Y4065523D01*
X7416545Y4057395D01*
X7421879Y4054602D01*
X7430261Y4054602D01*
X7435595Y4057395D01*
X7443724Y4065523D01*
X7443724Y4092702D02*
G01*
X7443724Y4054602D01*
X7461758Y4111752D02*
G01*
X7461758Y4054602D01*
X7461758Y4111752D02*
G01*
X7497318Y4111752D01*
X7461758Y4084573D02*
G01*
X7483602Y4084573D01*
X7560056Y3591052D02*
G01*
X7551927Y3588512D01*
X7546593Y3580129D01*
X7543800Y3566668D01*
X7543800Y3558539D01*
X7546593Y3544823D01*
X7551927Y3536695D01*
X7560056Y3533902D01*
X7565643Y3533902D01*
X7573772Y3536695D01*
X7579359Y3544823D01*
X7581900Y3558539D01*
X7581900Y3566668D01*
X7579359Y3580129D01*
X7573772Y3588512D01*
X7565643Y3591052D01*
X7560056Y3591052D01*
X7602727Y3547618D02*
G01*
X7599934Y3544823D01*
X7602727Y3542029D01*
X7605522Y3544823D01*
X7602727Y3547618D01*
X7623556Y3580129D02*
G01*
X7628890Y3582923D01*
X7637018Y3591052D01*
X7637018Y3533902D01*
X7655052Y3572002D02*
G01*
X7655052Y3544823D01*
X7657845Y3536695D01*
X7663179Y3533902D01*
X7671561Y3533902D01*
X7676895Y3536695D01*
X7685024Y3544823D01*
X7685024Y3572002D02*
G01*
X7685024Y3533902D01*
X7703058Y3591052D02*
G01*
X7703058Y3533902D01*
X7703058Y3591052D02*
G01*
X7738618Y3591052D01*
X7703058Y3563873D02*
G01*
X7724902Y3563873D01*
X9359900Y2594102D02*
G01*
X9359900Y2566923D01*
X9362693Y2558795D01*
X9368027Y2556002D01*
X9376156Y2556002D01*
X9381743Y2558795D01*
X9389872Y2566923D01*
X9389872Y2594102D02*
G01*
X9389872Y2556002D01*
X9407906Y2613152D02*
G01*
X9407906Y2556002D01*
X9407906Y2613152D02*
G01*
X9443465Y2613152D01*
X9407906Y2585973D02*
G01*
X9429750Y2585973D01*
X9324593Y2701289D02*
G01*
X9324593Y2703829D01*
X9327134Y2709418D01*
X9329927Y2712212D01*
X9335515Y2714752D01*
X9346438Y2714752D01*
X9351772Y2712212D01*
X9354565Y2709418D01*
X9357359Y2703829D01*
X9357359Y2698495D01*
X9354565Y2692907D01*
X9348977Y2684779D01*
X9321800Y2657602D01*
X9359900Y2657602D01*
X9380727Y2701289D02*
G01*
X9380727Y2703829D01*
X9383522Y2709418D01*
X9386061Y2712212D01*
X9391650Y2714752D01*
X9402572Y2714752D01*
X9407906Y2712212D01*
X9410700Y2709418D01*
X9413493Y2703829D01*
X9413493Y2698495D01*
X9410700Y2692907D01*
X9405365Y2684779D01*
X9377934Y2657602D01*
X9416288Y2657602D01*
X9450577Y2714752D02*
G01*
X9442450Y2712212D01*
X9436861Y2703829D01*
X9434068Y2690368D01*
X9434068Y2682239D01*
X9436861Y2668523D01*
X9442450Y2660395D01*
X9450577Y2657602D01*
X9455911Y2657602D01*
X9464040Y2660395D01*
X9469627Y2668523D01*
X9472422Y2682239D01*
X9472422Y2690368D01*
X9469627Y2703829D01*
X9464040Y2712212D01*
X9455911Y2714752D01*
X9450577Y2714752D01*
X8851900Y2594102D02*
G01*
X8851900Y2566923D01*
X8854693Y2558795D01*
X8860027Y2556002D01*
X8868156Y2556002D01*
X8873743Y2558795D01*
X8881872Y2566923D01*
X8881872Y2594102D02*
G01*
X8881872Y2556002D01*
X8899906Y2613152D02*
G01*
X8899906Y2556002D01*
X8899906Y2613152D02*
G01*
X8935465Y2613152D01*
X8899906Y2585973D02*
G01*
X8921750Y2585973D01*
X8816593Y2701289D02*
G01*
X8816593Y2703829D01*
X8819134Y2709418D01*
X8821927Y2712212D01*
X8827515Y2714752D01*
X8838438Y2714752D01*
X8843772Y2712212D01*
X8846565Y2709418D01*
X8849359Y2703829D01*
X8849359Y2698495D01*
X8846565Y2692907D01*
X8840977Y2684779D01*
X8813800Y2657602D01*
X8851900Y2657602D01*
X8872727Y2701289D02*
G01*
X8872727Y2703829D01*
X8875522Y2709418D01*
X8878061Y2712212D01*
X8883650Y2714752D01*
X8894572Y2714752D01*
X8899906Y2712212D01*
X8902700Y2709418D01*
X8905493Y2703829D01*
X8905493Y2698495D01*
X8902700Y2692907D01*
X8897365Y2684779D01*
X8869934Y2657602D01*
X8908288Y2657602D01*
X8942577Y2714752D02*
G01*
X8934450Y2712212D01*
X8928861Y2703829D01*
X8926068Y2690368D01*
X8926068Y2682239D01*
X8928861Y2668523D01*
X8934450Y2660395D01*
X8942577Y2657602D01*
X8947911Y2657602D01*
X8956040Y2660395D01*
X8961627Y2668523D01*
X8964422Y2682239D01*
X8964422Y2690368D01*
X8961627Y2703829D01*
X8956040Y2712212D01*
X8947911Y2714752D01*
X8942577Y2714752D01*
X6934200Y8406129D02*
G01*
X6939534Y8408924D01*
X6947915Y8417052D01*
X6947915Y8359902D01*
X6982206Y8417052D02*
G01*
X6974077Y8414512D01*
X6968490Y8406129D01*
X6965950Y8392668D01*
X6965950Y8384539D01*
X6968490Y8370823D01*
X6974077Y8362695D01*
X6982206Y8359902D01*
X6987540Y8359902D01*
X6995922Y8362695D01*
X7001256Y8370823D01*
X7004050Y8384539D01*
X7004050Y8392668D01*
X7001256Y8406129D01*
X6995922Y8414512D01*
X6987540Y8417052D01*
X6982206Y8417052D01*
X7022084Y8417052D02*
G01*
X7022084Y8359902D01*
X7060184Y8417052D02*
G01*
X7022084Y8378952D01*
X7035545Y8392668D02*
G01*
X7060184Y8359902D01*
X8318500Y7860029D02*
G01*
X8323834Y7862823D01*
X8332215Y7870952D01*
X8332215Y7813802D01*
X8366506Y7870952D02*
G01*
X8358377Y7868412D01*
X8352790Y7860029D01*
X8350250Y7846568D01*
X8350250Y7838439D01*
X8352790Y7824723D01*
X8358377Y7816595D01*
X8366506Y7813802D01*
X8371840Y7813802D01*
X8380222Y7816595D01*
X8385556Y7824723D01*
X8388350Y7838439D01*
X8388350Y7846568D01*
X8385556Y7860029D01*
X8380222Y7868412D01*
X8371840Y7870952D01*
X8366506Y7870952D01*
X8406384Y7870952D02*
G01*
X8406384Y7813802D01*
X8444484Y7870952D02*
G01*
X8406384Y7832852D01*
X8419845Y7846568D02*
G01*
X8444484Y7813802D01*
X8572500Y7593329D02*
G01*
X8577834Y7596123D01*
X8586215Y7604252D01*
X8586215Y7547102D01*
X8620506Y7604252D02*
G01*
X8612377Y7601712D01*
X8606790Y7593329D01*
X8604250Y7579868D01*
X8604250Y7571739D01*
X8606790Y7558023D01*
X8612377Y7549895D01*
X8620506Y7547102D01*
X8625840Y7547102D01*
X8634222Y7549895D01*
X8639556Y7558023D01*
X8642350Y7571739D01*
X8642350Y7579868D01*
X8639556Y7593329D01*
X8634222Y7601712D01*
X8625840Y7604252D01*
X8620506Y7604252D01*
X8660384Y7604252D02*
G01*
X8660384Y7547102D01*
X8698484Y7604252D02*
G01*
X8660384Y7566152D01*
X8673845Y7579868D02*
G01*
X8698484Y7547102D01*
X8826500Y7352029D02*
G01*
X8831834Y7354823D01*
X8840215Y7362952D01*
X8840215Y7305802D01*
X8874506Y7362952D02*
G01*
X8866377Y7360412D01*
X8860790Y7352029D01*
X8858250Y7338568D01*
X8858250Y7330439D01*
X8860790Y7316723D01*
X8866377Y7308595D01*
X8874506Y7305802D01*
X8879840Y7305802D01*
X8888222Y7308595D01*
X8893556Y7316723D01*
X8896350Y7330439D01*
X8896350Y7338568D01*
X8893556Y7352029D01*
X8888222Y7360412D01*
X8879840Y7362952D01*
X8874506Y7362952D01*
X8914384Y7362952D02*
G01*
X8914384Y7305802D01*
X8952484Y7362952D02*
G01*
X8914384Y7324852D01*
X8927845Y7338568D02*
G01*
X8952484Y7305802D01*
X9080500Y7072629D02*
G01*
X9085834Y7075423D01*
X9094215Y7083552D01*
X9094215Y7026402D01*
X9128506Y7083552D02*
G01*
X9120377Y7081012D01*
X9114790Y7072629D01*
X9112250Y7059168D01*
X9112250Y7051039D01*
X9114790Y7037323D01*
X9120377Y7029195D01*
X9128506Y7026402D01*
X9133840Y7026402D01*
X9142222Y7029195D01*
X9147556Y7037323D01*
X9150350Y7051039D01*
X9150350Y7059168D01*
X9147556Y7072629D01*
X9142222Y7081012D01*
X9133840Y7083552D01*
X9128506Y7083552D01*
X9168384Y7083552D02*
G01*
X9168384Y7026402D01*
X9206484Y7083552D02*
G01*
X9168384Y7045452D01*
X9181845Y7059168D02*
G01*
X9206484Y7026402D01*
X9359900Y8411971D02*
G01*
X9359900Y8335518D01*
X9410700Y8411971D02*
G01*
X9410700Y8335518D01*
X9359900Y8375650D02*
G01*
X9410700Y8375650D01*
X9434829Y8397494D02*
G01*
X9442195Y8401050D01*
X9452863Y8411971D01*
X9452863Y8335518D01*
X9576561Y8411971D02*
G01*
X9540240Y8411971D01*
X9536684Y8379205D01*
X9540240Y8382762D01*
X9551161Y8386571D01*
X9562084Y8386571D01*
X9573006Y8382762D01*
X9580372Y8375650D01*
X9583927Y8364728D01*
X9583927Y8357362D01*
X9580372Y8346439D01*
X9573006Y8339073D01*
X9562084Y8335518D01*
X9551161Y8335518D01*
X9540240Y8339073D01*
X9536684Y8342884D01*
X9532874Y8349995D01*
X9607804Y8411971D02*
G01*
X9637013Y8335518D01*
X9665970Y8411971D02*
G01*
X9637013Y8335518D01*
X9156700Y8156194D02*
G01*
X9164065Y8159750D01*
X9174988Y8170671D01*
X9174988Y8094218D01*
X9254997Y8170671D02*
G01*
X9283954Y8094218D01*
X9313163Y8170671D02*
G01*
X9283954Y8094218D01*
X9391650Y8152384D02*
G01*
X9388093Y8159750D01*
X9380727Y8167115D01*
X9373361Y8170671D01*
X9358884Y8170671D01*
X9351518Y8167115D01*
X9344406Y8159750D01*
X9340595Y8152384D01*
X9337040Y8141462D01*
X9337040Y8123428D01*
X9340595Y8112505D01*
X9344406Y8105139D01*
X9351518Y8097773D01*
X9358884Y8094218D01*
X9373361Y8094218D01*
X9380727Y8097773D01*
X9388093Y8105139D01*
X9391650Y8112505D01*
X9470136Y8152384D02*
G01*
X9466579Y8159750D01*
X9459213Y8167115D01*
X9451847Y8170671D01*
X9437370Y8170671D01*
X9430258Y8167115D01*
X9422891Y8159750D01*
X9419336Y8152384D01*
X9415525Y8141462D01*
X9415525Y8123428D01*
X9419336Y8112505D01*
X9422891Y8105139D01*
X9430258Y8097773D01*
X9437370Y8094218D01*
X9451847Y8094218D01*
X9459213Y8097773D01*
X9466579Y8105139D01*
X9470136Y8112505D01*
X9160256Y7898384D02*
G01*
X9160256Y7902194D01*
X9164065Y7909305D01*
X9167622Y7913115D01*
X9174988Y7916671D01*
X9189465Y7916671D01*
X9196577Y7913115D01*
X9200388Y7909305D01*
X9203943Y7902194D01*
X9203943Y7894828D01*
X9200388Y7887462D01*
X9193022Y7876539D01*
X9156700Y7840218D01*
X9207500Y7840218D01*
X9287509Y7916671D02*
G01*
X9316720Y7840218D01*
X9345675Y7916671D02*
G01*
X9316720Y7840218D01*
X9369806Y7916671D02*
G01*
X9369806Y7840218D01*
X9369806Y7916671D02*
G01*
X9395206Y7916671D01*
X9406127Y7913115D01*
X9413493Y7905750D01*
X9417050Y7898384D01*
X9420606Y7887462D01*
X9420606Y7869428D01*
X9417050Y7858505D01*
X9413493Y7851139D01*
X9406127Y7843773D01*
X9395206Y7840218D01*
X9369806Y7840218D01*
X9444736Y7916671D02*
G01*
X9444736Y7840218D01*
X9444736Y7916671D02*
G01*
X9470136Y7916671D01*
X9481058Y7913115D01*
X9488424Y7905750D01*
X9491979Y7898384D01*
X9495536Y7887462D01*
X9495536Y7869428D01*
X9491979Y7858505D01*
X9488424Y7851139D01*
X9481058Y7843773D01*
X9470136Y7840218D01*
X9444736Y7840218D01*
X9296400Y7637271D02*
G01*
X9296400Y7560818D01*
X9347200Y7637271D02*
G01*
X9347200Y7560818D01*
X9296400Y7600950D02*
G01*
X9347200Y7600950D01*
X9374886Y7618984D02*
G01*
X9374886Y7622794D01*
X9378695Y7629905D01*
X9382252Y7633715D01*
X9389363Y7637271D01*
X9404095Y7637271D01*
X9411208Y7633715D01*
X9415018Y7629905D01*
X9418574Y7622794D01*
X9418574Y7615428D01*
X9415018Y7608062D01*
X9407652Y7597139D01*
X9371329Y7560818D01*
X9422129Y7560818D01*
X9502140Y7637271D02*
G01*
X9502140Y7560818D01*
X9502140Y7637271D02*
G01*
X9534906Y7637271D01*
X9545827Y7633715D01*
X9549384Y7629905D01*
X9553193Y7622794D01*
X9553193Y7615428D01*
X9549384Y7608062D01*
X9545827Y7604505D01*
X9534906Y7600950D01*
X9502140Y7600950D02*
G01*
X9534906Y7600950D01*
X9545827Y7597139D01*
X9549384Y7593584D01*
X9553193Y7586218D01*
X9553193Y7575295D01*
X9549384Y7568184D01*
X9545827Y7564373D01*
X9534906Y7560818D01*
X9502140Y7560818D01*
X9631679Y7618984D02*
G01*
X9628124Y7626350D01*
X9620758Y7633715D01*
X9613391Y7637271D01*
X9598913Y7637271D01*
X9591547Y7633715D01*
X9584436Y7626350D01*
X9580879Y7618984D01*
X9577070Y7608062D01*
X9577070Y7590028D01*
X9580879Y7579105D01*
X9584436Y7571739D01*
X9591547Y7564373D01*
X9598913Y7560818D01*
X9613391Y7560818D01*
X9620758Y7564373D01*
X9628124Y7571739D01*
X9631679Y7579105D01*
X9655556Y7637271D02*
G01*
X9655556Y7560818D01*
X9655556Y7637271D02*
G01*
X9681209Y7637271D01*
X9692131Y7633715D01*
X9699243Y7626350D01*
X9703054Y7618984D01*
X9706609Y7608062D01*
X9706609Y7590028D01*
X9703054Y7579105D01*
X9699243Y7571739D01*
X9692131Y7564373D01*
X9681209Y7560818D01*
X9655556Y7560818D01*
X9786620Y7637271D02*
G01*
X9786620Y7560818D01*
X9810495Y7611871D02*
G01*
X9810495Y7560818D01*
X9810495Y7597139D02*
G01*
X9821418Y7608062D01*
X9828784Y7611871D01*
X9839706Y7611871D01*
X9847072Y7608062D01*
X9850627Y7597139D01*
X9850627Y7560818D01*
X9271000Y7394194D02*
G01*
X9278365Y7397750D01*
X9289288Y7408671D01*
X9289288Y7332218D01*
X9412731Y7383271D02*
G01*
X9412731Y7332218D01*
X9412731Y7372350D02*
G01*
X9405620Y7379462D01*
X9398254Y7383271D01*
X9387331Y7383271D01*
X9379965Y7379462D01*
X9372854Y7372350D01*
X9369297Y7361428D01*
X9369297Y7354062D01*
X9372854Y7343139D01*
X9379965Y7335773D01*
X9387331Y7332218D01*
X9398254Y7332218D01*
X9405620Y7335773D01*
X9412731Y7343139D01*
X9274556Y7136384D02*
G01*
X9274556Y7140194D01*
X9278365Y7147305D01*
X9281922Y7151115D01*
X9289288Y7154671D01*
X9303765Y7154671D01*
X9310877Y7151115D01*
X9314688Y7147305D01*
X9318243Y7140194D01*
X9318243Y7132828D01*
X9314688Y7125462D01*
X9307322Y7114539D01*
X9271000Y7078218D01*
X9321800Y7078218D01*
X9401809Y7154671D02*
G01*
X9401809Y7078218D01*
X9401809Y7118350D02*
G01*
X9409175Y7125462D01*
X9416541Y7129271D01*
X9427463Y7129271D01*
X9434575Y7125462D01*
X9441941Y7118350D01*
X9445497Y7107428D01*
X9445497Y7100062D01*
X9441941Y7089139D01*
X9434575Y7081773D01*
X9427463Y7078218D01*
X9416541Y7078218D01*
X9409175Y7081773D01*
X9401809Y7089139D01*
X9278365Y6913371D02*
G01*
X9318243Y6913371D01*
X9296400Y6884162D01*
X9307322Y6884162D01*
X9314688Y6880605D01*
X9318243Y6877050D01*
X9321800Y6866128D01*
X9321800Y6858762D01*
X9318243Y6847839D01*
X9310877Y6840473D01*
X9300209Y6836918D01*
X9289288Y6836918D01*
X9278365Y6840473D01*
X9274556Y6844284D01*
X9271000Y6851395D01*
X9445497Y6877050D02*
G01*
X9438386Y6884162D01*
X9431020Y6887971D01*
X9420097Y6887971D01*
X9412731Y6884162D01*
X9405620Y6877050D01*
X9401809Y6866128D01*
X9401809Y6858762D01*
X9405620Y6847839D01*
X9412731Y6840473D01*
X9420097Y6836918D01*
X9431020Y6836918D01*
X9438386Y6840473D01*
X9445497Y6847839D01*
X9200388Y6633971D02*
G01*
X9200388Y6557518D01*
X9200388Y6597650D02*
G01*
X9193022Y6604762D01*
X9185909Y6608571D01*
X9174988Y6608571D01*
X9167622Y6604762D01*
X9160256Y6597650D01*
X9156700Y6586728D01*
X9156700Y6579362D01*
X9160256Y6568439D01*
X9167622Y6561073D01*
X9174988Y6557518D01*
X9185909Y6557518D01*
X9193022Y6561073D01*
X9200388Y6568439D01*
X9278365Y6659371D02*
G01*
X9318243Y6659371D01*
X9296400Y6630162D01*
X9307322Y6630162D01*
X9314688Y6626605D01*
X9318243Y6623050D01*
X9321800Y6612128D01*
X9321800Y6604762D01*
X9318243Y6593839D01*
X9310877Y6586473D01*
X9300209Y6582918D01*
X9289288Y6582918D01*
X9278365Y6586473D01*
X9274556Y6590284D01*
X9271000Y6597395D01*
X9445497Y6659371D02*
G01*
X9445497Y6582918D01*
X9445497Y6623050D02*
G01*
X9438386Y6630162D01*
X9431020Y6633971D01*
X9420097Y6633971D01*
X9412731Y6630162D01*
X9405620Y6623050D01*
X9401809Y6612128D01*
X9401809Y6604762D01*
X9405620Y6593839D01*
X9412731Y6586473D01*
X9420097Y6582918D01*
X9431020Y6582918D01*
X9438386Y6586473D01*
X9445497Y6593839D01*
X9271000Y1071371D02*
G01*
X9271000Y994918D01*
X9321800Y1071371D02*
G01*
X9321800Y994918D01*
X9271000Y1035050D02*
G01*
X9321800Y1035050D01*
X9353295Y1071371D02*
G01*
X9393174Y1071371D01*
X9371329Y1042162D01*
X9382252Y1042162D01*
X9389618Y1038605D01*
X9393174Y1035050D01*
X9396729Y1024128D01*
X9396729Y1016762D01*
X9393174Y1005839D01*
X9385808Y998473D01*
X9374886Y994918D01*
X9363963Y994918D01*
X9353295Y998473D01*
X9349486Y1002284D01*
X9345929Y1009395D01*
X9505950Y1071371D02*
G01*
X9476740Y994918D01*
X9505950Y1071371D02*
G01*
X9534906Y994918D01*
X9487661Y1020318D02*
G01*
X9523984Y1020318D01*
X9613645Y1053084D02*
G01*
X9609836Y1060450D01*
X9602724Y1067815D01*
X9595358Y1071371D01*
X9580879Y1071371D01*
X9573513Y1067815D01*
X9566147Y1060450D01*
X9562591Y1053084D01*
X9559036Y1042162D01*
X9559036Y1024128D01*
X9562591Y1013205D01*
X9566147Y1005839D01*
X9573513Y998473D01*
X9580879Y994918D01*
X9595358Y994918D01*
X9602724Y998473D01*
X9609836Y1005839D01*
X9613645Y1013205D01*
X9692131Y1053084D02*
G01*
X9688575Y1060450D01*
X9681209Y1067815D01*
X9673843Y1071371D01*
X9659365Y1071371D01*
X9652000Y1067815D01*
X9644888Y1060450D01*
X9641077Y1053084D01*
X9637522Y1042162D01*
X9637522Y1024128D01*
X9641077Y1013205D01*
X9644888Y1005839D01*
X9652000Y998473D01*
X9659365Y994918D01*
X9673843Y994918D01*
X9681209Y998473D01*
X9688575Y1005839D01*
X9692131Y1013205D01*
X9772141Y1071371D02*
G01*
X9772141Y994918D01*
X9796018Y1045971D02*
G01*
X9796018Y994918D01*
X9796018Y1031239D02*
G01*
X9806940Y1042162D01*
X9814306Y1045971D01*
X9825227Y1045971D01*
X9832340Y1042162D01*
X9836150Y1031239D01*
X9836150Y994918D01*
X9105900Y1793494D02*
G01*
X9113265Y1797050D01*
X9124188Y1807971D01*
X9124188Y1731518D01*
X9204197Y1807971D02*
G01*
X9204197Y1731518D01*
X9204197Y1807971D02*
G01*
X9236709Y1807971D01*
X9247631Y1804415D01*
X9251441Y1800605D01*
X9254997Y1793494D01*
X9254997Y1786128D01*
X9251441Y1778762D01*
X9247631Y1775205D01*
X9236709Y1771650D01*
X9204197Y1771650D02*
G01*
X9236709Y1771650D01*
X9247631Y1767839D01*
X9251441Y1764284D01*
X9254997Y1756918D01*
X9254997Y1745995D01*
X9251441Y1738884D01*
X9247631Y1735073D01*
X9236709Y1731518D01*
X9204197Y1731518D01*
X9308084Y1807971D02*
G01*
X9278874Y1731518D01*
X9308084Y1807971D02*
G01*
X9337293Y1731518D01*
X9289795Y1756918D02*
G01*
X9326372Y1756918D01*
X9361170Y1807971D02*
G01*
X9361170Y1731518D01*
X9361170Y1807971D02*
G01*
X9411970Y1731518D01*
X9411970Y1807971D02*
G01*
X9411970Y1731518D01*
X9436100Y1807971D02*
G01*
X9436100Y1731518D01*
X9436100Y1807971D02*
G01*
X9461500Y1807971D01*
X9472422Y1804415D01*
X9479788Y1797050D01*
X9483343Y1789684D01*
X9486900Y1778762D01*
X9486900Y1760728D01*
X9483343Y1749805D01*
X9479788Y1742439D01*
X9472422Y1735073D01*
X9461500Y1731518D01*
X9436100Y1731518D01*
X8957056Y1548384D02*
G01*
X8957056Y1552194D01*
X8960865Y1559305D01*
X8964422Y1563115D01*
X8971788Y1566671D01*
X8986265Y1566671D01*
X8993377Y1563115D01*
X8997188Y1559305D01*
X9000743Y1552194D01*
X9000743Y1544828D01*
X8997188Y1537462D01*
X8989822Y1526539D01*
X8953500Y1490218D01*
X9004300Y1490218D01*
X9084309Y1566671D02*
G01*
X9084309Y1490218D01*
X9084309Y1566671D02*
G01*
X9117075Y1566671D01*
X9127997Y1563115D01*
X9131808Y1559305D01*
X9135363Y1552194D01*
X9135363Y1541271D01*
X9131808Y1533905D01*
X9127997Y1530350D01*
X9117075Y1526539D01*
X9084309Y1526539D01*
X9181084Y1566671D02*
G01*
X9173972Y1563115D01*
X9166606Y1555750D01*
X9163050Y1548384D01*
X9159240Y1537462D01*
X9159240Y1519428D01*
X9163050Y1508505D01*
X9166606Y1501139D01*
X9173972Y1493773D01*
X9181084Y1490218D01*
X9195561Y1490218D01*
X9202927Y1493773D01*
X9210293Y1501139D01*
X9213850Y1508505D01*
X9217406Y1519428D01*
X9217406Y1537462D01*
X9213850Y1548384D01*
X9210293Y1555750D01*
X9202927Y1563115D01*
X9195561Y1566671D01*
X9181084Y1566671D01*
X9241536Y1566671D02*
G01*
X9259570Y1490218D01*
X9277858Y1566671D02*
G01*
X9259570Y1490218D01*
X9277858Y1566671D02*
G01*
X9296145Y1490218D01*
X9314179Y1566671D02*
G01*
X9296145Y1490218D01*
X9338309Y1566671D02*
G01*
X9338309Y1490218D01*
X9338309Y1566671D02*
G01*
X9385554Y1566671D01*
X9338309Y1530350D02*
G01*
X9367265Y1530350D01*
X9338309Y1490218D02*
G01*
X9385554Y1490218D01*
X9409429Y1566671D02*
G01*
X9409429Y1490218D01*
X9409429Y1566671D02*
G01*
X9442195Y1566671D01*
X9453118Y1563115D01*
X9456674Y1559305D01*
X9460484Y1552194D01*
X9460484Y1544828D01*
X9456674Y1537462D01*
X9453118Y1533905D01*
X9442195Y1530350D01*
X9409429Y1530350D01*
X9434829Y1530350D02*
G01*
X9460484Y1490218D01*
X9138665Y1299971D02*
G01*
X9178543Y1299971D01*
X9156700Y1270762D01*
X9167622Y1270762D01*
X9174988Y1267205D01*
X9178543Y1263650D01*
X9182100Y1252728D01*
X9182100Y1245362D01*
X9178543Y1234439D01*
X9171177Y1227073D01*
X9160509Y1223518D01*
X9149588Y1223518D01*
X9138665Y1227073D01*
X9134856Y1230884D01*
X9131300Y1237995D01*
X9316720Y1281684D02*
G01*
X9313163Y1289050D01*
X9305797Y1296415D01*
X9298686Y1299971D01*
X9283954Y1299971D01*
X9276841Y1296415D01*
X9269475Y1289050D01*
X9265920Y1281684D01*
X9262109Y1270762D01*
X9262109Y1252728D01*
X9265920Y1241805D01*
X9269475Y1234439D01*
X9276841Y1227073D01*
X9283954Y1223518D01*
X9298686Y1223518D01*
X9305797Y1227073D01*
X9313163Y1234439D01*
X9316720Y1241805D01*
X9316720Y1252728D01*
X9298686Y1252728D02*
G01*
X9316720Y1252728D01*
X9340850Y1299971D02*
G01*
X9340850Y1223518D01*
X9340850Y1299971D02*
G01*
X9391650Y1223518D01*
X9391650Y1299971D02*
G01*
X9391650Y1223518D01*
X9415779Y1299971D02*
G01*
X9415779Y1223518D01*
X9415779Y1299971D02*
G01*
X9441179Y1299971D01*
X9452102Y1296415D01*
X9459213Y1289050D01*
X9463024Y1281684D01*
X9466579Y1270762D01*
X9466579Y1252728D01*
X9463024Y1241805D01*
X9459213Y1234439D01*
X9452102Y1227073D01*
X9441179Y1223518D01*
X9415779Y1223518D01*
X6311900Y790194D02*
G01*
X6319265Y793750D01*
X6330188Y804671D01*
X6330188Y728218D01*
X6074156Y786384D02*
G01*
X6074156Y790194D01*
X6077965Y797305D01*
X6081522Y801115D01*
X6088888Y804671D01*
X6103365Y804671D01*
X6110477Y801115D01*
X6114288Y797305D01*
X6117843Y790194D01*
X6117843Y782828D01*
X6114288Y775462D01*
X6106922Y764539D01*
X6070600Y728218D01*
X6121400Y728218D01*
X5823965Y804671D02*
G01*
X5863843Y804671D01*
X5842000Y775462D01*
X5852922Y775462D01*
X5860288Y771905D01*
X5863843Y768350D01*
X5867400Y757428D01*
X5867400Y750062D01*
X5863843Y739139D01*
X5856477Y731773D01*
X5845809Y728218D01*
X5834888Y728218D01*
X5823965Y731773D01*
X5820156Y735584D01*
X5816600Y742695D01*
X5598922Y804671D02*
G01*
X5562600Y753618D01*
X5617209Y753618D01*
X5598922Y804671D02*
G01*
X5598922Y728218D01*
X5339588Y804671D02*
G01*
X5303265Y804671D01*
X5299456Y771905D01*
X5303265Y775462D01*
X5314188Y779271D01*
X5325109Y779271D01*
X5335777Y775462D01*
X5343143Y768350D01*
X5346700Y757428D01*
X5346700Y750062D01*
X5343143Y739139D01*
X5335777Y731773D01*
X5325109Y728218D01*
X5314188Y728218D01*
X5303265Y731773D01*
X5299456Y735584D01*
X5295900Y742695D01*
X5110988Y793750D02*
G01*
X5107177Y801115D01*
X5096509Y804671D01*
X5089143Y804671D01*
X5078222Y801115D01*
X5070856Y790194D01*
X5067300Y771905D01*
X5067300Y753618D01*
X5070856Y739139D01*
X5078222Y731773D01*
X5089143Y728218D01*
X5092700Y728218D01*
X5103622Y731773D01*
X5110988Y739139D01*
X5114543Y750062D01*
X5114543Y753618D01*
X5110988Y764539D01*
X5103622Y771905D01*
X5092700Y775462D01*
X5089143Y775462D01*
X5078222Y771905D01*
X5070856Y764539D01*
X5067300Y753618D01*
X4864100Y804671D02*
G01*
X4827777Y728218D01*
X4813300Y804671D02*
G01*
X4864100Y804671D01*
X4564888Y804671D02*
G01*
X4553965Y801115D01*
X4550156Y793750D01*
X4550156Y786384D01*
X4553965Y779271D01*
X4561077Y775462D01*
X4575809Y771905D01*
X4586477Y768350D01*
X4593843Y760984D01*
X4597400Y753618D01*
X4597400Y742695D01*
X4593843Y735584D01*
X4590288Y731773D01*
X4579365Y728218D01*
X4564888Y728218D01*
X4553965Y731773D01*
X4550156Y735584D01*
X4546600Y742695D01*
X4546600Y753618D01*
X4550156Y760984D01*
X4557522Y768350D01*
X4568443Y771905D01*
X4582922Y775462D01*
X4590288Y779271D01*
X4593843Y786384D01*
X4593843Y793750D01*
X4590288Y801115D01*
X4579365Y804671D01*
X4564888Y804671D01*
X3911600Y804671D02*
G01*
X3911600Y728218D01*
X3962400Y804671D02*
G01*
X3962400Y728218D01*
X3911600Y768350D02*
G01*
X3962400Y768350D01*
X4030218Y804671D02*
G01*
X3993895Y804671D01*
X3990086Y771905D01*
X3993895Y775462D01*
X4004563Y779271D01*
X4015486Y779271D01*
X4026408Y775462D01*
X4033774Y768350D01*
X4037329Y757428D01*
X4037329Y750062D01*
X4033774Y739139D01*
X4026408Y731773D01*
X4015486Y728218D01*
X4004563Y728218D01*
X3993895Y731773D01*
X3990086Y735584D01*
X3986529Y742695D01*
X4146550Y804671D02*
G01*
X4117340Y728218D01*
X4146550Y804671D02*
G01*
X4175506Y728218D01*
X4128261Y753618D02*
G01*
X4164584Y753618D01*
X4199636Y779271D02*
G01*
X4199636Y728218D01*
X4199636Y764539D02*
G01*
X4210558Y775462D01*
X4217670Y779271D01*
X4228591Y779271D01*
X4235958Y775462D01*
X4239513Y764539D01*
X4239513Y728218D01*
X4274565Y804671D02*
G01*
X4274565Y742695D01*
X4278122Y731773D01*
X4285488Y728218D01*
X4292600Y728218D01*
X4263643Y779271D02*
G01*
X4289043Y779271D01*
X4320286Y746505D02*
G01*
X4316729Y742695D01*
X4320286Y739139D01*
X4323841Y742695D01*
X4320286Y746505D01*
X4347972Y804671D02*
G01*
X4347972Y728218D01*
X4347972Y804671D02*
G01*
X4380738Y804671D01*
X4391659Y801115D01*
X4395215Y797305D01*
X4398772Y790194D01*
X4398772Y782828D01*
X4395215Y775462D01*
X4391659Y771905D01*
X4380738Y768350D01*
X4347972Y768350D01*
X4373372Y768350D02*
G01*
X4398772Y728218D01*
X4422902Y757428D02*
G01*
X4466590Y757428D01*
X4466590Y764539D01*
X4462779Y771905D01*
X4459224Y775462D01*
X4451858Y779271D01*
X4440936Y779271D01*
X4433824Y775462D01*
X4426458Y768350D01*
X4422902Y757428D01*
X4422902Y750062D01*
X4426458Y739139D01*
X4433824Y731773D01*
X4440936Y728218D01*
X4451858Y728218D01*
X4459224Y731773D01*
X4466590Y739139D01*
X4490465Y804671D02*
G01*
X4490465Y728218D01*
X6477000Y779271D02*
G01*
X6477000Y702818D01*
X6527800Y779271D02*
G01*
X6527800Y702818D01*
X6477000Y742950D02*
G01*
X6527800Y742950D01*
X6588252Y779271D02*
G01*
X6551929Y728218D01*
X6606540Y728218D01*
X6588252Y779271D02*
G01*
X6588252Y702818D01*
X6686550Y779271D02*
G01*
X6686550Y702818D01*
X6686550Y779271D02*
G01*
X6719061Y779271D01*
X6729984Y775715D01*
X6733793Y771905D01*
X6737350Y764794D01*
X6737350Y753871D01*
X6733793Y746505D01*
X6729984Y742950D01*
X6719061Y739139D01*
X6686550Y739139D01*
X6779513Y753871D02*
G01*
X6772147Y750062D01*
X6765036Y742950D01*
X6761479Y732028D01*
X6761479Y724662D01*
X6765036Y713739D01*
X6772147Y706373D01*
X6779513Y702818D01*
X6790436Y702818D01*
X6797802Y706373D01*
X6804913Y713739D01*
X6808724Y724662D01*
X6808724Y732028D01*
X6804913Y742950D01*
X6797802Y750062D01*
X6790436Y753871D01*
X6779513Y753871D01*
X6832600Y753871D02*
G01*
X6847077Y702818D01*
X6861809Y753871D02*
G01*
X6847077Y702818D01*
X6861809Y753871D02*
G01*
X6876288Y702818D01*
X6890765Y753871D02*
G01*
X6876288Y702818D01*
X6914895Y732028D02*
G01*
X6958329Y732028D01*
X6958329Y739139D01*
X6954774Y746505D01*
X6951218Y750062D01*
X6943852Y753871D01*
X6932929Y753871D01*
X6925818Y750062D01*
X6918452Y742950D01*
X6914895Y732028D01*
X6914895Y724662D01*
X6918452Y713739D01*
X6925818Y706373D01*
X6932929Y702818D01*
X6943852Y702818D01*
X6951218Y706373D01*
X6958329Y713739D01*
X6982459Y753871D02*
G01*
X6982459Y702818D01*
X6982459Y732028D02*
G01*
X6986015Y742950D01*
X6993381Y750062D01*
X7000747Y753871D01*
X7011670Y753871D01*
X7091425Y779271D02*
G01*
X7091425Y702818D01*
X7115556Y753871D02*
G01*
X7115556Y702818D01*
X7115556Y739139D02*
G01*
X7126477Y750062D01*
X7133843Y753871D01*
X7144511Y753871D01*
X7151877Y750062D01*
X7155434Y739139D01*
X7155434Y702818D01*
X7268209Y768350D02*
G01*
X7268209Y702818D01*
X7235443Y735584D02*
G01*
X7300975Y735584D01*
X7325106Y764794D02*
G01*
X7332218Y768350D01*
X7343140Y779271D01*
X7343140Y702818D01*
X7374381Y779271D02*
G01*
X7414513Y779271D01*
X7392670Y750062D01*
X7403591Y750062D01*
X7410704Y746505D01*
X7414513Y742950D01*
X7418070Y732028D01*
X7418070Y724662D01*
X7414513Y713739D01*
X7407147Y706373D01*
X7396225Y702818D01*
X7385304Y702818D01*
X7374381Y706373D01*
X7370825Y710184D01*
X7367270Y717295D01*
X7445756Y721105D02*
G01*
X7442200Y717295D01*
X7445756Y713739D01*
X7449311Y717295D01*
X7445756Y721105D01*
X7491475Y779271D02*
G01*
X7480554Y775715D01*
X7476997Y768350D01*
X7476997Y760984D01*
X7480554Y753871D01*
X7487920Y750062D01*
X7502397Y746505D01*
X7513320Y742950D01*
X7520686Y735584D01*
X7524241Y728218D01*
X7524241Y717295D01*
X7520686Y710184D01*
X7516875Y706373D01*
X7506208Y702818D01*
X7491475Y702818D01*
X7480554Y706373D01*
X7476997Y710184D01*
X7473441Y717295D01*
X7473441Y728218D01*
X7476997Y735584D01*
X7484363Y742950D01*
X7495286Y746505D01*
X7509763Y750062D01*
X7516875Y753871D01*
X7520686Y760984D01*
X7520686Y768350D01*
X7516875Y775715D01*
X7506208Y779271D01*
X7491475Y779271D01*
X7548372Y779271D02*
G01*
X7577327Y702818D01*
X7606538Y779271D02*
G01*
X7577327Y702818D01*
X3352800Y3852671D02*
G01*
X3352800Y3776218D01*
X3403600Y3852671D02*
G01*
X3403600Y3776218D01*
X3352800Y3816350D02*
G01*
X3403600Y3816350D01*
X3471418Y3841750D02*
G01*
X3467608Y3849115D01*
X3456686Y3852671D01*
X3449574Y3852671D01*
X3438652Y3849115D01*
X3431286Y3838194D01*
X3427729Y3819905D01*
X3427729Y3801618D01*
X3431286Y3787139D01*
X3438652Y3779773D01*
X3449574Y3776218D01*
X3453129Y3776218D01*
X3464052Y3779773D01*
X3471418Y3787139D01*
X3474974Y3798062D01*
X3474974Y3801618D01*
X3471418Y3812539D01*
X3464052Y3819905D01*
X3453129Y3823462D01*
X3449574Y3823462D01*
X3438652Y3819905D01*
X3431286Y3812539D01*
X3427729Y3801618D01*
X3605784Y3841750D02*
G01*
X3598672Y3849115D01*
X3587750Y3852671D01*
X3573272Y3852671D01*
X3562350Y3849115D01*
X3554984Y3841750D01*
X3554984Y3834384D01*
X3558540Y3827271D01*
X3562350Y3823462D01*
X3569461Y3819905D01*
X3591306Y3812539D01*
X3598672Y3808984D01*
X3602227Y3805428D01*
X3605784Y3798062D01*
X3605784Y3787139D01*
X3598672Y3779773D01*
X3587750Y3776218D01*
X3573272Y3776218D01*
X3562350Y3779773D01*
X3554984Y3787139D01*
X3629913Y3852671D02*
G01*
X3629913Y3776218D01*
X3629913Y3852671D02*
G01*
X3662679Y3852671D01*
X3673602Y3849115D01*
X3677158Y3845305D01*
X3680713Y3838194D01*
X3680713Y3827271D01*
X3677158Y3819905D01*
X3673602Y3816350D01*
X3662679Y3812539D01*
X3629913Y3812539D01*
X3704843Y3852671D02*
G01*
X3704843Y3776218D01*
X3784854Y3852671D02*
G01*
X3784854Y3776218D01*
X3784854Y3852671D02*
G01*
X3817620Y3852671D01*
X3828541Y3849115D01*
X3832097Y3845305D01*
X3835654Y3838194D01*
X3835654Y3827271D01*
X3832097Y3819905D01*
X3828541Y3816350D01*
X3817620Y3812539D01*
X3784854Y3812539D01*
X3877818Y3827271D02*
G01*
X3870706Y3823462D01*
X3863340Y3816350D01*
X3859784Y3805428D01*
X3859784Y3798062D01*
X3863340Y3787139D01*
X3870706Y3779773D01*
X3877818Y3776218D01*
X3888740Y3776218D01*
X3896106Y3779773D01*
X3903472Y3787139D01*
X3907027Y3798062D01*
X3907027Y3805428D01*
X3903472Y3816350D01*
X3896106Y3823462D01*
X3888740Y3827271D01*
X3877818Y3827271D01*
X3930904Y3827271D02*
G01*
X3930904Y3776218D01*
X3930904Y3805428D02*
G01*
X3934713Y3816350D01*
X3941825Y3823462D01*
X3949191Y3827271D01*
X3960113Y3827271D01*
X3994911Y3852671D02*
G01*
X3994911Y3790695D01*
X3998722Y3779773D01*
X4005834Y3776218D01*
X4013200Y3776218D01*
X3983990Y3827271D02*
G01*
X4009643Y3827271D01*
X3365500Y5173471D02*
G01*
X3365500Y5097018D01*
X3416300Y5173471D02*
G01*
X3416300Y5097018D01*
X3365500Y5137150D02*
G01*
X3416300Y5137150D01*
X3491229Y5173471D02*
G01*
X3454908Y5097018D01*
X3440429Y5173471D02*
G01*
X3491229Y5173471D01*
X3571240Y5173471D02*
G01*
X3571240Y5097018D01*
X3571240Y5173471D02*
G01*
X3596893Y5173471D01*
X3607561Y5169915D01*
X3614927Y5162550D01*
X3618484Y5155184D01*
X3622293Y5144262D01*
X3622293Y5126228D01*
X3618484Y5115305D01*
X3614927Y5107939D01*
X3607561Y5100573D01*
X3596893Y5097018D01*
X3571240Y5097018D01*
X3646170Y5173471D02*
G01*
X3649979Y5169915D01*
X3653536Y5173471D01*
X3649979Y5177028D01*
X3646170Y5173471D01*
X3649979Y5148071D02*
G01*
X3649979Y5097018D01*
X3721100Y5148071D02*
G01*
X3721100Y5089905D01*
X3717543Y5078984D01*
X3713988Y5075173D01*
X3706622Y5071618D01*
X3695700Y5071618D01*
X3688334Y5075173D01*
X3721100Y5137150D02*
G01*
X3713988Y5144262D01*
X3706622Y5148071D01*
X3695700Y5148071D01*
X3688334Y5144262D01*
X3681222Y5137150D01*
X3677411Y5126228D01*
X3677411Y5118862D01*
X3681222Y5107939D01*
X3688334Y5100573D01*
X3695700Y5097018D01*
X3706622Y5097018D01*
X3713988Y5100573D01*
X3721100Y5107939D01*
X3745229Y5173471D02*
G01*
X3748786Y5169915D01*
X3752341Y5173471D01*
X3748786Y5177028D01*
X3745229Y5173471D01*
X3748786Y5148071D02*
G01*
X3748786Y5097018D01*
X3787393Y5173471D02*
G01*
X3787393Y5111495D01*
X3790950Y5100573D01*
X3798315Y5097018D01*
X3805427Y5097018D01*
X3776472Y5148071D02*
G01*
X3801872Y5148071D01*
X3873245Y5148071D02*
G01*
X3873245Y5097018D01*
X3873245Y5137150D02*
G01*
X3865879Y5144262D01*
X3858513Y5148071D01*
X3847591Y5148071D01*
X3840479Y5144262D01*
X3833113Y5137150D01*
X3829558Y5126228D01*
X3829558Y5118862D01*
X3833113Y5107939D01*
X3840479Y5100573D01*
X3847591Y5097018D01*
X3858513Y5097018D01*
X3865879Y5100573D01*
X3873245Y5107939D01*
X3897122Y5173471D02*
G01*
X3897122Y5097018D01*
X3977131Y5173471D02*
G01*
X3977131Y5097018D01*
X4066540Y5187950D02*
G01*
X4001261Y5071618D01*
X4112513Y5173471D02*
G01*
X4105147Y5169915D01*
X4097781Y5162550D01*
X4094225Y5155184D01*
X4090670Y5144262D01*
X4090670Y5126228D01*
X4094225Y5115305D01*
X4097781Y5107939D01*
X4105147Y5100573D01*
X4112513Y5097018D01*
X4126991Y5097018D01*
X4134104Y5100573D01*
X4141470Y5107939D01*
X4145025Y5115305D01*
X4148836Y5126228D01*
X4148836Y5144262D01*
X4145025Y5155184D01*
X4141470Y5162550D01*
X4134104Y5169915D01*
X4126991Y5173471D01*
X4112513Y5173471D01*
X3340100Y6125971D02*
G01*
X3340100Y6049518D01*
X3390900Y6125971D02*
G01*
X3390900Y6049518D01*
X3340100Y6089650D02*
G01*
X3390900Y6089650D01*
X3433063Y6125971D02*
G01*
X3422395Y6122415D01*
X3418586Y6115050D01*
X3418586Y6107684D01*
X3422395Y6100571D01*
X3429508Y6096762D01*
X3443986Y6093205D01*
X3454908Y6089650D01*
X3462274Y6082284D01*
X3465829Y6074918D01*
X3465829Y6063995D01*
X3462274Y6056884D01*
X3458718Y6053073D01*
X3447795Y6049518D01*
X3433063Y6049518D01*
X3422395Y6053073D01*
X3418586Y6056884D01*
X3415029Y6063995D01*
X3415029Y6074918D01*
X3418586Y6082284D01*
X3425952Y6089650D01*
X3436874Y6093205D01*
X3451352Y6096762D01*
X3458718Y6100571D01*
X3462274Y6107684D01*
X3462274Y6115050D01*
X3458718Y6122415D01*
X3447795Y6125971D01*
X3433063Y6125971D01*
X3545840Y6140450D02*
G01*
X3545840Y6024118D01*
X3549650Y6140450D02*
G01*
X3549650Y6024118D01*
X3545840Y6140450D02*
G01*
X3571493Y6140450D01*
X3545840Y6024118D02*
G01*
X3571493Y6024118D01*
X3595370Y6125971D02*
G01*
X3595370Y6049518D01*
X3595370Y6125971D02*
G01*
X3628136Y6125971D01*
X3639058Y6122415D01*
X3642613Y6118605D01*
X3646170Y6111494D01*
X3646170Y6104128D01*
X3642613Y6096762D01*
X3639058Y6093205D01*
X3628136Y6089650D01*
X3595370Y6089650D01*
X3620770Y6089650D02*
G01*
X3646170Y6049518D01*
X3670300Y6125971D02*
G01*
X3670300Y6049518D01*
X3670300Y6125971D02*
G01*
X3717543Y6125971D01*
X3670300Y6089650D02*
G01*
X3699256Y6089650D01*
X3670300Y6049518D02*
G01*
X3717543Y6049518D01*
X3741674Y6125971D02*
G01*
X3741674Y6049518D01*
X3741674Y6125971D02*
G01*
X3770629Y6049518D01*
X3799840Y6125971D02*
G01*
X3770629Y6049518D01*
X3799840Y6125971D02*
G01*
X3799840Y6049518D01*
X3845559Y6125971D02*
G01*
X3838193Y6122415D01*
X3831081Y6115050D01*
X3827272Y6107684D01*
X3823715Y6096762D01*
X3823715Y6078728D01*
X3827272Y6067805D01*
X3831081Y6060439D01*
X3838193Y6053073D01*
X3845559Y6049518D01*
X3860038Y6049518D01*
X3867404Y6053073D01*
X3874770Y6060439D01*
X3878325Y6067805D01*
X3881881Y6078728D01*
X3881881Y6096762D01*
X3878325Y6107684D01*
X3874770Y6115050D01*
X3867404Y6122415D01*
X3860038Y6125971D01*
X3845559Y6125971D01*
X3931411Y6125971D02*
G01*
X3931411Y6049518D01*
X3906011Y6125971D02*
G01*
X3956811Y6125971D01*
X3980941Y6125971D02*
G01*
X3980941Y6049518D01*
X3980941Y6125971D02*
G01*
X4028186Y6125971D01*
X3980941Y6089650D02*
G01*
X4009897Y6089650D01*
X3980941Y6049518D02*
G01*
X4028186Y6049518D01*
X4073906Y6140450D02*
G01*
X4073906Y6024118D01*
X4077461Y6140450D02*
G01*
X4077461Y6024118D01*
X4052061Y6140450D02*
G01*
X4077461Y6140450D01*
X4052061Y6024118D02*
G01*
X4077461Y6024118D01*
X4157472Y6125971D02*
G01*
X4157472Y6049518D01*
X4181602Y6100571D02*
G01*
X4181602Y6049518D01*
X4181602Y6085839D02*
G01*
X4192524Y6096762D01*
X4199636Y6100571D01*
X4210558Y6100571D01*
X4217924Y6096762D01*
X4221479Y6085839D01*
X4221479Y6049518D01*
X3352800Y6887971D02*
G01*
X3352800Y6811518D01*
X3403600Y6887971D02*
G01*
X3403600Y6811518D01*
X3352800Y6851650D02*
G01*
X3403600Y6851650D01*
X3474974Y6862571D02*
G01*
X3471418Y6851650D01*
X3464052Y6844284D01*
X3453129Y6840728D01*
X3449574Y6840728D01*
X3438652Y6844284D01*
X3431286Y6851650D01*
X3427729Y6862571D01*
X3427729Y6866128D01*
X3431286Y6877050D01*
X3438652Y6884415D01*
X3449574Y6887971D01*
X3453129Y6887971D01*
X3464052Y6884415D01*
X3471418Y6877050D01*
X3474974Y6862571D01*
X3474974Y6844284D01*
X3471418Y6825995D01*
X3464052Y6815073D01*
X3453129Y6811518D01*
X3445763Y6811518D01*
X3435095Y6815073D01*
X3431286Y6822439D01*
X3605784Y6877050D02*
G01*
X3598672Y6884415D01*
X3587750Y6887971D01*
X3573272Y6887971D01*
X3562350Y6884415D01*
X3554984Y6877050D01*
X3554984Y6869684D01*
X3558540Y6862571D01*
X3562350Y6858762D01*
X3569461Y6855205D01*
X3591306Y6847839D01*
X3598672Y6844284D01*
X3602227Y6840728D01*
X3605784Y6833362D01*
X3605784Y6822439D01*
X3598672Y6815073D01*
X3587750Y6811518D01*
X3573272Y6811518D01*
X3562350Y6815073D01*
X3554984Y6822439D01*
X3629913Y6840728D02*
G01*
X3673602Y6840728D01*
X3673602Y6847839D01*
X3669791Y6855205D01*
X3666236Y6858762D01*
X3658870Y6862571D01*
X3647947Y6862571D01*
X3640836Y6858762D01*
X3633470Y6851650D01*
X3629913Y6840728D01*
X3629913Y6833362D01*
X3633470Y6822439D01*
X3640836Y6815073D01*
X3647947Y6811518D01*
X3658870Y6811518D01*
X3666236Y6815073D01*
X3673602Y6822439D01*
X3697477Y6862571D02*
G01*
X3697477Y6811518D01*
X3697477Y6840728D02*
G01*
X3701288Y6851650D01*
X3708400Y6858762D01*
X3715765Y6862571D01*
X3726688Y6862571D01*
X3750563Y6887971D02*
G01*
X3754374Y6884415D01*
X3757929Y6887971D01*
X3754374Y6891528D01*
X3750563Y6887971D01*
X3754374Y6862571D02*
G01*
X3754374Y6811518D01*
X3825493Y6862571D02*
G01*
X3825493Y6811518D01*
X3825493Y6851650D02*
G01*
X3818127Y6858762D01*
X3811015Y6862571D01*
X3800093Y6862571D01*
X3792727Y6858762D01*
X3785615Y6851650D01*
X3781806Y6840728D01*
X3781806Y6833362D01*
X3785615Y6822439D01*
X3792727Y6815073D01*
X3800093Y6811518D01*
X3811015Y6811518D01*
X3818127Y6815073D01*
X3825493Y6822439D01*
X3849624Y6887971D02*
G01*
X3849624Y6811518D01*
X3929634Y6887971D02*
G01*
X3929634Y6811518D01*
X3929634Y6887971D02*
G01*
X3962145Y6887971D01*
X3973068Y6884415D01*
X3976877Y6880605D01*
X3980434Y6873494D01*
X3980434Y6862571D01*
X3976877Y6855205D01*
X3973068Y6851650D01*
X3962145Y6847839D01*
X3929634Y6847839D01*
X4022597Y6862571D02*
G01*
X4015231Y6858762D01*
X4008120Y6851650D01*
X4004309Y6840728D01*
X4004309Y6833362D01*
X4008120Y6822439D01*
X4015231Y6815073D01*
X4022597Y6811518D01*
X4033520Y6811518D01*
X4040886Y6815073D01*
X4047997Y6822439D01*
X4051808Y6833362D01*
X4051808Y6840728D01*
X4047997Y6851650D01*
X4040886Y6858762D01*
X4033520Y6862571D01*
X4022597Y6862571D01*
X4075684Y6862571D02*
G01*
X4075684Y6811518D01*
X4075684Y6840728D02*
G01*
X4079240Y6851650D01*
X4086606Y6858762D01*
X4093972Y6862571D01*
X4104893Y6862571D01*
X4139691Y6887971D02*
G01*
X4139691Y6825995D01*
X4143247Y6815073D01*
X4150613Y6811518D01*
X4157979Y6811518D01*
X4128770Y6862571D02*
G01*
X4154170Y6862571D01*
X4241545Y6869684D02*
G01*
X4241545Y6873494D01*
X4245102Y6880605D01*
X4248911Y6884415D01*
X4256024Y6887971D01*
X4270502Y6887971D01*
X4277868Y6884415D01*
X4281424Y6880605D01*
X4285234Y6873494D01*
X4285234Y6866128D01*
X4281424Y6858762D01*
X4274311Y6847839D01*
X4237990Y6811518D01*
X4288790Y6811518D01*
X3352800Y8183371D02*
G01*
X3352800Y8106918D01*
X3403600Y8183371D02*
G01*
X3403600Y8106918D01*
X3352800Y8147050D02*
G01*
X3403600Y8147050D01*
X3427729Y8168894D02*
G01*
X3435095Y8172450D01*
X3445763Y8183371D01*
X3445763Y8106918D01*
X3491738Y8183371D02*
G01*
X3480815Y8179815D01*
X3473450Y8168894D01*
X3469893Y8150605D01*
X3469893Y8139684D01*
X3473450Y8121395D01*
X3480815Y8110473D01*
X3491738Y8106918D01*
X3499104Y8106918D01*
X3509772Y8110473D01*
X3517138Y8121395D01*
X3520693Y8139684D01*
X3520693Y8150605D01*
X3517138Y8168894D01*
X3509772Y8179815D01*
X3499104Y8183371D01*
X3491738Y8183371D01*
X3600704Y8183371D02*
G01*
X3600704Y8106918D01*
X3628390Y8165084D02*
G01*
X3628390Y8168894D01*
X3631945Y8176005D01*
X3635756Y8179815D01*
X3642868Y8183371D01*
X3657600Y8183371D01*
X3664711Y8179815D01*
X3668522Y8176005D01*
X3672077Y8168894D01*
X3672077Y8161528D01*
X3668522Y8154162D01*
X3661156Y8143239D01*
X3624834Y8106918D01*
X3675634Y8106918D01*
X3754374Y8165084D02*
G01*
X3750563Y8172450D01*
X3743452Y8179815D01*
X3736086Y8183371D01*
X3721608Y8183371D01*
X3714241Y8179815D01*
X3706875Y8172450D01*
X3703320Y8165084D01*
X3699763Y8154162D01*
X3699763Y8136128D01*
X3703320Y8125205D01*
X3706875Y8117839D01*
X3714241Y8110473D01*
X3721608Y8106918D01*
X3736086Y8106918D01*
X3743452Y8110473D01*
X3750563Y8117839D01*
X3754374Y8125205D01*
X3834129Y8183371D02*
G01*
X3834129Y8106918D01*
X3834129Y8183371D02*
G01*
X3866895Y8183371D01*
X3877818Y8179815D01*
X3881627Y8176005D01*
X3885184Y8168894D01*
X3885184Y8157971D01*
X3881627Y8150605D01*
X3877818Y8147050D01*
X3866895Y8143239D01*
X3834129Y8143239D01*
X3927347Y8157971D02*
G01*
X3919981Y8154162D01*
X3912870Y8147050D01*
X3909059Y8136128D01*
X3909059Y8128762D01*
X3912870Y8117839D01*
X3919981Y8110473D01*
X3927347Y8106918D01*
X3938270Y8106918D01*
X3945636Y8110473D01*
X3952747Y8117839D01*
X3956558Y8128762D01*
X3956558Y8136128D01*
X3952747Y8147050D01*
X3945636Y8154162D01*
X3938270Y8157971D01*
X3927347Y8157971D01*
X3980434Y8157971D02*
G01*
X3980434Y8106918D01*
X3980434Y8136128D02*
G01*
X3983990Y8147050D01*
X3991356Y8154162D01*
X3998722Y8157971D01*
X4009643Y8157971D01*
X4044441Y8183371D02*
G01*
X4044441Y8121395D01*
X4047997Y8110473D01*
X4055363Y8106918D01*
X4062729Y8106918D01*
X4033520Y8157971D02*
G01*
X4058920Y8157971D01*
X4142740Y8183371D02*
G01*
X4142740Y8106918D01*
X4142740Y8183371D02*
G01*
X4168140Y8183371D01*
X4179061Y8179815D01*
X4186174Y8172450D01*
X4189984Y8165084D01*
X4193540Y8154162D01*
X4193540Y8136128D01*
X4189984Y8125205D01*
X4186174Y8117839D01*
X4179061Y8110473D01*
X4168140Y8106918D01*
X4142740Y8106918D01*
X4217415Y8183371D02*
G01*
X4221225Y8179815D01*
X4224781Y8183371D01*
X4221225Y8186928D01*
X4217415Y8183371D01*
X4221225Y8157971D02*
G01*
X4221225Y8106918D01*
X4288790Y8147050D02*
G01*
X4285234Y8154162D01*
X4274311Y8157971D01*
X4263390Y8157971D01*
X4252468Y8154162D01*
X4248911Y8147050D01*
X4252468Y8139684D01*
X4259834Y8136128D01*
X4277868Y8132318D01*
X4285234Y8128762D01*
X4288790Y8121395D01*
X4288790Y8117839D01*
X4285234Y8110473D01*
X4274311Y8106918D01*
X4263390Y8106918D01*
X4252468Y8110473D01*
X4248911Y8117839D01*
X4312920Y8157971D02*
G01*
X4312920Y8081518D01*
X4312920Y8147050D02*
G01*
X4320031Y8154162D01*
X4327397Y8157971D01*
X4338320Y8157971D01*
X4345431Y8154162D01*
X4352797Y8147050D01*
X4356354Y8136128D01*
X4356354Y8128762D01*
X4352797Y8117839D01*
X4345431Y8110473D01*
X4338320Y8106918D01*
X4327397Y8106918D01*
X4320031Y8110473D01*
X4312920Y8117839D01*
X4380484Y8183371D02*
G01*
X4380484Y8106918D01*
X4448047Y8157971D02*
G01*
X4448047Y8106918D01*
X4448047Y8147050D02*
G01*
X4440681Y8154162D01*
X4433570Y8157971D01*
X4422647Y8157971D01*
X4415281Y8154162D01*
X4408170Y8147050D01*
X4404359Y8136128D01*
X4404359Y8128762D01*
X4408170Y8117839D01*
X4415281Y8110473D01*
X4422647Y8106918D01*
X4433570Y8106918D01*
X4440681Y8110473D01*
X4448047Y8117839D01*
X4475734Y8157971D02*
G01*
X4497577Y8106918D01*
X4519422Y8157971D02*
G01*
X4497577Y8106918D01*
X4490211Y8092439D01*
X4483100Y8085073D01*
X4475734Y8081518D01*
X4472177Y8081518D01*
X3886200Y8970771D02*
G01*
X3886200Y8894318D01*
X3937000Y8970771D02*
G01*
X3937000Y8894318D01*
X3886200Y8934450D02*
G01*
X3937000Y8934450D01*
X3961129Y8956294D02*
G01*
X3968495Y8959850D01*
X3979163Y8970771D01*
X3979163Y8894318D01*
X4003293Y8956294D02*
G01*
X4010659Y8959850D01*
X4021581Y8970771D01*
X4021581Y8894318D01*
X4101591Y8970771D02*
G01*
X4101591Y8894318D01*
X4101591Y8970771D02*
G01*
X4134104Y8970771D01*
X4145025Y8967215D01*
X4148836Y8963405D01*
X4152391Y8956294D01*
X4152391Y8945371D01*
X4148836Y8938005D01*
X4145025Y8934450D01*
X4134104Y8930639D01*
X4101591Y8930639D01*
X4176268Y8945371D02*
G01*
X4176268Y8908795D01*
X4180077Y8897874D01*
X4187190Y8894318D01*
X4198111Y8894318D01*
X4205477Y8897874D01*
X4216400Y8908795D01*
X4216400Y8945371D02*
G01*
X4216400Y8894318D01*
X4280408Y8934450D02*
G01*
X4276852Y8941562D01*
X4265929Y8945371D01*
X4255008Y8945371D01*
X4244086Y8941562D01*
X4240275Y8934450D01*
X4244086Y8927084D01*
X4251197Y8923528D01*
X4269486Y8919718D01*
X4276852Y8916162D01*
X4280408Y8908795D01*
X4280408Y8905239D01*
X4276852Y8897874D01*
X4265929Y8894318D01*
X4255008Y8894318D01*
X4244086Y8897874D01*
X4240275Y8905239D01*
X4304284Y8970771D02*
G01*
X4304284Y8894318D01*
X4304284Y8930639D02*
G01*
X4315206Y8941562D01*
X4322572Y8945371D01*
X4333493Y8945371D01*
X4340859Y8941562D01*
X4344415Y8930639D01*
X4344415Y8894318D01*
X4424425Y8970771D02*
G01*
X4424425Y8894318D01*
X4424425Y8970771D02*
G01*
X4457191Y8970771D01*
X4468113Y8967215D01*
X4471670Y8963405D01*
X4475225Y8956294D01*
X4475225Y8948928D01*
X4471670Y8941562D01*
X4468113Y8938005D01*
X4457191Y8934450D01*
X4424425Y8934450D02*
G01*
X4457191Y8934450D01*
X4468113Y8930639D01*
X4471670Y8927084D01*
X4475225Y8919718D01*
X4475225Y8908795D01*
X4471670Y8901684D01*
X4468113Y8897874D01*
X4457191Y8894318D01*
X4424425Y8894318D01*
X4499356Y8945371D02*
G01*
X4499356Y8908795D01*
X4502911Y8897874D01*
X4510277Y8894318D01*
X4521200Y8894318D01*
X4528311Y8897874D01*
X4539234Y8908795D01*
X4539234Y8945371D02*
G01*
X4539234Y8894318D01*
X4574286Y8970771D02*
G01*
X4574286Y8908795D01*
X4577841Y8897874D01*
X4585208Y8894318D01*
X4592320Y8894318D01*
X4563363Y8945371D02*
G01*
X4588763Y8945371D01*
X4627372Y8970771D02*
G01*
X4627372Y8908795D01*
X4630927Y8897874D01*
X4638293Y8894318D01*
X4645406Y8894318D01*
X4616450Y8945371D02*
G01*
X4641850Y8945371D01*
X4687570Y8945371D02*
G01*
X4680458Y8941562D01*
X4673091Y8934450D01*
X4669536Y8923528D01*
X4669536Y8916162D01*
X4673091Y8905239D01*
X4680458Y8897874D01*
X4687570Y8894318D01*
X4698491Y8894318D01*
X4705858Y8897874D01*
X4713224Y8905239D01*
X4716779Y8916162D01*
X4716779Y8923528D01*
X4713224Y8934450D01*
X4705858Y8941562D01*
X4698491Y8945371D01*
X4687570Y8945371D01*
X4740656Y8945371D02*
G01*
X4740656Y8894318D01*
X4740656Y8930639D02*
G01*
X4751577Y8941562D01*
X4758943Y8945371D01*
X4769865Y8945371D01*
X4777231Y8941562D01*
X4780788Y8930639D01*
X4780788Y8894318D01*
X4991100Y8627871D02*
G01*
X4991100Y8551418D01*
X5041900Y8627871D02*
G01*
X5041900Y8551418D01*
X4991100Y8591550D02*
G01*
X5041900Y8591550D01*
X5066029Y8613394D02*
G01*
X5073395Y8616950D01*
X5084063Y8627871D01*
X5084063Y8551418D01*
X5111750Y8609584D02*
G01*
X5111750Y8613394D01*
X5115559Y8620505D01*
X5119115Y8624315D01*
X5126481Y8627871D01*
X5140959Y8627871D01*
X5148072Y8624315D01*
X5151881Y8620505D01*
X5155438Y8613394D01*
X5155438Y8606028D01*
X5151881Y8598662D01*
X5144515Y8587739D01*
X5108193Y8551418D01*
X5158993Y8551418D01*
X5239004Y8627871D02*
G01*
X5239004Y8551418D01*
X5266690Y8609584D02*
G01*
X5266690Y8613394D01*
X5270245Y8620505D01*
X5274056Y8624315D01*
X5281168Y8627871D01*
X5295900Y8627871D01*
X5303011Y8624315D01*
X5306822Y8620505D01*
X5310377Y8613394D01*
X5310377Y8606028D01*
X5306822Y8598662D01*
X5299456Y8587739D01*
X5263134Y8551418D01*
X5313934Y8551418D01*
X5392674Y8609584D02*
G01*
X5388863Y8616950D01*
X5381752Y8624315D01*
X5374386Y8627871D01*
X5359908Y8627871D01*
X5352541Y8624315D01*
X5345175Y8616950D01*
X5341620Y8609584D01*
X5338063Y8598662D01*
X5338063Y8580628D01*
X5341620Y8569705D01*
X5345175Y8562339D01*
X5352541Y8554974D01*
X5359908Y8551418D01*
X5374386Y8551418D01*
X5381752Y8554974D01*
X5388863Y8562339D01*
X5392674Y8569705D01*
X5472429Y8627871D02*
G01*
X5472429Y8551418D01*
X5472429Y8627871D02*
G01*
X5505195Y8627871D01*
X5516118Y8624315D01*
X5519927Y8620505D01*
X5523484Y8613394D01*
X5523484Y8602471D01*
X5519927Y8595105D01*
X5516118Y8591550D01*
X5505195Y8587739D01*
X5472429Y8587739D01*
X5565647Y8602471D02*
G01*
X5558281Y8598662D01*
X5551170Y8591550D01*
X5547359Y8580628D01*
X5547359Y8573262D01*
X5551170Y8562339D01*
X5558281Y8554974D01*
X5565647Y8551418D01*
X5576570Y8551418D01*
X5583936Y8554974D01*
X5591047Y8562339D01*
X5594858Y8573262D01*
X5594858Y8580628D01*
X5591047Y8591550D01*
X5583936Y8598662D01*
X5576570Y8602471D01*
X5565647Y8602471D01*
X5618734Y8602471D02*
G01*
X5618734Y8551418D01*
X5618734Y8580628D02*
G01*
X5622290Y8591550D01*
X5629656Y8598662D01*
X5637022Y8602471D01*
X5647943Y8602471D01*
X5682741Y8627871D02*
G01*
X5682741Y8565895D01*
X5686297Y8554974D01*
X5693663Y8551418D01*
X5701029Y8551418D01*
X5671820Y8602471D02*
G01*
X5697220Y8602471D01*
X5781040Y8627871D02*
G01*
X5781040Y8551418D01*
X5781040Y8627871D02*
G01*
X5813552Y8627871D01*
X5824474Y8624315D01*
X5828284Y8620505D01*
X5831840Y8613394D01*
X5831840Y8606028D01*
X5828284Y8598662D01*
X5824474Y8595105D01*
X5813552Y8591550D01*
X5781040Y8591550D01*
X5806440Y8591550D02*
G01*
X5831840Y8551418D01*
X5881370Y8627871D02*
G01*
X5881370Y8551418D01*
X5855715Y8627871D02*
G01*
X5906770Y8627871D01*
X5985256Y8609584D02*
G01*
X5981700Y8616950D01*
X5974334Y8624315D01*
X5967222Y8627871D01*
X5952490Y8627871D01*
X5945377Y8624315D01*
X5938011Y8616950D01*
X5934456Y8609584D01*
X5930645Y8598662D01*
X5930645Y8580628D01*
X5934456Y8569705D01*
X5938011Y8562339D01*
X5945377Y8554974D01*
X5952490Y8551418D01*
X5967222Y8551418D01*
X5974334Y8554974D01*
X5981700Y8562339D01*
X5985256Y8569705D01*
X4296156Y8419084D02*
G01*
X4296156Y8422894D01*
X4299965Y8430005D01*
X4303522Y8433815D01*
X4310888Y8437371D01*
X4325365Y8437371D01*
X4332477Y8433815D01*
X4336288Y8430005D01*
X4339843Y8422894D01*
X4339843Y8415528D01*
X4336288Y8408162D01*
X4328922Y8397239D01*
X4292600Y8360918D01*
X4343400Y8360918D01*
X4423409Y8437371D02*
G01*
X4423409Y8360918D01*
X4447540Y8411971D02*
G01*
X4447540Y8360918D01*
X4447540Y8397239D02*
G01*
X4458461Y8408162D01*
X4465574Y8411971D01*
X4476495Y8411971D01*
X4483861Y8408162D01*
X4487418Y8397239D01*
X4487418Y8360918D01*
X3911600Y8422894D02*
G01*
X3918965Y8426450D01*
X3929888Y8437371D01*
X3929888Y8360918D01*
X4031488Y8437371D02*
G01*
X4024375Y8433815D01*
X4017009Y8426450D01*
X4013454Y8419084D01*
X4009897Y8408162D01*
X4009897Y8390128D01*
X4013454Y8379205D01*
X4017009Y8371839D01*
X4024375Y8364473D01*
X4031488Y8360918D01*
X4046220Y8360918D01*
X4053331Y8364473D01*
X4060697Y8371839D01*
X4064254Y8379205D01*
X4068063Y8390128D01*
X4068063Y8408162D01*
X4064254Y8419084D01*
X4060697Y8426450D01*
X4053331Y8433815D01*
X4046220Y8437371D01*
X4031488Y8437371D01*
X4091940Y8411971D02*
G01*
X4091940Y8375395D01*
X4095495Y8364473D01*
X4102861Y8360918D01*
X4113784Y8360918D01*
X4121150Y8364473D01*
X4132072Y8375395D01*
X4132072Y8411971D02*
G01*
X4132072Y8360918D01*
X4166870Y8437371D02*
G01*
X4166870Y8375395D01*
X4170425Y8364473D01*
X4177791Y8360918D01*
X4185158Y8360918D01*
X4155947Y8411971D02*
G01*
X4181347Y8411971D01*
D20*
X5461000Y7635494D02*
G01*
X5468365Y7639050D01*
X5479288Y7649971D01*
X5479288Y7573518D01*
X5610097Y7639050D02*
G01*
X5602731Y7646415D01*
X5591809Y7649971D01*
X5577331Y7649971D01*
X5566409Y7646415D01*
X5559297Y7639050D01*
X5559297Y7631684D01*
X5562854Y7624571D01*
X5566409Y7620762D01*
X5573775Y7617205D01*
X5595620Y7609839D01*
X5602731Y7606284D01*
X5606541Y7602728D01*
X5610097Y7595362D01*
X5610097Y7584439D01*
X5602731Y7577073D01*
X5591809Y7573518D01*
X5577331Y7573518D01*
X5566409Y7577073D01*
X5559297Y7584439D01*
X5688584Y7631684D02*
G01*
X5685027Y7639050D01*
X5677661Y7646415D01*
X5670550Y7649971D01*
X5655818Y7649971D01*
X5648706Y7646415D01*
X5641340Y7639050D01*
X5637784Y7631684D01*
X5633974Y7620762D01*
X5633974Y7602728D01*
X5637784Y7591805D01*
X5641340Y7584439D01*
X5648706Y7577073D01*
X5655818Y7573518D01*
X5670550Y7573518D01*
X5677661Y7577073D01*
X5685027Y7584439D01*
X5688584Y7591805D01*
X5712713Y7649971D02*
G01*
X5712713Y7573518D01*
X5712713Y7573518D02*
G01*
X5756147Y7573518D01*
X5464556Y7885684D02*
G01*
X5464556Y7889494D01*
X5468365Y7896605D01*
X5471922Y7900415D01*
X5479288Y7903971D01*
X5493765Y7903971D01*
X5500877Y7900415D01*
X5504688Y7896605D01*
X5508243Y7889494D01*
X5508243Y7882128D01*
X5504688Y7874762D01*
X5497322Y7863839D01*
X5461000Y7827518D01*
X5511800Y7827518D01*
X5642863Y7893050D02*
G01*
X5635497Y7900415D01*
X5624575Y7903971D01*
X5610097Y7903971D01*
X5599175Y7900415D01*
X5591809Y7893050D01*
X5591809Y7885684D01*
X5595620Y7878571D01*
X5599175Y7874762D01*
X5606541Y7871205D01*
X5628386Y7863839D01*
X5635497Y7860284D01*
X5639308Y7856728D01*
X5642863Y7849362D01*
X5642863Y7838439D01*
X5635497Y7831073D01*
X5624575Y7827518D01*
X5610097Y7827518D01*
X5599175Y7831073D01*
X5591809Y7838439D01*
X5666740Y7903971D02*
G01*
X5666740Y7827518D01*
X5666740Y7903971D02*
G01*
X5692393Y7903971D01*
X5703061Y7900415D01*
X5710427Y7893050D01*
X5713984Y7885684D01*
X5717793Y7874762D01*
X5717793Y7856728D01*
X5713984Y7845805D01*
X5710427Y7838439D01*
X5703061Y7831073D01*
X5692393Y7827518D01*
X5666740Y7827518D01*
X5770879Y7903971D02*
G01*
X5741670Y7827518D01*
X5770879Y7903971D02*
G01*
X5799836Y7827518D01*
X5752591Y7852918D02*
G01*
X5788913Y7852918D01*
X5468365Y8157971D02*
G01*
X5508243Y8157971D01*
X5486400Y8128762D01*
X5497322Y8128762D01*
X5504688Y8125205D01*
X5508243Y8121650D01*
X5511800Y8110728D01*
X5511800Y8103362D01*
X5508243Y8092439D01*
X5500877Y8085073D01*
X5490209Y8081518D01*
X5479288Y8081518D01*
X5468365Y8085073D01*
X5464556Y8088884D01*
X5461000Y8095995D01*
X5591809Y8157971D02*
G01*
X5621020Y8081518D01*
X5649975Y8157971D02*
G01*
X5621020Y8081518D01*
X5728715Y8139684D02*
G01*
X5724906Y8147050D01*
X5717793Y8154415D01*
X5710427Y8157971D01*
X5695950Y8157971D01*
X5688584Y8154415D01*
X5681472Y8147050D01*
X5677661Y8139684D01*
X5674106Y8128762D01*
X5674106Y8110728D01*
X5677661Y8099805D01*
X5681472Y8092439D01*
X5688584Y8085073D01*
X5695950Y8081518D01*
X5710427Y8081518D01*
X5717793Y8085073D01*
X5724906Y8092439D01*
X5728715Y8099805D01*
X5807202Y8139684D02*
G01*
X5803645Y8147050D01*
X5796279Y8154415D01*
X5788913Y8157971D01*
X5774436Y8157971D01*
X5767070Y8154415D01*
X5759958Y8147050D01*
X5756147Y8139684D01*
X5752591Y8128762D01*
X5752591Y8110728D01*
X5756147Y8099805D01*
X5759958Y8092439D01*
X5767070Y8085073D01*
X5774436Y8081518D01*
X5788913Y8081518D01*
X5796279Y8085073D01*
X5803645Y8092439D01*
X5807202Y8099805D01*
X5497322Y8411971D02*
G01*
X5461000Y8360918D01*
X5515609Y8360918D01*
X5497322Y8411971D02*
G01*
X5497322Y8335518D01*
X5595620Y8411971D02*
G01*
X5624575Y8335518D01*
X5653786Y8411971D02*
G01*
X5624575Y8335518D01*
X5677661Y8411971D02*
G01*
X5677661Y8335518D01*
X5677661Y8411971D02*
G01*
X5703061Y8411971D01*
X5713984Y8408415D01*
X5721350Y8401050D01*
X5724906Y8393684D01*
X5728715Y8382762D01*
X5728715Y8364728D01*
X5724906Y8353805D01*
X5721350Y8346439D01*
X5713984Y8339073D01*
X5703061Y8335518D01*
X5677661Y8335518D01*
X5752591Y8411971D02*
G01*
X5752591Y8335518D01*
X5752591Y8411971D02*
G01*
X5777991Y8411971D01*
X5788913Y8408415D01*
X5796279Y8401050D01*
X5799836Y8393684D01*
X5803645Y8382762D01*
X5803645Y8364728D01*
X5799836Y8353805D01*
X5796279Y8346439D01*
X5788913Y8339073D01*
X5777991Y8335518D01*
X5752591Y8335518D01*
D21*
X5461000Y7408671D02*
G01*
X5461000Y7332218D01*
X5461000Y7408671D02*
G01*
X5511800Y7332218D01*
X5511800Y7408671D02*
G01*
X5511800Y7332218D01*
X5590540Y7390384D02*
G01*
X5586729Y7397750D01*
X5579618Y7405115D01*
X5572252Y7408671D01*
X5557774Y7408671D01*
X5550408Y7405115D01*
X5543295Y7397750D01*
X5539486Y7390384D01*
X5535929Y7379462D01*
X5535929Y7361428D01*
X5539486Y7350505D01*
X5543295Y7343139D01*
X5550408Y7335773D01*
X5557774Y7332218D01*
X5572252Y7332218D01*
X5579618Y7335773D01*
X5586729Y7343139D01*
X5590540Y7350505D01*
X5448300Y7154671D02*
G01*
X5448300Y7078218D01*
X5448300Y7154671D02*
G01*
X5499100Y7078218D01*
X5499100Y7154671D02*
G01*
X5499100Y7078218D01*
X5577840Y7136384D02*
G01*
X5574029Y7143750D01*
X5566918Y7151115D01*
X5559552Y7154671D01*
X5545074Y7154671D01*
X5537708Y7151115D01*
X5530595Y7143750D01*
X5526786Y7136384D01*
X5523229Y7125462D01*
X5523229Y7107428D01*
X5526786Y7096505D01*
X5530595Y7089139D01*
X5537708Y7081773D01*
X5545074Y7078218D01*
X5559552Y7078218D01*
X5566918Y7081773D01*
X5574029Y7089139D01*
X5577840Y7096505D01*
X3797300Y6657594D02*
G01*
X3804665Y6661150D01*
X3815588Y6672071D01*
X3815588Y6595618D01*
X3895597Y6672071D02*
G01*
X3895597Y6595618D01*
X3895597Y6672071D02*
G01*
X3928109Y6672071D01*
X3939031Y6668515D01*
X3942841Y6664705D01*
X3946397Y6657594D01*
X3946397Y6650228D01*
X3942841Y6642862D01*
X3939031Y6639305D01*
X3928109Y6635750D01*
X3895597Y6635750D01*
X3920997Y6635750D02*
G01*
X3946397Y6595618D01*
X3970274Y6672071D02*
G01*
X4021327Y6595618D01*
X4021327Y6672071D02*
G01*
X3970274Y6595618D01*
X4049013Y6653784D02*
G01*
X4049013Y6657594D01*
X4052570Y6664705D01*
X4056125Y6668515D01*
X4063491Y6672071D01*
X4077970Y6672071D01*
X4085336Y6668515D01*
X4088891Y6664705D01*
X4092447Y6657594D01*
X4092447Y6650228D01*
X4088891Y6642862D01*
X4081779Y6631939D01*
X4045204Y6595618D01*
X4096258Y6595618D01*
X3788156Y6348984D02*
G01*
X3788156Y6352794D01*
X3791965Y6359905D01*
X3795522Y6363715D01*
X3802888Y6367271D01*
X3817365Y6367271D01*
X3824477Y6363715D01*
X3828288Y6359905D01*
X3831843Y6352794D01*
X3831843Y6345428D01*
X3828288Y6338062D01*
X3820922Y6327139D01*
X3784600Y6290818D01*
X3835400Y6290818D01*
X3941063Y6367271D02*
G01*
X3941063Y6290818D01*
X3915409Y6367271D02*
G01*
X3966463Y6367271D01*
X3990340Y6367271D02*
G01*
X4041393Y6290818D01*
X4041393Y6367271D02*
G01*
X3990340Y6290818D01*
X4069079Y6348984D02*
G01*
X4069079Y6352794D01*
X4072636Y6359905D01*
X4076191Y6363715D01*
X4083558Y6367271D01*
X4098036Y6367271D01*
X4105402Y6363715D01*
X4108958Y6359905D01*
X4112513Y6352794D01*
X4112513Y6345428D01*
X4108958Y6338062D01*
X4101591Y6327139D01*
X4065270Y6290818D01*
X4116324Y6290818D01*
X3784600Y5870194D02*
G01*
X3791965Y5873750D01*
X3802888Y5884671D01*
X3802888Y5808218D01*
X3937254Y5866384D02*
G01*
X3933697Y5873750D01*
X3926331Y5881115D01*
X3919220Y5884671D01*
X3904488Y5884671D01*
X3897375Y5881115D01*
X3890009Y5873750D01*
X3886454Y5866384D01*
X3882897Y5855462D01*
X3882897Y5837428D01*
X3886454Y5826505D01*
X3890009Y5819139D01*
X3897375Y5811773D01*
X3904488Y5808218D01*
X3919220Y5808218D01*
X3926331Y5811773D01*
X3933697Y5819139D01*
X3937254Y5826505D01*
X3961384Y5884671D02*
G01*
X3961384Y5808218D01*
X3985259Y5840984D02*
G01*
X4050791Y5840984D01*
X4074668Y5884671D02*
G01*
X4103877Y5808218D01*
X4133088Y5884671D02*
G01*
X4103877Y5808218D01*
X3788156Y5625084D02*
G01*
X3788156Y5628894D01*
X3791965Y5636005D01*
X3795522Y5639815D01*
X3802888Y5643371D01*
X3817365Y5643371D01*
X3824477Y5639815D01*
X3828288Y5636005D01*
X3831843Y5628894D01*
X3831843Y5621528D01*
X3828288Y5614162D01*
X3820922Y5603239D01*
X3784600Y5566918D01*
X3835400Y5566918D01*
X3970020Y5625084D02*
G01*
X3966463Y5632450D01*
X3959097Y5639815D01*
X3951986Y5643371D01*
X3937254Y5643371D01*
X3930141Y5639815D01*
X3922775Y5632450D01*
X3919220Y5625084D01*
X3915409Y5614162D01*
X3915409Y5596128D01*
X3919220Y5585205D01*
X3922775Y5577839D01*
X3930141Y5570473D01*
X3937254Y5566918D01*
X3951986Y5566918D01*
X3959097Y5570473D01*
X3966463Y5577839D01*
X3970020Y5585205D01*
X3970020Y5596128D01*
X3951986Y5596128D02*
G01*
X3970020Y5596128D01*
X3994150Y5643371D02*
G01*
X3994150Y5566918D01*
X3994150Y5643371D02*
G01*
X4044950Y5566918D01*
X4044950Y5643371D02*
G01*
X4044950Y5566918D01*
X4069079Y5643371D02*
G01*
X4069079Y5566918D01*
X4069079Y5643371D02*
G01*
X4094479Y5643371D01*
X4105402Y5639815D01*
X4112513Y5632450D01*
X4116324Y5625084D01*
X4119879Y5614162D01*
X4119879Y5596128D01*
X4116324Y5585205D01*
X4112513Y5577839D01*
X4105402Y5570473D01*
X4094479Y5566918D01*
X4069079Y5566918D01*
X3822700Y4866894D02*
G01*
X3830065Y4870450D01*
X3840988Y4881371D01*
X3840988Y4804918D01*
X3826256Y4634484D02*
G01*
X3826256Y4638294D01*
X3830065Y4645405D01*
X3833622Y4649215D01*
X3840988Y4652771D01*
X3855465Y4652771D01*
X3862577Y4649215D01*
X3866388Y4645405D01*
X3869943Y4638294D01*
X3869943Y4630928D01*
X3866388Y4623562D01*
X3859022Y4612639D01*
X3822700Y4576318D01*
X3873500Y4576318D01*
X3830065Y4373371D02*
G01*
X3869943Y4373371D01*
X3848100Y4344162D01*
X3859022Y4344162D01*
X3866388Y4340605D01*
X3869943Y4337050D01*
X3873500Y4326128D01*
X3873500Y4318762D01*
X3869943Y4307839D01*
X3862577Y4300473D01*
X3851909Y4296918D01*
X3840988Y4296918D01*
X3830065Y4300473D01*
X3826256Y4304284D01*
X3822700Y4311395D01*
X3871722Y4093971D02*
G01*
X3835400Y4042918D01*
X3890009Y4042918D01*
X3871722Y4093971D02*
G01*
X3871722Y4017518D01*
X3810000Y3571494D02*
G01*
X3817365Y3575050D01*
X3828288Y3585971D01*
X3828288Y3509518D01*
X3959097Y3575050D02*
G01*
X3951731Y3582415D01*
X3940809Y3585971D01*
X3926331Y3585971D01*
X3915409Y3582415D01*
X3908297Y3575050D01*
X3908297Y3567684D01*
X3911854Y3560571D01*
X3915409Y3556762D01*
X3922775Y3553205D01*
X3944620Y3545839D01*
X3951731Y3542284D01*
X3955541Y3538728D01*
X3959097Y3531362D01*
X3959097Y3520439D01*
X3951731Y3513073D01*
X3940809Y3509518D01*
X3926331Y3509518D01*
X3915409Y3513073D01*
X3908297Y3520439D01*
X3982974Y3585971D02*
G01*
X3982974Y3509518D01*
X4034027Y3585971D02*
G01*
X3982974Y3534918D01*
X4001261Y3553205D02*
G01*
X4034027Y3509518D01*
X4112513Y3567684D02*
G01*
X4108958Y3575050D01*
X4101591Y3582415D01*
X4094479Y3585971D01*
X4079747Y3585971D01*
X4072636Y3582415D01*
X4065270Y3575050D01*
X4061713Y3567684D01*
X4057904Y3556762D01*
X4057904Y3538728D01*
X4061713Y3527805D01*
X4065270Y3520439D01*
X4072636Y3513073D01*
X4079747Y3509518D01*
X4094479Y3509518D01*
X4101591Y3513073D01*
X4108958Y3520439D01*
X4112513Y3527805D01*
X3813556Y3313684D02*
G01*
X3813556Y3317494D01*
X3817365Y3324605D01*
X3820922Y3328415D01*
X3828288Y3331971D01*
X3842765Y3331971D01*
X3849877Y3328415D01*
X3853688Y3324605D01*
X3857243Y3317494D01*
X3857243Y3310128D01*
X3853688Y3302762D01*
X3846322Y3291839D01*
X3810000Y3255518D01*
X3860800Y3255518D01*
X3940809Y3331971D02*
G01*
X3940809Y3255518D01*
X3940809Y3331971D02*
G01*
X3970020Y3255518D01*
X3998975Y3331971D02*
G01*
X3970020Y3255518D01*
X3998975Y3331971D02*
G01*
X3998975Y3255518D01*
X4023106Y3331971D02*
G01*
X4023106Y3255518D01*
X4098036Y3321050D02*
G01*
X4090670Y3328415D01*
X4079747Y3331971D01*
X4065270Y3331971D01*
X4054347Y3328415D01*
X4046981Y3321050D01*
X4046981Y3313684D01*
X4050791Y3306571D01*
X4054347Y3302762D01*
X4061713Y3299205D01*
X4083558Y3291839D01*
X4090670Y3288284D01*
X4094479Y3284728D01*
X4098036Y3277362D01*
X4098036Y3266439D01*
X4090670Y3259073D01*
X4079747Y3255518D01*
X4065270Y3255518D01*
X4054347Y3259073D01*
X4046981Y3266439D01*
X4143756Y3331971D02*
G01*
X4136643Y3328415D01*
X4129277Y3321050D01*
X4125722Y3313684D01*
X4121911Y3302762D01*
X4121911Y3284728D01*
X4125722Y3273805D01*
X4129277Y3266439D01*
X4136643Y3259073D01*
X4143756Y3255518D01*
X4158488Y3255518D01*
X4165600Y3259073D01*
X4172965Y3266439D01*
X4176522Y3273805D01*
X4180077Y3284728D01*
X4180077Y3302762D01*
X4176522Y3313684D01*
X4172965Y3321050D01*
X4165600Y3328415D01*
X4158488Y3331971D01*
X4143756Y3331971D01*
X3817365Y3090671D02*
G01*
X3857243Y3090671D01*
X3835400Y3061462D01*
X3846322Y3061462D01*
X3853688Y3057905D01*
X3857243Y3054350D01*
X3860800Y3043428D01*
X3860800Y3036062D01*
X3857243Y3025139D01*
X3849877Y3017773D01*
X3839209Y3014218D01*
X3828288Y3014218D01*
X3817365Y3017773D01*
X3813556Y3021584D01*
X3810000Y3028695D01*
X3940809Y3090671D02*
G01*
X3940809Y3014218D01*
X3940809Y3090671D02*
G01*
X3970020Y3014218D01*
X3998975Y3090671D02*
G01*
X3970020Y3014218D01*
X3998975Y3090671D02*
G01*
X3998975Y3014218D01*
X4044950Y3090671D02*
G01*
X4037584Y3087115D01*
X4030472Y3079750D01*
X4026661Y3072384D01*
X4023106Y3061462D01*
X4023106Y3043428D01*
X4026661Y3032505D01*
X4030472Y3025139D01*
X4037584Y3017773D01*
X4044950Y3014218D01*
X4059427Y3014218D01*
X4066793Y3017773D01*
X4073906Y3025139D01*
X4077715Y3032505D01*
X4081272Y3043428D01*
X4081272Y3061462D01*
X4077715Y3072384D01*
X4073906Y3079750D01*
X4066793Y3087115D01*
X4059427Y3090671D01*
X4044950Y3090671D01*
X4156202Y3079750D02*
G01*
X4148836Y3087115D01*
X4137913Y3090671D01*
X4123436Y3090671D01*
X4112513Y3087115D01*
X4105147Y3079750D01*
X4105147Y3072384D01*
X4108958Y3065271D01*
X4112513Y3061462D01*
X4119879Y3057905D01*
X4141724Y3050539D01*
X4148836Y3046984D01*
X4152645Y3043428D01*
X4156202Y3036062D01*
X4156202Y3025139D01*
X4148836Y3017773D01*
X4137913Y3014218D01*
X4123436Y3014218D01*
X4112513Y3017773D01*
X4105147Y3025139D01*
X4180077Y3090671D02*
G01*
X4180077Y3014218D01*
X3859022Y2836671D02*
G01*
X3822700Y2785618D01*
X3877309Y2785618D01*
X3859022Y2836671D02*
G01*
X3859022Y2760218D01*
X4008120Y2825750D02*
G01*
X4001008Y2833115D01*
X3990086Y2836671D01*
X3975354Y2836671D01*
X3964431Y2833115D01*
X3957320Y2825750D01*
X3957320Y2818384D01*
X3960875Y2811271D01*
X3964431Y2807462D01*
X3971797Y2803905D01*
X3993641Y2796539D01*
X4001008Y2792984D01*
X4004563Y2789428D01*
X4008120Y2782062D01*
X4008120Y2771139D01*
X4001008Y2763773D01*
X3990086Y2760218D01*
X3975354Y2760218D01*
X3964431Y2763773D01*
X3957320Y2771139D01*
X4083050Y2825750D02*
G01*
X4075684Y2833115D01*
X4064761Y2836671D01*
X4050284Y2836671D01*
X4039361Y2833115D01*
X4032250Y2825750D01*
X4032250Y2818384D01*
X4035806Y2811271D01*
X4039361Y2807462D01*
X4046727Y2803905D01*
X4068572Y2796539D01*
X4075684Y2792984D01*
X4079493Y2789428D01*
X4083050Y2782062D01*
X4083050Y2771139D01*
X4075684Y2763773D01*
X4064761Y2760218D01*
X4050284Y2760218D01*
X4039361Y2763773D01*
X4032250Y2771139D01*
D22*
X8981440Y930655D02*
G01*
X8981440Y857757D01*
X9004300Y930655D02*
G01*
X9004300Y857757D01*
X9004300Y930655D02*
G01*
X9052813Y857757D01*
X9052813Y930655D02*
G01*
X9052813Y857757D01*
D19*
X8448040Y1464055D02*
G01*
X8448040Y1391157D01*
X8448040Y1391157D02*
G01*
X8489695Y1391157D01*
X8561070Y1464055D02*
G01*
X8526272Y1391157D01*
X8512556Y1464055D02*
G01*
X8561070Y1464055D01*
X8601202Y1464055D02*
G01*
X8590788Y1460500D01*
X8587231Y1453642D01*
X8587231Y1446529D01*
X8590788Y1439671D01*
X8597645Y1436370D01*
X8611615Y1432813D01*
X8622029Y1429257D01*
X8628888Y1422400D01*
X8632190Y1415542D01*
X8632190Y1405128D01*
X8628888Y1398270D01*
X8625331Y1394713D01*
X8614918Y1391157D01*
X8601202Y1391157D01*
X8590788Y1394713D01*
X8587231Y1398270D01*
X8583929Y1405128D01*
X8583929Y1415542D01*
X8587231Y1422400D01*
X8594090Y1429257D01*
X8604504Y1432813D01*
X8618474Y1436370D01*
X8625331Y1439671D01*
X8628888Y1446529D01*
X8628888Y1453642D01*
X8625331Y1460500D01*
X8614918Y1464055D01*
X8601202Y1464055D01*
X8655050Y1450086D02*
G01*
X8662161Y1453642D01*
X8672575Y1464055D01*
X8672575Y1391157D01*
X8698738Y1446529D02*
G01*
X8698738Y1450086D01*
X8702293Y1456944D01*
X8705850Y1460500D01*
X8712708Y1464055D01*
X8726424Y1464055D01*
X8733536Y1460500D01*
X8736838Y1456944D01*
X8740393Y1450086D01*
X8740393Y1443228D01*
X8736838Y1436370D01*
X8729979Y1425955D01*
X8695436Y1391157D01*
X8743950Y1391157D01*
X8818625Y1446529D02*
G01*
X8815070Y1453642D01*
X8808211Y1460500D01*
X8801354Y1464055D01*
X8787384Y1464055D01*
X8780525Y1460500D01*
X8773668Y1453642D01*
X8770111Y1446529D01*
X8766809Y1436370D01*
X8766809Y1418844D01*
X8770111Y1408429D01*
X8773668Y1401571D01*
X8780525Y1394713D01*
X8787384Y1391157D01*
X8801354Y1391157D01*
X8808211Y1394713D01*
X8815070Y1401571D01*
X8818625Y1408429D01*
X8841486Y1464055D02*
G01*
X8869172Y1391157D01*
X8896858Y1464055D02*
G01*
X8869172Y1391157D01*
D23*
X9305543Y5109971D02*
G01*
X9294622Y5106415D01*
X9287256Y5095494D01*
X9283700Y5077205D01*
X9283700Y5066284D01*
X9287256Y5047995D01*
X9294622Y5037073D01*
X9305543Y5033518D01*
X9312909Y5033518D01*
X9323577Y5037073D01*
X9330943Y5047995D01*
X9334500Y5066284D01*
X9334500Y5077205D01*
X9330943Y5095494D01*
X9323577Y5106415D01*
X9312909Y5109971D01*
X9305543Y5109971D01*
X9362186Y5051805D02*
G01*
X9358629Y5047995D01*
X9362186Y5044439D01*
X9365995Y5047995D01*
X9362186Y5051805D01*
X9389872Y5095494D02*
G01*
X9397238Y5099050D01*
X9408159Y5109971D01*
X9408159Y5033518D01*
X9432036Y5084571D02*
G01*
X9432036Y5047995D01*
X9435591Y5037073D01*
X9442958Y5033518D01*
X9453879Y5033518D01*
X9461245Y5037073D01*
X9472168Y5047995D01*
X9472168Y5084571D02*
G01*
X9472168Y5033518D01*
X9496043Y5109971D02*
G01*
X9496043Y5033518D01*
X9496043Y5109971D02*
G01*
X9543288Y5109971D01*
X9496043Y5073650D02*
G01*
X9525254Y5073650D01*
X8238743Y2061971D02*
G01*
X8227822Y2058415D01*
X8220456Y2047494D01*
X8216900Y2029205D01*
X8216900Y2018284D01*
X8220456Y1999995D01*
X8227822Y1989073D01*
X8238743Y1985518D01*
X8246109Y1985518D01*
X8256777Y1989073D01*
X8264143Y1999995D01*
X8267700Y2018284D01*
X8267700Y2029205D01*
X8264143Y2047494D01*
X8256777Y2058415D01*
X8246109Y2061971D01*
X8238743Y2061971D01*
X8295386Y2003805D02*
G01*
X8291829Y1999995D01*
X8295386Y1996439D01*
X8299195Y1999995D01*
X8295386Y2003805D01*
X8359393Y2061971D02*
G01*
X8323072Y2010918D01*
X8377681Y2010918D01*
X8359393Y2061971D02*
G01*
X8359393Y1985518D01*
X8452611Y2061971D02*
G01*
X8416290Y1985518D01*
X8401558Y2061971D02*
G01*
X8452611Y2061971D01*
X8476488Y2036571D02*
G01*
X8476488Y1999995D01*
X8480297Y1989073D01*
X8487409Y1985518D01*
X8498331Y1985518D01*
X8505697Y1989073D01*
X8516620Y1999995D01*
X8516620Y2036571D02*
G01*
X8516620Y1985518D01*
X8540495Y2061971D02*
G01*
X8540495Y1985518D01*
X8540495Y2061971D02*
G01*
X8587740Y2061971D01*
X8540495Y2025650D02*
G01*
X8569706Y2025650D01*
D21*
X6293865Y2417571D02*
G01*
X6333743Y2417571D01*
X6311900Y2388362D01*
X6322822Y2388362D01*
X6330188Y2384805D01*
X6333743Y2381250D01*
X6337300Y2370328D01*
X6337300Y2362962D01*
X6333743Y2352039D01*
X6326377Y2344673D01*
X6315709Y2341118D01*
X6304788Y2341118D01*
X6293865Y2344673D01*
X6290056Y2348484D01*
X6286500Y2355595D01*
X6364986Y2399284D02*
G01*
X6364986Y2403094D01*
X6368795Y2410205D01*
X6372352Y2414015D01*
X6379463Y2417571D01*
X6394195Y2417571D01*
X6401308Y2414015D01*
X6405118Y2410205D01*
X6408674Y2403094D01*
X6408674Y2395728D01*
X6405118Y2388362D01*
X6397752Y2377439D01*
X6361429Y2341118D01*
X6412229Y2341118D01*
X6036927Y2417571D02*
G01*
X6076805Y2417571D01*
X6054961Y2388362D01*
X6065883Y2388362D01*
X6073249Y2384805D01*
X6076805Y2381250D01*
X6080361Y2370328D01*
X6080361Y2362962D01*
X6076805Y2352039D01*
X6069439Y2344673D01*
X6058771Y2341118D01*
X6047849Y2341118D01*
X6036927Y2344673D01*
X6033117Y2348484D01*
X6029561Y2355595D01*
X6140813Y2417571D02*
G01*
X6104491Y2366518D01*
X6159101Y2366518D01*
X6140813Y2417571D02*
G01*
X6140813Y2341118D01*
X6040627Y3027171D02*
G01*
X6080506Y3027171D01*
X6058661Y2997962D01*
X6069584Y2997962D01*
X6076950Y2994405D01*
X6080506Y2990850D01*
X6084061Y2979928D01*
X6084061Y2972562D01*
X6080506Y2961639D01*
X6073140Y2954273D01*
X6062472Y2950718D01*
X6051550Y2950718D01*
X6040627Y2954273D01*
X6036818Y2958084D01*
X6033261Y2965195D01*
X6151879Y3027171D02*
G01*
X6115558Y3027171D01*
X6111747Y2994405D01*
X6115558Y2997962D01*
X6126225Y3001771D01*
X6137147Y3001771D01*
X6148070Y2997962D01*
X6155436Y2990850D01*
X6158991Y2979928D01*
X6158991Y2972562D01*
X6155436Y2961639D01*
X6148070Y2954273D01*
X6137147Y2950718D01*
X6126225Y2950718D01*
X6115558Y2954273D01*
X6111747Y2958084D01*
X6108191Y2965195D01*
X5783798Y2417571D02*
G01*
X5823676Y2417571D01*
X5801832Y2388362D01*
X5812754Y2388362D01*
X5820120Y2384805D01*
X5823676Y2381250D01*
X5827232Y2370328D01*
X5827232Y2362962D01*
X5823676Y2352039D01*
X5816310Y2344673D01*
X5805642Y2341118D01*
X5794720Y2341118D01*
X5783798Y2344673D01*
X5779988Y2348484D01*
X5776432Y2355595D01*
X5895050Y2406650D02*
G01*
X5891240Y2414015D01*
X5880318Y2417571D01*
X5873206Y2417571D01*
X5862284Y2414015D01*
X5854918Y2403094D01*
X5851362Y2384805D01*
X5851362Y2366518D01*
X5854918Y2352039D01*
X5862284Y2344673D01*
X5873206Y2341118D01*
X5876762Y2341118D01*
X5887684Y2344673D01*
X5895050Y2352039D01*
X5898606Y2362962D01*
X5898606Y2366518D01*
X5895050Y2377439D01*
X5887684Y2384805D01*
X5876762Y2388362D01*
X5873206Y2388362D01*
X5862284Y2384805D01*
X5854918Y2377439D01*
X5851362Y2366518D01*
X5787390Y3027171D02*
G01*
X5827268Y3027171D01*
X5805424Y2997962D01*
X5816345Y2997962D01*
X5823711Y2994405D01*
X5827268Y2990850D01*
X5830824Y2979928D01*
X5830824Y2972562D01*
X5827268Y2961639D01*
X5819902Y2954273D01*
X5809234Y2950718D01*
X5798311Y2950718D01*
X5787390Y2954273D01*
X5783579Y2958084D01*
X5780024Y2965195D01*
X5905754Y3027171D02*
G01*
X5869431Y2950718D01*
X5854954Y3027171D02*
G01*
X5905754Y3027171D01*
X5530667Y2417571D02*
G01*
X5570545Y2417571D01*
X5548701Y2388362D01*
X5559623Y2388362D01*
X5566989Y2384805D01*
X5570545Y2381250D01*
X5574101Y2370328D01*
X5574101Y2362962D01*
X5570545Y2352039D01*
X5563179Y2344673D01*
X5552511Y2341118D01*
X5541589Y2341118D01*
X5530667Y2344673D01*
X5526857Y2348484D01*
X5523301Y2355595D01*
X5616265Y2417571D02*
G01*
X5605597Y2414015D01*
X5601787Y2406650D01*
X5601787Y2399284D01*
X5605597Y2392171D01*
X5612709Y2388362D01*
X5627187Y2384805D01*
X5638109Y2381250D01*
X5645475Y2373884D01*
X5649031Y2366518D01*
X5649031Y2355595D01*
X5645475Y2348484D01*
X5641919Y2344673D01*
X5630997Y2341118D01*
X5616265Y2341118D01*
X5605597Y2344673D01*
X5601787Y2348484D01*
X5598231Y2355595D01*
X5598231Y2366518D01*
X5601787Y2373884D01*
X5609153Y2381250D01*
X5620075Y2384805D01*
X5634553Y2388362D01*
X5641919Y2392171D01*
X5645475Y2399284D01*
X5645475Y2406650D01*
X5641919Y2414015D01*
X5630997Y2417571D01*
X5616265Y2417571D01*
X5534149Y3027171D02*
G01*
X5574027Y3027171D01*
X5552183Y2997962D01*
X5563105Y2997962D01*
X5570471Y2994405D01*
X5574027Y2990850D01*
X5577583Y2979928D01*
X5577583Y2972562D01*
X5574027Y2961639D01*
X5566661Y2954273D01*
X5555993Y2950718D01*
X5545071Y2950718D01*
X5534149Y2954273D01*
X5530339Y2958084D01*
X5526783Y2965195D01*
X5648957Y3001771D02*
G01*
X5645401Y2990850D01*
X5638035Y2983484D01*
X5627113Y2979928D01*
X5623557Y2979928D01*
X5612635Y2983484D01*
X5605269Y2990850D01*
X5601713Y3001771D01*
X5601713Y3005328D01*
X5605269Y3016250D01*
X5612635Y3023615D01*
X5623557Y3027171D01*
X5627113Y3027171D01*
X5638035Y3023615D01*
X5645401Y3016250D01*
X5648957Y3001771D01*
X5648957Y2983484D01*
X5645401Y2965195D01*
X5638035Y2954273D01*
X5627113Y2950718D01*
X5619747Y2950718D01*
X5609079Y2954273D01*
X5605269Y2961639D01*
X5302686Y2417571D02*
G01*
X5266364Y2366518D01*
X5320974Y2366518D01*
X5302686Y2417571D02*
G01*
X5302686Y2341118D01*
X5366694Y2417571D02*
G01*
X5355772Y2414015D01*
X5348660Y2403094D01*
X5344850Y2384805D01*
X5344850Y2373884D01*
X5348660Y2355595D01*
X5355772Y2344673D01*
X5366694Y2341118D01*
X5374060Y2341118D01*
X5384982Y2344673D01*
X5392094Y2355595D01*
X5395904Y2373884D01*
X5395904Y2384805D01*
X5392094Y2403094D01*
X5384982Y2414015D01*
X5374060Y2417571D01*
X5366694Y2417571D01*
X5309867Y3027171D02*
G01*
X5273545Y2976118D01*
X5328155Y2976118D01*
X5309867Y3027171D02*
G01*
X5309867Y2950718D01*
X5352031Y3012694D02*
G01*
X5359397Y3016250D01*
X5370319Y3027171D01*
X5370319Y2950718D01*
X5045748Y2417571D02*
G01*
X5009426Y2366518D01*
X5064036Y2366518D01*
X5045748Y2417571D02*
G01*
X5045748Y2341118D01*
X5091722Y2399284D02*
G01*
X5091722Y2403094D01*
X5095278Y2410205D01*
X5098834Y2414015D01*
X5106200Y2417571D01*
X5120678Y2417571D01*
X5128044Y2414015D01*
X5131600Y2410205D01*
X5135156Y2403094D01*
X5135156Y2395728D01*
X5131600Y2388362D01*
X5124234Y2377439D01*
X5087912Y2341118D01*
X5138966Y2341118D01*
X4785253Y2417571D02*
G01*
X4748931Y2366518D01*
X4803541Y2366518D01*
X4785253Y2417571D02*
G01*
X4785253Y2341118D01*
X4863739Y2417571D02*
G01*
X4827417Y2366518D01*
X4882027Y2366518D01*
X4863739Y2417571D02*
G01*
X4863739Y2341118D01*
X4532122Y2417571D02*
G01*
X4495800Y2366518D01*
X4550409Y2366518D01*
X4532122Y2417571D02*
G01*
X4532122Y2341118D01*
X4617974Y2406650D02*
G01*
X4614418Y2414015D01*
X4603495Y2417571D01*
X4596129Y2417571D01*
X4585208Y2414015D01*
X4578095Y2403094D01*
X4574286Y2384805D01*
X4574286Y2366518D01*
X4578095Y2352039D01*
X4585208Y2344673D01*
X4596129Y2341118D01*
X4599686Y2341118D01*
X4610608Y2344673D01*
X4617974Y2352039D01*
X4621529Y2362962D01*
X4621529Y2366518D01*
X4617974Y2377439D01*
X4610608Y2384805D01*
X4599686Y2388362D01*
X4596129Y2388362D01*
X4585208Y2384805D01*
X4578095Y2377439D01*
X4574286Y2366518D01*
X4387088Y3357371D02*
G01*
X4350765Y3357371D01*
X4346956Y3324605D01*
X4350765Y3328162D01*
X4361688Y3331971D01*
X4372609Y3331971D01*
X4383277Y3328162D01*
X4390643Y3321050D01*
X4394200Y3310128D01*
X4394200Y3302762D01*
X4390643Y3291839D01*
X4383277Y3284473D01*
X4372609Y3280918D01*
X4361688Y3280918D01*
X4350765Y3284473D01*
X4346956Y3288284D01*
X4343400Y3295395D01*
X4440174Y3357371D02*
G01*
X4429252Y3353815D01*
X4421886Y3342894D01*
X4418329Y3324605D01*
X4418329Y3313684D01*
X4421886Y3295395D01*
X4429252Y3284473D01*
X4440174Y3280918D01*
X4447286Y3280918D01*
X4458208Y3284473D01*
X4465574Y3295395D01*
X4469129Y3313684D01*
X4469129Y3324605D01*
X4465574Y3342894D01*
X4458208Y3353815D01*
X4447286Y3357371D01*
X4440174Y3357371D01*
X4996688Y3344671D02*
G01*
X4960365Y3344671D01*
X4956556Y3311905D01*
X4960365Y3315462D01*
X4971288Y3319271D01*
X4982209Y3319271D01*
X4992877Y3315462D01*
X5000243Y3308350D01*
X5003800Y3297428D01*
X5003800Y3290062D01*
X5000243Y3279139D01*
X4992877Y3271773D01*
X4982209Y3268218D01*
X4971288Y3268218D01*
X4960365Y3271773D01*
X4956556Y3275584D01*
X4953000Y3282695D01*
X5027929Y3330194D02*
G01*
X5035295Y3333750D01*
X5045963Y3344671D01*
X5045963Y3268218D01*
X4387088Y3585971D02*
G01*
X4350765Y3585971D01*
X4346956Y3553205D01*
X4350765Y3556762D01*
X4361688Y3560571D01*
X4372609Y3560571D01*
X4383277Y3556762D01*
X4390643Y3549650D01*
X4394200Y3538728D01*
X4394200Y3531362D01*
X4390643Y3520439D01*
X4383277Y3513073D01*
X4372609Y3509518D01*
X4361688Y3509518D01*
X4350765Y3513073D01*
X4346956Y3516884D01*
X4343400Y3523995D01*
X4421886Y3567684D02*
G01*
X4421886Y3571494D01*
X4425695Y3578605D01*
X4429252Y3582415D01*
X4436363Y3585971D01*
X4451095Y3585971D01*
X4458208Y3582415D01*
X4462018Y3578605D01*
X4465574Y3571494D01*
X4465574Y3564128D01*
X4462018Y3556762D01*
X4454652Y3545839D01*
X4418329Y3509518D01*
X4469129Y3509518D01*
X4996688Y3585971D02*
G01*
X4960365Y3585971D01*
X4956556Y3553205D01*
X4960365Y3556762D01*
X4971288Y3560571D01*
X4982209Y3560571D01*
X4992877Y3556762D01*
X5000243Y3549650D01*
X5003800Y3538728D01*
X5003800Y3531362D01*
X5000243Y3520439D01*
X4992877Y3513073D01*
X4982209Y3509518D01*
X4971288Y3509518D01*
X4960365Y3513073D01*
X4956556Y3516884D01*
X4953000Y3523995D01*
X5035295Y3585971D02*
G01*
X5075174Y3585971D01*
X5053329Y3556762D01*
X5064252Y3556762D01*
X5071618Y3553205D01*
X5075174Y3549650D01*
X5078729Y3538728D01*
X5078729Y3531362D01*
X5075174Y3520439D01*
X5067808Y3513073D01*
X5056886Y3509518D01*
X5045963Y3509518D01*
X5035295Y3513073D01*
X5031486Y3516884D01*
X5027929Y3523995D01*
D10*
X7366718Y4699000D02*
G01*
X7366718Y4685108D01*
X7366718Y5207000D02*
G01*
X7366718Y5220891D01*
X7007994Y4769990D02*
G01*
X7007994Y4374009D01*
X3517900Y1651000D02*
G01*
X3517900Y1623311D01*
X3517900Y2146300D02*
G01*
X3517900Y2186688D01*
X3771900Y1651000D02*
G01*
X3771900Y1623311D01*
X3771900Y2146300D02*
G01*
X3771900Y2186688D01*
X4025900Y1651000D02*
G01*
X4025900Y1623311D01*
X4025900Y2146300D02*
G01*
X4025900Y2186688D01*
X8420097Y1777984D02*
G01*
X8522881Y1777984D01*
X8331197Y1778655D02*
G01*
X8241113Y1778655D01*
X8420097Y1904997D02*
G01*
X8420097Y1650997D01*
X8331197Y1650997D02*
G01*
X8331197Y1904997D01*
X8244840Y1193800D02*
G01*
X8229597Y1193800D01*
X8229597Y838200D01*
X9108440Y838200D01*
X9108440Y1193800D01*
X8244840Y1193800D01*
X8486140Y1193800D02*
G01*
X8333740Y1193800D01*
X8333740Y1270000D01*
X8384540Y1320800D01*
X8968740Y1320800D01*
X9019540Y1270000D01*
X9019540Y1193800D01*
X8917940Y1193800D01*
X9448800Y4825987D02*
G01*
X9551586Y4825987D01*
X9359900Y4826655D02*
G01*
X9269816Y4826655D01*
X9448800Y4952997D02*
G01*
X9448800Y4698997D01*
X9359900Y4698997D02*
G01*
X9359900Y4952997D01*
X9144000Y7226300D02*
G01*
X9144000Y7519583D01*
X9144005Y6731000D02*
G01*
X9144005Y6717121D01*
X8382005Y7988300D02*
G01*
X8382005Y8014878D01*
X8382005Y7493000D02*
G01*
X8382005Y7479121D01*
X8636005Y7734300D02*
G01*
X8636005Y7760878D01*
X8636005Y7239000D02*
G01*
X8636005Y7225121D01*
X8890005Y7480300D02*
G01*
X8890005Y7506878D01*
X8890005Y6985000D02*
G01*
X8890005Y6971121D01*
X8890000Y2921000D02*
G01*
X8890000Y2934883D01*
X8890000Y2159000D02*
G01*
X8890000Y2145116D01*
X9398000Y2921000D02*
G01*
X9398000Y2934883D01*
X9398000Y2159000D02*
G01*
X9398000Y2145116D01*
X7912100Y4064279D02*
G01*
X8014878Y4064279D01*
X7835900Y4063006D02*
G01*
X7733121Y4063006D01*
X7912100Y3949700D02*
G01*
X7912100Y4178300D01*
X7835900Y4178300D02*
G01*
X7835900Y3949700D01*
X8166100Y3556281D02*
G01*
X8268878Y3556281D01*
X8089900Y3555009D02*
G01*
X7987121Y3555009D01*
X8166100Y3441702D02*
G01*
X8166100Y3670302D01*
X8089900Y3670302D02*
G01*
X8089900Y3441702D01*
X8775700Y3302000D02*
G01*
X8749121Y3302000D01*
X9271000Y3302000D02*
G01*
X9284878Y3302000D01*
X8521700Y3810000D02*
G01*
X8495121Y3810000D01*
X9017000Y3810000D02*
G01*
X9030878Y3810000D01*
X7505700Y3810000D02*
G01*
X7479121Y3810000D01*
X8001000Y3810000D02*
G01*
X8014878Y3810000D01*
X7759700Y3289300D02*
G01*
X7733121Y3289300D01*
X8255000Y3289300D02*
G01*
X8268878Y3289300D01*
X8255000Y508002D02*
G01*
X8268883Y508002D01*
X7493000Y508002D02*
G01*
X7479116Y508002D01*
X7873994Y1155700D02*
G01*
X7873994Y1129116D01*
X7873994Y1651000D02*
G01*
X7873994Y1664883D01*
X7619994Y1155700D02*
G01*
X7619994Y1129116D01*
X7619994Y1651000D02*
G01*
X7619994Y1664883D01*
X7365994Y1155700D02*
G01*
X7365994Y1129116D01*
X7365994Y1651000D02*
G01*
X7365994Y1664883D01*
X7111994Y1155700D02*
G01*
X7111994Y1129116D01*
X7111994Y1651000D02*
G01*
X7111994Y1664883D01*
X6857994Y1155700D02*
G01*
X6857994Y1129116D01*
X6857994Y1651000D02*
G01*
X6857994Y1664883D01*
X6477000Y1473200D02*
G01*
X6477000Y1905000D01*
X4165600Y1905000D01*
X4165600Y889000D01*
X6477000Y889000D01*
X6477000Y1320800D01*
X6223000Y5333281D02*
G01*
X6209108Y5333281D01*
X6731000Y5333281D02*
G01*
X6744891Y5333281D01*
X8023720Y4896990D02*
G01*
X8023720Y4501009D01*
X7239000Y8382000D02*
G01*
X7252883Y8382000D01*
X6743700Y8382000D02*
G01*
X6717116Y8382000D01*
G75*
G01*
X7008114Y4770120D02*
G03*
X7008114Y4373880I-149840J-198120D01*
G75*
G01*
X8023840Y4897120D02*
G03*
X8023840Y4500880I-149840J-198120D01*
G75*
G01*
X6477000Y1473200D02*
G03*
X6477000Y1320800I0J-76200D01*
X8890000Y4572000D02*
G01*
X9906000Y4572000D01*
X9906000Y3556000D01*
X8890000Y3556000D01*
X8890000Y4572000D01*
X4318000Y6350000D02*
G01*
X9906000Y6350000D01*
X9906000Y2286000D01*
X4318000Y2286000D01*
X4318000Y6350000D01*
X9512300Y7505700D02*
G01*
X9791700Y7505700D01*
X9791700Y6464300D01*
X9512300Y6464300D01*
X9512300Y7505700D01*
X9518650Y8267700D02*
G01*
X9785350Y8267700D01*
X9785350Y7721600D01*
X9518650Y7721600D01*
X9518650Y8267700D01*
X3937000Y2133600D02*
G01*
X4114800Y2133600D01*
X4114800Y1663700D01*
X3937000Y1663700D01*
X3937000Y2133600D01*
X3683000Y2133600D02*
G01*
X3860800Y2133600D01*
X3860800Y1663700D01*
X3683000Y1663700D01*
X3683000Y2133600D01*
X3429000Y2133600D02*
G01*
X3606800Y2133600D01*
X3606800Y1663700D01*
X3429000Y1663700D01*
X3429000Y2133600D01*
X3416300Y8013700D02*
G01*
X3695700Y8013700D01*
X3695700Y6972300D01*
X3416300Y6972300D01*
X3416300Y8013700D01*
X3422650Y6743700D02*
G01*
X3689350Y6743700D01*
X3689350Y6197600D01*
X3422650Y6197600D01*
X3422650Y6743700D01*
X3422650Y5981700D02*
G01*
X3689350Y5981700D01*
X3689350Y5435600D01*
X3422650Y5435600D01*
X3422650Y5981700D01*
X5092700Y8445500D02*
G01*
X5372100Y8445500D01*
X5372100Y6921500D01*
X5092700Y6921500D01*
X5092700Y8445500D01*
X4851400Y8978900D02*
G01*
X8788400Y8978900D01*
X8788400Y6426200D01*
X4851400Y6426200D01*
X4851400Y8978900D01*
X3924300Y8775700D02*
G01*
X4457700Y8775700D01*
X4457700Y8496300D01*
X3924300Y8496300D01*
X3924300Y8775700D01*
X6748779Y8470900D02*
G01*
X7231379Y8470900D01*
X7231379Y8293100D01*
X6748779Y8293100D01*
X6748779Y8470900D01*
X6229350Y5429250D02*
G01*
X6724650Y5429250D01*
X6724650Y5238750D01*
X6229350Y5238750D01*
X6229350Y5429250D01*
X7270750Y5200650D02*
G01*
X7461250Y5200650D01*
X7461250Y4705350D01*
X7270750Y4705350D01*
X7270750Y5200650D01*
X3416300Y3695700D02*
G01*
X3695700Y3695700D01*
X3695700Y2654300D01*
X3416300Y2654300D01*
X3416300Y3695700D01*
X3416300Y4978400D02*
G01*
X3695700Y4978400D01*
X3695700Y3937000D01*
X3416300Y3937000D01*
X3416300Y4978400D01*
X4191000Y647700D02*
G01*
X6477000Y647700D01*
X6477000Y368300D01*
X4191000Y368300D01*
X4191000Y647700D01*
X6756400Y1651000D02*
G01*
X6959600Y1651000D01*
X6959600Y1155700D01*
X6756400Y1155700D01*
X6756400Y1651000D01*
X7010400Y1651000D02*
G01*
X7213600Y1651000D01*
X7213600Y1155700D01*
X7010400Y1155700D01*
X7010400Y1651000D01*
X7264400Y1651000D02*
G01*
X7467600Y1651000D01*
X7467600Y1155700D01*
X7264400Y1155700D01*
X7264400Y1651000D01*
X7518400Y1651000D02*
G01*
X7721600Y1651000D01*
X7721600Y1155700D01*
X7518400Y1155700D01*
X7518400Y1651000D01*
X7772400Y1651000D02*
G01*
X7975600Y1651000D01*
X7975600Y1155700D01*
X7772400Y1155700D01*
X7772400Y1651000D01*
X6731000Y647700D02*
G01*
X7239000Y647700D01*
X7239000Y368300D01*
X6731000Y368300D01*
X6731000Y647700D01*
X7493000Y609600D02*
G01*
X8255000Y609600D01*
X8255000Y406400D01*
X7493000Y406400D01*
X7493000Y609600D01*
X7759700Y3390900D02*
G01*
X8255000Y3390900D01*
X8255000Y3187700D01*
X7759700Y3187700D01*
X7759700Y3390900D01*
X7505700Y3911600D02*
G01*
X8001000Y3911600D01*
X8001000Y3708400D01*
X7505700Y3708400D01*
X7505700Y3911600D01*
X8521700Y3911600D02*
G01*
X9017000Y3911600D01*
X9017000Y3708400D01*
X8521700Y3708400D01*
X8521700Y3911600D01*
X8775700Y3403600D02*
G01*
X9271000Y3403600D01*
X9271000Y3200400D01*
X8775700Y3200400D01*
X8775700Y3403600D01*
X9296400Y2921000D02*
G01*
X9499600Y2921000D01*
X9499600Y2159000D01*
X9296400Y2159000D01*
X9296400Y2921000D01*
X8788400Y2921000D02*
G01*
X8991600Y2921000D01*
X8991600Y2159000D01*
X8788400Y2159000D01*
X8788400Y2921000D01*
X9531350Y1917700D02*
G01*
X9798050Y1917700D01*
X9798050Y1130300D01*
X9531350Y1130300D01*
X9531350Y1917700D01*
X8788400Y7480300D02*
G01*
X8991600Y7480300D01*
X8991600Y6985000D01*
X8788400Y6985000D01*
X8788400Y7480300D01*
X8534400Y7734300D02*
G01*
X8737600Y7734300D01*
X8737600Y7239000D01*
X8534400Y7239000D01*
X8534400Y7734300D01*
X8280400Y7988300D02*
G01*
X8483600Y7988300D01*
X8483600Y7493000D01*
X8280400Y7493000D01*
X8280400Y7988300D01*
X9042400Y7226300D02*
G01*
X9245600Y7226300D01*
X9245600Y6731000D01*
X9042400Y6731000D01*
X9042400Y7226300D01*
M02*
